<?xml version="1.0" encoding="utf-8"?>
<!-- Generator: Adobe Illustrator 19.2.1, SVG Export Plug-In . SVG Version: 6.00 Build 0)  -->
<svg version="1.1"
	 id="svg2" height="100" width="333.334" xmlns:cc="http://creativecommons.org/ns#" xmlns:dc="http://purl.org/dc/elements/1.1/" xmlns:rdf="http://www.w3.org/1999/02/22-rdf-syntax-ns#" xmlns:svg="http://www.w3.org/2000/svg"
	 xmlns="http://www.w3.org/2000/svg" xmlns:xlink="http://www.w3.org/1999/xlink" x="0px" y="0px" viewBox="0 0 333.3 100"
	 style="enable-background:new 0 0 333.3 100;" xml:space="preserve">
<style type="text/css">
	.st0{fill:#009640;}
	.st1{fill:#FBBC43;}
	.st2{fill:#9D9D9C;}
</style>
<g>
	<path class="st0" d="M59.2,50.9c0-1.7,0-3.4,0-5c0.1-1,0.2-1.9,0.5-2.8c2.4-10.9,8.9-18.2,19.7-21.4c1.8-0.5,3.6-0.7,5.4-1.1
		c2.2,0,4.5,0,6.7,0c1.4,0.3,2.7,0.6,4.1,1c3.8,0.9,7.5,2.3,10.6,4.7c1.2,0.9,1.2,1.2,0.2,2.4c-6.3,7.5-12.6,14.8-18.9,22.3
		c-3.9,4.8-8.6,8.4-14.5,10.3c-2.4,0.8-4.8,1.6-7.3,1.6c-1.1,0-1.8-0.6-1.9-1.8c0-0.4,0-0.7,0-1.1c0.5-4.8,2.2-9.1,4.9-13.1
		c4-5.8,9.4-9.9,15.7-13.1c1.7-0.9,3.6-1.7,5.5-2.6c-0.3,0-0.5,0-0.7,0c-7.5,2.2-14,5.8-19.1,11.8c-3.6,3.9-6.1,8.6-8.4,13.3
		c-0.2,0.5-0.5,1-0.9,1.8c-0.3-1-0.6-1.7-0.8-2.4C59.8,54.1,59.5,52.5,59.2,50.9z"/>
	<path class="st0" d="M84.9,78.4c-1.7-0.3-3.4-0.5-5-1c-2.9-0.7-5.7-1.8-8.1-3.7c-1.9-1.5-1.9-1.9,0.4-2.8c6.7-2.7,13-6.1,18.5-10.8
		c4.1-3.6,7.6-7.8,10.5-12.4c2.4-3.7,5.3-7,8.8-9.7c0.7-0.6,1.6-1.1,2.5-1.4c1.2-0.5,2.2-0.1,2.7,1.1c0.5,1.4,0.9,2.9,1,4.3
		c0.6,7.1-2.4,12.7-7.3,17.5c-3.4,3.3-7.4,5.5-11.7,7.3c-0.4,0.2-0.7,0.3-1.1,0.6c6-1.5,11.2-4.3,15.3-9c4.1-4.8,5.7-10.5,5.8-16.7
		c0.1,0,0.2,0,0.3,0c0.3,1,0.7,2,0.9,3.1c0.2,0.8,0.2,1.7,0.4,2.6c0,2,0,4,0,6c-0.2,1.2-0.4,2.5-0.7,3.7
		C116,67.7,106.6,76.2,95,77.9c-1.2,0.2-2.5,0.4-3.7,0.6C89.1,78.4,87,78.4,84.9,78.4z"/>
	<g>
		<path class="st1" d="M126.7,33.7v-9.3c0-0.8-0.5-1.2-1.2-1.2s-1.2,0.4-1.2,1.2v9.3h-4V20.4h3.8v1c0.3-0.3,0.7-0.6,1.2-0.8
			c0.5-0.2,1-0.3,1.5-0.3c1.5,0,2.3,0.3,3.1,1.1c0.6,0.6,0.9,1.4,0.9,3v9.4L126.7,33.7L126.7,33.7z"/>
		<path class="st1" d="M135.5,28.1c0,0.9,0,1.9,0.3,2.3c0.2,0.3,0.5,0.5,1,0.5s0.8-0.2,1-0.5c0.1-0.2,0.2-0.6,0.2-0.8h3.9
			c-0.1,1-0.5,2.2-1.4,3.1c-0.9,0.8-2.2,1.1-3.8,1.1c-1.6,0-2.6-0.2-3.7-1.2c-1.5-1.2-1.6-3.7-1.6-5.7s0-4.5,1.6-5.7
			c1.1-0.9,2.4-1.1,3.7-1.1c1.4,0,2.6,0.2,3.7,1.1c1.8,1.6,1.5,4.6,1.6,6.8L135.5,28.1L135.5,28.1z M137.9,23.6
			c-0.2-0.3-0.5-0.5-1-0.5s-0.8,0.2-1,0.5c-0.2,0.3-0.3,1.2-0.3,2h2.6C138.1,24.8,138.1,23.9,137.9,23.6z"/>
		<path class="st1" d="M151.7,37c-0.9,0.7-2.4,1.1-3.8,1.1s-2.8-0.4-3.8-1.1c-1.1-0.8-1.5-1.9-1.5-3h4c0,0.4,0.1,0.7,0.3,1
			c0.2,0.2,0.5,0.3,1,0.3c0.4,0,0.7-0.1,1-0.3c0.2-0.2,0.3-0.5,0.3-0.9v-2.6c-0.3,0.3-0.6,0.6-1,0.7c-0.4,0.2-0.8,0.2-1.4,0.2
			c-1.5,0-2.1-0.2-2.9-1c-1-1-1.3-2.5-1.3-5.1s0.2-4.1,1.3-5.1c0.8-0.7,1.4-1,2.9-1c0.5,0,1.1,0.1,1.5,0.3c0.4,0.2,0.7,0.4,1,0.7
			v-0.8h3.8v13.5C153.2,35.3,152.6,36.3,151.7,37z M149.2,24.3c0-0.4-0.1-0.7-0.4-0.9c-0.2-0.2-0.5-0.3-0.9-0.3
			c-0.5,0-0.8,0.2-1,0.5c-0.3,0.4-0.3,1.7-0.3,2.7c0,1,0,2.3,0.3,2.7c0.2,0.3,0.5,0.5,1,0.5c0.4,0,0.7-0.1,0.9-0.3
			c0.2-0.2,0.3-0.5,0.3-0.9V24.3z"/>
		<path class="st1" d="M163.5,32.3c-1,1.3-2.5,1.6-4.2,1.6c-1.7,0-3.1-0.3-4.2-1.6c-1-1.2-1.1-3.5-1.1-5.3s0.1-4,1.1-5.3
			c1-1.3,2.5-1.6,4.2-1.6c1.7,0,3.1,0.3,4.2,1.6c1,1.2,1.1,3.5,1.1,5.3C164.7,28.8,164.5,31,163.5,32.3z M160.3,19.2h-2.6l2.2-3.6
			h3.1L160.3,19.2z M160.4,23.7c-0.2-0.4-0.7-0.5-1-0.5c-0.4,0-0.8,0.2-1,0.5c-0.3,0.5-0.3,1.9-0.3,3.4s0,2.8,0.3,3.4
			c0.2,0.4,0.7,0.5,1,0.5c0.4,0,0.8-0.2,1-0.5c0.3-0.5,0.3-1.9,0.3-3.4C160.7,25.6,160.7,24.2,160.4,23.7z"/>
		<path class="st1" d="M174.1,32.8c-0.9,0.7-2.1,1-3.6,1c-1.7,0-3.1-0.3-4.2-1.6c-1-1.2-1.1-3.5-1.1-5.3s0.1-4,1.1-5.3
			c1-1.3,2.5-1.6,4.2-1.6c1.4,0,2.6,0.2,3.6,1c1,0.8,1.5,2.1,1.6,3.3h-3.9c0-0.3-0.1-0.6-0.3-0.9c-0.2-0.2-0.5-0.4-1-0.4
			c-0.4,0-0.8,0.2-1,0.5c-0.3,0.5-0.3,1.9-0.3,3.4c0,1.5,0,2.8,0.3,3.4c0.2,0.4,0.7,0.5,1,0.5c0.5,0,0.8-0.2,1-0.5
			c0.2-0.3,0.2-0.6,0.2-0.9h3.9C175.6,30.8,175.1,32.1,174.1,32.8z"/>
		<path class="st1" d="M178.5,19.5c-1.3,0-2.4-0.9-2.4-2c0-1.1,1.1-2,2.4-2s2.4,0.9,2.4,2C180.9,18.6,179.8,19.5,178.5,19.5z
			 M176.5,33.7V20.9h4v12.8H176.5z"/>
		<path class="st1" d="M190.9,32.3c-1,1.3-2.5,1.6-4.2,1.6c-1.7,0-3.1-0.3-4.2-1.6c-1-1.2-1.1-3.5-1.1-5.3s0.1-4,1.1-5.3
			c1-1.3,2.5-1.6,4.2-1.6c1.7,0,3.1,0.3,4.2,1.6c1,1.2,1.1,3.5,1.1,5.3S191.9,31,190.9,32.3z M187.7,23.7c-0.2-0.4-0.7-0.5-1-0.5
			c-0.4,0-0.8,0.2-1,0.5c-0.3,0.5-0.3,1.9-0.3,3.4s0,2.8,0.3,3.4c0.2,0.4,0.7,0.5,1,0.5c0.4,0,0.8-0.2,1-0.5
			c0.3-0.5,0.3-1.9,0.3-3.4C188,25.6,188.1,24.2,187.7,23.7z"/>
		<path class="st1" d="M201.4,32.8c-1,0.9-2.3,1.1-3.7,1.1s-2.9-0.4-3.8-1.2c-0.9-0.8-1.5-1.7-1.5-3h3.9c0,0.4,0.2,0.7,0.4,0.9
			c0.2,0.2,0.6,0.3,1,0.3c0.4,0,0.7,0,1-0.3c0.2-0.2,0.3-0.5,0.3-0.7c0-0.3,0-0.5-0.2-0.7c-0.2-0.2-0.6-0.4-1-0.6l-2.2-0.7
			c-1.1-0.4-1.9-0.9-2.4-1.5c-0.4-0.5-0.5-1.1-0.5-1.9c0-1.5,0.6-2.3,1.5-3.1c0.9-0.8,2.3-1.2,3.8-1.2c1.4,0,2.7,0.4,3.6,1.1
			c0.9,0.7,1.5,1.6,1.5,3h-3.9c0-0.3-0.1-0.6-0.3-0.8c-0.2-0.2-0.6-0.3-0.9-0.3c-0.4,0-0.7,0.1-0.9,0.3c-0.2,0.2-0.3,0.4-0.3,0.7
			c0,0.2,0,0.4,0.2,0.6c0.2,0.2,0.5,0.5,1,0.6l2.2,0.7c1.2,0.4,1.9,0.8,2.4,1.4c0.4,0.5,0.7,1.2,0.7,2.2
			C202.9,31.1,202.2,32.1,201.4,32.8z"/>
		<path class="st1" d="M213.8,33.7v-1c-0.2,0.2-0.8,0.7-1.2,0.8c-0.5,0.2-1,0.3-1.5,0.3c-1.3,0-2.2-0.3-2.9-1.1
			c-1.1-1.1-1.1-3.1-1.1-5.8s0-4.6,1.1-5.8c0.8-0.8,1.7-1.1,2.9-1.1c0.5,0,1.1,0.1,1.5,0.3c0.4,0.2,0.7,0.4,1,0.7v-5.1h4v17.6
			C217.6,33.7,213.8,33.7,213.8,33.7z M213.6,24.3c0-0.4-0.2-0.7-0.4-1c-0.2-0.2-0.6-0.3-0.9-0.3c-0.4,0-0.8,0.2-1,0.5
			c-0.3,0.5-0.3,1.9-0.3,3.4c0,1.5,0,2.8,0.3,3.4c0.2,0.4,0.7,0.5,1,0.5c0.3,0,0.7-0.1,0.9-0.3c0.2-0.2,0.4-0.5,0.4-1V24.3z"/>
		<path class="st1" d="M225.2,33.7v-1.1c-0.3,0.3-0.6,0.6-1,0.9c-0.5,0.3-1,0.4-1.7,0.4c-1.5,0-2.4-0.3-3.2-1.2
			c-0.7-0.7-0.9-1.7-0.9-2.9c0-1.2,0.5-2.2,1.5-2.9c0.8-0.6,1.8-1,3.9-1h1.2v-1.5c0-0.7-0.5-1.2-1.2-1.2c-0.4,0-0.7,0.1-0.9,0.3
			c-0.2,0.2-0.4,0.5-0.4,0.9h-4c0-1.1,0.4-2.1,1.5-2.9c0.8-0.7,2.3-1.2,3.7-1.2c1.4,0,2.7,0.3,3.6,1.1c0.9,0.7,1.5,1.8,1.5,3.3v9.1
			C228.8,33.7,225.2,33.7,225.2,33.7z M225,28.1h-0.7c-0.7,0-1.1,0-1.5,0.3c-0.3,0.2-0.5,0.8-0.5,1.1c0,1,0.5,1.5,1.4,1.5
			c0.7,0,1.3-0.5,1.3-1.5L225,28.1L225,28.1z"/>
	</g>
	<g>
		<path class="st2" d="M139.1,42.9v34h-10.2v-34h-8.6v-7.5h27.4v7.5H139.1z"/>
		<path class="st2" d="M149.6,76.9V35.4h23.5v7.5h-13.3v9.4h11.5v7.5h-11.5v9.7h13.3v7.5H149.6z"/>
		<path class="st2" d="M195.7,76.9l-6.3-16.1h-3.4v16.1h-10.2V35.4h14.5c11.1,0,14.2,4.7,14.2,12.6c0,4.4-0.9,8.4-5.8,10.9l7.5,17.9
			H195.7z M190.4,42.9h-4.3v10.4h4.3c3.9,0,4.1-2.9,4.1-5.2C194.5,45.7,194.3,42.9,190.4,42.9z"/>
		<path class="st2" d="M228.4,76.9l-6.3-16.1h-3.4v16.1h-10.2V35.4h14.5c11.1,0,14.2,4.7,14.2,12.6c0,4.4-0.9,8.4-5.8,10.9l7.5,17.9
			H228.4z M223.1,42.9h-4.3v10.4h4.3c3.9,0,4.1-2.9,4.1-5.2C227.2,45.7,227,42.9,223.1,42.9z"/>
		<path class="st2" d="M263.5,76.9l-1.7-6.5h-11.8l-1.7,6.5h-10.6L251,35.4h10l13.1,41.4H263.5z M256,47.6L252.1,63h7.9L256,47.6z"
			/>
	</g>
</g>
</svg>
