<?xml version="1.0" encoding="utf-8"?>
<!-- Generator: Adobe Illustrator 22.0.1, SVG Export Plug-In . SVG Version: 6.00 Build 0)  -->
<svg version="1.1" id="Camada_1" xmlns="http://www.w3.org/2000/svg" xmlns:xlink="http://www.w3.org/1999/xlink" x="0px" y="0px"
	 viewBox="0 0 278.1 223.3" style="enable-background:new 0 0 278.1 223.3;" xml:space="preserve">
<style type="text/css">
	.st0{fill:#12295F;}
	.st1{fill-rule:evenodd;clip-rule:evenodd;fill:#12295F;}
</style>
<title>redemassavertical</title>
<g>
	<path class="st0" d="M140.4,14.4c1,5.2-22.9,8.3-23.3,4C116.7,14.4,139.5,10,140.4,14.4L140.4,14.4z M159.3,17.1
		c2.1-3.1,24.1,5.8,22.9,11.7C179.9,34.6,155.3,22.9,159.3,17.1L159.3,17.1z M142.7,21.4c6.4-0.6,11.9,1.9,13.3,4.8
		c3.1,7.1-7.1,8.5-11,8.3c-5.8-0.6-10.2-3.3-10.2-7.7C134.8,24.8,137.5,21.9,142.7,21.4L142.7,21.4z M108.7,20.4
		c2.5,3.1-20.6,19.2-22.7,16.3C83.6,33.5,105.6,17.1,108.7,20.4L108.7,20.4z M120,24.2c3.7-0.6,7.9,0,9.4,2.7
		c3.7,8.1-9.4,15-15,15.6c-4.8,0.6-9.2-0.4-10-3.8C102.7,30.4,114.6,25.2,120,24.2L120,24.2z M187.4,33.3c3.1-2.1,15,10.2,12.9,13.6
		C197.6,50.6,183.2,36.7,187.4,33.3L187.4,33.3z M166,35.4c14.8-0.4,28.5,15.6,18.7,25c-9.4,9-28.9-6.5-26-18.6
		C159.5,38.5,162,35.8,166,35.4L166,35.4z M138.7,42.1c4.4,0,11.4,4,9.8,12.5c-0.8,3.8-4.8,6.9-8.9,7.1c-6,0.4-12.3-4.6-10.8-11.9
		C130.4,43.8,135.2,42.1,138.7,42.1L138.7,42.1z M84.2,43.3c5,2.7-5.8,19.6-10.4,17.9C69.4,59,79.2,41.5,84.2,43.3L84.2,43.3z
		 M109.2,46.5c4.4,2.1,7.1,7.5,5.6,14.6c-1.5,7.3-11.4,17.9-22.7,13.6C76.5,68.8,93.6,39,109.2,46.5L109.2,46.5z M209,83.2
		c-9.4,2.7-19.6-29-10.8-31.9C209,47.3,217.1,79.8,209,83.2L209,83.2z M153.7,66.5c6.7,0,14.6,5.6,13.7,14.8
		c-1,6.7-5,11.9-11.4,12.9c-9.4,1.7-17.9-8.6-14.6-18.8C143.3,69.4,148.5,66.5,153.7,66.5L153.7,66.5z M70.3,67.5
		c6.9,0,5.6,31.7-2.1,31.7C61.3,99.2,63.2,67.5,70.3,67.5L70.3,67.5z M121.9,72.1c15-2.3,17.1,19,4.4,21.9
		c-8.1,1.9-15-5.4-13.1-13.6C114.2,76.3,116.9,73,121.9,72.1L121.9,72.1z M182.2,75.2c7.3-1,13.1,6,10.6,15.2
		c-5.4,14.2-21,3.1-16.6-9.8C177.2,77.7,179.5,75.7,182.2,75.2L182.2,75.2z M206.7,112.2c-6.4-1.9-3.3-26.1,3.5-26.1
		C216.9,86.1,214.6,112.2,206.7,112.2L206.7,112.2z M99,94.8c1.5,7.9-4.8,15.6-12.3,10.6c-3.5-2.3-6.4-9.6-3.5-14.8
		C87.5,82.8,97.3,87.1,99,94.8L99,94.8z M170.1,109.4c3.1,12.7-6.2,19.2-11.9,20.4c-12.1,2.9-23.9-6.3-20.2-18.4
		C142.2,96.9,164.9,95.5,170.1,109.4L170.1,109.4z M114.6,101.1c12.1,0.6,18.3,18.1,6.7,24.8c-9.6,5.4-21.4-6-18.1-16.9
		C105,102.6,110,101.1,114.6,101.1L114.6,101.1z M70.5,104.2c6.2-2.9,15,19.6,9.8,22.3C74,127.4,66.3,108,70.5,104.2L70.5,104.2z
		 M198,119.3c-2.3,7.1-10.4,15.2-17.5,11.3c-7.5-4.4,0-19.6,6.2-22.5C195.7,104,200.3,112,198,119.3L198,119.3z M199.3,135.7
		c-3.1-0.6,5.4-16.7,8.9-15.4C210.9,121.3,204.7,135.3,199.3,135.7L199.3,135.7z M109.8,147.4c-6.2,7.7-27.5-11.9-22.7-19
		C92.3,121.8,115.4,138.6,109.8,147.4L109.8,147.4z M133.3,131.6c7.9-1,20,4,16.4,12.5c-4.4,8.8-22.7,7.1-26-0.2
		C120.2,136.6,127.5,132.2,133.3,131.6L133.3,131.6z M168.7,133.2c4.2-0.4,6.2,0.8,7.1,3.8c1.9,8.1-15.6,16.5-19.3,9.2
		C153.7,139.7,163.9,133.6,168.7,133.2L168.7,133.2z M194.5,140.9c2.9,3.5-18.5,18.1-20.6,15.4C172,153.9,192.2,138.2,194.5,140.9
		L194.5,140.9z M130,160.7c-1.2,4.2-21.8-1.7-19.8-6.9C111.4,150.7,131.4,155.5,130,160.7L130,160.7z M161.2,157.4
		c1,4-17.1,8.3-18.5,4.2C141.4,158.2,160.1,153.5,161.2,157.4z"/>
	<g>
		<path class="st1" d="M12.3,195.6c0,0.8,0,1.5,0,2.3c2.6,0,5.2,0,7.7,0c1.9,11.1-9.5,12.2-13.8,7.7c-5.6-5.8-3.5-19.5,1.2-23.1
			c5.2-4,12.2,0.4,12.7,5.6c0.7-0.1,1.7-0.3,2.5-0.5c-1.2-5.5-4.5-9.6-11.2-9.1c-14.8,1.1-14.9,30.4-0.8,31.8
			c4.7,0.5,7.9-0.9,9.9-3.1c0,0.8,0,2.6,0,2.6l2.6,0c0,0,0-10.2,0-14.3C19.4,195.6,15.8,195.6,12.3,195.6z M131.5,181.4
			c-1.9-1.7-5.5-3-8.7-2.6c-8.3,1-11.8,8.6-11,18.1c0.6,7.8,5.4,14.5,13.8,13.5C137.6,209.1,139.2,188.4,131.5,181.4z M127.4,207.5
			c-4.5,1.9-9-0.4-10.9-3.6c-3.8-6.4-2.2-18.9,3.3-21.9c1.1-0.6,2.2-0.8,4.3-0.8c1.9,0,3.9,0.7,5.1,1.6
			C134.8,187.2,135.1,204.2,127.4,207.5z M77.6,201.2c0,4.9-3.5,7.3-8.7,7.3c-4.9,0-8.3-3.1-8.3-7.5v-21.7l-2.8,0.1v21.5
			c0,0,0,9.8,11.1,9.8c11.1,0,11.4-8.2,11.4-9.4c0-1.1,0-22,0-22h-2.7C77.6,179.4,77.6,191.6,77.6,201.2z M49.7,188.1
			c0-9.4-8.7-8.7-8.7-8.7H30v30.8l2.9,0.1v-14.1h8l7.2,14h3.1l-7.6-14.5C43.6,195.7,49.7,194.6,49.7,188.1z M40.8,193.9
			c-0.5,0-8,0-8,0v-12.2h8.1c0,0,6-0.3,6,6S41.3,193.9,40.8,193.9z M99,179.4H88.3v30.9H91v-14.1c0,0,6,0,8.4,0
			c2.5,0,8.5-0.2,8.5-8.5C107.9,179.3,99,179.4,99,179.4z M99,194.1c-0.5,0-8,0-8,0v-12.4h8.1c0,0,6-0.4,6,6.2
			C105.1,194.4,99.5,194.1,99,194.1z"/>
		<g>
			<path class="st0" d="M177.2,182.8c-0.3-2-1.4-3.1-3.3-3.1h-3.8c-1.6,0-2.7,1-3.2,3.1l-3.4,14.8c-0.1,0.5-0.4,0.7-0.7,0.7
				c-0.3,0-0.5-0.2-0.6-0.7l-2.8-14.8c-0.4-2-1.4-3.1-3.1-3.1h-3.9c-1.9,0-3,1.1-3.3,3.3l-3.4,23.4c-0.1,0.8-0.2,1.6-0.2,2.2
				c0,1.3,0.7,1.9,2,1.9c1.4,0,2.1-0.6,2.2-1.8l1.8-18.2c0.1-0.5,0.3-0.7,0.6-0.7c0.3,0,0.5,0.2,0.6,0.7l3.5,16.9
				c0.3,1.5,1.8,2.3,4.6,2.3c2.4,0,3.7-0.8,4-2.4l3.6-16.8c0.1-0.5,0.3-0.7,0.6-0.7c0.4,0,0.6,0.2,0.6,0.7l1.8,17.7
				c0.1,0.5,0.3,1,0.7,1.3c0.4,0.3,0.9,0.5,1.4,0.5h5.1c1.3,0,1.9-0.6,1.9-2c0-0.8,0-1.6-0.1-2.2L177.2,182.8z"/>
			<path class="st0" d="M200.4,182.2c-0.4-1-0.8-1.7-1.2-2.2c-0.7-0.6-1.9-0.9-3.3-0.9c-2.8,0-4.5,1-5.2,3.1l-8.1,24.2
				c-0.3,0.9-0.4,1.6-0.4,2.2c0,1.3,0.7,1.9,2.2,1.9c1.4,0,2.2-0.6,2.6-1.8l2-7c0.3-1.1,1.1-1.6,2.2-1.6h4.4c1,0,1.7,0.5,2,1.6
				l1.8,6.5c0.3,1.2,1.1,1.8,2.2,1.8h5.8c1.2,0,1.9-0.7,1.9-2.2c0-0.7-0.1-1.4-0.3-2L200.4,182.2z M194.9,197.2h-3
				c-1,0-1.5-0.4-1.5-1.3c0-0.2,0.1-0.6,0.2-1.2l1.7-6c0.2-0.8,0.6-1.2,1.1-1.2c0.7,0,1.1,0.4,1.3,1.2l1.4,5.9
				c0.1,0.6,0.2,1.1,0.2,1.3C196.4,196.7,195.9,197.2,194.9,197.2z"/>
			<path class="st0" d="M222,189c-0.7-1.4-1.1-2.5-1.1-3.2c0-0.7,0.2-1.4,0.6-1.8c0.4-0.5,0.9-0.7,1.5-0.7h3.6
				c1.1,0,1.6-0.4,1.6-1.3c0-1.2-0.9-1.9-2.8-2.3c-0.7-0.1-2.1-0.2-4.1-0.2c-6.9,0-10.3,2.3-10.3,7c0,1.7,0.5,3.5,1.5,5.5l5.2,10
				c0.5,1,0.8,2,0.8,2.8c0,1.4-0.8,2-2.5,2h-4.5c-0.4,0-0.8,0.2-1,0.5c-0.3,0.3-0.4,0.7-0.4,1.2c0,0.9,0.4,1.5,1.1,1.7
				c1.1,0.3,3.7,0.4,8,0.4c3,0,5.3-0.4,6.8-1.3c1.7-1,2.6-2.7,2.6-5.2c0-1.9-0.7-4.2-2.1-6.8L222,189z"/>
			<path class="st0" d="M242.8,189c-0.7-1.4-1.1-2.5-1.1-3.2c0-0.7,0.2-1.4,0.6-1.8c0.4-0.5,0.9-0.7,1.5-0.7h3.6
				c1.1,0,1.6-0.4,1.6-1.3c0-1.2-0.9-1.9-2.8-2.3c-0.7-0.1-2.1-0.2-4.1-0.2c-6.9,0-10.3,2.3-10.3,7c0,1.7,0.5,3.5,1.5,5.5l5.2,10
				c0.5,1,0.8,2,0.8,2.8c0,1.4-0.8,2-2.5,2h-4.5c-0.4,0-0.8,0.2-1,0.5c-0.3,0.3-0.4,0.7-0.4,1.2c0,0.9,0.4,1.5,1.1,1.7
				c1.1,0.3,3.7,0.4,8,0.4c3,0,5.3-0.4,6.8-1.3c1.7-1,2.6-2.7,2.6-5.2c0-1.9-0.7-4.2-2.1-6.8L242.8,189z"/>
			<path class="st0" d="M277.7,206l-8.3-23.7c-0.4-1-0.8-1.7-1.2-2.2c-0.7-0.6-1.9-0.9-3.3-0.9c-2.8,0-4.5,1-5.2,3.1l-8.1,24.2
				c-0.3,0.9-0.4,1.6-0.4,2.2c0,1.3,0.7,1.9,2.2,1.9c1.4,0,2.2-0.6,2.6-1.8l2-7c0.3-1.1,1.1-1.6,2.2-1.6h4.4c1,0,1.7,0.5,2,1.6
				l1.8,6.5c0.3,1.2,1.1,1.8,2.2,1.8h5.8c1.2,0,1.9-0.7,1.9-2.2C278,207.2,277.9,206.6,277.7,206z M263.9,197.2h-3
				c-1,0-1.5-0.4-1.5-1.3c0-0.2,0.1-0.6,0.2-1.2l1.7-6c0.2-0.8,0.6-1.2,1.1-1.2c0.7,0,1.1,0.4,1.3,1.2l1.4,5.9
				c0.1,0.6,0.2,1.1,0.2,1.3C265.4,196.7,264.9,197.2,263.9,197.2z"/>
		</g>
	</g>
</g>
</svg>
