<?xml version="1.0" encoding="UTF-8" standalone="no"?>
<svg
   xmlns:dc="http://purl.org/dc/elements/1.1/"
   xmlns:cc="http://creativecommons.org/ns#"
   xmlns:rdf="http://www.w3.org/1999/02/22-rdf-syntax-ns#"
   xmlns:svg="http://www.w3.org/2000/svg"
   xmlns="http://www.w3.org/2000/svg"
   viewBox="0 0 292.5 155.55"
   height="155.55"
   width="292.5"
   xml:space="preserve"
   version="1.1"
   id="svg2"><metadata
     id="metadata8"><rdf:RDF><cc:Work
         rdf:about=""><dc:format>image/svg+xml</dc:format><dc:type
           rdf:resource="http://purl.org/dc/dcmitype/StillImage" /></cc:Work></rdf:RDF></metadata><defs
     id="defs6"><clipPath
       id="clipPath16"
       clipPathUnits="userSpaceOnUse"><path
         id="path18"
         d="m 107.077,116.64 c -15.92,-0.3 -28.571,-11.3 -28.17,-24.5 l 0,0 -1.121,-85.1 7.28,0.15 c 15.9,0.32 29.301,3.95 28.9,17.15 l 0,0 0.381,92.46 -7.27,-0.16 z" /></clipPath><linearGradient
       id="linearGradient24"
       spreadMethod="pad"
       gradientTransform="matrix(-2.1773708,108.86854,-90.360886,-2.1773708,97.225929,3.9353426)"
       gradientUnits="userSpaceOnUse"
       y2="0"
       x2="1"
       y1="0"
       x1="0"><stop
         id="stop26"
         offset="0"
         style="stop-opacity:1;stop-color:#d2232a" /><stop
         id="stop28"
         offset="0.84"
         style="stop-opacity:1;stop-color:#8e1416" /><stop
         id="stop30"
         offset="1"
         style="stop-opacity:1;stop-color:#8e1416" /></linearGradient><clipPath
       id="clipPath38"
       clipPathUnits="userSpaceOnUse"><path
         id="path40"
         d="m 4.336,9.31 15.3,20.23 -19.43,6.5 4.13,-26.73 z" /></clipPath><linearGradient
       id="linearGradient46"
       spreadMethod="pad"
       gradientTransform="matrix(18.455603,16.959202,-16.959202,18.455603,-2.0093403,18.74151)"
       gradientUnits="userSpaceOnUse"
       y2="0"
       x2="1"
       y1="0"
       x1="0"><stop
         id="stop48"
         offset="0"
         style="stop-opacity:1;stop-color:#d2232a" /><stop
         id="stop50"
         offset="0.52"
         style="stop-opacity:1;stop-color:#d2232a" /><stop
         id="stop52"
         offset="0.84"
         style="stop-opacity:1;stop-color:#8e1416" /><stop
         id="stop54"
         offset="1"
         style="stop-opacity:1;stop-color:#8e1416" /></linearGradient><clipPath
       id="clipPath62"
       clipPathUnits="userSpaceOnUse"><path
         id="path64"
         d="M 61.956,110.84 4.336,9.31 17.556,4.06 17.566,4.05 c 14.4,-5.71 31.66,-0.68 38.6,11.24 l 0,0 57.581,101.54 -13.23,5.25 c -4.02,1.598 -8.269,2.355 -12.456,2.355 l 0,0 C 77.287,124.434 66.925,119.424 61.956,110.84" /></clipPath><linearGradient
       id="linearGradient70"
       spreadMethod="pad"
       gradientTransform="matrix(-62.023197,-129.81599,129.81599,-62.023197,90.566986,129.05414)"
       gradientUnits="userSpaceOnUse"
       y2="0"
       x2="1"
       y1="0"
       x1="0"><stop
         id="stop72"
         offset="0"
         style="stop-opacity:1;stop-color:#d2232a" /><stop
         id="stop74"
         offset="0.52"
         style="stop-opacity:1;stop-color:#d2232a" /><stop
         id="stop76"
         offset="0.84"
         style="stop-opacity:1;stop-color:#8e1416" /><stop
         id="stop78"
         offset="1"
         style="stop-opacity:1;stop-color:#8e1416" /></linearGradient><clipPath
       id="clipPath86"
       clipPathUnits="userSpaceOnUse"><path
         id="path88"
         d="m 177.236,115.961 -0.01,0 c -15.96,-0.301 -28.58,-11.231 -28.18,-24.301 l 0,0 -0.43,-82.9 7.28,0.15 c 15.95,0.38 26.951,5.881 26.55,19.001 l 0,0 2.06,88.199 -7.27,-0.149 z" /></clipPath><linearGradient
       id="linearGradient94"
       spreadMethod="pad"
       gradientTransform="matrix(-2.1437988,106.11804,-88.967651,-2.1437988,167.85016,-1.366035)"
       gradientUnits="userSpaceOnUse"
       y2="0"
       x2="1"
       y1="0"
       x1="0"><stop
         id="stop96"
         offset="0"
         style="stop-opacity:1;stop-color:#d2232a" /><stop
         id="stop98"
         offset="0.84"
         style="stop-opacity:1;stop-color:#8e1416" /><stop
         id="stop100"
         offset="1"
         style="stop-opacity:1;stop-color:#8e1416" /></linearGradient><linearGradient
       id="linearGradient116"
       spreadMethod="pad"
       gradientTransform="matrix(-62.087707,-129.951,124.17541,-59.199905,163.05002,127.90617)"
       gradientUnits="userSpaceOnUse"
       y2="0"
       x2="1"
       y1="0"
       x1="0"><stop
         id="stop118"
         offset="0"
         style="stop-opacity:1;stop-color:#d2232a" /><stop
         id="stop120"
         offset="0.52"
         style="stop-opacity:1;stop-color:#d2232a" /><stop
         id="stop122"
         offset="0.84"
         style="stop-opacity:1;stop-color:#8e1416" /><stop
         id="stop124"
         offset="1"
         style="stop-opacity:1;stop-color:#8e1416" /></linearGradient><linearGradient
       id="linearGradient140"
       spreadMethod="pad"
       gradientTransform="matrix(-44.530773,-93.203941,93.203941,-44.530773,212.6972,93.572502)"
       gradientUnits="userSpaceOnUse"
       y2="0"
       x2="1"
       y1="0"
       x1="0"><stop
         id="stop142"
         offset="0"
         style="stop-opacity:1;stop-color:#d2232a" /><stop
         id="stop144"
         offset="0.52"
         style="stop-opacity:1;stop-color:#d2232a" /><stop
         id="stop146"
         offset="0.84"
         style="stop-opacity:1;stop-color:#8e1416" /><stop
         id="stop148"
         offset="1"
         style="stop-opacity:1;stop-color:#8e1416" /></linearGradient></defs><g
     transform="matrix(1.25,0,0,-1.25,0,155.55)"
     id="g10"><g
       id="g12"><g
         clip-path="url(#clipPath16)"
         id="g14"><g
           id="g20"><g
             id="g22"><path
               id="path32"
               style="fill:url(#linearGradient24);stroke:none"
               d="m 107.077,116.64 c -15.92,-0.3 -28.571,-11.3 -28.17,-24.5 l 0,0 -1.121,-85.1 7.28,0.15 c 15.9,0.32 29.301,3.95 28.9,17.15 l 0,0 0.381,92.46 -7.27,-0.16 z" /></g></g></g></g><g
       id="g34"><g
         clip-path="url(#clipPath38)"
         id="g36"><g
           id="g42"><g
             id="g44"><path
               id="path56"
               style="fill:url(#linearGradient46);stroke:none"
               d="m 4.336,9.31 15.3,20.23 -19.43,6.5 4.13,-26.73 z" /></g></g></g></g><g
       id="g58"><g
         clip-path="url(#clipPath62)"
         id="g60"><g
           id="g66"><g
             id="g68"><path
               id="path80"
               style="fill:url(#linearGradient70);stroke:none"
               d="M 61.956,110.84 4.336,9.31 17.556,4.06 17.566,4.05 c 14.4,-5.71 31.66,-0.68 38.6,11.24 l 0,0 57.581,101.54 -13.23,5.25 c -4.02,1.598 -8.269,2.355 -12.456,2.355 l 0,0 C 77.287,124.434 66.925,119.424 61.956,110.84" /></g></g></g></g><g
       id="g82"><g
         clip-path="url(#clipPath86)"
         id="g84"><g
           id="g90"><g
             id="g92"><path
               id="path102"
               style="fill:url(#linearGradient94);stroke:none"
               d="m 177.236,115.961 -0.01,0 c -15.96,-0.301 -28.58,-11.231 -28.18,-24.301 l 0,0 -0.43,-82.9 7.28,0.15 c 15.95,0.38 26.951,5.881 26.55,19.001 l 0,0 2.06,88.199 -7.27,-0.149 z" /></g></g></g></g><g
       id="g104"><g
         id="g106"><g
           id="g112"><g
             id="g114"><path
               id="path126"
               style="fill:url(#linearGradient116);stroke:none"
               d="m 134.787,109.47 -56.6,-102.33 12.569,-5 0,-0.01 C 94.252,0.744 97.947,0.057 101.628,0 l 0,0 0.997,0 c 10.364,0.16 20.447,5.289 25.401,13.87 l 0,0 56.6,102.34 -12.569,5 c -3.656,1.455 -7.527,2.143 -11.371,2.143 l 0,0 c -10.53,0 -20.845,-5.165 -25.899,-13.883" /></g></g></g></g><g
       id="g128"><g
         id="g130"><g
           id="g136"><g
             id="g138"><path
               id="path150"
               style="fill:url(#linearGradient140);stroke:none"
               d="m 185.651,76.41 -39.32,-67.1 11.28,-5.25 -0.009,0.01 c 14.39,-5.711 31.669,-0.681 38.569,11.24 l 0,0 37.301,67.1 -13.22,5.24 c -4.031,1.598 -7.974,2.355 -11.716,2.355 l 0,0 C 198.909,90.004 190.62,84.993 185.651,76.41" /></g></g></g></g></g></svg>