<svg xmlns="http://www.w3.org/2000/svg" xmlns:xlink="http://www.w3.org/1999/xlink" viewBox="0 0 376.63 419.84"><defs><style>.cls-1{fill:none;}.cls-2{fill:#f59c08;}.cls-3{fill:url(#Gradiente_sem_nome_5);}.cls-4{fill:#ef8704;}.cls-5{fill:url(#Gradiente_sem_nome_5-2);}.cls-6{isolation:isolate;}.cls-7{fill:#76b82a;}.cls-8{fill:url(#Gradiente_sem_nome_2);}.cls-9{fill:url(#Gradiente_sem_nome_2-2);}.cls-10{fill:url(#Gradiente_sem_nome_2-3);}.cls-11{fill:url(#Gradiente_sem_nome_2-4);}.cls-12{fill:url(#Gradiente_sem_nome_2-5);}.cls-13{fill:url(#Gradiente_sem_nome_6);}.cls-14{fill:url(#Gradiente_sem_nome_6-2);}.cls-15{fill:url(#Gradiente_sem_nome_6-3);}.cls-16{fill:url(#Gradiente_sem_nome_6-4);}.cls-17{fill:url(#Gradiente_sem_nome_6-5);}.cls-18{opacity:0.4;}.cls-18,.cls-24,.cls-34,.cls-57,.cls-60,.cls-66{mix-blend-mode:multiply;}.cls-19{fill:url(#Gradiente_sem_nome_7);}.cls-20{fill:url(#Gradiente_sem_nome_7-2);}.cls-21{fill:url(#Gradiente_sem_nome_7-3);}.cls-22{fill:url(#Gradiente_sem_nome_7-4);}.cls-23{fill:url(#Gradiente_sem_nome_7-5);}.cls-24{opacity:0.3;}.cls-25{fill:url(#Gradiente_sem_nome_26);}.cls-26{fill:url(#Gradiente_sem_nome_26-2);}.cls-27{fill:url(#Gradiente_sem_nome_26-3);}.cls-28{fill:url(#Gradiente_sem_nome_26-4);}.cls-29{fill:url(#Gradiente_sem_nome_26-5);}.cls-30{fill:url(#Gradiente_sem_nome_2-11);}.cls-31{fill:url(#Gradiente_sem_nome_2-12);}.cls-32{fill:url(#Gradiente_sem_nome_3);}.cls-33,.cls-34{fill:url(#Gradiente_sem_nome_2-13);}.cls-34,.cls-66{opacity:0.35;}.cls-35{fill:url(#Gradiente_sem_nome_2-15);}.cls-36{fill:url(#Gradiente_sem_nome_2-16);}.cls-37{fill:url(#Gradiente_sem_nome_3-2);}.cls-38{fill:url(#Gradiente_sem_nome_2-17);}.cls-39{clip-path:url(#clip-path);}.cls-40{fill:#b1870f;}.cls-41{fill:#b4890f;}.cls-42{fill:#b88b0e;}.cls-43{clip-path:url(#clip-path-2);}.cls-44{clip-path:url(#clip-path-3);}.cls-45{clip-path:url(#clip-path-4);}.cls-46{clip-path:url(#clip-path-5);}.cls-47{clip-path:url(#clip-path-6);}.cls-48{fill:#a37d13;}.cls-49{clip-path:url(#clip-path-7);}.cls-50{clip-path:url(#clip-path-8);}.cls-51{fill:url(#Gradiente_sem_nome_5-3);}.cls-52{clip-path:url(#clip-path-9);}.cls-53{fill:url(#Gradiente_sem_nome_5-4);}.cls-54{fill:url(#Gradiente_sem_nome_5-5);}.cls-55{fill:#f8af07;}.cls-56,.cls-63{opacity:0.8;mix-blend-mode:overlay;}.cls-56{fill:url(#Gradiente_sem_nome_4);}.cls-57{opacity:0.7;}.cls-58{clip-path:url(#clip-path-10);}.cls-59{fill:url(#Gradiente_sem_nome_5-7);}.cls-60{opacity:0.5;}.cls-61{clip-path:url(#clip-path-11);}.cls-62{fill:url(#Gradiente_sem_nome_5-9);}.cls-63{fill:url(#Gradiente_sem_nome_4-2);}.cls-64{fill:#ef7e08;}.cls-65,.cls-66{fill:url(#Gradiente_sem_nome_2-18);}.cls-67{fill:url(#Gradiente_sem_nome_2-20);}.cls-68{fill:url(#Gradiente_sem_nome_2-21);}.cls-69{fill:url(#Gradiente_sem_nome_3-3);}.cls-70{fill:url(#Gradiente_sem_nome_2-22);}</style><linearGradient id="Gradiente_sem_nome_5" x1="198" x2="198" y1="398.79" y2="375.66" gradientTransform="translate(35.62 -114.67) rotate(-7.28)" gradientUnits="userSpaceOnUse"><stop offset=".11" stop-color="#c17726"/><stop offset=".51" stop-color="#f5a42b" stop-opacity="0"/><stop offset=".71" stop-color="#fdc954" stop-opacity="0"/></linearGradient><linearGradient id="Gradiente_sem_nome_5-2" x1="62.83" x2="62.83" y1="387.89" y2="366.59" xlink:href="#Gradiente_sem_nome_5"/><linearGradient id="Gradiente_sem_nome_2" x1="57.7" x2="57.7" y1="379.62" y2="298.64" gradientUnits="userSpaceOnUse"><stop offset="0" stop-color="#582c83"/><stop offset=".51" stop-color="#8c368b"/><stop offset="1" stop-color="#522678"/></linearGradient><linearGradient id="Gradiente_sem_nome_2-2" x1="145.35" x2="145.35" y1="379.62" y2="298.64" xlink:href="#Gradiente_sem_nome_2"/><linearGradient id="Gradiente_sem_nome_2-3" x1="216.44" x2="216.44" y1="381.08" y2="297.18" xlink:href="#Gradiente_sem_nome_2"/><linearGradient id="Gradiente_sem_nome_2-4" x1="277.25" x2="277.25" y1="381.08" y2="297.18" xlink:href="#Gradiente_sem_nome_2"/><linearGradient id="Gradiente_sem_nome_2-5" x1="348.46" x2="348.46" y1="379.62" y2="298.64" xlink:href="#Gradiente_sem_nome_2"/><linearGradient id="Gradiente_sem_nome_6" x1="55.4" x2="55.4" y1="378.47" y2="297.49" gradientUnits="userSpaceOnUse"><stop offset="0" stop-color="#702381"/><stop offset=".23" stop-color="#81368b"/><stop offset=".46" stop-color="#954c97"/><stop offset="1" stop-color="#7a2181"/></linearGradient><linearGradient id="Gradiente_sem_nome_6-2" x1="143.04" x2="143.04" y1="378.47" y2="297.49" xlink:href="#Gradiente_sem_nome_6"/><linearGradient id="Gradiente_sem_nome_6-3" x1="214.14" x2="214.14" y1="379.93" y2="296.03" xlink:href="#Gradiente_sem_nome_6"/><linearGradient id="Gradiente_sem_nome_6-4" x1="274.95" x2="274.95" y1="379.93" y2="296.03" xlink:href="#Gradiente_sem_nome_6"/><linearGradient id="Gradiente_sem_nome_6-5" x1="346.16" x2="346.16" y1="378.47" y2="297.49" xlink:href="#Gradiente_sem_nome_6"/><linearGradient id="Gradiente_sem_nome_7" x1="347.31" x2="347.31" y1="379.62" y2="345.68" gradientUnits="userSpaceOnUse"><stop offset="0" stop-color="#822080"/><stop offset="1" stop-color="#a51c80"/></linearGradient><linearGradient id="Gradiente_sem_nome_7-2" x1="277.57" x2="277.57" y1="381.08" y2="332.84" xlink:href="#Gradiente_sem_nome_7"/><linearGradient id="Gradiente_sem_nome_7-3" x1="215.4" x2="215.4" y1="381.08" y2="324.49" xlink:href="#Gradiente_sem_nome_7"/><linearGradient id="Gradiente_sem_nome_7-4" x1="144.19" x2="144.19" y1="379.62" y2="320.01" xlink:href="#Gradiente_sem_nome_7"/><linearGradient id="Gradiente_sem_nome_7-5" x1="56.55" x2="56.55" y1="379.62" y2="319.1" xlink:href="#Gradiente_sem_nome_7"/><linearGradient id="Gradiente_sem_nome_26" x1="347.31" x2="347.31" y1="379.62" y2="345.68" gradientUnits="userSpaceOnUse"><stop offset="0" stop-color="#95338a"/><stop offset="1" stop-color="#a7368c"/></linearGradient><linearGradient id="Gradiente_sem_nome_26-2" x1="277.57" x2="277.57" y1="381.08" y2="332.84" xlink:href="#Gradiente_sem_nome_26"/><linearGradient id="Gradiente_sem_nome_26-3" x1="215.4" x2="215.4" y1="381.08" y2="324.49" xlink:href="#Gradiente_sem_nome_26"/><linearGradient id="Gradiente_sem_nome_26-4" x1="144.19" x2="144.19" y1="379.62" y2="320.01" xlink:href="#Gradiente_sem_nome_26"/><linearGradient id="Gradiente_sem_nome_26-5" x1="56.55" x2="56.55" y1="379.62" y2="319.1" xlink:href="#Gradiente_sem_nome_26"/><linearGradient id="Gradiente_sem_nome_2-11" x1="198.29" x2="198.29" y1="185.08" y2="19.24" xlink:href="#Gradiente_sem_nome_2"/><linearGradient id="Gradiente_sem_nome_2-12" x1="198.29" x2="198.29" y1="93.4" y2="12.24" xlink:href="#Gradiente_sem_nome_2"/><linearGradient id="Gradiente_sem_nome_3" x1="198.29" x2="198.29" y1="93.4" y2="21.3" gradientUnits="userSpaceOnUse"><stop offset="0" stop-color="#6e368c"/><stop offset=".23" stop-color="#81368b"/><stop offset=".46" stop-color="#a8599e"/><stop offset="1" stop-color="#8c4091"/></linearGradient><linearGradient id="Gradiente_sem_nome_2-13" x1="410.84" x2="410.84" y1="340.98" y2="224.31" gradientTransform="translate(-36.06 -139.15) rotate(10.97)" xlink:href="#Gradiente_sem_nome_2"/><linearGradient id="Gradiente_sem_nome_2-15" x1="376.55" x2="376.55" y1="354.75" y2="210.16" gradientTransform="translate(-36.06 -139.15) rotate(10.97)" xlink:href="#Gradiente_sem_nome_2"/><linearGradient id="Gradiente_sem_nome_2-16" x1="402.6" x2="402.6" y1="351.34" y2="213.15" gradientTransform="translate(-36.06 -139.15) rotate(10.97)" xlink:href="#Gradiente_sem_nome_2"/><linearGradient id="Gradiente_sem_nome_3-2" x1="409.6" x2="371.63" y1="361.05" y2="202.79" gradientTransform="translate(-36.06 -139.15) rotate(10.97)" xlink:href="#Gradiente_sem_nome_3"/><linearGradient id="Gradiente_sem_nome_2-17" x1="387.25" x2="387.25" y1="362.74" y2="201.06" gradientTransform="translate(-46.04 -151.4) rotate(10.97)" xlink:href="#Gradiente_sem_nome_2"/><clipPath id="clip-path" transform="translate(-9.98 -12.24)"><path d="M249.9 71.3l12.58-.47h.36l-12.57.46h-.36z" class="cls-1"/></clipPath><clipPath id="clip-path-2" transform="translate(-9.98 -12.24)"><path d="M248.44 73.62c-.05-1.2.43-2.2 1.08-2.28h.08a2.44 2.44 0 0 1 .67 0c-.7 0-1.24 1.05-1.22 2.3z" class="cls-2"/></clipPath><clipPath id="clip-path-3" transform="translate(-9.98 -12.24)"><path d="M282.06 91.62l14.65 140.25a1 1 0 0 0-.38 0L281.67 91.62a1.68 1.68 0 0 1 .4 0z" class="cls-2"/></clipPath><clipPath id="clip-path-4" transform="translate(-9.98 -12.24)"><path d="M143 262.54l-12.57.46h.62c10.06-.48 17.8-10.37 17.6-22.5l12.57-.47c.2 12.15-7.55 22-17.6 22.5z" class="cls-4"/></clipPath><clipPath id="clip-path-5" transform="translate(-9.98 -12.24)"><path d="M143 76.27l12.57-.46h.43c7.52 0 14.47 5.47 17.43 13.9l-12.57.45c-3-8.42-9.9-13.9-17.43-13.88H143z" class="cls-4"/></clipPath><clipPath id="clip-path-6" transform="translate(-9.98 -12.24)"><path d="M207.6 244.68h-.3.3z" class="cls-1"/></clipPath><clipPath id="clip-path-7" transform="translate(-9.98 -12.24)"><path d="M217.23 229.83l12.57-.46c-2.42 8.78-9 14.7-16.68 15l-12.57.46c7.7-.3 14.25-6.22 16.68-15z" class="cls-4"/></clipPath><clipPath id="clip-path-8" transform="translate(-9.98 -12.24)"><path d="M250.27 71.3l12.57-.45c9.76 0 18 8.93 18.83 20.77l-12.57.46c-.87-11.84-9.1-20.82-18.83-20.77z" class="cls-4"/></clipPath><linearGradient id="Gradiente_sem_nome_5-3" x1="58.6" x2="97.88" y1="289.12" y2="357.16" gradientTransform="translate(25.64 -126.91) rotate(-7.28)" xlink:href="#Gradiente_sem_nome_5"/><clipPath id="clip-path-9" transform="translate(-9.98 -12.24)"><path d="M278.48 256.25l-12.57.46h.32a17.13 17.13 0 0 0 13.08-7.46 22.94 22.94 0 0 0 4.45-16.9l12.57-.45a22.94 22.94 0 0 1-4.45 16.88 17.13 17.13 0 0 1-13.08 7.47z" class="cls-4"/></clipPath><linearGradient id="Gradiente_sem_nome_5-4" x1="174.51" x2="144.12" y1="284.06" y2="367.55" gradientTransform="translate(25.64 -126.91) rotate(-7.28)" xlink:href="#Gradiente_sem_nome_5"/><linearGradient id="Gradiente_sem_nome_5-5" x1="102.46" x2="129.4" y1="300.99" y2="226.97" gradientTransform="translate(25.64 -126.91) rotate(-7.28)" xlink:href="#Gradiente_sem_nome_5"/><linearGradient id="Gradiente_sem_nome_4" x1="147.56" x2="207.01" y1="383.76" y2="220.41" gradientTransform="translate(35.62 -114.67) rotate(-7.28)" gradientUnits="userSpaceOnUse"><stop offset="0" stop-color="#ef7e08"/><stop offset="1" stop-color="#ffcb09"/></linearGradient><clipPath id="clip-path-10" transform="translate(-9.98 -12.24)"><path d="M143 262.54l-12.57.46h.62c10.06-.48 17.8-10.37 17.6-22.5l12.57-.47c.2 12.15-7.55 22-17.6 22.5z" class="cls-5"/></clipPath><linearGradient id="Gradiente_sem_nome_5-7" x1="58.59" x2="58.59" y1="387.89" y2="382.89" xlink:href="#Gradiente_sem_nome_5"/><clipPath id="clip-path-11" transform="translate(-9.98 -12.24)"><path d="M278.48 256.25l-12.57.46h.32a17.13 17.13 0 0 0 13.08-7.46 22.94 22.94 0 0 0 4.45-16.9l12.57-.45a22.94 22.94 0 0 1-4.45 16.88 17.13 17.13 0 0 1-13.08 7.47z" class="cls-3"/></clipPath><linearGradient id="Gradiente_sem_nome_5-9" x1="193.67" x2="193.67" y1="398.79" y2="393.79" xlink:href="#Gradiente_sem_nome_5"/><linearGradient id="Gradiente_sem_nome_4-2" x1="29.25" x2="82.16" y1="332.88" y2="332.88" xlink:href="#Gradiente_sem_nome_4"/><linearGradient id="Gradiente_sem_nome_2-18" x1="1192.88" x2="1192.88" y1="189.38" y2="72.71" gradientTransform="matrix(-.98 .19 .19 .98 1229.23 -139.15)" xlink:href="#Gradiente_sem_nome_2"/><linearGradient id="Gradiente_sem_nome_2-20" x1="1158.59" x2="1158.59" y1="203.16" y2="58.56" gradientTransform="matrix(-.98 .19 .19 .98 1229.23 -139.15)" xlink:href="#Gradiente_sem_nome_2"/><linearGradient id="Gradiente_sem_nome_2-21" x1="1184.64" x2="1184.64" y1="199.74" y2="61.56" gradientTransform="matrix(-.98 .19 .19 .98 1229.23 -139.15)" xlink:href="#Gradiente_sem_nome_2"/><linearGradient id="Gradiente_sem_nome_3-3" x1="1191.64" x2="1153.67" y1="209.46" y2="51.2" gradientTransform="matrix(-.98 .19 .19 .98 1229.23 -139.15)" xlink:href="#Gradiente_sem_nome_3"/><linearGradient id="Gradiente_sem_nome_2-22" x1="1169.29" x2="1169.29" y1="211.14" y2="49.47" gradientTransform="matrix(-.98 .19 .19 .98 1219.25 -151.4)" xlink:href="#Gradiente_sem_nome_2"/></defs><title>massafmvertical</title><g class="cls-6"><g id="Camada_1"><path d="M177.47 384.27a2.22 2.22 0 0 0-2.2-2.6h-20.84a2.22 2.22 0 0 0-2.22 2.22v33.72a2.22 2.22 0 0 0 2.23 2.22h1.5a2.22 2.22 0 0 0 2.22-2.22v-13.66h11.76a2.33 2.33 0 0 0 2.37-2.32 2.24 2.24 0 0 0-2.22-2.2h-11.9v-13.32h17a2.3 2.3 0 0 0 2.32-1.85zM222.47 384.2a2.6 2.6 0 0 0-2.62-2.52h-3.83a2.63 2.63 0 0 0-2.46 1.72s-8.47 20.58-10.44 24.76c-2-4.18-10.44-24.76-10.44-24.76a2.63 2.63 0 0 0-2.46-1.72h-3.85a2.6 2.6 0 0 0-2.62 2.53l-2 32.93a2.62 2.62 0 0 0 2.62 2.72 2.64 2.64 0 0 0 2.72-2.54s0 1.16 1.4-30.3c11.75 28.87 11.75 27.76 11.75 27.76a2.6 2.6 0 0 0 2.44 1.67h.8a2.6 2.6 0 0 0 2.43-1.67s0 1.15 11.73-27.73c1.4 31.47 1.4 30.32 1.4 30.32a2.64 2.64 0 0 0 2.73 2.54 2.62 2.62 0 0 0 2.6-2.73z" class="cls-7"/><path d="M78.87 286.4h-6.15a9.74 9.74 0 0 0-9.1 6.25L47.7 330.53l-15.85-37.77a9.8 9.8 0 0 0-9.16-6.4h-6.12a9.7 9.7 0 0 0-9.75 9.3l-4.52 61.6a9.68 9.68 0 0 0 2.72 7.13 9.9 9.9 0 0 0 17-6.46l1.3-38.6 13.82 35.42a9.7 9.7 0 0 0 9.1 6.2h2.94a9.7 9.7 0 0 0 9.1-6.2l13.9-35.52 1.45 38.8a9.76 9.76 0 1 0 19.5-.85l-4.5-61.33a9.73 9.73 0 0 0-9.76-9.47z" class="cls-8"/><path d="M171.84 351.56a3.13 3.13 0 0 0-.17-.35l-23.73-58.67a9.75 9.75 0 0 0-9.08-6.12h-7a9.74 9.74 0 0 0-9.08 6.13l-24.85 61.4a9.8 9.8 0 1 0 18.2 7.18l5.82-15.07h25.92l5.8 15.08a9.85 9.85 0 0 0 9.15 6.28h.88a9.8 9.8 0 0 0 9.08-13.47zm-30.82-23.43h-12.08l6-15.52z" class="cls-9"/><path d="M226.08 324.16c-5-3.5-11.12-5.44-16.53-7.16-8.28-2.63-13.35-4.45-13.35-8.6a3.68 3.68 0 0 0 0-.47 4 4 0 0 1 1-2.6c3.07-3.56 12.8-4 26.3-.83a8.68 8.68 0 0 0 2 .23 8.56 8.56 0 0 0 2.27-16.83 82 82 0 0 0-20.7-3c-19.22 0-31.15 9.55-31.15 24.93 0 8.84 3.65 15.34 11 19.75 5 3.5 11.12 5.44 16.53 7.16 8.28 2.63 13.35 4.45 13.35 8.6a3.3 3.3 0 0 0 0 .47 4 4 0 0 1-1 2.62c-1.67 1.93-5.4 3-10.5 3a72.12 72.12 0 0 1-15.8-2.16 8.72 8.72 0 0 0-2-.23 8.56 8.56 0 0 0-2.27 16.82 82 82 0 0 0 20.7 3c19.22 0 31.15-9.55 31.15-24.93-.06-8.85-3.67-15.35-11-19.76z" class="cls-10"/><path d="M286.9 324.16c-5-3.5-11.12-5.44-16.54-7.16-8.28-2.63-13.35-4.45-13.35-8.6 0-.1 0-.3 0-.4a3.9 3.9 0 0 1 1.1-2.77c1.7-1.86 5.4-2.9 10.42-2.9a72.07 72.07 0 0 1 15.8 2.17 8.67 8.67 0 0 0 2 .23 8.56 8.56 0 0 0 2.27-16.83 82.06 82.06 0 0 0-20.7-3c-19.23 0-31.16 9.55-31.16 24.93 0 8.84 3.65 15.34 11 19.75 5 3.5 11.1 5.44 16.53 7.16 8.28 2.63 13.35 4.45 13.35 8.6 0 .1 0 .3 0 .4a3.9 3.9 0 0 1-1.08 2.77c-1.7 1.87-5.4 2.9-10.42 2.9a72.12 72.12 0 0 1-15.8-2.16 8.72 8.72 0 0 0-2-.23 8.56 8.56 0 0 0-2.3 16.88 82.06 82.06 0 0 0 20.7 3c19.22 0 31.15-9.55 31.15-24.93 0-8.88-3.65-15.38-10.98-19.8z" class="cls-11"/><path d="M375.9 353.9l-1-2.34a3.12 3.12 0 0 0-.16-.35l-23.72-58.68a9.75 9.75 0 0 0-9.08-6.12h-7a9.75 9.75 0 0 0-9.08 6.12l-24.84 61.4a9.8 9.8 0 1 0 18.2 7.2l5.82-15.1h25.98l5.8 15.1a9.86 9.86 0 0 0 9.15 6.26h.88a9.8 9.8 0 0 0 9.06-13.47zm-31.77-25.78h-12.1l6-15.52z" class="cls-12"/><path d="M76.57 285.25H70.4a9.74 9.74 0 0 0-9.1 6.25l-15.9 37.88-15.85-37.74a9.8 9.8 0 0 0-9.16-6.4h-6.12a9.7 9.7 0 0 0-9.75 9.3L.03 356.1a9.68 9.68 0 0 0 2.72 7.14 9.78 9.78 0 0 0 7.2 3 9.72 9.72 0 0 0 9.74-9.48L21 318.18l13.82 35.38a9.7 9.7 0 0 0 9.1 6.2h2.94a9.7 9.7 0 0 0 9.1-6.2l13.9-35.52 1.45 38.8a9.76 9.76 0 1 0 19.5-.86l-4.5-61.3a9.73 9.73 0 0 0-9.76-9.43z" class="cls-13"/><path d="M169.54 350.4a3.1 3.1 0 0 0-.17-.34l-23.73-58.68a9.75 9.75 0 0 0-9.08-6.12h-7a9.74 9.74 0 0 0-9.08 6.12l-24.85 61.38a9.8 9.8 0 1 0 18.2 7.2l5.82-15.1h25.92l5.8 15.1a9.85 9.85 0 0 0 9.15 6.26h.88a9.8 9.8 0 0 0 9.1-13.46zM138.7 327h-12.06l6-15.52z" class="cls-14"/><path d="M223.78 323c-5-3.5-11.12-5.44-16.53-7.16-8.28-2.63-13.35-4.45-13.35-8.6a3.68 3.68 0 0 0 0-.47 4 4 0 0 1 1-2.6c3.07-3.56 12.8-4 26.3-.83a8.68 8.68 0 0 0 2 .23 8.56 8.56 0 0 0 2.2-16.8 82 82 0 0 0-20.7-3c-19.2 0-31.14 9.54-31.14 24.92 0 8.83 3.65 15.33 11 19.74 5 3.5 11.12 5.44 16.53 7.16 8.27 2.63 13.34 4.45 13.34 8.6a3.3 3.3 0 0 0 0 .47 4 4 0 0 1-1 2.6c-1.67 1.94-5.4 3-10.5 3a72.12 72.12 0 0 1-15.8-2.15 8.73 8.73 0 0 0-2-.23 8.56 8.56 0 0 0-2.23 16.86 82 82 0 0 0 20.7 3c19.23 0 31.16-9.55 31.16-24.93 0-8.9-3.65-15.4-10.98-19.83z" class="cls-15"/><path d="M284.6 323c-5-3.5-11.12-5.44-16.54-7.16-8.28-2.63-13.35-4.45-13.35-8.6 0-.1 0-.3 0-.4a3.9 3.9 0 0 1 1.1-2.77c1.7-1.86 5.4-2.9 10.42-2.9a72.07 72.07 0 0 1 15.8 2.18 8.67 8.67 0 0 0 2 .23 8.56 8.56 0 0 0 2.2-16.82 82.06 82.06 0 0 0-20.7-3c-19.22 0-31.15 9.55-31.15 24.93 0 8.83 3.65 15.33 11 19.74 5 3.5 11.1 5.44 16.53 7.16 8.28 2.63 13.35 4.45 13.35 8.6 0 .1 0 .3 0 .4a3.9 3.9 0 0 1-1.08 2.77c-1.7 1.86-5.4 2.9-10.42 2.9a72.12 72.12 0 0 1-15.8-2.17 8.73 8.73 0 0 0-2-.23 8.56 8.56 0 0 0-2.24 16.9 82.06 82.06 0 0 0 20.7 3c19.23 0 31.16-9.56 31.16-24.94 0-8.9-3.65-15.4-10.97-19.83z" class="cls-16"/><path d="M373.6 352.76l-1-2.35a3.1 3.1 0 0 0-.16-.34l-23.73-58.7a9.75 9.75 0 0 0-9.07-6.1h-7a9.75 9.75 0 0 0-9.08 6.1l-24.8 61.4a9.8 9.8 0 1 0 18.2 7.2l5.82-15.1h25.92l5.8 15.1a9.86 9.86 0 0 0 9.14 6.26h.88a9.8 9.8 0 0 0 9.1-13.46zm-31.77-25.8h-12.08l6-15.5z" class="cls-17"/><g class="cls-18"><path d="M375.9 353.9l-1-2.34a3.12 3.12 0 0 0-.16-.35l-.7-1.75q-35.22-9.2-67.52-16l-7.77 19.3a9.67 9.67 0 0 0 1.87 10.3l.25.25a9.73 9.73 0 0 0 .88.8l.2.15a60.56 60.56 0 0 1 3.82 2.1l.3.12a9.72 9.72 0 0 0 1 .38l.38.12a9.7 9.7 0 0 0 1 .22l.4.06a9.82 9.82 0 0 0 1.35.1 9.73 9.73 0 0 0 4.27-1 9.92 9.92 0 0 0 3.4-2.7 9.7 9.7 0 0 0 1.46-2.57l5.8-15.1h24.07l5.37 13.94a9.5 9.5 0 0 0 .57 1.2l.2.35q.25.38.53.75c.1.12.18.24.27.36a9.83 9.83 0 0 0 .8.86c.15.15.32.28.48.42l.44.35c.2.15.4.3.63.44l.3.18a69 69 0 0 0 5.22 2.3 9.6 9.6 0 0 0 1.93.23h.88a9.8 9.8 0 0 0 9.08-13.47z" class="cls-19"/><path d="M237.3 320.6a22.4 22.4 0 0 0 8 7.88 36.1 36.1 0 0 0 5.66 3.18 77.2 77.2 0 0 0 13.22 5.1c3 1 5.62 1.82 7.7 2.7 2.15 1.28 3.34 2.73 3.34 4.73 0 .1 0 .3 0 .4a3.9 3.9 0 0 1-1.08 2.77c-1.7 1.86-5.4 2.9-10.42 2.9a72.12 72.12 0 0 1-15.8-2.17 8.72 8.72 0 0 0-2-.23 9.38 9.38 0 0 0 0 18 82.06 82.06 0 0 0 20.7 3c19.22 0 31.15-9.55 31.15-24.93a22.57 22.57 0 0 0-3.68-13q-29.68-6.1-56.8-10.34z" class="cls-20"/><path d="M226.08 324.16a36.15 36.15 0 0 0-5.64-3.18 67.76 67.76 0 0 0-11.2-4.5q-18.44-2.47-35.46-4.22c.87 7.06 4.45 12.42 10.76 16.22a36.13 36.13 0 0 0 5.64 3.18 77.24 77.24 0 0 0 13.2 5.1c3 1 5.62 1.82 7.7 2.7 2.15 1.28 3.34 2.73 3.34 4.73a3.3 3.3 0 0 0 0 .47 4 4 0 0 1-1 2.6c-1.67 1.94-5.4 3-10.5 3a72.12 72.12 0 0 1-15.8-2.15 8.72 8.72 0 0 0-2-.23 8.55 8.55 0 0 0-2.66 16.67 8.52 8.52 0 0 0 2.7 1.3 82 82 0 0 0 20.7 3c19.2 0 31.14-9.56 31.14-24.94.02-8.86-3.6-15.36-10.92-19.77z" class="cls-21"/><path d="M171.84 351.56a3.1 3.1 0 0 0-.17-.35l-16.46-40.7c-14.68-1.28-28.47-2.16-41.35-2.74l-18.2 45a9.77 9.77 0 0 0 5.85 12.9 9.8 9.8 0 0 0 14.66-4.55l5.8-15.07h24.06l5.37 13.93a9.83 9.83 0 0 0 5.9 5.7 9.8 9.8 0 0 0 5.53 1.72h.88a9.8 9.8 0 0 0 9.1-13.47zm-42.46-24.6l4.64-12 4.7 12h-9.34z" class="cls-22"/><path d="M54.75 307.1l-8.44 20.1-8.18-19.44c-14.36.7-26 1.76-34.77 2.77L.02 356.1a9.68 9.68 0 0 0 2.73 7.14 9.58 9.58 0 0 0 3.8 2.42 9.93 9.93 0 0 0 5.7 1.72 9.72 9.72 0 0 0 9.77-9.43l1.15-34.25 11.67 29.86a9.7 9.7 0 0 0 5.85 5.64 9.74 9.74 0 0 0 5.54 1.72h2.95a9.7 9.7 0 0 0 9.08-6.2l11.83-30.26 1.22 32.37a9.72 9.72 0 0 0 6.55 8.85 9.76 9.76 0 0 0 15.26-8.55l-3.68-50.15c-12.67-.22-24.23-.14-34.7.13z" class="cls-23"/></g><path d="M78.87 286.4h-6.15a9.74 9.74 0 0 0-9.1 6.25L47.7 330.53l-15.85-37.77a9.8 9.8 0 0 0-9.16-6.4h-6.12a9.7 9.7 0 0 0-9.75 9.3l-4.52 61.6a9.68 9.68 0 0 0 2.72 7.13 9.9 9.9 0 0 0 17-6.46l1.3-38.6 13.82 35.42a9.7 9.7 0 0 0 9.1 6.2h2.94a9.7 9.7 0 0 0 9.1-6.2l13.9-35.52 1.45 38.8a9.76 9.76 0 1 0 19.5-.85l-4.5-61.33a9.73 9.73 0 0 0-9.76-9.47z" class="cls-8"/><path d="M171.84 351.56a3.13 3.13 0 0 0-.17-.35l-23.73-58.67a9.75 9.75 0 0 0-9.08-6.12h-7a9.74 9.74 0 0 0-9.08 6.13l-24.85 61.4a9.8 9.8 0 1 0 18.2 7.18l5.82-15.07h25.92l5.8 15.08a9.85 9.85 0 0 0 9.15 6.28h.88a9.8 9.8 0 0 0 9.08-13.47zm-30.82-23.43h-12.08l6-15.52z" class="cls-9"/><path d="M226.08 324.16c-5-3.5-11.12-5.44-16.53-7.16-8.28-2.63-13.35-4.45-13.35-8.6a3.68 3.68 0 0 0 0-.47 4 4 0 0 1 1-2.6c3.07-3.56 12.8-4 26.3-.83a8.68 8.68 0 0 0 2 .23 8.56 8.56 0 0 0 2.27-16.83 82 82 0 0 0-20.7-3c-19.22 0-31.15 9.55-31.15 24.93 0 8.84 3.65 15.34 11 19.75 5 3.5 11.12 5.44 16.53 7.16 8.28 2.63 13.35 4.45 13.35 8.6a3.3 3.3 0 0 0 0 .47 4 4 0 0 1-1 2.62c-1.67 1.93-5.4 3-10.5 3a72.12 72.12 0 0 1-15.8-2.16 8.72 8.72 0 0 0-2-.23 8.56 8.56 0 0 0-2.27 16.82 82 82 0 0 0 20.7 3c19.22 0 31.15-9.55 31.15-24.93-.06-8.85-3.67-15.35-11-19.76z" class="cls-10"/><path d="M286.9 324.16c-5-3.5-11.12-5.44-16.54-7.16-8.28-2.63-13.35-4.45-13.35-8.6 0-.1 0-.3 0-.4a3.9 3.9 0 0 1 1.1-2.77c1.7-1.86 5.4-2.9 10.42-2.9a72.07 72.07 0 0 1 15.8 2.17 8.67 8.67 0 0 0 2 .23 8.56 8.56 0 0 0 2.27-16.83 82.06 82.06 0 0 0-20.7-3c-19.23 0-31.16 9.55-31.16 24.93 0 8.84 3.65 15.34 11 19.75 5 3.5 11.1 5.44 16.53 7.16 8.28 2.63 13.35 4.45 13.35 8.6 0 .1 0 .3 0 .4a3.9 3.9 0 0 1-1.08 2.77c-1.7 1.87-5.4 2.9-10.42 2.9a72.12 72.12 0 0 1-15.8-2.16 8.72 8.72 0 0 0-2-.23 8.56 8.56 0 0 0-2.3 16.88 82.06 82.06 0 0 0 20.7 3c19.22 0 31.15-9.55 31.15-24.93 0-8.88-3.65-15.38-10.98-19.8z" class="cls-11"/><path d="M375.9 353.9l-1-2.34a3.12 3.12 0 0 0-.16-.35l-23.72-58.68a9.75 9.75 0 0 0-9.08-6.12h-7a9.75 9.75 0 0 0-9.08 6.12l-24.84 61.4a9.8 9.8 0 1 0 18.2 7.2l5.82-15.1h25.98l5.8 15.1a9.86 9.86 0 0 0 9.15 6.26h.88a9.8 9.8 0 0 0 9.06-13.47zm-31.77-25.78h-12.1l6-15.52z" class="cls-12"/><path d="M76.57 285.25H70.4a9.74 9.74 0 0 0-9.1 6.25l-15.9 37.88-15.85-37.74a9.8 9.8 0 0 0-9.16-6.4h-6.12a9.7 9.7 0 0 0-9.75 9.3L.03 356.1a9.68 9.68 0 0 0 2.72 7.14 9.78 9.78 0 0 0 7.2 3 9.72 9.72 0 0 0 9.74-9.48L21 318.18l13.82 35.38a9.7 9.7 0 0 0 9.1 6.2h2.94a9.7 9.7 0 0 0 9.1-6.2l13.9-35.52 1.45 38.8a9.76 9.76 0 1 0 19.5-.86l-4.5-61.3a9.73 9.73 0 0 0-9.76-9.43z" class="cls-13"/><path d="M169.54 350.4a3.1 3.1 0 0 0-.17-.34l-23.73-58.68a9.75 9.75 0 0 0-9.08-6.12h-7a9.74 9.74 0 0 0-9.08 6.12l-24.85 61.38a9.8 9.8 0 1 0 18.2 7.2l5.82-15.1h25.92l5.8 15.1a9.85 9.85 0 0 0 9.15 6.26h.88a9.8 9.8 0 0 0 9.1-13.46zM138.7 327h-12.06l6-15.52z" class="cls-14"/><path d="M223.78 323c-5-3.5-11.12-5.44-16.53-7.16-8.28-2.63-13.35-4.45-13.35-8.6a3.68 3.68 0 0 0 0-.47 4 4 0 0 1 1-2.6c3.07-3.56 12.8-4 26.3-.83a8.68 8.68 0 0 0 2 .23 8.56 8.56 0 0 0 2.2-16.8 82 82 0 0 0-20.7-3c-19.2 0-31.14 9.54-31.14 24.92 0 8.83 3.65 15.33 11 19.74 5 3.5 11.12 5.44 16.53 7.16 8.27 2.63 13.34 4.45 13.34 8.6a3.3 3.3 0 0 0 0 .47 4 4 0 0 1-1 2.6c-1.67 1.94-5.4 3-10.5 3a72.12 72.12 0 0 1-15.8-2.15 8.73 8.73 0 0 0-2-.23 8.56 8.56 0 0 0-2.23 16.86 82 82 0 0 0 20.7 3c19.23 0 31.16-9.55 31.16-24.93 0-8.9-3.65-15.4-10.98-19.83z" class="cls-15"/><path d="M284.6 323c-5-3.5-11.12-5.44-16.54-7.16-8.28-2.63-13.35-4.45-13.35-8.6 0-.1 0-.3 0-.4a3.9 3.9 0 0 1 1.1-2.77c1.7-1.86 5.4-2.9 10.42-2.9a72.07 72.07 0 0 1 15.8 2.18 8.67 8.67 0 0 0 2 .23 8.56 8.56 0 0 0 2.2-16.82 82.06 82.06 0 0 0-20.7-3c-19.22 0-31.15 9.55-31.15 24.93 0 8.83 3.65 15.33 11 19.74 5 3.5 11.1 5.44 16.53 7.16 8.28 2.63 13.35 4.45 13.35 8.6 0 .1 0 .3 0 .4a3.9 3.9 0 0 1-1.08 2.77c-1.7 1.86-5.4 2.9-10.42 2.9a72.12 72.12 0 0 1-15.8-2.17 8.73 8.73 0 0 0-2-.23 8.56 8.56 0 0 0-2.24 16.9 82.06 82.06 0 0 0 20.7 3c19.23 0 31.16-9.56 31.16-24.94 0-8.9-3.65-15.4-10.97-19.83z" class="cls-16"/><path d="M373.6 352.76l-1-2.35a3.1 3.1 0 0 0-.16-.34l-23.73-58.7a9.75 9.75 0 0 0-9.07-6.1h-7a9.75 9.75 0 0 0-9.08 6.1l-24.8 61.4a9.8 9.8 0 1 0 18.2 7.2l5.82-15.1h25.92l5.8 15.1a9.86 9.86 0 0 0 9.14 6.26h.88a9.8 9.8 0 0 0 9.1-13.46zm-31.77-25.8h-12.08l6-15.5z" class="cls-17"/><g class="cls-24"><path d="M375.9 353.9l-1-2.34a3.12 3.12 0 0 0-.16-.35l-.7-1.75q-35.22-9.2-67.52-16l-7.77 19.3a9.67 9.67 0 0 0 1.87 10.3l.25.25a9.73 9.73 0 0 0 .88.8l.2.15a60.56 60.56 0 0 1 3.82 2.1l.3.12a9.72 9.72 0 0 0 1 .38l.38.12a9.7 9.7 0 0 0 1 .22l.4.06a9.82 9.82 0 0 0 1.35.1 9.73 9.73 0 0 0 4.27-1 9.92 9.92 0 0 0 3.4-2.7 9.7 9.7 0 0 0 1.46-2.57l5.8-15.1h24.07l5.37 13.94a9.5 9.5 0 0 0 .57 1.2l.2.35q.25.38.53.75c.1.12.18.24.27.36a9.83 9.83 0 0 0 .8.86c.15.15.32.28.48.42l.44.35c.2.15.4.3.63.44l.3.18a69 69 0 0 0 5.22 2.3 9.58 9.58 0 0 0 1.93.23h.88a9.8 9.8 0 0 0 9.08-13.47z" class="cls-25"/><path d="M237.3 320.6a22.4 22.4 0 0 0 8 7.88 36.1 36.1 0 0 0 5.66 3.18 77.2 77.2 0 0 0 13.22 5.1c3 1 5.62 1.82 7.7 2.7 2.15 1.28 3.34 2.73 3.34 4.73 0 .1 0 .3 0 .4a3.9 3.9 0 0 1-1.08 2.77c-1.7 1.86-5.4 2.9-10.42 2.9a72.12 72.12 0 0 1-15.8-2.17 8.72 8.72 0 0 0-2-.23 9.38 9.38 0 0 0 0 18 82.06 82.06 0 0 0 20.7 3c19.22 0 31.15-9.55 31.15-24.93a22.57 22.57 0 0 0-3.68-13q-29.68-6.1-56.8-10.34z" class="cls-26"/><path d="M226.08 324.16a36.15 36.15 0 0 0-5.64-3.18 67.76 67.76 0 0 0-11.2-4.5q-18.44-2.47-35.46-4.22c.87 7.06 4.45 12.42 10.76 16.22a36.13 36.13 0 0 0 5.64 3.18 77.24 77.24 0 0 0 13.2 5.1c3 1 5.62 1.82 7.7 2.7 2.15 1.28 3.34 2.73 3.34 4.73a3.3 3.3 0 0 0 0 .47 4 4 0 0 1-1 2.6c-1.67 1.94-5.4 3-10.5 3a72.12 72.12 0 0 1-15.8-2.15 8.72 8.72 0 0 0-2-.23 8.55 8.55 0 0 0-2.66 16.67 8.52 8.52 0 0 0 2.7 1.3 82 82 0 0 0 20.7 3c19.2 0 31.14-9.56 31.14-24.94.02-8.86-3.6-15.36-10.92-19.77z" class="cls-27"/><path d="M171.84 351.56a3.1 3.1 0 0 0-.17-.35l-16.46-40.7c-14.68-1.28-28.47-2.16-41.35-2.74l-18.2 45a9.77 9.77 0 0 0 5.85 12.9 9.8 9.8 0 0 0 14.66-4.55l5.8-15.07h24.06l5.37 13.93a9.83 9.83 0 0 0 5.9 5.7 9.8 9.8 0 0 0 5.53 1.72h.88a9.8 9.8 0 0 0 9.1-13.47zm-42.46-24.6l4.64-12 4.7 12h-9.34z" class="cls-28"/><path d="M54.75 307.1l-8.44 20.1-8.18-19.44c-14.36.7-26 1.76-34.77 2.77L.02 356.1a9.68 9.68 0 0 0 2.73 7.14 9.58 9.58 0 0 0 3.8 2.42 9.93 9.93 0 0 0 5.7 1.72 9.72 9.72 0 0 0 9.77-9.43l1.15-34.25 11.67 29.86a9.7 9.7 0 0 0 5.85 5.64 9.74 9.74 0 0 0 5.54 1.72h2.95a9.7 9.7 0 0 0 9.08-6.2l11.83-30.26 1.22 32.37a9.72 9.72 0 0 0 6.55 8.85 9.76 9.76 0 0 0 15.26-8.55l-3.68-50.15c-12.67-.22-24.23-.14-34.7.13z" class="cls-29"/></g><path d="M282.92 43.28C257.65 19.88 224.02 7 188.32 7S119 19.9 93.7 43.28s-39.18 54.48-39.18 87.6a115.4 115.4 0 0 0 6.5 38.33 5.64 5.64 0 0 0 5.4 3.64 6.1 6.1 0 0 0 1.76-.26 5.2 5.2 0 0 0 3.64-6.62 105.64 105.64 0 0 1-6-35.07c0-62.52 54.93-113.38 122.44-113.38s122.5 50.85 122.5 113.36a105.65 105.65 0 0 1-6 35.07 4.87 4.87 0 0 0 .33 4 5.54 5.54 0 0 0 3.3 2.6 6.1 6.1 0 0 0 1.74.27 5.64 5.64 0 0 0 5.4-3.63 115.43 115.43 0 0 0 6.54-38.33c.03-33.1-13.9-64.18-39.16-87.6z" class="cls-30"/><path d="M310.02 65.7a135.6 135.6 0 0 0-50.3-47.55 149.7 149.7 0 0 0-142.9 0 135.6 135.6 0 0 0-50.3 47.56c-3 5-1.15 11.3 4.22 14.1a11.8 11.8 0 0 0 5.5 1.36 11.37 11.37 0 0 0 9.78-5.24C106.9 41.86 146.1 20.7 188.32 20.7s81.43 21.15 102.3 55.22a11.67 11.67 0 0 0 15.23 3.9c5.37-2.83 7.25-9.14 4.17-14.1z" class="cls-31"/><path d="M256.6 27.2a137.53 137.53 0 0 0-136.57 0 132.24 132.24 0 0 0-48.08 47.56 10 10 0 0 0-1.4 4.92l.22.13a11.8 11.8 0 0 0 5.5 1.36 11.37 11.37 0 0 0 9.75-5.24C106.9 41.86 146.1 20.7 188.32 20.7s81.43 21.15 102.3 55.22a11.67 11.67 0 0 0 15.23 3.9l.2-.14a10.06 10.06 0 0 0-1.37-4.92A132.22 132.22 0 0 0 256.6 27.2z" class="cls-32"/><path d="M315.33 209.2c-5.57 26.62-15.63 47.2-22.46 46s-7.85-23.8-2.27-50.44 15.62-47.2 22.42-46 7.88 23.8 2.3 50.44z" class="cls-33"/><path d="M315.33 209.2c-5.57 26.62-15.63 47.2-22.46 46s-7.85-23.8-2.27-50.44 15.62-47.2 22.42-46 7.88 23.8 2.3 50.44z" class="cls-34"/><path d="M257.38 260.76l-1-.18a6.46 6.46 0 0 1-5.18-7.68l22.37-106.84a6.46 6.46 0 0 1 7.46-5l1 .18a6.46 6.46 0 0 1 5.18 7.68l-22.36 106.84a6.46 6.46 0 0 1-7.46 5z" class="cls-35"/><path d="M287.73 263.43l-9.1-1.67a9.3 9.3 0 0 1-7.47-11l20.07-95.87a9.3 9.3 0 0 1 10.8-7.28l9.1 1.64a9.3 9.3 0 0 1 7.46 11.06L298.5 256.2a9.3 9.3 0 0 1-10.8 7.23z" class="cls-36"/><path d="M281.14 272.33l-22.05-4a5.1 5.1 0 0 1-4.1-6.07l25.85-123.5a5.1 5.1 0 0 1 5.9-4l22.04 4a5.1 5.1 0 0 1 4.08 6.07l-25.86 123.52a5.1 5.1 0 0 1-5.88 3.98z" class="cls-37"/><path d="M269.17 270.18l-6.8-1.22 27.96-133.52 6.8 1.22-27.96 133.52z" class="cls-38"/><g class="cls-39"><path d="M239.93 59.05l12.57-.46h.1l-12.58.45h-.1" class="cls-40"/><path d="M240.02 59.05l12.57-.46h.2l-12.57.45h-.2" class="cls-41"/><path d="M240.26 59.06l12.57-.46-12.57.46" class="cls-42"/></g><g class="cls-6"><path d="M238.46 61.38c-.05-1.2.43-2.2 1.08-2.28h.08a2.44 2.44 0 0 1 .67 0c-.7 0-1.25 1.05-1.23 2.3z" class="cls-2"/><g class="cls-6"><path d="M238.46 61.38c-.05-1.2.43-2.2 1.08-2.28h.08a2.44 2.44 0 0 1 .67 0c-.7 0-1.25 1.05-1.23 2.3h-.6M239.5 59.62a.48.48 0 0 0-.2.4 3.6 3.6 0 0 0-.28 1.34h-.6c-.06-1.2.42-2.2 1.07-2.28h.07a2.44 2.44 0 0 1 .67 0 1 1 0 0 0-.8.56M239.7 59.35a3.1 3.1 0 0 0-.35.2 1.17 1.17 0 0 0-.3.36.36.36 0 0 0 .12.56 3.84 3.84 0 0 0-.1.9h-.6c-.05-1.2.43-2.2 1.08-2.28h.08a2.44 2.44 0 0 1 .67 0 .88.88 0 0 0-.6.28M239.85 59.23c-.1 0-.2 0-.3.1a1.77 1.77 0 0 0-.32.18 2.54 2.54 0 0 0-.6.64 1.36 1.36 0 0 1 .92-1h.08a2.44 2.44 0 0 1 .67 0 .8.8 0 0 0-.45.16M239.97 59.15a3.9 3.9 0 0 0-.5.13 4.08 4.08 0 0 0-.65.4 1.07 1.07 0 0 1 .73-.6h.08a2.44 2.44 0 0 1 .67 0 .76.76 0 0 0-.32.1M240.08 59.1a3.86 3.86 0 0 0-.5.1 4 4 0 0 0-.63.27 1 1 0 0 1 .6-.38h.07a2.44 2.44 0 0 1 .67 0 .74.74 0 0 0-.22 0M239.02 61.36h-.6a3.76 3.76 0 0 1 .07-1 .74.74 0 0 0 .55.36 4 4 0 0 0 0 .6M240.2 59.08a2.56 2.56 0 0 0-1.13.25.86.86 0 0 1 .46-.24h.08a2.44 2.44 0 0 1 .68 0h-.1M239.02 61.36h-.6a4 4 0 0 1 0-.44l.58.06c0 .12 0 .24 0 .36M240.24 59.06a2.63 2.63 0 0 0-1 .17.8.8 0 0 1 .33-.14h.08a2.42 2.42 0 0 1 .64 0M240.02 59.05a2.88 2.88 0 0 0-.7.1.76.76 0 0 1 .2-.06h.1a2.46 2.46 0 0 1 .42 0M239.02 61.36h-.6s0-.1 0-.14h.6s0 .08 0 .13M239.85 59.06h-.37.38" class="cls-2"/></g></g><g class="cls-6"><path d="M272.08 79.38l14.65 140.25a1 1 0 0 0-.4 0L271.7 79.38a1.68 1.68 0 0 1 .38 0z" class="cls-2"/><g class="cls-6"><path d="M286.34 219.62L271.7 79.38l14.64 140.24M286.36 219.62L271.7 79.38h.07l14.65 140.24h-.06M286.4 219.62L271.78 79.38h.05l14.65 140.24h-.05M286.46 219.62L271.82 79.38l14.65 140.24M286.5 219.62L271.87 79.38l14.65 140.24M286.55 219.62L271.9 79.38l14.65 140.24M286.6 219.62L271.93 79.38l.73 7 .73 7 .73 7 .73 7 .73 7 .72 7 .73 7 .73 7 .73 7 .74 7 .73 7 .73 7 .73 7 .73 7 .73 7 .72 7 .73 7 .73 7 .73 7 .74 7M286.62 219.62l-14.6-140.24.73 7 .73 7 .73 7 .74 7 .73 7 .73 7 .73 7 .73 7 .73 7 .72 7 .73 7 .73 7 .73 7 .74 7 .73 7 .73 7 .73 7 .73 7 .73 7 .72 7M286.65 219.62L272.02 79.38l14.65 140.25M286.67 219.62L272.02 79.38l14.65 140.25M286.7 219.62L272 79.38l14.65 140.25M286.7 219.63L272.03 79.38l14.7 140.25M286.72 219.63L272.07 79.38l.74 7 .74 7 .74 7.02.73 7 .74 7.02.73 7 .73 7.02.74 7 .73 7.03.73 7 .73 7.02.74 7 .73 7.02.73 7.02.74 7 .73 7.03.73 7 .73 7.03.74 7.02.73 7M286.73 219.63L272.08 79.38l.73 7 .75 7 .73 7.02.73 7 .74 7.02.73 7 .74 7.02.74 7.02.73 7 .73 7.02.74 7.02.73 7 .73 7.02.73 7.02.74 7 .73 7.03.73 7.02.73 7 .74 7.02.73 7" class="cls-2"/></g></g><path d="M288.95 223.7v-1c0-.3 0-.72 0-1l-.08-1-.93-9-.53-5.1-.72-7-.73-7-.73-7-.73-7-.74-7-.73-7-.73-7-.73-7-.73-7-.73-7-.72-7-.73-7-.73-7-.73-7-.74-7-.73-7-.73-7-.73-7V80.3c0-.46-.1-1-.16-1.42v-.49c-.04-.35-.1-.7-.17-1v-.16c0-.18-.08-.38-.13-.6v-.22l-.06-.28-.07-.23-.08-.3-.13-.38-.45-.88.15.52-.15-.3v-.35l-.06-.16-.07-.22c-.1-.23-.2-.5-.3-.75l-.1-.3-.2-.5-.28-.37-.16-.35-.32-.7-.2-.36v-.1l-.14-.27-.16-.3.13.25-.15-.25-.1-.17-.13-.26-.36-.55-.17-.27-.25-.4c-.2-.3-.47-.64-.7-1l-.1-.1-.2-.26-.42-.5-.5-.56-.1-.1-.04-.06-.15-.15-.78-.9-.23-.2-.36-.3-.46-.4-.63-.5-.33-.2-.37-.28-.8-.5-.28-.18h-.05c-.43-.25-1-.55-1.47-.77l-1.18-.47h-.13c-.28-.1-.6-.2-1-.32h-.1l-.27-.07-.2-.06h-.33l-.64-.13h-.2.22l-.3-.06h-.28l-.62-.34h-2.42l-12.58.33h-.25.1-.17l-11.68.57h-.1a1.7 1.7 0 0 0-.6 0h-.14.07l-.56.06-1 .17-.42.1-.26.06-.45.1-.2.07-.4.12-.47.15-.16.05-.66.26-.5.2h-.04l-.76.38.1-.06-.32.16-.3.16-.77.44-.25.15-.2.12-.5.33-.64.5-.48.38-.86.74c-.16.14-.44.4-.8.77l-.1.12-.1.08-.47.52-.23.25c-.25.3-.56.7-.8 1l-.16.23-.15.22-.37.52-.08.12-.12.18-.5.8c-.2.33-.4.67-.56 1v.05l-.13.26c-.13.23-.24.46-.34.68l-.1.24-.07.15c-.1.2-.2.42-.27.63l-.15.37c-.14.37-.3.87-.43 1.24l-.35 1.24-20.64 68.78-.17-.43-1.67-4.18-1.68-4.22-1.73-4.27-1.7-4.3-1.73-4.33-1.74-4.36-1.75-4.4-1.75-4.4-1.76-4.43-1.78-4.45-1.78-4.47-1.78-4.47-1.78-4.48-1.8-4.5-1.78-4.48c-.13-.37-.32-.83-.45-1.2l-.06-.13-.26-.58v-.1l-.12-.33v-.08l-.13-.28-.13-.23-.15-.3-.2-.36-.04-.1-.2-.32-.35-.62-.32-.5-.25-.37-.13-.2-.5-.65-.5-.63-.54-.65c-.2-.22-.38-.42-.57-.62l-.26-.28-.72-.64-.4-.38-.33-.32a18.45 18.45 0 0 0-2.13-1.54l-.15-.08-.32-.18-.73-.4-.93-.46h-.35l-.68-.34-.32-.12h-.1l-.4-.14-.33-.1h-.27l-.23-.06-.72-.17h-.08.15-.33l-.27-.05h-.2l-.83-.36h-.28c-.34 0-.68-.06-1-.07h-1.07l-12.57.45h-.25l-11.56.54-1.08.1h.15l-.9.1-.5.1h-.26l-.5.1-.32.08h-.08.1H119.7l-.37.1-.5.17-.18.06-.25.1-.6.25-.35.14-.6.28h-.07l.1-.05-.95.5a16.45 16.45 0 0 0-3.34 2.42l-.17.14-.37.36-.16.16-.58.6-.92 1.08-.2.25-.15.22-.44.62-.16.23-.2.33-.37.57-.2.32c-.25.42-.54 1-.77 1.44l-.12.26-.2.45-.3.7-.06.14v.12c-.16.42-.33.9-.47 1.3a21.3 21.3 0 0 0-.76 2.9l-.06.26-.13.84-.1.8a12.56 12.56 0 0 0-.14 1.57v1.87l-.54 18-.06 3.4-.12 7.07-.12 7.08-.12 7.08-.12 7.08-.12 7.1-.08 4.7v2.37l-.06 3.54-.2 3.53-.1 7.13-.12 7-.12 7.08-.12 7.08-.12 7.08-.12 7.08-.12 7.08-.08 3.6-.1 3.53-.12 7.08-.12 7.1s0 .1 0 .15c0 .2 0 .4 0 .6v.3c0 .22 0 .44 0 .65V231.33c.07.84.16 1.45.2 1.7 0 .25.1.6.13.86l.08.36V234.7l.05.22v.2l.1.4v.1l.2.78.1.36.14.4.28.82v.1l.27.7.34.8.07.15.16.35.08.18v.1l.4.75.17.33a22 22 0 0 0 1.9 2.93l.1.1a19.57 19.57 0 0 0 4.1 3.94l.12.1.37.24.58.37.35.22.26.15.38.2.44.23.22.1.63.3.3.12h.12l.7.34h.08l.74.26.2.06h.17l.33.1.76.2.7.13h.42l.34.06h2.61l7.75-.28 4.83-.18h1.08l.6-.05H138.3l.44-.1.3-.2c.43-.1.84-.23 1.22-.36h.1l.24-.1.64-.26.33-.13.5-.23 1-.52a15.7 15.7 0 0 0 2.43-1.67l.06-.06c.24-.2.48-.4.73-.64l.24-.2.35-.35.13-.13.7-.7.87-1.06.15-.2c.17-.2.4-.53.66-.92l.1-.13.07-.14.15-.24.38-.62.06-.1.08-.12v-.07c.12-.2.24-.43.37-.67l.1-.2.3-.55v-.07l.07-.17c.1-.24.22-.5.33-.75l.1-.24.1-.18v-.13l.07-.22v-.06l.07-.17-.05.14.2-.52v-.08l.15-.46a22.72 22.72 0 0 0 .65-2.46l.08-.44v-.63c0 .06 0 .1 0 .16l.07-.5v-.12l.13-.85c0-.13 0-.25 0-.37v-.06c0-.1 0-.2 0-.3v-.07c0-.1 0-.2 0-.3v-.08q0-.2 0-.42v-1.32c0 .1 0 .17 0 .27 0-.3 0-.6 0-.87v-.43l-.13-8.5v-2.8l-.1-7.3V207.68l-.06-3.35-.08-4.87v-2.4l-.08-4.94v-2.28l.54-3.77-.13-8.2.32.9.73 1.94.52 1.4 1.85 5 .82 2.2 1.14 3.06 3.34 9 .43 1.16 1.66 4.45.67 1.8 4.36 11.66c.14.36.33.82.47 1.17l.1.22.14.3.3.62.3.62v.08l.24.43.63 1c.2.33.5.74.72 1l.7.95c.24.3.57.67.82.95l.24.25a17.8 17.8 0 0 0 7.1 4.8l.3.12.27.1h.1l.6.2.58.13.27.06.38.1.62.1.42.1.93.1h.62c.38 0 .73 0 1 0h.17l12.57-.47h.23l5.6-.28.77-.06H207.15l.34-.05c.38-.07.9-.2 1.27-.3l1-.3c.36-.13.84-.32 1.2-.47l.2-.1.73-.35a17.9 17.9 0 0 0 6.26-5.27l.1-.1v-.06l.12-.18.23-.32.3-.4.07-.13.16-.24.45-.7c.2-.35.38-.67.55-1v-.1l.2-.4.2-.44.17-.32.1-.25.13-.3.27-.63.16-.42.1-.26-.1.25.3-.83.37-1.27 1.3-4.64 1.27-4.63 1.28-4.62 1.27-4.6 1.27-4.57 1.26-4.54 1.25-4.5 1.24-4.47.9-3.25 1.06-3.8.24-.88.1 1.4.1 1.18.34 4.67.36 4.73.36 4.8.36 4.83.3 3.9 1 13.4.17 2.38.22 3 .52 7c0 .52.12 1.2.17 1.7v.25c0 .17.06.34.1.5l.15.93c0 .2.1.44.16.68l.06.24.18.72.3.93.1.3.1.33c.15.47.4 1.08.58 1.54l.65 1.42.2.35v.1l.53 1 .34.53.18.28.28.45c.2.3.47.65.7 1l.1.13.16.2.94 1.1.1.1.05.07.15.15.84.84.23.2.35.3.47.4.63.5.3.2.37.28.8.5.28.18h.05c.43.24 1 .54 1.47.76a15.5 15.5 0 0 0 2.58.94l.22.07.7.15.54.12a10.45 10.45 0 0 0 1.5.2h1.55a2.44 2.44 0 0 0 .67 0h-.3l12.56-.47H272.52l.32-.05h.73l.32-.07h.18l.3-.08.3-.08.2-.05.24-.08.38-.12h.08l.4-.15.37-.14c.44-.18.9-.38 1.35-.6h.08l.6-.34h.08a17.54 17.54 0 0 0 1.77-1.18l.16-.12.06-.05.5-.4.47-.42.4-.37.32-.3.3-.3.17-.18.12-.13.3-.34a21 21 0 0 0 3.33-4.86l.1-.22.37-.74.15-.35.15-.38.23-.6.07-.17.26-.73.08-.22.05-.17.13-.42.13-.48v-.36l.12-.6.05-.23c0-.17.07-.36.1-.55v-.1.05-.27c0-.18 0-.35.07-.52v-.45c0-.13 0-.25 0-.38v-.59c0-.15 0-.3 0-.43v-.32c0-.1 0-.2 0-.33v-.1c0-.12 0-.24 0-.36v-.84s0 0 0 .06v-.14zM133.02 250.3l-12.57.46h.62c10.06-.48 17.8-10.37 17.6-22.5l12.57-.47c.2 12.14-7.55 22-17.6 22.5z" class="cls-4"/><g class="cls-45"><path d="M138.62 228.2l12.57-.45q0 .6 0 1.2l-12.58.47q0-.6 0-1.2M138.6 229.42l12.58-.46q0 .7-.07 1.38l-12.56.46q.05-.7.07-1.38M138.54 230.76l12.57-.46q-.04.65-.12 1.3l-12.57.46q.1-.64.14-1.3M138.4 232.1l12.58-.46q-.08.62-.2 1.23l-12.56.46q.1-.6.2-1.23M138.22 233.33l12.57-.46q-.1.6-.24 1.18l-12.57.46q.12-.57.22-1.17M138.02 234.5l12.57-.45q-.14.58-.3 1.15l-12.57.46q.15-.57.3-1.15M137.7 235.66l12.57-.46q-.16.57-.34 1.13l-12.57.46q.18-.57.34-1.14M137.37 236.76l12.57-.46q-.18.57-.4 1.13l-12.56.46q.2-.57.4-1.14M137.02 237.9l12.57-.45q-.23.57-.47 1.13l-12.57.46q.24-.55.46-1.13M136.5 239.04l12.58-.46q-.25.58-.53 1.14l-12.57.46q.28-.56.53-1.14M136.02 240.18l12.57-.46q-.3.6-.64 1.16l-12.57.46q.32-.57.62-1.16M135.35 241.34l12.57-.46q-.36.63-.76 1.22l-12.57.46q.4-.6.75-1.22M134.6 242.56l12.56-.46q-.46.7-1 1.33l-12.57.46q.5-.65 1-1.34M133.63 243.9l12.57-.47a20.2 20.2 0 0 1-1.37 1.57l-12.57.46a20.2 20.2 0 0 0 1.37-1.57M132.26 245.46l12.57-.46a16.7 16.7 0 0 1-11.24 5.27h-.63l-12.57.46h.62a16.7 16.7 0 0 0 11.24-5.27" class="cls-4"/></g><path d="M137.25 139.63l12.58-.46 1.36 88.58-12.58.46-1.37-88.57zM133.02 64.03l12.57-.46h.42c7.52 0 14.47 5.46 17.43 13.88l-12.57.46c-3-8.4-9.9-13.9-17.43-13.87h-.43z" class="cls-4"/><g class="cls-46"><path d="M133.02 64.03l12.57-.46h.14l-12.57.46h-.15M133.2 64.03l12.56-.46h.2l-12.58.46h-.2M133.37 64.03l12.57-.46h.38l-12.57.46h-.38M133.75 64.03l12.57-.46q.6 0 1.17.06l-12.58.46q-.58-.06-1.17-.07M134.92 64.1l12.57-.47q.54 0 1.08.14l-12.56.46q-.54-.1-1.1-.14M136.02 64.23l12.56-.47q.52.1 1 .2l-12.56.48q-.52-.12-1-.2M137.02 64.44l12.57-.46q.5.12 1 .27L138 64.7q-.5-.14-1-.26M138.02 64.7l12.57-.45q.48.15 1 .33l-12.58.45q-.48-.18-1-.33M139.02 65.03l12.57-.46q.47.18 1 .4L140 65.4q-.47-.2-1-.4M140.02 65.42l12.57-.46q.47.2 1 .46l-12.58.46q-.47-.24-1-.46M140.93 65.88l12.57-.46q.48.25 1 .53l-12.57.46q-.47-.27-1-.52M141.88 66.4l12.57-.45q.5.3 1 .62l-12.57.45q-.47-.32-1-.62M142.84 67.03l12.57-.45q.5.34 1 .72l-12.58.46q-.48-.38-1-.72M143.82 67.76l12.57-.46q.5.4 1 .85l-12.58.46q-.5-.44-1-.84M144.83 68.6l12.57-.45q.55.5 1.08 1.05l-12.57.46q-.5-.55-1.07-1.05M145.9 69.66l12.58-.46q.6.64 1.18 1.35L147.1 71q-.58-.7-1.2-1.34M147.1 71l12.56-.45a22.18 22.18 0 0 1 1.47 2.07l-12.57.46A22.16 22.16 0 0 0 147.1 71M148.56 73.07l12.57-.46a24 24 0 0 1 2.32 4.85l-12.57.46a24 24 0 0 0-2.32-4.83" class="cls-4"/></g><path d="M197.62 232.44h-.3.3" class="cls-48"/><path d="M150.9 77.9l12.56-.45 33.86 85.1-12.57.45-33.86-85.1zM207.25 217.6l12.57-.47c-2.42 8.78-9 14.7-16.68 15l-12.57.46c7.7-.32 14.25-6.23 16.68-15z" class="cls-4"/><g class="cls-49"><path d="M207.25 217.6l12.57-.47q-.15.55-.32 1.08l-12.57.47q.17-.53.32-1.08M206.92 218.67l12.57-.46q-.2.6-.4 1.16l-12.58.46q.2-.56.4-1.15M206.52 219.82l12.57-.46q-.23.58-.48 1.14l-12.6.46q.25-.56.47-1.14M206.02 220.96l12.57-.46q-.27.6-.55 1.15l-12.57.46q.28-.55.54-1.14M205.52 222.1l12.57-.45q-.3.6-.64 1.17l-12.57.46q.32-.57.62-1.17M204.88 223.3l12.57-.47q-.36.63-.76 1.22l-12.58.46q.4-.58.76-1.2M204.12 224.5l12.57-.45q-.47.7-1 1.32l-12.58.46q.5-.64 1-1.32M203.16 225.83l12.57-.46a20 20 0 0 1-1.33 1.52l-12.57.45a20.07 20.07 0 0 0 1.33-1.52M201.84 227.35l12.57-.46a16.68 16.68 0 0 1-11.26 5.27l-12.57.46a16.68 16.68 0 0 0 11.27-5.28" class="cls-4"/></g><path d="M230.14 134.96l12.57-.45-22.88 82.63-12.57.46 22.9-82.64zM240.3 59.07l12.56-.46c9.76 0 18 8.94 18.83 20.78l-12.58.46c-.87-11.84-9.1-20.82-18.83-20.77z" class="cls-4"/><g class="cls-50"><path d="M240.3 59.07l12.56-.46h.3l-12.56.47h-.3M240.6 59.07l12.57-.46q.6 0 1.2.07l-12.57.46q-.6-.05-1.2-.06M241.8 59.13l12.57-.46q.55.05 1.1.14l-12.57.47q-.54-.1-1.1-.14M242.9 59.27l12.57-.46q.53.1 1 .22l-12.57.46q-.52-.12-1-.2M243.94 59.48l12.57-.46q.52.12 1 .27l-12.56.46q-.5-.15-1-.27M244.94 59.76l12.57-.46q.5.15 1 .33l-12.56.46q-.48-.2-1-.34M245.9 60.07l12.58-.46q.48.2.95.4l-12.57.45q-.47-.2-.95-.4M246.86 60.46l12.57-.45q.48.22.94.46l-12.57.46q-.46-.24-.94-.45M247.8 60.9l12.57-.45q.47.25.94.52l-12.56.46q-.46-.28-.94-.52M248.73 61.43l12.57-.46q.48.3.94.6l-12.57.47q-.46-.32-.94-.6M249.67 62.04l12.57-.46q.5.34 1 .72l-12.6.46q-.48-.37-1-.72M250.64 62.76l12.57-.46q.52.4 1 .85l-12.56.46q-.5-.43-1-.84M251.65 63.6l12.57-.46q.55.5 1.06 1l-12.57.46q-.5-.54-1.05-1M252.7 64.64l12.58-.46q.6.64 1.17 1.34l-12.57.46q-.56-.7-1.17-1.34M253.88 65.98l12.57-.46a22.22 22.22 0 0 1 1.5 2.1l-12.57.47a22.25 22.25 0 0 0-1.5-2.12M255.38 68.1l12.57-.47a24.63 24.63 0 0 1 2.9 6.7l-12.57.43a24.63 24.63 0 0 0-2.9-6.7M258.28 74.76l12.57-.46a26.7 26.7 0 0 1 .56 2.62l-12.56.46a26.7 26.7 0 0 0-.56-2.62M258.84 77.43l12.57-.46q.17 1 .26 2l-12.57.46q-.1-1-.26-2M259.1 79.42l12.56-.46q0 .2 0 .4l-12.57.47q0-.2 0-.4" class="cls-4"/></g><path d="M259.12 79.83l12.57-.45 14.64 140.24-12.57.45-14.65-140.24z" class="cls-4"/><path d="M137.25 139.63l12.58-.46 1.36 88.58-12.58.46-1.37-88.57z" class="cls-51"/><g class="cls-6"><path d="M268.5 244l-12.57.47h.3a17.13 17.13 0 0 0 13.1-7.47 22.94 22.94 0 0 0 4.44-16.9l12.57-.45a22.94 22.94 0 0 1-4.45 16.9 17.13 17.13 0 0 1-13.1 7.46z" class="cls-4"/><g class="cls-52"><path d="M273.77 220.08l12.57-.46v.38l-12.57.46v-.38M273.8 220.46l12.57-.46q.08 1 .1 1.88l-12.56.46q0-.9-.1-1.87M273.9 222.33l12.58-.46q0 .76 0 1.5l-12.57.45q0-.73 0-1.5M273.9 223.83l12.58-.46q0 .65-.07 1.3l-12.56.45q0-.63.07-1.3M273.84 225.1l12.57-.45q0 .58-.1 1.13l-12.58.46q.07-.56.12-1.13M273.73 226.25l12.57-.46q-.07.52-.16 1l-12.57.45q.1-.52.16-1M273.57 227.3l12.57-.47q-.1.5-.2 1l-12.57.46q.1-.5.2-1M273.37 228.3l12.57-.47q-.1.5-.24 1l-12.57.46q.13-.48.24-1M273.13 229.25l12.57-.46q-.13.47-.28 1l-12.57.45q.15-.47.28-1M272.85 230.2l12.57-.44q-.16.5-.34 1l-12.57.46q.2-.48.35-1M272.5 231.17l12.58-.46q-.2.53-.4 1l-12.58.47q.22-.5.4-1M272.1 232.2l12.57-.47q-.24.55-.5 1.1l-12.58.45q.26-.54.5-1.1M271.58 233.28l12.57-.46q-.32.63-.67 1.24l-12.57.46q.36-.6.68-1.24M270.92 234.52l12.57-.46q-.45.75-.94 1.48L270 236q.48-.73.92-1.48M270.02 236l12.57-.46q-.33.48-.68 1l-.47.62-12.57.46.47-.62q.35-.48.67-1M268.85 237.58l12.57-.46a20.6 20.6 0 0 1-1.37 1.57l-12.57.45a20.57 20.57 0 0 0 1.37-1.57M267.48 239.16l12.57-.46a16.56 16.56 0 0 1-11.24 5.27h-.3l-12.57.46h.3a16.56 16.56 0 0 0 11.25-5.27" class="cls-4"/></g></g><path d="M230.14 134.96l12.57-.45-22.88 82.63-12.57.46 22.9-82.64z" class="cls-53"/><path d="M150.9 77.9l12.56-.45 33.86 85.1-12.57.45-33.86-85.1z" class="cls-54"/><path d="M239.02 61.36c8.77 0 16.16 8 16.94 18.7l14.66 140.3a22.74 22.74 0 0 1-4 15.15 15.4 15.4 0 0 1-11.77 6.73h-.6c-8.77 0-16.15-8-16.95-18.63l-7.4-99.54-25.68 92.84c-2.18 7.9-8.08 13.22-15 13.53l-5.6.27h-.6c-6.7 0-12.74-4.66-15.52-12.12l-33.54-89.82 1.53 99.5c.17 10.92-6.8 19.82-15.86 20.25h-.9a15.4 15.4 0 0 1-11.72-5.56 22.4 22.4 0 0 1-5.32-14.5l2.5-141.55C104 76.2 111 67.3 120 66.87l11.6-.54h.57c6.75 0 13 4.9 15.67 12.48l35.83 90 28-93.24c2-7.78 8.08-13.38 15.05-13.7l11.7-.54z" class="cls-55"/><path d="M239.02 61.36h-.6l-11.7.54c-7 .32-13.05 5.9-15.05 13.7l-11.65 39.1c9.9 9.24 20.8 21.42 23.4 32.24 0 .14.05.3.1.44l6.45-23.3 7.4 99.54c.8 10.62 8.2 18.67 16.95 18.63h.6a15.4 15.4 0 0 0 11.78-6.72 22.74 22.74 0 0 0 4-15.14L256.02 80.04c-.8-10.66-8.18-18.73-17-18.7z" class="cls-56"/><g class="cls-57"><path d="M133.02 250.3l-12.57.46h.62c10.06-.48 17.8-10.37 17.6-22.5l12.57-.47c.2 12.14-7.55 22-17.6 22.5z" class="cls-5"/><path d="M132.26 245.46l12.57-.46a16.7 16.7 0 0 1-11.24 5.27h-.63l-12.57.46h.62a16.7 16.7 0 0 0 11.24-5.27" class="cls-59"/></g><g class="cls-60"><path d="M268.5 244l-12.57.47h.3a17.13 17.13 0 0 0 13.1-7.47 22.94 22.94 0 0 0 4.44-16.9l12.57-.45a22.94 22.94 0 0 1-4.45 16.9 17.13 17.13 0 0 1-13.1 7.46z" class="cls-3"/><path d="M267.48 239.16l12.57-.46a16.56 16.56 0 0 1-11.24 5.27h-.3l-12.57.46h.3a16.56 16.56 0 0 0 11.25-5.27" class="cls-62"/></g><path d="M102.22 143.43l-.12 7.08-.08 7.1-.12 7.07-.18 7.1-.12 7.07-.12 7.08-.12 7.08-.12 7.08-.12 7.08-.1 7.1-.12 7.08-.12 7.1c0 .26 0 .62 0 .9v.23c0 .1 0 .2 0 .3v.36c0 .1 0 .24 0 .37v.63c0 .35.08.63.1.77 0 .26.1.6.14.87l.08.4v.15l.06.3c.05.26.13.57.2.82v.1l.2.78.1.3v.14l.1.4.3.8c.08.24.2.57.3.8l.34.8.32.1.17.37.08.2v.08l.4.76.14.28a20.43 20.43 0 0 0 6.13 7l.13.1.27.18c.22.15.44.3.67.44l.35.2.7.4.64.33h.07l.6.26.44.18.16.06h.08l.74.26.2.06h.17l.32.1.76.2.7.13.78.12.72.08H120.32l12.57-.46h.6l1.1-.1H136.2l.43-.1c.35-.1.76-.2 1.16-.34l.33-.1.2-.06 1.2-.48c.46-.2 1.07-.53 1.52-.77a15.72 15.72 0 0 0 2.45-1.68l.07-.06c.23-.18.48-.4.72-.62l.23-.2.34-.35.13-.13.7-.7.9-1.1c.18-.23.5-.63.85-1.17l.12-.17.08-.13c.2-.3.38-.6.58-.95l.12-.2c.1-.2.23-.42.35-.65l.12-.23.3-.57.1-.25c.1-.24.22-.5.33-.76l.2-.42v-.1l.12-.36.07-.16-.06.15.06-.17.17-.47.17-.47c.2-.58.32-1.07.44-1.54l.1-.4v-.13c0-.22.1-.46.14-.68l.1-.47v-.36c0 .05 0 .1 0 .15l.22-1.47a13 13 0 0 0 .13-1.6v-.13c0-.17 0-.38 0-.58v-.6c0 .1 0 .18 0 .28 0-.3 0-.6 0-.87q-.06-3.33-.1-6.66l.12-3.44v-2.26l-.07-4.56v-3.06s-11.96-39.44-49.13-64.45z" class="cls-63"/><path d="M120.4 64.65h-.1.2-.1zM114.8 66.2l-.1.07.27-.14zM224.47 60.16l.22-.06zM221.57 61.24l-.2.1.4-.2zM254.8 67.24c.2.28.4.54.58.83zM273.92 222.9c0-.15 0-.3 0-.46s0-.08 0-.1 0 .04 0 .07c0-.57 0-1.16-.1-1.77 0-.06 0-.1 0-.17s0 .06 0 .1c0-.16 0-.3 0-.48l-14.7-140.24q0-.2 0-.4c0-.55-.1-1.1-.2-1.62 0-.1 0-.2 0-.3v-.06s0 .06 0 .1q-.14-.94-.35-1.84l-.08-.35c0-.18-.1-.37-.14-.55l.1.4a24.4 24.4 0 0 0-3.6-8c-.14-.2-.27-.4-.4-.57l-.23-.3-.53-.6.18.22q-.33-.4-.68-.8l-.1-.13-.16-.16-.3-.32.06.06-.07-.06-.2-.2-.27-.27-.42-.4-.1-.1-.13-.1-.14-.14-.47-.4-.3-.2h-.05l-.08-.06-.15-.12h-.06l-.2-.14-.18-.13-.3-.2.08.05-.1-.06-.07-.07-.27-.27-.2-.16-.18-.1h-.14l-.1-.06h-.05l-.3-.16-.23-.27-.18-.1h-.1l-.3-.13-.17-.1-.25-.13H246.8l-.24-.1-.18-.08h-.13l-.23-.25h-.13.04-.4l-.15-.04h-.26l-.12-.3H239.64l-11.7.54h-.1a1.7 1.7 0 0 0-.6 0h-.13.07l-.56.06-1 .17-.4.1-.27.06-.45.1-.2.06-.4.12-.47.15-.16.05-.67.26-.5.2h-.04l-.77.37.1-.05-.32.16-.3.17-.76.44-.24.16-.2.12-.58-.22-.65.5-.37.27-.86.74c-.16.14-.44.4-.8.77l-.1.12-.1.1-.47.5-.22.26c-.25.3-.56.7-.8 1l-.16.23-.17.22-.37.52-.08.1-.12.2-.5.78c-.2.34-.38.68-.55 1v.06l-.12.26c-.12.23-.23.46-.33.68l-.1.23-.07.16c-.1.22-.18.43-.26.64l-.15.37c-.14.37-.3.87-.43 1.24l-.35 1.25-26.3 87.57-33.72-84.6a23.88 23.88 0 0 0-2.5-5.16l.18.28c-.14-.23-.3-.44-.44-.66l-.2-.3q-.4-.57-.83-1.1l-.1-.1c-.2-.25-.4-.48-.6-.7l-.17-.2-.25-.26-.1-.1.08.06-.08-.08-.2-.2-.3-.3-.36-.34-.17-.15h.05-.06l-.15-.13-.16-.12-.48-.4-.22-.2-.14-.1-.15-.1-.27-.2-.26-.16-.3-.2h.08-.07l-.1-.07h-.04l-.22-.17-.24-.15-.3-.18h.05-.2l-.12-.07-.2-.1-.2-.1-.13-.1-.3-.3-.3-.14h-.06l-.2-.08h-.2l-.22-.1-.18-.07h-.1l-.23-.1h-.19l-.23-.07-.18-.06H137.74l-.2-.05h-4.43l-11.57.54-1.08.1h.16l-.9.12-.5.1h-.25l-.5.1-.3.08h-.1.12H117.84l-.36.1-.5.17-.2.06-.24.1-.6.24-.35.14-.58.3h-.08l.1-.05-.95.5a16.46 16.46 0 0 0-3.35 2.42l-.16.14-.38.38-.16.16-.58.6-.92 1.08-.2.25-.15.22-.43.6-.17.25-.2.33-.37.57-.2.32c-.24.42-.54 1-.77 1.44l-.12.28-.2.45-.3.7-.06.13v.12c-.16.42-.33.9-.47 1.3a21.33 21.33 0 0 0-.75 2.9l-.05.26-.13.84-.12.8a12.58 12.58 0 0 0-.13 1.57V87.6l-.3 17.84-.07 3.4-.12 7.08-.12 7.08-.1 7.08-.13 7.08-.12 7.08-.12 7.08-.6 6.25-.13 7.07-.18 7.1-.12 7.07-.12 7.08-.12 7.08-.12 7.08-.12 7.08-.1 7.1-.12 7.08-.12 7.1c0 .25 0 .5 0 .75v.28c0 .23 0 .46 0 .67v.16c.07.85.16 1.46.2 1.7 0 .26.1.6.13.87l.1.4v.15l.05.3c.05.25.13.57.2.82v.1l.2.8.1.35.15.44.28.8c.1.25.22.58.3.82l.35.8.2.1.15.35.08.2v.1l.4.74.17.32a20.42 20.42 0 0 0 6.1 7l.14.1.37.25.58.38.35.2.26.16.38.2.66.34.63.28.43.17.15.06h.08l.74.25.2.06.17.06.32.1.75.2.7.13.78.1.7.1H120.04c.2 0 .43 0 1 0 .35 0 .7 0 1.06-.1H126.3l.12-.05.15-.06.13-.07h.26l.1-.05h.1l.13-.08.1-.05h.17l.1-.05h.11l.1-.05h.06l.17-.1h.13l.16-.1.13-.1.14-.1.08-.04.1-.05.08-.07.08-.05h.07l.1-.08.1-.06.14-.12H129.53l.1-.07h.05l.07-.04.12-.1.15-.1h.06l.1-.1.16-.13.07-.06.13-.13.1-.1.1-.1.1-.1.1-.07.06-.07.05-.05.97-2.2.1-.08v-.05l.06-.06.06-.06.1-.1v-.05l.07-.07.07-.07.13-.13.13-.15.05-.06.12-.15.13-.14.06-.07.07-.1.07-.1v-.06l.08-.1.06-.08.12-.16.06-.08.05-.07.13-.17.08-.1v-.08l.1-.1.06-.1.07-.1.07-.12.06-.1v-.11l.12-.2.13-.2.08-.12.07-.1v-.05l.06-.1v-.06l.12-.18.07-.12.06-.13v-.06l.08-.16.08-.15.05-.1.1-.2.1-.24.2-.4.05-.12v-.05l.05-.13.05-.1v-.1l.1-.26v-.12l.07-.13v-.12l.1-.3.07-.16.1-.25v-.1l.06-.18.14-.4.07-.2v-.07l.08-.28.13-.44.07-.24v-.1c0-.08 0-.17.06-.26s.08-.3.12-.46V235.2v.07V235.1c0-.2.1-.4.13-.6l.06-.32V234v.1c0-.06 0-.1 0-.17s.06-.34.08-.5 0-.24 0-.35 0-.2 0-.3v.16s0-.1 0-.13c0-.3.08-.6.1-.92 0-.13 0-.26 0-.4v.2q0-.5.08-1c0-.17 0-.35 0-.53 0 .1 0 .16 0 .25 0-.48 0-1 0-1.45l-1.35-87.56 1.8 4.82 1 2.72 1.36 3.63 1.4 3.73.9 2.4 1.17 3.18.8 2.16 1.5 4 1.52 4.07 1 2.66 1.4 3.75.73 1.96.52 1.4 1.85 5 .82 2.2 1.14 3.06 3.35 9 .43 1.16 1.66 4.45.66 1.78 4.36 11.68c.14.36.33.82.47 1.17l.1.22.14.3.3.62.3.6v.1l.24.43.64 1c.2.32.5.73.7 1l.72.94c.23.3.56.67.8.95l.25.25a17.8 17.8 0 0 0 7.12 4.8l.28.12.28.08h.1l.6.2.58.14.27.06.38.1.63.1.36.06.92.1h.62c.38 0 .73 0 1 0h.4l5.6-.28c.35 0 .7 0 1.06-.1H193.93l.2-.04H194.83l.2-1.36.2-.06H195.45l.14-.05.17-.07.13-.05h.07l.15-.06.15-.07.17-.08.14-.07.13-.06h.1l.17-.1.17-.1.1-.04h.07l.12-.06.1-.05.14-.08.2-.1.12-.08.1-.06.1-.07h.06l.16-.1.18-.1h.07l.17-.13.2-.38.2-.13.08-.06.1-.08.14-.1.07-.06.08-.05.2-.17.14-.1.18-.17.2-.15.07-.05.07-.07.06-.05.18-.16.13-.12.12-.1.15-.15.13-.13.08-.08.16-.18.1-.1.07-.06.06-.06.1-.1.2-.22.16-.2.12-.13.16-.2.07-.07.05-.06v-.05l.14-.17.08-.1.24-.3.1-.12v-.11l.15-.23.12-.16.1-.17.14-.18v-.06l.08-.14.1-.15.08-.14.2-.3.1-.17.08-.16v-.08l.1-.2.2-.34.2-.37.1-.15v-.11l.1-.24.23-.48.15-.32.06-.12v.05-.05l.2-.5.2-.46.07-.18v.07l.08-.2c.1-.25.18-.48.26-.73l.1-.27v.1c.12-.4.25-.77.36-1.17l22.6-81.53.05.77.3 3.83.3 4 .3 4.06.3 4.17.32 4.27.32 4.37.33 4.45.25 3.3.35 4.66.1 1.18.34 4.67.36 4.73.36 4.8.36 4.83.3 3.9 1 13.37.64 2 .22 3 .52 7c0 .5.13 1.2.18 1.7v.24c0 .18.06.35.1.52l.15.92c0 .2.1.44.15.68l.06.24.22.7.3.93.1.3.1.32c.15.47.4 1.08.58 1.54l.65 1.42.2.35v.1l.53 1 .34.53.18.28.28.45c.2.3.47.64.7 1l.1.12.16.2.94 1.1.1.1.05.07.2.16.83.84.23.2.34.3.47.4.64.5.3.2.37.28.82.5.27.18h.04c.43.24 1 .54 1.47.76a15.48 15.48 0 0 0 2.6.94l.2.07.7.15.55.12a10.45 10.45 0 0 0 1.48.2h1.56a2.44 2.44 0 0 0 .66 0 15.74 15.74 0 0 0 1.7-.18h.14l.44-.1c.35-.07.7-.14 1.06-.23l.3-.1.42-.13c.3-.1.6-.2.9-.3l.4-.17.36-.16c.27-.12.54-.25.8-.4l.52-.26.25-.14c.26-.15.5-.32.76-.48l.54-.35.2-.13.2-.16.62-.48.36-.3.23-.2.45-.43c.2-.2.4-.37.58-.56l-.06.05.37-.4c.2-.24.4-.47.6-.7s.3-.35.46-.54l-.17.18c.2-.27.43-.52.64-.8s.4-.58.6-.87l.08-.1.05-.08v-.12l.06-.1v-.05l.06-.1.05-.07v-.14l.14-.23.08-.16.06-.1v-.14l.08-.13v-.1l.06-.1.06-.1.1-.16v-.16l.07-.15v-.18l.1-.16.08-.18.07-.14.06-.14v-.18l.06-.12.06-.12.07-.15v-.17l.08-.23V231.47l.08-.23.08-.2v-.06l.05-.16V230.53l.06-.2 1.26-.57V229.3c0-.1 0-.17.06-.26v-.1l.08-.33v-.28c0-.1 0-.2.07-.32l.07-.32V227.34c0-.1 0-.2 0-.3l.05-.3v-.22c0-.08 0-.15 0-.23 0-.12 0-.23 0-.33s0-.23 0-.35v-.08c0-.07 0-.14 0-.2s0-.13 0-.2c0-.13 0-.27 0-.4s0-.23 0-.34 0-.33 0-.5c0-.22 0-.46 0-.7.57-.13.57-.22.57-.3zM211.3 75.4zm-27.2 88.62v-.06q0 .15-.1.32c.02-.1.02-.18.1-.26zm-.1.34zm-.06.4c0-.1 0-.2.06-.3v.1c0 .08 0 .17 0 .26zm-.06.4v-.13.27zm0 .32zm0 .14c0 .05 0 .1 0 .17v.1c-.08-.14-.07-.2-.06-.3zm0 .5v-.07s0 .08 0 .12v-.05zm0 .5v-.1s0 .08 0 .12zm0 .15zm0 .4s0-.06 0-.1 0 .17 0 .25-.16-.14-.16-.17zm0 .5s0-.04 0-.07 0 .12 0 .18v-.1zM132.58 64.1h-.06zm-.56.54zm-.2.4v-.07.1zm-28 21.84zm0 0zm31.73 48.88v-.1l.07.26zm.27.9v.06zm.2.67zm.2.58v-.05.06zm93.33-6.6s0-.1 0-.14 0-.08 0-.1 0 .14 0 .2zm0-1.16s0-.07 0-.1 0-.27 0-.4 0 .06 0 .1.02.23.02.37zm0 2.32zm0-3.28c0-.17 0-.35 0-.53v-.35c.07.22.05.53.04.84zm.07-1.55c0-.1 0-.17 0-.26v-.18zm.08-1.2zm36.9 109.1a15.74 15.74 0 0 1-9.9 6.5 23.3 23.3 0 0 1-4.64 0c-7.46-1.12-13.5-8.13-14.62-17.3a1.67 1.67 0 0 0-.12-1s0-.07 0-.1l-7.4-99.54-25.7 92.8c-2.18 7.9-8.08 13.22-15 13.53l-5.6.27h-.6c-6.5 0-12.37-4.4-15.26-11.48a1 1 0 0 0-.22-.55v-.1l-33.58-89.8 1.53 99.48c.17 10.76-6.6 19.54-15.45 20.2-.7 0-1.36.07-2 0-.28 0-.56 0-.83 0h-.15a15.68 15.68 0 0 1-10.05-5.5 22.3 22.3 0 0 1-5.3-14.08.73.73 0 0 0 0-.32s0-.07 0-.1l2.5-141.55a23.45 23.45 0 0 1 .6-5.63l.06-.25c1.92-7.9 7.88-13.8 15.2-14.13l11.6-.55h.56c5.48 0 10.64 3.22 13.8 8.48l.15.24a21.68 21.68 0 0 1 1.7 3.7l35.84 90 28-93.25c2-7.78 8.08-13.38 15.05-13.7l11.68-.54h.6c8.78 0 16.17 8 16.95 18.7l14.66 140.3a22.74 22.74 0 0 1-4.05 15.23zM135.1 133.96v-.2zm-.2-.83v-.1.05zm-.22-.94v-.38zm-.23-1.05v-.2zm-.24-1.15v-.13z" class="cls-64"/><path d="M61.3 209.2c5.57 26.62 15.63 47.2 22.46 46s7.84-23.8 2.26-50.44-15.63-47.2-22.46-46-7.83 23.8-2.26 50.44z" class="cls-65"/><path d="M61.3 209.2c5.57 26.62 15.63 47.2 22.46 46s7.84-23.8 2.26-50.44-15.63-47.2-22.46-46-7.83 23.8-2.26 50.44z" class="cls-66"/><path d="M119.25 260.76l1-.18a6.46 6.46 0 0 0 5.18-7.68l-22.4-106.8a6.46 6.46 0 0 0-7.47-5l-1 .17a6.46 6.46 0 0 0-5.18 7.68l22.4 106.8a6.46 6.46 0 0 0 7.47 5z" class="cls-67"/><path d="M88.9 263.43l9.12-1.67a9.3 9.3 0 0 0 7.45-11l-20.07-95.9a9.3 9.3 0 0 0-10.74-7.24l-9.1 1.64a9.3 9.3 0 0 0-7.47 11.06l20.06 95.87a9.3 9.3 0 0 0 10.73 7.23z" class="cls-68"/><path d="M95.5 272.33l22.04-4a5.1 5.1 0 0 0 4.1-6.07l-25.87-123.5a5.1 5.1 0 0 0-5.9-4l-22.04 4a5.1 5.1 0 0 0-4.1 6.07L89.6 268.35a5.1 5.1 0 0 0 5.9 3.98z" class="cls-69"/><path d="M107.46 270.18l6.8-1.22L86.3 135.44l-6.8 1.22 27.96 133.52z" class="cls-70"/></g></g></svg>