<?xml version="1.0" encoding="utf-8"?>
<!-- Generator: Adobe Illustrator 19.2.1, SVG Export Plug-In . SVG Version: 6.00 Build 0)  -->
<svg version="1.1" id="Camada_1" xmlns="http://www.w3.org/2000/svg" xmlns:xlink="http://www.w3.org/1999/xlink" x="0px" y="0px"
	 viewBox="0 0 651.2 222.9" style="enable-background:new 0 0 651.2 222.9;" xml:space="preserve">
<style type="text/css">
	.st0{fill:#5B5B5B;}
</style>
<title>massafmvertical</title>
<g>
	<path class="st0" d="M583.7,175.2H559c-2.2,0-3.9,1.7-3.9,3.9V219c0,2.1,1.7,3.9,3.9,3.9h1.8c2.1,0,3.9-1.7,3.9-3.9v-14.9h12.6
		c1.1,0,2.2-0.5,3-1.3c0.7-0.8,1.1-1.8,1.1-2.8c-0.1-2.1-1.8-3.8-3.9-3.8h-12.8V183h18.8c2,0,3.7-1.4,4-3.3c0.2-1.1-0.1-2.3-0.9-3.2
		C585.9,175.7,584.9,175.2,583.7,175.2z M585.1,179.3c-0.1,0.6-0.8,1.1-1.5,1.1h-20.1c-0.7,0-1.3,0.6-1.3,1.3v15.8
		c0,0.7,0.6,1.3,1.3,1.3h14.1c0.7,0,1.3,0.6,1.4,1.4c0,0.5-0.2,0.8-0.4,0.9c-0.3,0.3-0.7,0.5-1.1,0.5h-13.9c-0.7,0-1.3,0.6-1.3,1.3
		V219c0,0.7-0.6,1.4-1.4,1.4H559c-0.7,0-1.4-0.6-1.4-1.4v-39.9c0-0.7,0.6-1.4,1.4-1.4h24.7c0.4,0,0.8,0.2,1,0.5
		C585,178.5,585.1,178.9,585.1,179.3z"/>
	<path class="st0" d="M636.4,175.2h-4.6c-1.8,0-3.5,1.2-4.1,2.8c-0.1,0.2-7.8,18.8-11.2,26.7c-3.4-7.8-11.1-26.5-11.2-26.6
		c-0.6-1.7-2.3-2.9-4.1-2.9h-4.6c-2.4,0-4.3,1.9-4.4,4.2l-2.3,39c0,1.2,0.4,2.3,1.2,3.2c0.8,0.9,2,1.3,3.1,1.3
		c2.5,0,4.4-1.8,4.5-4.2l-0.1,0c0,0,0,0,0,0h0.1c0-0.1,0-0.2,0-0.3c0.1-0.9,0.2-2.3,0.3-4.6c0.2-4.1,0.5-11.5,1.2-25.2
		c7.9,19.5,10.6,25.5,11.8,27.4l-0.1,0c0.7,1.7,2.3,2.8,4.1,2.8h0.9c1.8,0,3.4-1.1,4.1-2.8l-0.1,0c1.2-1.9,3.8-7.9,11.8-27.4
		c0.6,13.6,1,21.1,1.2,25.2c0.1,2.3,0.2,3.7,0.3,4.6c0,0.1,0,0.2,0,0.3h0.1c0,0,0,0,0,0l-0.1,0c0.1,2.4,2,4.2,4.5,4.2
		c1.2,0,2.3-0.5,3.1-1.3c0.8-0.9,1.3-2,1.2-3.2l-2.3-38.9C640.7,177,638.8,175.2,636.4,175.2z M640.1,219.8
		c-0.3,0.4-0.8,0.6-1.3,0.6c-1.1,0-1.9-0.7-1.9-1.8c0,0,0-0.1,0-0.1c0-0.5-0.3-4.4-1.7-35.8c0-0.6-0.5-1.1-1.1-1.2
		c-0.6-0.1-1.2,0.2-1.4,0.8c-11.1,27.3-13.2,31.7-13.6,32.4c-0.1,0.1-0.2,0.2-0.3,0.4c-0.3,0.7-0.9,1.2-1.7,1.2h-0.9
		c-0.8,0-1.4-0.5-1.7-1.2c-0.1-0.2-0.1-0.3-0.3-0.4c-0.4-0.7-2.6-5.1-13.6-32.4c-0.2-0.6-0.8-0.9-1.4-0.8c-0.6,0.1-1,0.6-1.1,1.2
		c-1.4,31.4-1.6,35.3-1.7,35.8c0,0,0,0.1,0,0.1c0,1-0.9,1.8-1.9,1.8c-0.5,0-1-0.2-1.3-0.6c-0.3-0.4-0.5-0.8-0.5-1.3l2.3-39
		c0-1,0.8-1.8,1.8-1.8h4.6c0.8,0,1.5,0.5,1.7,1.2c0.4,1,10.1,24.4,12.4,29.3c0.2,0.4,0.7,0.7,1.1,0.7c0.5,0,0.9-0.3,1.1-0.7
		c2.3-4.9,12-28.4,12.4-29.4c0.3-0.7,1-1.2,1.7-1.2h4.6c1,0,1.8,0.8,1.8,1.8l2.3,38.9C640.6,219,640.4,219.4,640.1,219.8z"/>
	<path class="st0" d="M287.6,46.2h-7.5c-4.9,0-9.4,3.1-11.1,7.6l-19.3,46l-19.3-45.8c-1.7-4.6-6.2-7.8-11.1-7.8H212
		c-6.4,0-11.6,5-11.8,11.3l-5.5,74.8c-0.1,3.2,1.1,6.3,3.3,8.7c2.3,2.3,5.3,3.6,8.7,3.6c6.4,0,11.6-5,11.9-11.5l1.6-46.9l16.8,43
		c1.8,4.6,6.1,7.5,11,7.5h3.6c4.9,0,9.3-3,11-7.5L279.5,86l1.8,47.1c0.2,6.4,5.4,11.4,11.9,11.4c3.3,0,6.3-1.3,8.5-3.6
		c2.3-2.3,3.4-5.4,3.3-8.8l-5.5-74.5C299.3,51.2,294.1,46.2,287.6,46.2z"/>
	<path class="st0" d="M400.6,125.3c-0.1-0.1-0.1-0.3-0.2-0.4l-28.8-71.3c-1.8-4.5-6.2-7.4-11-7.4H352c-4.9,0-9.2,2.9-11,7.4
		l-30.2,74.6c-1.5,3.7-1.1,7.8,1.2,11.1c2.2,3.3,5.9,5.2,9.9,5.2c4.9,0,9.3-3.1,11.1-7.6l7.1-18.3h31.5l7.1,18.3
		c1.8,4.6,6.2,7.6,11.1,7.6h1.1c4,0,7.7-2,9.9-5.2c2.2-3.3,2.6-7.4,1.2-11.1L400.6,125.3z M348.5,96.9l7.3-18.8l7.4,18.8H348.5z"/>
	<path class="st0" d="M466.5,92c-6-4.2-13.5-6.6-20.1-8.7c-10.1-3.2-16.2-5.4-16.2-10.4c0-0.2,0-0.4,0-0.6c0,0-0.1-1.7,1.2-3.2
		c3.7-4.3,15.6-4.8,32-1c0.8,0.2,1.6,0.3,2.4,0.3c5.7,0,10.4-4.7,10.4-10.4c0-4.7-3.2-8.8-7.7-10c-4.9-1.3-14.7-3.6-25.1-3.6
		c-23.3,0-37.8,11.6-37.8,30.3c0,10.7,4.4,18.6,13.3,24c6,4.2,13.5,6.6,20.1,8.7c10.1,3.2,16.2,5.4,16.2,10.4c0,0.2,0,0.4,0,0.6
		c0,0,0.1,1.7-1.2,3.2c-2,2.3-6.6,3.6-12.8,3.6h0c-5.2,0-11.7-0.9-19.2-2.6c-0.8-0.2-1.6-0.3-2.4-0.3c-5.7,0-10.4,4.7-10.4,10.4
		c0,4.7,3.2,8.8,7.7,10c4.9,1.3,14.7,3.6,25.1,3.6c23.3,0,37.8-11.6,37.8-30.3C479.8,105.3,475.4,97.4,466.5,92z"/>
	<path class="st0" d="M540.3,92c-6-4.2-13.5-6.6-20.1-8.7c-10.1-3.2-16.2-5.4-16.2-10.4c0-0.1,0-0.4,0-0.5c0-0.1-0.1-1.8,1.3-3.4
		c2.1-2.3,6.6-3.5,12.7-3.5c5.2,0,11.7,0.9,19.2,2.6c0.8,0.2,1.6,0.3,2.4,0.3c5.7,0,10.4-4.7,10.4-10.4c0-4.7-3.1-8.8-7.7-10
		c-4.9-1.3-14.7-3.6-25.1-3.6c-23.3,0-37.8,11.6-37.8,30.3c0,10.7,4.4,18.6,13.3,24c6,4.2,13.5,6.6,20.1,8.7
		c10.1,3.2,16.2,5.4,16.2,10.4c0,0.1,0,0.4,0,0.5c0,0.1,0.1,1.8-1.3,3.4c-2.1,2.3-6.6,3.5-12.7,3.5h0c-5.2,0-11.7-0.9-19.2-2.6
		c-0.8-0.2-1.6-0.3-2.4-0.3c-5.7,0-10.4,4.7-10.4,10.4c0,4.7,3.1,8.8,7.7,10c4.9,1.3,14.7,3.6,25.1,3.6c23.3,0,37.8-11.6,37.8-30.3
		C553.7,105.3,549.2,97.4,540.3,92z"/>
	<path class="st0" d="M648.5,128.2l-1.2-2.9c-0.1-0.1-0.1-0.3-0.2-0.4l-28.8-71.3c-1.8-4.5-6.2-7.4-11-7.4h-8.5
		c-4.9,0-9.2,2.9-11,7.4l-30.2,74.6c-1.5,3.7-1.1,7.8,1.2,11.1c2.2,3.3,5.9,5.2,9.9,5.2c4.9,0,9.3-3.1,11.1-7.6l7.1-18.3h31.5
		l7.1,18.3c1.8,4.6,6.2,7.6,11.1,7.6h1.1c4,0,7.6-2,9.9-5.2C649.5,136,650,131.9,648.5,128.2z M595.2,96.9l7.3-18.8l7.4,18.8H595.2z
		"/>
	<path class="st0" d="M165,42c-7.7-12.6-18.9-23.1-32.3-30.5C118.9,3.8,103-0.2,86.9-0.2c-16.2,0-32,4-45.8,11.6
		C27.6,18.9,16.4,29.4,8.7,42c-1.5,2.4-1.1,5.4,0.7,7.4C3.9,60,1,71.7,1,83.8c0,6,0.7,11.9,2.2,17.7c0,0.4,0,0.8,0.1,1.2l0.6,3
		c-1.5,5.6-1.1,16.3,1.4,28.4c2.5,12,6.5,22.1,10.1,26.8l0.7,3.4c0.6,2.8,3.1,4.7,5.8,4.7c0.3,0,0.6,0,0.9-0.1l0.7,3.1
		c0.4,1.7,2,2.9,3.8,2.6l14.1-2.5c1.8-0.3,3-2.1,2.6-3.9l-0.3-1.3c1.9-0.7,3.1-2.7,2.7-4.8l-0.2-0.8l3.3-0.1l3.1-0.1
		c0.1,0,0.2,0,0.4,0c0.1,0,0.2,0,0.3,0c0.1,0,0.3,0,0.4,0c0,0,0,0,0.1,0c0,0,0,0,0,0c0,0,0,0,0,0c0,0,0,0,0,0c0,0,0,0,0,0
		c0,0,0,0,0,0c0,0,0,0,0,0c0,0,0,0,0,0c0,0,0,0,0,0c0,0,0,0,0,0c0,0,0,0,0,0c0,0,0.1,0,0.1,0l0.1,0l0,0c0,0,0,0,0,0l0.1,0l0,0
		c0,0,0.1,0,0.1,0c0,0,0,0,0.1,0c0,0,0.1,0,0.1,0l0,0c0,0,0,0,0,0l0.3-0.1c0.1,0,0.1,0,0.2-0.1c0.3-0.1,0.5-0.2,0.8-0.2
		c0,0,0,0,0.1,0c0,0,0,0,0,0l0.2-0.1c0.1-0.1,0.3-0.1,0.4-0.2l0.2-0.1c0,0,0,0,0,0c0.1,0,0.2-0.1,0.3-0.2c0.2-0.1,0.4-0.2,0.6-0.3
		c0,0,0,0,0,0c0,0,0,0,0,0c0.4-0.2,0.9-0.5,1.6-1.1c0,0,0,0,0,0l0,0c0.2-0.1,0.3-0.3,0.5-0.4l0.2-0.1c0.1-0.1,0.1-0.1,0.2-0.2
		c0,0,0.1-0.1,0.1-0.1l0,0l0,0c0.2-0.2,0.3-0.3,0.4-0.5l0,0l0,0l0.6-0.7c0,0,0,0,0,0c0,0,0.1-0.1,0.1-0.1c0.1-0.1,0.3-0.3,0.4-0.6
		c0,0,0-0.1,0.1-0.1c0,0,0,0,0,0l0.1-0.1c0,0,0,0,0,0c0,0,0.1-0.1,0.1-0.2c0.1-0.1,0.2-0.3,0.2-0.4c0,0,0,0,0-0.1l0-0.1l0,0
		c0,0,0,0,0,0c0.1-0.1,0.2-0.3,0.2-0.4c0,0,0-0.1,0.1-0.1c0.1-0.1,0.1-0.2,0.2-0.3c0,0,0,0,0,0l0,0l0.1-0.1l0,0
		c0.1-0.2,0.1-0.3,0.2-0.5l0.1-0.2l0.1-0.1c0,0,0,0,0,0c0,0,0-0.1,0-0.1c0,0,0-0.1,0.1-0.1c0,0,0,0,0,0c0,0,0-0.1,0-0.1c0,0,0,0,0,0
		c0,0,0,0,0,0c0,0,0,0,0,0c0,0,0,0.1,0,0.1c0-0.1,0.1-0.2,0.1-0.3c0,0,0,0,0-0.1c0,0,0,0,0,0c0,0,0,0,0,0l0,0c0-0.1,0.1-0.2,0.1-0.3
		c0,0,0,0,0,0c0.2-0.6,0.3-1.1,0.4-1.6c0,0,0,0,0,0c0-0.1,0-0.2,0.1-0.3c0,0,0-0.1,0-0.1c0,0,0,0,0,0l0-0.1l0,0c0,0,0-0.1,0-0.1
		c0,0,0,0.1,0,0.1l0-0.3l0-0.1c0-0.2,0.1-0.3,0.1-0.5c0-0.1,0-0.2,0-0.2c0,0,0,0,0,0c0-0.1,0-0.1,0-0.2c0,0,0,0,0-0.1
		c0-0.1,0-0.1,0-0.2c0,0,0,0,0,0c0-0.1,0-0.2,0-0.3c0,0,0,0,0,0c0,0,0,0,0-0.1c0,0,0,0,0,0c0-0.1,0-0.1,0-0.2c0-0.1,0-0.1,0-0.2
		l0-0.2l0-0.1c0,0,0,0,0,0v0c0,0.1,0,0.1,0,0.2c0-0.2,0-0.4,0-0.6v0l0-0.3c0-1.8-0.1-3.6-0.1-5.5l0-0.6l0-1.2c0-1.6,0-3.1-0.1-4.7
		l0-0.5v0c0-0.3,0-0.7,0-1l0-2.1l0-3.1l0-1.5c0-1.1,0-2.1,0-3.2l0-1.5l0-2.2c0-0.3,0-0.5,0-0.8l8.3,22.4c0.1,0.2,0.1,0.4,0.2,0.5
		l0.4,1c0.1,0.1,0.1,0.3,0.2,0.5l0.6,1c0.1,0.2,0.2,0.3,0.3,0.5c0,0,2.6,4.5,9.1,5.5c0,0,0,0,0,0l0.4,0.1c0.1,0,0.2,0,0.2,0l0,0
		c0.2,0,0.4,0,0.6,0.1c0.1,0,0.3,0,0.4,0c0.2,0,0.5,0,0.7,0l0,0l0,0l0,0l0,0c0,0,0,0,0,0h0h0l0.5,0c0.3,0,0.6,0,1,0h0l6.6-0.2
		c0,0,0.1,0,0.1,0l3.6-0.2c0,0,0,0,0,0c0,0,0,0,0,0c0.2,0,0.3,0,0.5,0c0.1,0,0.1,0,0.2,0c0,0,0,0,0,0c0,0,0,0,0,0c0,0,0,0,0,0
		c0,0,0,0,0,0c0,0,0,0,0.1,0l0.1,0c0,0,0,0,0.1,0l0.1,0c0,0,0,0,0.1,0l0,0c0,0,0,0,0.1,0l0.2,0c0.2,0,0.6-0.1,0.8-0.2l0.6-0.2
		c0.2-0.1,0.5-0.2,0.8-0.3l0.1-0.1c0.2-0.1,0.3-0.1,0.5-0.2l0,0c0,0,0,0,0,0c1.4-0.7,2.8-1.7,4-3.4c0,0,0,0,0.1-0.1l0,0
		c0,0,0.1-0.1,0.1-0.1c0-0.1,0.1-0.1,0.1-0.2l0.2-0.3c0,0,0-0.1,0.1-0.1c0-0.1,0.1-0.1,0.1-0.2c0.1-0.2,0.2-0.3,0.3-0.5
		c0.1-0.2,0.2-0.4,0.4-0.6l0-0.1c0-0.1,0.1-0.2,0.1-0.3c0-0.1,0.1-0.2,0.1-0.3c0-0.1,0.1-0.1,0.1-0.2l0.1-0.2c0-0.1,0.1-0.1,0.1-0.2
		l0.2-0.4c0-0.1,0.1-0.2,0.1-0.3c0-0.1,0-0.1,0.1-0.2c0,0.1,0,0.1-0.1,0.2c0.1-0.2,0.1-0.4,0.2-0.5c0.1-0.2,0.2-0.6,0.2-0.8l0,0
		l0.8-3l0.8-3l0.8-3l0.8-3l0.8-2.9l0.8-2.9l0.8-2.9l0.8-2.9l0-0.1l0,0.1l0,0c0,0,0,0.3,0.1,0.9l2,26.3c0,0.2,0,0.5,0.1,0.8l0.1,0.5
		c0,0.1,0,0.2,0,0.2l0.1,0.7c0,0.1,0.1,0.3,0.1,0.5l0,0.1c0,0,0,0.1,0,0.1l0.4,1.5c0.1,0.2,0.2,0.5,0.3,0.7l0.1,0.3
		c2.9,7.5,9.3,9.6,14.5,9.2c0,0,5.6-0.2,7.9-0.4c7.4-1.3,9.8-7,10.4-11.6c0.1-1.1,0.2-2.2,0.1-3.1c0-0.9-2.7-25.1-2.7-25.1
		l-3.6-35.6l-0.4-3.8l-0.5-4.5l-0.5-4.5l-0.5-4.5l-0.5-4.5l-0.5-4.5l-0.5-4.5l0,0l0,0l0,0l0-0.1l0-0.1c0-0.3-0.1-0.6-0.1-0.9l0-0.1
		c0,0,0-0.1,0-0.1l0,0.1l0-0.1c0-0.1,0-0.1,0-0.2c0-0.2-0.1-0.4-0.1-0.7l0-0.1c0-0.1-0.1-0.2-0.1-0.4l0-0.1c0,0,0,0,0-0.1l0-0.2
		l0-0.1c0-0.1,0-0.1,0-0.2l-0.1-0.2c0-0.1-0.1-0.3-0.1-0.4l0.1,0.3l-0.1-0.2c0,0,0-0.1,0-0.1c0,0,0-0.1,0-0.1c0,0,0-0.1,0-0.1l0-0.1
		c0-0.1-0.1-0.3-0.2-0.5c0-0.1,0-0.1-0.1-0.2c0-0.1-0.1-0.2-0.1-0.3l-0.1-0.2c0-0.1-0.1-0.2-0.1-0.2l-0.2-0.5c0-0.1-0.1-0.2-0.1-0.2
		c0,0,0,0,0,0c0-0.1-0.1-0.1-0.1-0.2c0-0.1-0.1-0.1-0.1-0.2c0,0,0.1,0.1,0.1,0.2c0-0.1-0.1-0.1-0.1-0.2c0,0,0-0.1-0.1-0.1
		c0-0.1-0.1-0.1-0.1-0.2l-0.2-0.4c0-0.1-0.1-0.1-0.1-0.2l-0.2-0.3c0,0,0,0,0,0l0,0c-0.1-0.2-0.3-0.4-0.5-0.6c0,0,0-0.1-0.1-0.1
		c0,0-0.1-0.1-0.1-0.1l-0.3-0.3c0,0,0,0,0,0l-0.3-0.4c0,0,0,0-0.1-0.1c0,0,0,0,0,0c0,0-0.1-0.1-0.1-0.1c-0.2-0.2-0.4-0.4-0.5-0.5
		l-0.1-0.1c-0.1-0.1-0.2-0.1-0.2-0.2l-0.3-0.3c-0.1-0.1-0.3-0.2-0.4-0.3c-0.1,0-0.1-0.1-0.2-0.1c-0.1-0.1-0.2-0.1-0.2-0.2l-0.5-0.3
		c-0.1,0-0.1-0.1-0.2-0.1l0,0c-0.3-0.2-0.7-0.3-0.9-0.5l-0.7-0.3c0,0,0,0,0,0c0,0,0,0,0,0c0,0,0,0,0,0c-0.1,0-0.2-0.1-0.3-0.1
		c-0.1,0-0.2-0.1-0.3-0.1c-0.1,0-0.1-0.1-0.2-0.1c-0.1,0-0.1-0.1-0.2-0.1c-0.2-0.1-0.4-0.2-0.6-0.2c0,0-0.1,0-0.1,0
		c-0.1,0-0.1,0-0.2-0.1c-0.1,0-0.2-0.1-0.3-0.1c-0.2-0.1-0.4-0.1-0.6-0.2c0,0,0,0,0,0c0,0,0,0-0.1,0c-0.2,0-0.4-0.1-0.6-0.1
		c-0.1,0-0.3,0-0.4,0c-0.1,0-0.1,0-0.2,0c0,0-0.1,0-0.1,0c-0.3,0-0.5,0-0.8,0c-0.1,0-0.1,0-0.2,0l-4.4,0.2c-0.8,0-9.3,0.3-10,0.3
		c-6.4,0.2-8.9,2.8-8.9,2.8c-0.1,0.1-0.3,0.3-0.5,0.5l-0.1,0.2c-0.1,0.1-0.2,0.2-0.3,0.3l-0.2,0.2c-0.1,0.1-0.3,0.3-0.4,0.5
		l-0.6,0.8c0,0-0.1,0.1-0.1,0.1l-0.4,0.6c-0.1,0.2-0.3,0.4-0.4,0.7l-0.1,0.2c-0.1,0.2-0.2,0.3-0.2,0.5l-0.1,0.2
		c-0.1,0.1-0.1,0.3-0.2,0.4l-0.1,0.3c-0.1,0.2-0.1,0.4-0.2,0.6L88.2,89.8l0-0.1L87.1,87L86,84.3l-1.1-2.8l-1.1-2.8L82.7,76l-1.1-2.8
		l-1.1-2.8l-1.1-2.8l-1.1-2.9l-1.1-2.9l-1.1-2.9L74.8,56v0l-1.1-2.9l-1.1-2.9h0c0,0,0,0,0,0l0,0c0,0,0,0,0,0
		c-0.1-0.2-0.2-0.5-0.3-0.8l0-0.1C72.1,49.2,72,49.1,72,49c0,0,0,0,0,0c0-0.1-0.1-0.1-0.1-0.2l0-0.1l-0.1-0.2l-0.1-0.1
		c0-0.1-0.1-0.1-0.1-0.2c0,0,0,0,0,0c0-0.1-0.1-0.2-0.1-0.2l0-0.1c0,0,0,0,0,0c0-0.1-0.1-0.1-0.1-0.2l-0.2-0.4
		c-0.1-0.1-0.1-0.2-0.2-0.3c-0.1-0.1-0.1-0.2-0.2-0.2c0,0-0.1-0.1-0.1-0.1l-0.3-0.4c-0.1-0.1-0.2-0.3-0.3-0.4
		c-0.1-0.1-0.2-0.3-0.4-0.4l0,0c-0.1-0.1-0.2-0.3-0.4-0.4c-0.1-0.1-0.1-0.1-0.2-0.2c-0.1-0.1-0.3-0.2-0.4-0.4
		c-0.1-0.1-0.2-0.2-0.3-0.2c-0.1-0.1-0.1-0.1-0.2-0.2c-0.5-0.4-0.9-0.7-1.4-1l-0.1-0.1c0,0,0,0,0,0c-0.1,0-0.1-0.1-0.2-0.1
		c-0.2-0.1-0.3-0.2-0.5-0.3l-0.6-0.3c0,0,0,0,0,0c0,0,0,0-0.1,0c0,0,0,0-0.1,0c0,0,0,0-0.1,0c0,0,0,0-0.1,0c0,0,0,0,0,0c0,0,0,0,0,0
		c-0.2-0.1-0.3-0.2-0.5-0.3l-0.6-0.3c0,0,0,0,0,0c0,0,0,0-0.1,0c0,0,0,0-0.1,0c0,0,0,0-0.1,0c0,0,0,0-0.1,0
		c-0.1-0.1-0.3-0.1-0.4-0.2c-0.1,0-0.1-0.1-0.2-0.1l-0.1,0c0,0,0,0,0,0c-0.1,0-0.2-0.1-0.3-0.1c-0.1,0-0.1,0-0.2-0.1l-0.1,0
		c0,0-0.1,0-0.1,0c-0.1,0-0.1,0-0.1,0c-0.2,0-0.3-0.1-0.5-0.1c0,0,0,0-0.1,0l0.1,0l-0.1,0l-0.1,0l-0.2,0c-0.1,0-0.1,0-0.1,0
		c-0.2,0-0.4-0.1-0.5-0.1c-0.1,0-0.1,0-0.2,0c0,0,0,0,0,0l0,0c-0.2,0-0.4,0-0.7,0l-0.2,0l0,0l0,0c0,0,0,0,0,0c-0.1,0-0.2,0-0.3,0
		l0,0l0,0l0,0l0,0l0,0c0,0,0,0,0,0l-8.1,0.3l0,0l0,0l0,0c0,0,0,0,0,0c0,0,0,0,0,0h0c0,0,0,0,0,0l0,0c0,0,0,0,0,0l-0.2,0
		c-0.5,0-1,0-1.6,0c-5.6-0.1-8.8,0.3-10.6,1.3c-0.5,0.3-1.3,0.8-2.2,1.6L36.4,44c-0.1,0.1-0.1,0.1-0.2,0.2l-0.5,0.5c0,0,0,0-0.1,0.1
		l-0.6,0.7l-0.2,0.3c-0.1,0.1-0.2,0.2-0.3,0.4l-0.3,0.4c-0.1,0.1-0.2,0.2-0.2,0.4l-0.1,0.2c-0.1,0.2-0.2,0.5-0.4,0.7L33,49
		c0,0,0,0.1,0,0.1c0,0,0,0.1,0,0.1c-0.1,0.2-0.1,0.4-0.2,0.6l-0.1,0.3c-0.2,0.7-0.4,1.3-0.5,1.9l-0.2,1.2c-0.1,0.3-0.1,0.6-0.1,1
		l-0.7,37.4c-0.8-0.9-2.1-1.5-3.4-1.4l-0.3-1.4c-0.4-1.7-2-2.9-3.8-2.6L9.5,88.9c-0.4,0.1-0.7,0.2-1,0.4c-0.1-1.8-0.2-3.6-0.2-5.4
		c0-11.5,2.9-22.4,8-32c0.9-0.2,1.8-0.5,2.6-1c0.1,0,0.1-0.1,0.2-0.1c0.1-0.1,0.3-0.2,0.4-0.3c0.1-0.1,0.2-0.2,0.3-0.3
		c0.1-0.1,0.2-0.2,0.3-0.3c0.1-0.1,0.2-0.2,0.4-0.4c0.1-0.1,0.1-0.2,0.2-0.2c0.2-0.2,0.3-0.5,0.5-0.7c13.4-21.9,38.5-35.4,65.6-35.4
		c27.1,0,52.3,13.6,65.6,35.4c0.1,0.2,0.3,0.4,0.4,0.6c0,0.1,0.1,0.1,0.1,0.2c0.1,0.1,0.2,0.3,0.3,0.4c0.1,0.1,0.1,0.1,0.2,0.2
		c0.1,0.1,0.2,0.2,0.4,0.3c0.1,0.1,0.1,0.1,0.2,0.1c0.1,0.1,0.3,0.2,0.4,0.3c0.1,0,0.1,0.1,0.2,0.1c0.1,0.1,0.3,0.2,0.5,0.3
		c0.1,0,0.1,0.1,0.2,0.1c0.2,0.1,0.3,0.2,0.5,0.2c0,0,0.1,0,0.1,0.1c0.2,0.1,0.4,0.1,0.6,0.2c0,0,0.1,0,0.1,0
		c0.2,0.1,0.5,0.1,0.7,0.2c5.1,9.7,8,20.5,8,32c0,2.2-0.1,4.4-0.3,6.6c-0.5-0.8-1.2-1.4-2.2-1.5l-14.1-2.5c-0.5-0.1-1.2-0.2-1.7,0.1
		l2.2,21.4l4.1-19.5l1.7,0.3l-5.3,25l3.1,29.1c0,0.2,0,0.3,0,0.5l0,0.7l0,0l0,0l0,0l0,0l-0.2,2.2c0,0.1,0,0.2,0,0.3l0,0.2l0,0.1
		c0,0.1,0,0.3-0.1,0.4l-0.2,0.8l0,0.1c0,0.1-0.1,0.2-0.1,0.4l-0.4,1.1l0,0l-0.4,0.9l-0.5,1c-0.6,1.3-1,2.2-2,3.3l-0.4,0.4
		c-0.1,0.1-0.2,0.2-0.2,0.2l-0.2,0.2c-0.1,0.1-0.2,0.2-0.3,0.3c-0.1,0.1-0.3,0.2-0.4,0.3l-0.1,0.1c-0.1,0.1-0.2,0.2-0.3,0.3
		l-0.2,0.1c-0.4,0.3-0.9,0.6-1.3,0.9l-0.1,0.1c-0.1,0.1-0.3,0.1-0.4,0.2l-0.2,0.1c-0.3,0.1-0.6,0.3-0.9,0.4l-0.1,0
		c-0.1,0-0.2,0.1-0.3,0.1c-0.1,0-0.2,0.1-0.3,0.1l-1.8,0.5c-0.1,0-0.2,0-0.3,0L141,159c-0.1,0-0.2,0-0.3,0l-0.4,0l-2.6,12.5
		l-1.7-0.3l2.5-12.2l-6.8,0.2v0c0,0-0.1,0-0.1,0c-0.1,0-0.2,0-0.3,0l-1.1-0.1c-0.4,0-0.8-0.1-1.2-0.2l-1.1-0.2
		c-0.5-0.1-0.9-0.3-1.3-0.4l-0.8,3.6c-0.4,2.1,0.8,4.1,2.7,4.8l-0.3,1.3c-0.4,1.8,0.8,3.6,2.6,3.9l14.1,2.5c1.7,0.3,3.4-0.8,3.8-2.6
		l0.4-2c0.4,0.1,0.7,0.1,1.1,0.1c3.3,0,6.3-2.4,6.9-5.6l1.3-6.1c3.1-5.3,6.3-14.1,8.4-24.3c2.1-10.2,2.8-19.5,2-25.5l1.2-5.7
		c0-0.1,0-0.2,0.1-0.4c1.6-6.1,2.4-12.4,2.4-18.7c0-12.1-2.9-23.8-8.4-34.4C166.1,47.4,166.5,44.4,165,42z M32.2,93.1l1.1-37.6
		c0-0.4,0-0.7,0-1.1c0-0.1,0-0.2,0-0.4c0-0.2,0-0.5,0.1-0.7l0-0.1c0-0.1,0-0.2,0-0.3c0.1-0.3,0.1-0.6,0.2-1l0-0.1
		c0.1-0.3,0.2-0.6,0.3-0.9c0-0.1,0.1-0.2,0.1-0.4c0.1-0.2,0.2-0.5,0.3-0.7l0-0.1c0-0.1,0.1-0.2,0.1-0.2c0.1-0.3,0.2-0.5,0.4-0.7
		c0.1-0.1,0.1-0.2,0.2-0.3c0.1-0.2,0.2-0.4,0.4-0.6c0.1-0.1,0.1-0.2,0.2-0.3c0.1-0.2,0.3-0.4,0.4-0.6c0.1-0.1,0.1-0.2,0.2-0.3
		c0.2-0.2,0.3-0.4,0.5-0.5c0.1-0.1,0.1-0.2,0.2-0.2c0.2-0.2,0.3-0.3,0.5-0.5c0.1-0.1,0.2-0.1,0.2-0.2c0.2-0.2,0.4-0.3,0.6-0.5
		l0.2-0.2c0.2-0.1,0.4-0.2,0.6-0.4c0.1-0.1,0.2-0.1,0.3-0.1c0.2-0.1,0.5-0.2,0.7-0.3l0.2-0.1c0.1,0,0.2-0.1,0.2-0.1c0,0,0.1,0,0.1,0
		c0.8-0.3,1.6-0.4,2.4-0.5l4.3-0.2c2-0.1,7.3,0,9.7,1.8c0.3,0.2,0.5,0.4,0.7,0.7c0,0,0.1,0.1,0.1,0.1c1.3,1.3,2.3,2.9,2.9,4.8
		c7.7,19.3,15.3,38.5,23,57.8c0.3-0.9,0.6-1.9,0.8-2.8c0.2,0,17.6-56.9,17.6-56.9c0.1-0.3,0.2-0.5,0.2-0.8l0.1-0.3
		c0.1-0.2,0.1-0.4,0.2-0.5c0-0.1,0.1-0.2,0.1-0.3c0.1-0.2,0.1-0.3,0.2-0.5l0.1-0.3c0.1-0.2,0.2-0.4,0.3-0.6l0.1-0.1
		c0.1-0.2,0.3-0.5,0.4-0.7l0.1-0.2c0.1-0.2,0.2-0.3,0.3-0.4l0.2-0.2c0.1-0.1,0.2-0.3,0.4-0.4l0.1-0.2c0.1-0.1,0.3-0.3,0.4-0.4
		l0.2-0.2c0,0,1.7-2.2,7.3-2.9c0.4,0,1.1-0.1,1.9-0.2c1.3-0.1,2.6-0.1,3.9-0.2c0.1,0,0.3,0,0.4,0c5.6,0,10.4,5.2,10.9,12
		c1.5,13.9,10,88.7,10,88.7s0.1,0.9,0.1,1.8c0.4,3.6-1.8,16.5-13.6,13.5c-0.2,0-0.8-0.2-1.6-0.7c-2-1.2-3.9-3.2-5.1-6.5
		c0-0.1,0-0.1-0.1-0.2c-0.1-0.2-0.2-0.5-0.2-0.8c0-0.1-0.1-0.2-0.1-0.3c-0.1-0.2-0.1-0.5-0.2-0.7c0-0.1-0.1-0.2-0.1-0.3
		c-0.1-0.2-0.1-0.5-0.2-0.8c0-0.1,0-0.2-0.1-0.3c-0.1-0.4-0.1-0.8-0.2-1.2c-0.4-9.2-1.1-17.6-1.6-22.6l-1.1-5.7L114,85.4v0
		c-0.1-2-0.3-4-0.4-6c-5.5,19.9-11,39.7-16.5,59.6c-1.4,5.1-5.2,8.5-9.6,8.7c-0.1,0-0.3,0-0.4,0l0,0c-8.9,0.1-11.5-4.7-11.5-4.7
		c-0.7-0.9-1.2-2-1.6-3.1L53,85.2l0,0c-0.3-0.9-0.7-1.8-1-2.7c0.3,21.3,0.7,42.6,1,63.8c0.1,5.8-2.9,10.6-7.2,12.3L32.2,93.9
		L32.2,93.1z M20.4,88.3l17.4,83.1l-1.7,0.3L18.6,88.6L20.4,88.3z M22.4,166.6c-0.1,0-0.3,0-0.4,0c-1.7,0-3.3-1.2-3.6-2.9l-0.1-0.4
		L5.5,102.2c-0.2-1,0-2,0.6-2.8C6.5,98.7,7.2,98.2,8,98L22.4,166.6z M167.7,99.4c0.6,0.8,0.8,1.8,0.6,2.8l-12.8,61.1l-0.1,0.4
		c-0.4,1.7-1.9,2.9-3.6,2.9c-0.1,0-0.3,0-0.4,0L165.8,98C166.5,98.2,167.2,98.7,167.7,99.4z"/>
</g>
</svg>
