<svg id="Camada_1" data-name="Camada 1" xmlns="http://www.w3.org/2000/svg" viewBox="0 0 514.64 122.41"><defs><style>.cls-1{fill:#5b5b5b;}</style></defs><title>massa-news-gray</title><path class="cls-1" d="M271.09,26.76c0-8.6,6.28-15.87,13.71-15.87,8.08,0,12.91,5.73,12.91,15.34v28.4h5.86V26.67c0-9.75,7.07-15.78,13.62-15.78,8.14,0,13,5.77,13,15.42V54.62h5.86V26c0-12.85-7.16-20.84-18.68-20.84-6.62,0-12.58,3.62-16.15,9.74-3.1-6.29-8.79-9.74-16.15-9.74a17.55,17.55,0,0,0-14,7.07v-6h-5.87V54.62h5.87V26.76Z" transform="translate(-1.23 -1.01)"/><path class="cls-1" d="M361.48,55.69c7.16,0,13.48-2.59,17.59-7.16v6.08h5.86V24.87c0-5.78-1.71-10.59-4.94-13.92-3.57-3.57-8.77-5.39-15.45-5.39a36.88,36.88,0,0,0-16.67,4.11l-1.28.62,2.27,5.29,1.42-.71a30.31,30.31,0,0,1,14.09-3.62c6.71,0,14.71,2.4,14.71,13.81v1a54,54,0,0,0-14.71-2c-13.1,0-21.56,6.31-21.56,16.07v0.18C342.8,50.89,352.48,55.69,361.48,55.69ZM348.84,40c0-6.3,5.91-10.21,15.42-10.21a49.9,49.9,0,0,1,14.88,2.12v4.49C379.15,44,371.47,50,361.66,50c-6.38,0-12.82-3-12.82-9.85V40Z" transform="translate(-1.23 -1.01)"/><path class="cls-1" d="M411,49.74a26.24,26.24,0,0,1-16-5.89l-1.19-.94-3.49,4.59,1.09,0.91a31.58,31.58,0,0,0,19.4,7c10.2,0,17.6-5.85,17.6-13.91V41.34c0-8.9-8-11.81-16.84-14.22-7.42-2.08-12.67-3.9-12.67-8.37V18.57c0-4.3,4.6-7.42,10.93-7.42a24.06,24.06,0,0,1,13.53,4.49l1.25,0.89,3.29-4.94-1.22-.83a31.09,31.09,0,0,0-16.77-5.3c-9.83,0-17,5.62-17,13.37V19c0,8.93,8.56,11.39,16.85,13.77,7.42,2,12.67,3.84,12.67,8.82v0.18C422.44,46.39,417.61,49.74,411,49.74Z" transform="translate(-1.23 -1.01)"/><path class="cls-1" d="M469.16,41.51V41.34c0-8.9-8-11.81-16.84-14.22-7.42-2.08-12.67-3.9-12.67-8.37V18.57c0-4.3,4.6-7.42,10.93-7.42a24.07,24.07,0,0,1,13.53,4.49l1.25,0.89,3.29-4.94-1.22-.83a31.1,31.1,0,0,0-16.77-5.3c-9.83,0-17,5.62-17,13.37V19c0,8.93,8.56,11.39,16.85,13.77,7.42,2,12.67,3.84,12.67,8.82v0.18c0,4.61-4.82,8-11.47,8a26.24,26.24,0,0,1-16-5.89l-1.19-.94-3.49,4.59,1.09,0.91a31.57,31.57,0,0,0,19.4,7C461.76,55.42,469.16,49.57,469.16,41.51Z" transform="translate(-1.23 -1.01)"/><path class="cls-1" d="M510.93,10.95h0c-3.57-3.57-8.77-5.39-15.45-5.39a36.85,36.85,0,0,0-16.67,4.11l-1.28.62,2.27,5.29,1.41-.71a30.31,30.31,0,0,1,14.09-3.62C502,11.24,510,13.64,510,25v1a54,54,0,0,0-14.71-2c-13.1,0-21.56,6.31-21.56,16.07v0.18c0,10.55,9.68,15.35,18.68,15.35,7.17,0,13.48-2.59,17.59-7.15v6.08h5.86V24.87C515.86,19.09,514.16,14.27,510.93,10.95Zm-0.84,25.44C510.09,44,502.41,50,492.6,50c-6.38,0-12.82-3-12.82-9.85V40c0-6.3,5.91-10.21,15.42-10.21a49.9,49.9,0,0,1,14.89,2.12v4.49Z" transform="translate(-1.23 -1.01)"/><path class="cls-1" d="M352.93,101.16H339.1V115.5h28.84A15,15,0,0,0,352.93,101.16Z" transform="translate(-1.23 -1.01)"/><path class="cls-1" d="M434.94,114.85h28.37a15,15,0,0,0,15-14.34H449.95A15,15,0,0,0,434.94,114.85Z" transform="translate(-1.23 -1.01)"/><path class="cls-1" d="M301.81,79.19v36.32a15,15,0,0,0,14.34-15V64.18A15,15,0,0,0,301.81,79.19Z" transform="translate(-1.23 -1.01)"/><path class="cls-1" d="M266.11,79.16v36.32a15,15,0,0,0,14.34-15V64.14A15,15,0,0,0,266.11,79.16Z" transform="translate(-1.23 -1.01)"/><path class="cls-1" d="M337.72,115.48V64.14a15.31,15.31,0,0,0-14.34,15.47v20.85A15,15,0,0,0,337.72,115.48Z" transform="translate(-1.23 -1.01)"/><path class="cls-1" d="M367.94,64.13H339.1V78.47h13.83A15,15,0,0,0,367.94,64.13Z" transform="translate(-1.23 -1.01)"/><path class="cls-1" d="M360,82.51H339.1V96.85h5.84A15,15,0,0,0,360,82.51Z" transform="translate(-1.23 -1.01)"/><path class="cls-1" d="M373.11,64.18V100.5a15,15,0,0,0,14.34,15V79.19A15,15,0,0,0,373.11,64.18Z" transform="translate(-1.23 -1.01)"/><path class="cls-1" d="M414.61,79.19v36.32a15,15,0,0,0,14.34-15V64.18A15,15,0,0,0,414.61,79.19Z" transform="translate(-1.23 -1.01)"/><polygon class="cls-1" points="400.24 99.33 412.01 113.3 412.01 90.14 400.24 77.66 400.24 99.33"/><path class="cls-1" d="M478.29,64.81H449.92a15,15,0,0,0-15,14.34h28.37A15,15,0,0,0,478.29,64.81Z" transform="translate(-1.23 -1.01)"/><polygon class="cls-1" points="280.6 88.37 299.2 113.13 299.2 89.25 280.6 64.49 280.6 88.37"/><polygon class="cls-1" points="387.6 113.24 398.86 99.34 398.86 77.7 387.6 90.03 387.6 113.24"/><polygon class="cls-1" points="434.81 79.51 455.84 98.11 475.98 98.11 454.95 79.51 434.81 79.51"/><polygon class="cls-1" points="0 88.88 3.43 111.07 13.47 93.39 0 88.88"/><polygon class="cls-1" points="111.86 9.38 77.96 69.12 77.38 113.03 111.69 50.99 111.86 9.38"/><path class="cls-1" d="M99.91,3.3C86-2.23,69.25,2.62,62.6,14.1l-57,100.51,12.14,4.82h0c13.93,5.52,30.66.68,37.31-10.8l57-100.51Z" transform="translate(-1.23 -1.01)"/><path class="cls-1" d="M171.45,4.17c-13.21-5.24-29.37-.17-36,11.31L79.4,116.8l11.49,4.56c13.21,5.24,29.37.17,36-11.31l56-101.31Z" transform="translate(-1.23 -1.01)"/><polygon class="cls-1" points="181.93 11.52 148.4 72.16 148.2 110.33 180.93 54.48 181.93 11.52"/><path class="cls-1" d="M188.58,48.54l-38.76,66.14,10.23,4.76c13.92,5.51,30.64.66,37.28-10.81l36.73-66.07-12.15-4.82C208.54,32.43,195.46,36.67,188.58,48.54Z" transform="translate(-1.23 -1.01)"/></svg>