<?xml version="1.0" encoding="utf-8"?>
<!-- Generator: Adobe Illustrator 19.2.1, SVG Export Plug-In . SVG Version: 6.00 Build 0)  -->
<svg version="1.1" id="Camada_1" xmlns="http://www.w3.org/2000/svg" xmlns:xlink="http://www.w3.org/1999/xlink" x="0px" y="0px"
	 viewBox="0 0 383.3 118.3" style="enable-background:new 0 0 383.3 118.3;" xml:space="preserve">
<style type="text/css">
	.st0{fill:#5B5B5B;}
</style>
<title>massaplayhorizontal</title>
<g>
	<path class="st0" d="M159.2,40.1l-16,13.7l-16-13.7c-0.2-0.3-0.4-0.3-0.4,0v32h8.1V58.7l8,7.6c0.1,0.1,0.1,0.1,0.2,0.1
		c0.1,0,0.1,0,0.2-0.1l8-7.6v13.6h8.1v-32C159.6,39.9,159.5,39.9,159.2,40.1z"/>
	<path class="st0" d="M177.3,39.7c-0.1,0-0.2,0.1-0.3,0.2l-15.4,32.3h8.3l1.2-2.7h11.9l1.2,2.7h8.8L177.5,40
		C177.5,39.8,177.4,39.7,177.3,39.7z M173.7,63.2l3.2-7.4l3.3,7.4H173.7z"/>
	<path class="st0" d="M215.7,57c-0.7-0.8-1.5-1.5-2.6-2.1c-1.1-0.6-2.4-1.2-4-1.7l-4.2-1.4c-0.8-0.2-1.3-0.5-1.7-0.9
		c-0.4-0.3-0.5-0.8-0.5-1.4c0-0.6,0.3-1.1,0.8-1.6c0.5-0.4,1.3-0.6,2.3-0.6c1.3,0,2.3,0.2,3.1,0.6c0.8,0.4,1.5,1,2.1,1.7l4.9-5.1
		c-0.5-0.6-1-1.1-1.7-1.6c-0.6-0.5-1.4-0.9-2.2-1.3c-0.8-0.4-1.8-0.7-2.9-0.9c-1.1-0.2-2.4-0.4-3.8-0.4c-1.4,0-2.8,0.2-4.1,0.6
		c-1.3,0.4-2.5,1-3.5,1.8c-1,0.8-1.8,1.8-2.4,3c-0.6,1.2-0.9,2.5-0.9,4.1c0,1.3,0.2,2.5,0.6,3.5c0.4,1,0.9,1.9,1.6,2.7
		c0.7,0.8,1.5,1.4,2.5,2c1,0.6,2,1,3.2,1.4l3.7,1.3c1.1,0.3,1.8,0.7,2.4,1.1c0.5,0.4,0.8,0.9,0.8,1.6c0,0.9-0.3,1.5-1,1.9
		c-0.7,0.4-1.7,0.6-3,0.6c-1.6,0-2.9-0.3-3.9-1c-1-0.7-1.9-1.5-2.7-2.4l-6.2,4.6c0.5,0.7,1.1,1.3,1.9,2c0.8,0.7,1.7,1.3,2.8,1.9
		c1.1,0.6,2.3,1,3.7,1.4c1.4,0.4,3,0.6,4.8,0.6c2.1,0,3.9-0.2,5.4-0.7c1.5-0.5,2.8-1.2,3.8-2.1c1-0.9,1.7-1.9,2.2-3.2
		c0.5-1.2,0.7-2.6,0.7-4c0-1.1-0.1-2.2-0.4-3.1C216.9,58.6,216.4,57.7,215.7,57z"/>
	<path class="st0" d="M243.7,59.6c-0.3-0.9-0.8-1.8-1.4-2.6c-0.7-0.8-1.5-1.5-2.6-2.1c-1.1-0.6-2.4-1.2-4-1.7l-4.2-1.4
		c-0.8-0.2-1.3-0.5-1.7-0.9c-0.4-0.3-0.5-0.8-0.5-1.4c0-0.6,0.3-1.1,0.8-1.6c0.5-0.4,1.3-0.6,2.3-0.6c1.3,0,2.3,0.2,3.1,0.6
		c0.8,0.4,1.5,1,2.1,1.7l4.9-5.1c-0.5-0.6-1-1.1-1.7-1.6c-0.6-0.5-1.4-0.9-2.2-1.3c-0.8-0.4-1.8-0.7-2.9-0.9
		c-1.1-0.2-2.4-0.4-3.8-0.4c-1.4,0-2.8,0.2-4.1,0.6c-1.3,0.4-2.5,1-3.5,1.8c-1,0.8-1.8,1.8-2.4,3c-0.6,1.2-0.9,2.5-0.9,4.1
		c0,1.3,0.2,2.5,0.6,3.5c0.4,1,0.9,1.9,1.6,2.7c0.7,0.8,1.5,1.4,2.5,2c1,0.6,2,1,3.2,1.4l3.7,1.3c1.1,0.3,1.8,0.7,2.4,1.1
		c0.5,0.4,0.8,0.9,0.8,1.6c0,0.9-0.3,1.5-1,1.9c-0.7,0.4-1.7,0.6-3,0.6c-1.6,0-2.9-0.3-3.9-1c-1-0.7-1.9-1.5-2.7-2.4l-6.2,4.6
		c0.5,0.7,1.1,1.3,1.9,2c0.8,0.7,1.7,1.3,2.8,1.9c1.1,0.6,2.3,1,3.7,1.4c1.4,0.4,3,0.6,4.8,0.6c2.1,0,3.9-0.2,5.4-0.7
		c1.5-0.5,2.8-1.2,3.8-2.1c1-0.9,1.7-1.9,2.2-3.2c0.5-1.2,0.7-2.6,0.7-4C244.1,61.5,244,60.5,243.7,59.6z"/>
	<path class="st0" d="M259.8,39.7c-0.1,0-0.2,0.1-0.3,0.2l-15.4,32.3h8.3l1.2-2.7h11.9l1.2,2.7h8.8L260,40
		C260,39.8,259.9,39.7,259.8,39.7z M256.2,63.2l3.2-7.4l3.3,7.4H256.2z"/>
	<path class="st0" d="M297,43.3c-1.1-1.1-2.5-1.9-4.2-2.5c-1.7-0.6-3.7-0.9-5.9-0.9h-7.4v32.8h3.5v-8.2h4c2.3,0,4.2-0.3,5.9-0.9
		c1.7-0.6,3.1-1.4,4.2-2.5c1.1-1.1,2-2.4,2.6-3.9c0.6-1.5,0.9-3.2,0.9-5c0-1.8-0.3-3.5-0.9-5C299,45.7,298.1,44.4,297,43.3z
		 M296.2,56c-0.4,1.1-1,2.1-1.8,2.9c-0.8,0.8-1.8,1.5-3.1,1.9c-1.3,0.5-2.8,0.7-4.7,0.7h-3.8V43h3.8c1.8,0,3.4,0.2,4.7,0.7
		c1.3,0.5,2.3,1.1,3.1,1.9c0.8,0.8,1.4,1.8,1.8,2.9c0.4,1.1,0.6,2.4,0.6,3.7C296.8,53.6,296.6,54.9,296.2,56z"/>
	<polygon class="st0" points="309.2,39.9 305.7,39.9 305.7,72.7 324.6,72.7 324.6,69.6 309.2,69.6 	"/>
	<path class="st0" d="M342,39.6l-13.6,33.1h3.4l2.2-5.5h16.6l2.2,5.5h3.7l-13.9-33.1H342z M343.1,48.4c0.1,0.5,0.3,0.9,0.5,1.3
		l5.8,14.6h-14.1l5.8-14.6c0.2-0.4,0.3-0.8,0.5-1.3c0.1-0.4,0.3-0.9,0.4-1.3c0.1-0.4,0.3-0.9,0.4-1.4c0.1,0.5,0.3,1,0.4,1.4
		C342.8,47.5,342.9,47.9,343.1,48.4z"/>
	<path class="st0" d="M379.7,39.9l-8.9,16.3c-0.2,0.4-0.3,0.7-0.5,1.1c-0.2,0.4-0.3,0.7-0.5,1.1c-0.2,0.4-0.3,0.8-0.4,1.2
		c-0.2-0.4-0.3-0.8-0.4-1.2c-0.1-0.4-0.3-0.7-0.5-1.1c-0.2-0.4-0.3-0.7-0.5-1l-8.9-16.3h-3.9l12.4,22.5v10.3h3.6V62.3l12.2-22.4
		H379.7z"/>
	<path class="st0" d="M75.4,56.2L55.2,50c-1.3-0.4-2.5,0.7-2.3,2l2.1,17c0.2,1.3,1.6,2,2.8,1.3l18.2-10.9
		C77.2,58.7,77,56.6,75.4,56.2z"/>
	<path class="st0" d="M55.7,79.4c0.1,0,0.2,0,0.3-0.1C55.9,79.4,55.8,79.4,55.7,79.4z"/>
	<path class="st0" d="M56,79.3c0.8-0.2,1.6-0.4,2.5-0.6C57.7,79,56.8,79.2,56,79.3z"/>
	<path class="st0" d="M53.5,79.8c0.7-0.1,1.4-0.2,2.2-0.4C55,79.5,54.2,79.7,53.5,79.8z"/>
	<path class="st0" d="M90.3,49.5c-0.5-3.9-3.4-7-8.8-9.4c-17.2-7.5-35.9-9.4-41.1-6l-0.1,0.1c-3.4,2.2-5.7,9.8-5.7,19.4
		c0,0.6,0,1.1,0,1.7c0,0.2,0,0.3,0,0.5c0,0.4,0,0.9,0.1,1.4c0,0.1,0,0.3,0,0.4c0,0.6,0.1,1.2,0.1,1.8c0,0.1,0,0.2,0,0.3
		c0,0.5,0.1,1,0.2,1.5c0,0.2,0,0.4,0.1,0.5c0.1,0.5,0.1,1,0.2,1.5c0,0.1,0,0.2,0.1,0.3c0.1,0.6,0.2,1.2,0.3,1.8
		c0,0.2,0.1,0.3,0.1,0.5c0.1,0.5,0.2,1,0.3,1.4c0,0.2,0.1,0.4,0.1,0.5c0.1,0.6,0.3,1.2,0.5,1.9c1.3,5,4.1,8.3,8.4,9.6
		c0.4,0.1,0.8,0.2,1.2,0.3c0.1,0,0.3,0.1,0.4,0.1c0.3,0.1,0.6,0.1,0.9,0.2c0.2,0,0.5,0.1,0.7,0.1c0.3,0,0.5,0.1,0.8,0.1
		c0.3,0,0.5,0,0.8,0c0.1,0,0.2,0,0.4,0c1,0,2-0.1,3-0.2c-0.5-0.1-1-0.1-1.4-0.3c-3-0.8-5-2.6-6-5.6c-0.1-0.4-0.3-0.8-0.4-1.2
		c-2.5-10.2-0.6-21.7,4-24.6l0.1-0.1c4.5-2.8,18.7-1.5,30.3,2.8c3.4,1.3,5.5,3,6.3,5.2c0.2,0.5,0.3,1,0.3,1.5c0.1,1-0.1,2.1-0.5,3.2
		c1.1-1.4,2.1-2.9,2.8-4.3c0.1-0.1,0.1-0.2,0.2-0.3c0.1-0.3,0.3-0.6,0.4-0.9c0.1-0.2,0.1-0.4,0.2-0.6c0.1-0.2,0.1-0.3,0.2-0.5
		c0.1-0.3,0.2-0.6,0.3-0.9c0-0.1,0.1-0.2,0.1-0.3c0.1-0.3,0.1-0.7,0.2-1c0-0.1,0-0.2,0-0.2c0-0.3,0.1-0.7,0.1-1c0,0,0,0,0,0
		c0,0,0,0,0,0C90.4,50.3,90.3,49.9,90.3,49.5z"/>
	<path class="st0" d="M53.5,79.8C53.5,79.8,53.5,79.8,53.5,79.8C53.4,79.8,53.4,79.8,53.5,79.8C53.5,79.8,53.5,79.8,53.5,79.8z"/>
	<path class="st0" d="M74,71.3c-2.7,1.8-5.3,3.3-7.9,4.5C68.6,74.6,71.3,73.1,74,71.3l0.1-0.1c3.1-2.1,5.8-4.2,8.1-6.4
		c-2.3,2.1-5,4.3-8.1,6.3L74,71.3z"/>
	<path class="st0" d="M98.2,28.2C70.3,16,37.7,11.7,26.1,19.5c-11.7,7.6-15.2,35.7-8.4,61.9c6.8,26.2,37.4,28.2,70.2,6.5
		C120.7,66.2,126.2,40.4,98.2,28.2z M74.4,71.9L74.3,72C63.1,79.4,52,82.4,44.6,80c-4.1-1.3-6.9-4.2-8.5-8.5
		c-0.2-0.5-0.4-1.1-0.5-1.7c-4.4-17.1-1.5-32.9,4-36.5l0.1-0.1c5.4-3.5,24-2,42.1,5.9c4.7,2.1,7.7,4.7,8.8,8
		c0.2,0.7,0.4,1.4,0.5,2.1C91.9,56,85.7,64.4,74.4,71.9z"/>
</g>
</svg>
