<?xml version="1.0" encoding="utf-8"?>
<!-- Generator: Adobe Illustrator 19.2.1, SVG Export Plug-In . SVG Version: 6.00 Build 0)  -->
<svg version="1.1" id="Camada_1" xmlns="http://www.w3.org/2000/svg" xmlns:xlink="http://www.w3.org/1999/xlink" x="0px" y="0px"
	 viewBox="0 0 376.6 419.8" style="enable-background:new 0 0 376.6 419.8;" xml:space="preserve">
<style type="text/css">
	.st0{fill:#5B5B5B;}
</style>
<title>massafmvertical</title>
<g>
	<path class="st0" d="M77,285.9h-6.2c-4.1,0-7.8,2.6-9.2,6.3l-16,38.1l-15.9-38c-1.4-3.8-5.1-6.4-9.2-6.4h-6.1
		c-5.3,0-9.6,4.2-9.8,9.3l-4.6,62c-0.1,2.7,0.9,5.2,2.7,7.2c1.9,1.9,4.4,3,7.2,3c5.3,0,9.6-4.2,9.8-9.5l1.3-38.8l13.9,35.6
		c1.5,3.8,5.1,6.2,9.1,6.2h3c4.1,0,7.7-2.5,9.1-6.2l14-35.7l1.5,39c0.2,5.3,4.5,9.5,9.8,9.5c2.7,0,5.2-1.1,7.1-3
		c1.9-1.9,2.8-4.5,2.7-7.3l-4.5-61.7C86.7,290.1,82.4,285.9,77,285.9z"/>
	<path class="st0" d="M161.5,367.4h0.9c3.3,0,6.3-1.6,8.2-4.3c1.8-2.7,2.2-6.2,1-9.2l-1-2.4c0-0.1-0.1-0.2-0.2-0.4l-23.9-59
		c-1.5-3.7-5.1-6.2-9.1-6.2h-7.1c-4,0-7.6,2.4-9.1,6.2l-25,61.8c-1.2,3-0.9,6.5,1,9.2c1.8,2.7,4.9,4.3,8.2,4.3c4,0,7.7-2.5,9.2-6.3
		l5.9-15.2h26.1l5.8,15.2C153.8,364.8,157.5,367.4,161.5,367.4z M127.4,327.9l6-15.6l6.1,15.6H127.4z"/>
	<path class="st0" d="M225.2,323.9c-5-3.5-11.2-5.5-16.6-7.2c-8.3-2.6-13.4-4.5-13.4-8.6c0-0.2,0-0.3,0-0.5c0,0-0.1-1.4,1-2.6
		c3.1-3.6,12.9-4,26.5-0.8c0.6,0.2,1.3,0.2,2,0.2c4.8,0,8.6-3.9,8.6-8.6c0-3.9-2.6-7.3-6.3-8.3c-4.1-1.1-12.2-3-20.8-3
		c-19.3,0-31.3,9.6-31.3,25.1c0,8.9,3.7,15.4,11,19.9c5,3.5,11.2,5.5,16.6,7.2c8.3,2.6,13.4,4.5,13.4,8.6c0,0.2,0,0.3,0,0.5
		c0,0,0.1,1.4-1,2.6c-1.7,1.9-5.4,3-10.6,3h0c-4.3,0-9.7-0.7-15.9-2.2c-0.7-0.2-1.3-0.2-2-0.2c-4.8,0-8.6,3.9-8.6,8.6
		c0,3.9,2.6,7.3,6.3,8.3c4.1,1.1,12.2,3,20.8,3c19.3,0,31.3-9.6,31.3-25.1C236.2,334.9,232.5,328.3,225.2,323.9z"/>
	<path class="st0" d="M286.3,323.9c-5-3.5-11.2-5.5-16.6-7.2c-8.3-2.6-13.4-4.5-13.4-8.6c0-0.1,0-0.3,0-0.4c0-0.1-0.1-1.5,1.1-2.8
		c1.7-1.9,5.4-2.9,10.5-2.9c4.3,0,9.7,0.7,15.9,2.2c0.6,0.2,1.3,0.2,2,0.2c4.8,0,8.6-3.9,8.6-8.6c0-3.9-2.6-7.3-6.3-8.3
		c-4.1-1.1-12.2-3-20.8-3c-19.3,0-31.3,9.6-31.3,25.1c0,8.9,3.7,15.4,11,19.9c5,3.5,11.2,5.5,16.6,7.2c8.3,2.6,13.4,4.5,13.4,8.6
		c0,0.1,0,0.3,0,0.4c0,0.1,0.1,1.5-1.1,2.8c-1.7,1.9-5.4,2.9-10.5,2.9h0c-4.3,0-9.7-0.7-15.9-2.2c-0.7-0.2-1.3-0.2-2-0.2
		c-4.8,0-8.6,3.9-8.6,8.6c0,3.9,2.6,7.3,6.3,8.3c4.1,1.1,12.2,3,20.8,3c19.3,0,31.3-9.6,31.3-25.1
		C297.4,334.9,293.7,328.3,286.3,323.9z"/>
	<path class="st0" d="M375.9,353.8l-1-2.4c0-0.1-0.1-0.2-0.2-0.4l-23.9-59c-1.5-3.7-5.1-6.2-9.1-6.2h-7.1c-4,0-7.6,2.4-9.1,6.2
		l-25,61.8c-1.2,3-0.9,6.5,1,9.2c1.8,2.7,4.9,4.3,8.2,4.3c4,0,7.7-2.5,9.2-6.3l5.8-15.2h26.1l5.8,15.2c1.5,3.8,5.2,6.3,9.2,6.3h0.9
		c3.3,0,6.3-1.6,8.2-4.3C376.8,360.3,377.1,356.9,375.9,353.8z M331.8,327.9l6-15.6l6.1,15.6H331.8z"/>
	<path class="st0" d="M175.7,380.7h-20.2c-1.8,0-3.2,1.4-3.2,3.2v32.8c0,1.8,1.4,3.2,3.2,3.2h1.5c1.8,0,3.2-1.4,3.2-3.2v-12.2h10.4
		c0.9,0,1.8-0.4,2.4-1c0.6-0.6,0.9-1.4,0.9-2.3c-0.1-1.8-1.5-3.1-3.2-3.1h-10.5v-10.9h15.5c1.6,0,3-1.1,3.3-2.7
		c0.2-0.9-0.1-1.9-0.7-2.6C177.5,381.1,176.6,380.7,175.7,380.7z M175.5,385H159c-0.6,0-1,0.5-1,1V399c0,0.6,0.5,1,1,1h11.6
		c0.6,0,1.1,0.5,1.1,1.1c0,0.4-0.2,0.6-0.3,0.8c-0.2,0.3-0.6,0.4-0.9,0.4H159c-0.6,0-1,0.5-1,1v13.3c0,0.6-0.5,1.1-1.1,1.1h-1.5
		c-0.6,0-1.1-0.5-1.1-1.1v-32.8c0-0.6,0.5-1.1,1.1-1.1h20.2c0.3,0,0.6,0.1,0.9,0.4c0.2,0.3,0.3,0.6,0.2,0.9
		C176.7,384.6,176.1,385,175.5,385z"/>
	<path class="st0" d="M218.9,380.7h-3.7c-1.5,0-2.9,0.9-3.4,2.3c-0.1,0.2-6.4,15.5-9.2,21.9c-2.8-6.4-9.1-21.7-9.2-21.9
		c-0.5-1.4-1.9-2.4-3.4-2.4h-3.7c-1.9,0-3.5,1.5-3.6,3.4l-1.9,32c0,1,0.3,1.9,1,2.6c0.7,0.7,1.6,1.1,2.6,1.1c2,0,3.6-1.5,3.7-3.5
		l-0.1,0c0,0,0,0,0,0h0.1c0-0.1,0-0.1,0-0.2c0.1-0.7,0.1-1.9,0.2-3.8c0.2-3.4,0.4-9.5,0.9-20.7c6.5,16,8.7,20.9,9.6,22.5l-0.1,0
		c0.5,1.4,1.9,2.3,3.3,2.3h0.8c1.5,0,2.8-0.9,3.3-2.3l-0.1,0c1-1.5,3.1-6.5,9.6-22.5c0.5,11.2,0.8,17.3,0.9,20.7
		c0.1,1.9,0.1,3,0.2,3.8c0,0.1,0,0.1,0,0.2h0.1c0,0,0,0,0,0l-0.1,0c0.1,2,1.6,3.5,3.7,3.5c1,0,1.9-0.4,2.6-1.1c0.7-0.7,1-1.6,1-2.6
		l-1.9-31.9C222.5,382.2,220.9,380.7,218.9,380.7z M221.9,417.3c-0.3,0.3-0.7,0.5-1.1,0.5c-0.9,0-1.6-0.6-1.6-1.5c0,0,0-0.1,0-0.1
		c0-0.4-0.2-3.6-1.4-29.3c0-0.5-0.4-0.9-0.9-1c-0.5-0.1-1,0.2-1.1,0.6c-9.1,22.4-10.9,26-11.2,26.6c-0.1,0.1-0.2,0.2-0.2,0.3
		c-0.2,0.6-0.8,1-1.4,1h-0.8c-0.6,0-1.2-0.4-1.4-1c0-0.1-0.1-0.2-0.2-0.3c-0.3-0.6-2.1-4.2-11.2-26.6c-0.2-0.5-0.7-0.7-1.1-0.6
		c-0.5,0.1-0.8,0.5-0.9,1c-1.2,25.8-1.3,29-1.4,29.3c0,0,0,0.1,0,0.1c0,0.8-0.7,1.5-1.6,1.5c-0.4,0-0.8-0.2-1.1-0.5
		c-0.3-0.3-0.4-0.7-0.4-1.1l1.9-32c0-0.8,0.7-1.5,1.5-1.5h3.7c0.6,0,1.2,0.4,1.4,1c0.3,0.8,8.3,20.1,10.2,24.1
		c0.2,0.4,0.5,0.6,0.9,0.6c0.4,0,0.8-0.2,0.9-0.6c1.9-4,9.8-23.3,10.2-24.1c0.2-0.6,0.8-1,1.4-1h3.7c0.8,0,1.5,0.6,1.5,1.5l1.9,31.9
		C222.4,416.6,222.2,417,221.9,417.3z"/>
	<path class="st0" d="M313.3,209.2c3.3-15.9,4.3-30.4,3.1-39.7l1.9-8.8c0-0.2,0.1-0.4,0.1-0.6c2.5-9.5,3.8-19.3,3.8-29.2
		c0-18.9-4.5-37.1-13.1-53.6c2.8-3.2,3.4-7.8,1-11.6c-12-19.6-29.4-36-50.3-47.6C238.2,6.3,213.5,0,188.3,0
		c-25.2,0-49.9,6.3-71.4,18.1C96,29.7,78.6,46.1,66.6,65.7c-2.3,3.8-1.8,8.4,1,11.6C59,93.8,54.5,112,54.5,130.9
		c0,9.3,1.1,18.6,3.4,27.6c0,0.6,0.1,1.2,0.2,1.8l1,4.7c-2.3,8.7-1.7,25.4,2.2,44.2c3.9,18.8,10.1,34.5,15.8,41.8l1.1,5.2
		c0.9,4.4,4.8,7.4,9.1,7.4c0.4,0,0.9,0,1.3-0.1l1,4.9c0.6,2.7,3.2,4.5,5.9,4l22.1-4c2.8-0.5,4.7-3.3,4.1-6.1l-0.4-2
		c3-1.1,4.9-4.2,4.2-7.4l-0.3-1.2l5.1-0.2l4.8-0.2c0.2,0,0.3,0,0.6,0c0.1,0,0.3,0,0.5,0c0.2,0,0.4,0,0.6-0.1c0,0,0.1,0,0.1,0
		c0,0,0,0,0.1,0c0,0,0,0,0.1,0c0,0,0,0,0.1,0c0,0,0,0,0.1,0c0,0,0,0,0.1,0c0,0,0,0,0.1,0c0,0,0,0,0,0c0,0,0,0,0,0c0,0,0,0,0,0
		c0,0,0,0,0,0c0.1,0,0.1,0,0.2,0l0.2,0l0,0c0,0,0,0,0,0l0.1,0l0,0c0,0,0.1,0,0.1,0c0,0,0.1,0,0.1,0c0.1,0,0.1,0,0.2,0l0,0
		c0,0,0,0,0,0l0.4-0.1c0.1,0,0.2-0.1,0.3-0.1c0.4-0.1,0.8-0.2,1.2-0.4c0,0,0.1,0,0.1,0c0,0,0,0,0,0l0.2-0.1c0.2-0.1,0.4-0.2,0.6-0.3
		l0.3-0.1c0,0,0,0,0,0c0.2-0.1,0.3-0.2,0.5-0.2c0.4-0.2,0.7-0.3,1-0.5c0,0,0,0,0,0c0,0,0,0,0,0c0.6-0.3,1.4-0.8,2.4-1.7c0,0,0,0,0,0
		l0.1-0.1c0.2-0.2,0.5-0.4,0.7-0.6l0.2-0.2c0.1-0.1,0.2-0.2,0.3-0.3c0,0,0.1-0.1,0.1-0.1l0,0l0,0c0.2-0.2,0.5-0.5,0.7-0.7l0,0l0,0
		l0.9-1.1c0,0,0,0,0,0c0-0.1,0.1-0.1,0.1-0.2c0.2-0.2,0.4-0.5,0.7-0.9c0,0,0.1-0.1,0.1-0.1c0,0,0,0,0,0l0.1-0.1c0,0,0,0,0,0
		c0-0.1,0.1-0.2,0.1-0.2c0.1-0.2,0.2-0.4,0.4-0.6c0,0,0-0.1,0.1-0.1l0.1-0.1l0-0.1c0,0,0,0,0,0c0.1-0.2,0.2-0.4,0.4-0.7
		c0-0.1,0.1-0.1,0.1-0.2c0.1-0.2,0.2-0.4,0.3-0.5c0,0,0,0,0,0l0-0.1l0.1-0.2c0,0,0,0,0,0c0.1-0.2,0.2-0.5,0.3-0.8l0.1-0.2l0.1-0.2
		c0,0,0,0,0,0c0,0,0-0.1,0-0.1c0-0.1,0.1-0.1,0.1-0.2c0,0,0-0.1,0-0.1c0-0.1,0-0.1,0.1-0.2c0,0,0,0,0,0c0,0,0,0,0,0c0,0,0,0,0,0
		c0,0,0,0.1-0.1,0.1c0.1-0.2,0.1-0.4,0.2-0.5c0,0,0-0.1,0-0.1c0,0,0,0,0,0c0,0,0,0,0,0c0,0,0,0,0,0c0.1-0.2,0.1-0.3,0.2-0.5
		c0,0,0,0,0,0c0.3-1,0.5-1.7,0.7-2.5c0,0,0,0,0,0c0-0.1,0.1-0.3,0.1-0.4c0-0.1,0-0.1,0-0.2c0,0,0,0,0-0.1l0-0.1l0,0
		c0-0.1,0-0.2,0-0.2c0,0.1,0,0.1,0,0.1l0.1-0.5l0-0.1c0-0.3,0.1-0.5,0.1-0.8c0-0.1,0-0.2,0-0.4c0,0,0,0,0-0.1c0-0.1,0-0.2,0-0.3
		c0,0,0-0.1,0-0.1c0-0.1,0-0.2,0-0.3c0,0,0,0,0-0.1c0-0.1,0-0.3,0-0.4c0,0,0,0,0,0c0,0,0-0.1,0-0.1c0,0,0,0,0,0c0-0.1,0-0.2,0-0.3
		c0-0.1,0-0.2,0-0.3l0-0.4l0-0.2c0,0,0,0,0,0l0,0c0,0.1,0,0.2,0,0.3c0-0.3,0-0.6,0-0.9v0l0-0.4c0-2.8-0.1-5.7-0.1-8.5l0-1l0-1.8
		c0-2.4-0.1-4.9-0.1-7.3l0-0.8l0,0c0-0.5,0-1,0-1.6l-0.1-3.3l-0.1-4.9l0-2.4c0-1.6-0.1-3.3-0.1-4.9l0-2.3l-0.1-3.5
		c0-0.4,0-0.8,0-1.3l13,34.8c0.1,0.3,0.2,0.6,0.3,0.8l0.7,1.6c0.1,0.2,0.2,0.4,0.4,0.7l0.9,1.5c0.2,0.2,0.4,0.5,0.5,0.8
		c0,0,4.1,7,14.2,8.5c0,0,0,0,0.1,0l0.6,0.1c0.1,0,0.2,0,0.4,0.1l0,0c0.3,0,0.6,0.1,0.9,0.1c0.2,0,0.4,0,0.6,0c0.4,0,0.7,0,1.1,0
		l0,0l0,0l0,0l0,0c0,0,0,0,0,0l0.7,0c0.5,0,1,0,1.5-0.1l10.3-0.4c0.1,0,0.1,0,0.2,0l5.6-0.3c0,0,0,0,0,0c0,0,0,0,0,0
		c0.2,0,0.5,0,0.8-0.1c0.1,0,0.2,0,0.3,0c0,0,0.1,0,0.1,0c0,0,0,0,0.1,0c0,0,0,0,0,0c0,0,0,0,0,0c0,0,0.1,0,0.1,0l0.2,0
		c0,0,0.1,0,0.1,0l0.1,0c0,0,0.1,0,0.1,0l0.1,0c0,0,0.1,0,0.1,0l0.3-0.1c0.4-0.1,0.9-0.2,1.3-0.3l1-0.3c0.4-0.1,0.8-0.3,1.2-0.5
		l0.2-0.1c0.2-0.1,0.5-0.2,0.7-0.3l0,0c0,0,0,0,0,0c2.1-1.1,4.3-2.7,6.3-5.3c0,0,0.1-0.1,0.1-0.1l0-0.1c0-0.1,0.1-0.1,0.1-0.2
		c0.1-0.1,0.2-0.2,0.2-0.3l0.3-0.4c0,0,0.1-0.1,0.1-0.1c0.1-0.1,0.1-0.2,0.2-0.2c0.2-0.2,0.3-0.5,0.4-0.7c0.2-0.3,0.4-0.7,0.6-1
		l0-0.1c0.1-0.1,0.1-0.3,0.2-0.4c0.1-0.1,0.1-0.3,0.2-0.4c0.1-0.1,0.1-0.2,0.2-0.3l0.1-0.2c0-0.1,0.1-0.2,0.1-0.3l0.3-0.6
		c0-0.1,0.1-0.3,0.2-0.4c0-0.1,0.1-0.2,0.1-0.3c0,0.1-0.1,0.2-0.1,0.2c0.1-0.3,0.2-0.6,0.3-0.8c0.1-0.4,0.3-0.9,0.4-1.3l0,0l1.3-4.6
		l1.3-4.6l1.3-4.6l1.3-4.6l1.3-4.6l1.3-4.5l1.2-4.5l1.2-4.5l0-0.1l0,0.1l0,0c0,0,0.1,0.5,0.1,1.4l3,40.9c0,0.4,0.1,0.8,0.1,1.2
		l0.1,0.8c0,0.1,0,0.2,0.1,0.4l0.2,1.1c0,0.2,0.1,0.5,0.2,0.7l0,0.2c0,0,0,0.2,0,0.2l0.7,2.3c0.1,0.3,0.3,0.7,0.4,1.1l0.2,0.5
		c4.5,11.7,14.5,14.9,22.6,14.4c0,0,8.7-0.3,12.3-0.6c11.5-2,15.3-10.9,16.3-18.1c0.2-1.8,0.3-3.4,0.2-4.8
		c-0.1-1.4-4.2-39.2-4.2-39.2l-5.6-55.5l-0.6-6l-0.7-7l-0.7-7l-0.7-7l-0.7-7l-0.7-7l-0.7-7l0,0h0l0,0l0-0.2l0-0.1
		c0-0.5-0.1-1-0.2-1.4l0-0.1c0,0,0-0.1,0-0.1l0,0.1l0-0.1c0-0.1,0-0.2,0-0.3c-0.1-0.3-0.1-0.7-0.2-1l0-0.1c0-0.2-0.1-0.4-0.1-0.6
		l0-0.1c0,0,0-0.1,0-0.1l-0.1-0.3l-0.1-0.2c0-0.1-0.1-0.2-0.1-0.3l-0.1-0.4c-0.1-0.2-0.1-0.4-0.2-0.7l0.1,0.5l-0.1-0.3
		c0-0.1,0-0.1-0.1-0.2c0,0,0-0.1,0-0.1c0-0.1,0-0.1-0.1-0.2l-0.1-0.2c-0.1-0.2-0.2-0.5-0.3-0.7c0-0.1-0.1-0.2-0.1-0.3
		c-0.1-0.2-0.1-0.3-0.2-0.5l-0.2-0.4c-0.1-0.1-0.1-0.2-0.2-0.4l-0.3-0.7c-0.1-0.1-0.1-0.2-0.2-0.4c0,0,0-0.1,0-0.1
		c-0.1-0.1-0.1-0.2-0.1-0.3c-0.1-0.1-0.1-0.2-0.2-0.3c0,0.1,0.1,0.2,0.1,0.2c0-0.1-0.1-0.2-0.1-0.2c0-0.1-0.1-0.1-0.1-0.2
		c0-0.1-0.1-0.2-0.1-0.3l-0.3-0.5c-0.1-0.1-0.1-0.2-0.2-0.3l-0.2-0.4c0,0,0,0,0,0l0,0c-0.2-0.3-0.5-0.6-0.7-1c0,0-0.1-0.1-0.1-0.1
		c-0.1-0.1-0.1-0.1-0.2-0.2l-0.4-0.5c0,0,0,0,0,0l-0.5-0.6c0,0-0.1-0.1-0.1-0.1c0,0,0,0-0.1-0.1c0-0.1-0.1-0.1-0.2-0.1
		c-0.3-0.3-0.6-0.6-0.8-0.8l-0.2-0.2c-0.1-0.1-0.2-0.2-0.4-0.3l-0.5-0.4c-0.2-0.1-0.4-0.3-0.6-0.5c-0.1-0.1-0.2-0.1-0.3-0.2
		c-0.1-0.1-0.3-0.2-0.4-0.3l-0.8-0.5c-0.1-0.1-0.2-0.1-0.3-0.2l-0.1,0c-0.4-0.2-1-0.5-1.5-0.8l-1.1-0.5c0,0,0,0,0,0c0,0,0,0-0.1,0
		c-0.1-0.1-0.3-0.2-0.4-0.2c-0.1-0.1-0.3-0.1-0.4-0.2c-0.1,0-0.2-0.1-0.3-0.1c-0.1,0-0.2-0.1-0.3-0.1c-0.3-0.1-0.6-0.3-0.9-0.4
		c-0.1,0-0.2,0-0.2-0.1c-0.1,0-0.2-0.1-0.3-0.1c-0.2-0.1-0.3-0.1-0.5-0.2c-0.3-0.1-0.7-0.2-1-0.3c0,0,0,0,0,0c0,0-0.1,0-0.1,0
		c-0.3-0.1-0.6-0.1-0.9-0.2c-0.2,0-0.4-0.1-0.6-0.1c-0.1,0-0.2,0-0.3,0c-0.1,0-0.1,0-0.2,0c-0.4,0-0.8-0.1-1.2-0.1
		c-0.1,0-0.2,0-0.3,0l-6.8,0.2c-1.2,0-14.5,0.4-15.5,0.5c-10,0.4-13.9,4.4-13.9,4.4c-0.2,0.1-0.5,0.4-0.8,0.8l-0.2,0.2
		c-0.2,0.2-0.3,0.3-0.5,0.5l-0.2,0.3c-0.2,0.2-0.4,0.5-0.6,0.7l-0.9,1.3c0,0-0.1,0.1-0.1,0.1l-0.6,1c-0.2,0.4-0.4,0.7-0.6,1.1
		l-0.1,0.3c-0.1,0.2-0.2,0.5-0.4,0.8l-0.1,0.3c-0.1,0.2-0.2,0.4-0.3,0.6l-0.2,0.4c-0.1,0.3-0.2,0.6-0.3,0.9l-20.1,67.1l0-0.1
		l-1.7-4.2l-1.7-4.3l-1.7-4.3l-1.7-4.3l-1.7-4.4l-1.7-4.4l-1.8-4.4l-1.8-4.4l-1.8-4.4l-1.8-4.5l-1.8-4.5l-1.8-4.5l-1.8-4.5l-1.8-4.5
		v0c0,0,0,0,0,0l0,0c0,0,0,0,0,0c-0.1-0.4-0.3-0.8-0.5-1.2l-0.1-0.1c-0.1-0.2-0.2-0.4-0.2-0.6c0,0,0-0.1,0-0.1
		c0-0.1-0.1-0.2-0.1-0.3l0-0.1l-0.1-0.3l-0.1-0.2c-0.1-0.1-0.1-0.2-0.1-0.3c0,0,0,0,0,0c-0.1-0.1-0.1-0.3-0.2-0.4l-0.1-0.1
		c0,0,0,0,0,0c-0.1-0.1-0.1-0.2-0.2-0.3l-0.4-0.6c-0.1-0.1-0.2-0.3-0.3-0.5c-0.1-0.1-0.2-0.3-0.3-0.4c0-0.1-0.1-0.1-0.1-0.2
		l-0.5-0.7c-0.2-0.2-0.3-0.4-0.5-0.6c-0.2-0.2-0.4-0.5-0.5-0.7l0,0c-0.2-0.2-0.4-0.4-0.6-0.6c-0.1-0.1-0.2-0.2-0.3-0.3
		c-0.2-0.2-0.4-0.4-0.6-0.6c-0.1-0.1-0.3-0.3-0.4-0.4c-0.1-0.1-0.2-0.2-0.3-0.3c-0.7-0.6-1.4-1.1-2.1-1.5l-0.2-0.1c0,0,0,0,0,0
		c-0.1-0.1-0.2-0.1-0.3-0.2c-0.3-0.1-0.5-0.3-0.7-0.4l-0.9-0.4c0,0,0,0,0,0c0,0-0.1,0-0.1,0c0,0-0.1,0-0.1,0c0,0-0.1,0-0.1,0
		c0,0-0.1,0-0.1,0c0,0,0,0,0,0c0,0-0.1,0-0.1,0c-0.3-0.1-0.5-0.3-0.7-0.4l-0.9-0.4c0,0,0,0,0,0c0,0-0.1,0-0.1,0c0,0-0.1,0-0.1,0
		c0,0-0.1,0-0.1,0c0,0-0.1,0-0.1,0c-0.2-0.1-0.4-0.2-0.6-0.2c-0.1,0-0.2-0.1-0.3-0.1l-0.1,0c0,0,0,0,0,0c-0.1,0-0.3-0.1-0.4-0.1
		c-0.1,0-0.2-0.1-0.3-0.1l-0.1,0c0,0-0.1,0-0.1,0c-0.1,0-0.2,0-0.2-0.1c-0.2-0.1-0.5-0.1-0.7-0.2c0,0-0.1,0-0.1,0l0.2,0l-0.2,0
		l-0.1,0l-0.3-0.1c-0.1,0-0.1,0-0.2,0c-0.3,0-0.6-0.1-0.8-0.1c-0.1,0-0.2,0-0.3,0c0,0,0,0,0,0c0,0,0,0,0,0c-0.3,0-0.7-0.1-1-0.1
		l-0.4,0h0h0c0,0,0,0,0,0c-0.2,0-0.3,0-0.5,0l0,0l0,0h0h0l0,0c0,0,0,0,0,0L133,64l-0.1,0l0,0l0,0c0,0,0,0,0,0c0,0,0,0,0,0
		c0,0,0,0,0,0l0,0c0,0,0,0,0,0l-0.3,0c-0.8,0-1.6,0-2.5,0.1c-8.8-0.1-13.8,0.5-16.6,2c-0.8,0.4-2.1,1.2-3.5,2.5l-0.2,0.2
		c-0.1,0.1-0.2,0.2-0.3,0.3l-0.8,0.8c0,0-0.1,0.1-0.1,0.1l-0.9,1.1l-0.4,0.5c-0.1,0.2-0.3,0.4-0.4,0.6l-0.4,0.6
		c-0.1,0.2-0.2,0.4-0.4,0.6l-0.2,0.3c-0.2,0.3-0.4,0.7-0.6,1.1l-0.9,1.9c0,0-0.1,0.1-0.1,0.2c0,0,0,0.1-0.1,0.1
		c-0.1,0.3-0.2,0.6-0.3,0.9l-0.2,0.5c-0.4,1.1-0.6,2-0.8,3l-0.3,1.9c-0.1,0.5-0.1,1-0.1,1.6l-1,58.2c-1.3-1.4-3.2-2.3-5.3-2.1
		l-0.5-2.2c-0.6-2.7-3.2-4.5-5.9-4l-22.1,4c-0.6,0.1-1.1,0.3-1.6,0.6c-0.2-2.8-0.4-5.6-0.4-8.5c0-17.9,4.5-34.9,12.5-49.9
		c1.4-0.3,2.8-0.8,4.1-1.6c0.1-0.1,0.2-0.1,0.3-0.2c0.2-0.1,0.4-0.3,0.6-0.4c0.2-0.1,0.3-0.3,0.5-0.4c0.2-0.1,0.3-0.3,0.5-0.4
		c0.2-0.2,0.4-0.4,0.6-0.6c0.1-0.1,0.2-0.2,0.3-0.4c0.3-0.3,0.5-0.7,0.8-1.1c20.9-34.1,60.1-55.2,102.3-55.2
		c42.2,0,81.4,21.2,102.3,55.2c0.2,0.3,0.4,0.6,0.7,0.9c0.1,0.1,0.1,0.2,0.2,0.3c0.2,0.2,0.3,0.4,0.5,0.6c0.1,0.1,0.2,0.2,0.3,0.3
		c0.2,0.2,0.4,0.3,0.6,0.5c0.1,0.1,0.2,0.2,0.3,0.2c0.2,0.2,0.4,0.3,0.6,0.5c0.1,0.1,0.2,0.1,0.3,0.2c0.2,0.1,0.5,0.3,0.7,0.4
		c0.1,0,0.2,0.1,0.3,0.1c0.3,0.1,0.5,0.3,0.8,0.4c0.1,0,0.1,0.1,0.2,0.1c0.3,0.1,0.6,0.2,0.9,0.3c0,0,0.1,0,0.1,0
		c0.4,0.1,0.7,0.2,1.1,0.3c8,15.1,12.5,32,12.5,49.9c0,3.4-0.2,6.9-0.5,10.3c-0.7-1.2-1.9-2.1-3.4-2.4l-22.1-4
		c-0.7-0.1-1.8-0.2-2.6,0.2l3.4,33.3l6.4-30.4l2.7,0.5l-8.2,38.9l4.8,45.3c0,0.3,0,0.5,0,0.7l0,1.1l0,0.1l0,0.1l0,0l0,0L291,228
		c0,0.2,0,0.3-0.1,0.5l0,0.3l0,0.1c0,0.2-0.1,0.4-0.1,0.6l-0.3,1.2l0,0.2c0,0.2-0.1,0.4-0.1,0.6l-0.6,1.7l0,0l-0.6,1.4l-0.8,1.6
		c-1,2-1.6,3.5-3.1,5.1l-0.6,0.7c-0.1,0.2-0.3,0.3-0.4,0.4l-0.4,0.4c-0.2,0.1-0.3,0.3-0.5,0.4c-0.2,0.2-0.4,0.3-0.6,0.5l-0.1,0.1
		c-0.1,0.1-0.3,0.3-0.5,0.4l-0.3,0.2c-0.6,0.5-1.3,0.9-2,1.3l-0.1,0.1c-0.2,0.1-0.4,0.2-0.6,0.3l-0.3,0.1c-0.4,0.2-0.9,0.5-1.4,0.6
		l-0.1,0.1c-0.1,0.1-0.3,0.1-0.4,0.2c-0.2,0.1-0.4,0.1-0.5,0.2l-2.8,0.7c-0.2,0-0.3,0.1-0.4,0.1l-0.6,0.1c-0.1,0-0.2,0-0.4,0
		l-0.7,0.1l-4.1,19.5l-2.7-0.5l4-19l-10.6,0.4v0c-0.1,0-0.1,0-0.2,0c-0.1,0-0.3,0-0.4,0l-1.7-0.1c-0.7,0-1.3-0.1-1.8-0.2l-1.7-0.4
		c-0.7-0.2-1.4-0.4-2.1-0.7l-1.2,5.6c-0.7,3.2,1.2,6.4,4.2,7.4l-0.4,2c-0.6,2.8,1.3,5.6,4.1,6.1l22.1,4c2.7,0.5,5.3-1.3,5.9-4
		l0.7-3.1c0.6,0.1,1.1,0.1,1.7,0.1c5.2,0,9.8-3.7,10.8-8.8l2-9.5C305.1,238.8,310,225.1,313.3,209.2z M103.2,145.4l1.8-58.5
		c0-0.6,0-1.1,0-1.7c0-0.2,0-0.3,0-0.6c0-0.4,0.1-0.7,0.1-1.1l0-0.2c0-0.2,0-0.3,0.1-0.5c0.1-0.5,0.2-1,0.3-1.5l0-0.2
		c0.1-0.5,0.2-0.9,0.4-1.4c0.1-0.2,0.1-0.4,0.2-0.5c0.1-0.4,0.3-0.7,0.4-1.1l0-0.1c0-0.1,0.1-0.2,0.1-0.4c0.2-0.4,0.4-0.8,0.6-1.2
		c0.1-0.2,0.2-0.3,0.3-0.5c0.2-0.3,0.4-0.7,0.6-1c0.1-0.1,0.2-0.3,0.3-0.4c0.2-0.3,0.5-0.6,0.7-1c0.1-0.1,0.2-0.3,0.3-0.4
		c0.2-0.3,0.5-0.6,0.7-0.9c0.1-0.1,0.2-0.2,0.3-0.4c0.3-0.3,0.5-0.5,0.8-0.8c0.1-0.1,0.3-0.2,0.4-0.3c0.3-0.2,0.6-0.5,0.9-0.7
		L113,70c0.3-0.2,0.6-0.4,0.9-0.6c0.1-0.1,0.3-0.2,0.4-0.2c0.4-0.2,0.7-0.4,1.1-0.5l0.4-0.1c0.1,0,0.2-0.1,0.4-0.1c0,0,0.1,0,0.1,0
		c1.3-0.4,2.5-0.7,3.8-0.7l6.7-0.3c3.2-0.1,11.3-0.1,15.1,2.7c0.4,0.3,0.8,0.7,1.1,1.1c0.1,0.1,0.1,0.1,0.2,0.2c2,2,3.6,4.6,4.6,7.5
		c11.9,30,23.9,60,35.8,90c0.4-1.5,0.9-2.9,1.3-4.4c0.3,0,27.4-88.7,27.4-88.7c0.1-0.4,0.2-0.8,0.4-1.3l0.1-0.4
		c0.1-0.3,0.2-0.6,0.3-0.8c0.1-0.1,0.1-0.3,0.2-0.4c0.1-0.3,0.2-0.5,0.4-0.8l0.2-0.4c0.2-0.3,0.3-0.6,0.5-0.9l0.1-0.2
		c0.2-0.4,0.4-0.7,0.7-1l0.2-0.3c0.2-0.2,0.3-0.5,0.5-0.7l0.3-0.3c0.2-0.2,0.3-0.4,0.6-0.7l0.2-0.2c0.2-0.2,0.4-0.4,0.6-0.6l0.2-0.2
		c0,0,2.7-3.4,11.4-4.6c0.6-0.1,1.7-0.2,3-0.2c2-0.1,4.1-0.2,6.1-0.3c0.2,0,0.4,0,0.6,0c8.8,0,16.2,8,16.9,18.7
		c2.3,21.7,15.6,138.2,15.6,138.2s0.1,1.4,0.2,2.8c0.7,5.6-2.8,25.7-21.2,21c-0.2-0.1-1.3-0.3-2.4-1.1c-3.1-1.9-6.1-5-7.9-10.2
		c0-0.1-0.1-0.2-0.1-0.3c-0.1-0.4-0.3-0.8-0.4-1.2c0-0.1-0.1-0.3-0.1-0.5c-0.1-0.4-0.2-0.7-0.3-1.1c0-0.2-0.1-0.4-0.1-0.5
		c-0.1-0.4-0.2-0.8-0.2-1.2c0-0.2-0.1-0.3-0.1-0.5c-0.1-0.6-0.2-1.2-0.3-1.8c-0.7-14.3-1.8-27.5-2.5-35.2l-1.6-9l-3.8-45.9v0
		c-0.2-3.1-0.5-6.2-0.7-9.3c-8.6,30.9-17.1,61.9-25.7,92.8c-2.2,7.9-8.1,13.2-15,13.5c-0.2,0-0.4,0-0.6,0l0,0
		c-13.9,0.2-17.9-7.3-17.9-7.3c-1-1.4-1.9-3.1-2.5-4.8l-32.6-85.3c-0.5-1.4-1.1-2.9-1.6-4.3c0.5,33.2,1,66.3,1.5,99.5
		c0.1,9-4.5,16.6-11.2,19.2l-21.1-100.8L103.2,145.4z M84.7,137.8l27.1,129.5l-2.7,0.5L82,138.3L84.7,137.8z M87.8,260
		c-0.2,0-0.4,0.1-0.6,0.1c-2.7,0-5.1-1.9-5.6-4.6l-0.1-0.6l-19.9-95.3c-0.3-1.5,0-3.1,0.9-4.4c0.7-1.1,1.8-1.9,3-2.2L87.8,260z
		 M295.2,254.8l-0.1,0.6c-0.6,2.7-2.9,4.6-5.6,4.6c-0.2,0-0.4,0-0.6-0.1l22.4-107c1.2,0.4,2.3,1.2,3,2.2c0.9,1.3,1.2,2.9,0.9,4.4
		L295.2,254.8z"/>
</g>
</svg>
