<svg xmlns="http://www.w3.org/2000/svg" viewBox="0 0 383.33 118.35"><defs><style>.cls-1{fill:none;}.cls-2{isolation:isolate;}.cls-3{fill:url(#linear-gradient);}.cls-4{clip-path:url(#clip-path);}.cls-5{fill:#f58233;}.cls-6{fill:#fbaa19;}.cls-7{fill:#f2612a;}.cls-8{fill:#0079a9;}.cls-9{fill:#009bc1;}.cls-10{fill:#3f5ba4;}.cls-11{opacity:0.5;mix-blend-mode:multiply;}.cls-12{fill:#6f315a;}.cls-13{fill:#005b7e;}.cls-14{fill:#274867;}</style><linearGradient id="linear-gradient" x1="232.97" x2="233.91" y1="110.55" y2="68.7" gradientTransform="matrix(-.3 -.85 -.94 .34 204.25 219.96)" gradientUnits="userSpaceOnUse"><stop offset="0" stop-color="#23415e"/><stop offset=".19" stop-color="#115478"/><stop offset=".38" stop-color="#04618a"/><stop offset=".51" stop-color="#006690"/><stop offset="1" stop-color="#23415e"/></linearGradient><clipPath id="clip-path" transform="translate(9.85 9.42)"><path d="M88.38 18.78C60.46 6.56 27.84 2.32 16.22 10.1S1 45.8 7.84 72 45.2 100.18 78 78.46 116.35 31 88.38 18.78zm-24.15 43l-.14.1c-10.9 7.2-21.66 10.15-28.77 7.9-4.28-1.37-7.1-4.6-8.42-9.65-4.18-16.13-1.56-32 3.6-35.42l.1-.05c5.15-3.4 23.8-1.57 41.05 6C77 33 80 36.15 80.43 40c.77 6.48-5.3 14.63-16.2 21.83z" class="cls-1"/></clipPath></defs><title>massaplayhorizontal</title><g class="cls-2"><g id="Layer_1"><path d="M23.1 87.53a20 20 0 0 0 13.88 13c12.63 3.7 30.8-1.1 49.87-13.1 20.78-13.13 30.85-27.43 27-38.32-1.87-5.23-6.84-9.38-14.76-12.33C72.84 27 42.76 24.7 31.96 31.6c-10.82 6.74-15.12 30.64-9.67 53.28a26.72 26.72 0 0 0 .8 2.65zm63.1-31.48a5.86 5.86 0 0 1 .32 1.47c.4 4.6-4.35 10.48-12.7 15.76l-.12.07c-8.3 5.23-16.4 7.53-21.72 6.16a8.32 8.32 0 0 1-6-5.55 12.1 12.1 0 0 1-.36-1.22C43.14 62.5 45 51 49.62 48.1l.1-.07c4.5-2.84 18.65-1.54 30.27 2.8 3.38 1.25 5.5 3 6.28 5.2z" class="cls-3"/><g class="cls-4"><path d="M33.74 34.77L8.3 78.24l127.96-4.2L33.74 34.78z" class="cls-5"/><path d="M8.3 78.24l31.15 40.1 96.8-44.3-127.94 4.2z" class="cls-6"/><path d="M33.74 34.77L14.7 27.5 0 43.6l8.3 34.64 25.44-43.47z" class="cls-7"/><path d="M14.7 27.5l19.04 7.27L54.08 0 14.7 27.5z" class="cls-8"/><path d="M33.74 34.77l102.52 39.28L54.08 0 33.74 34.77z" class="cls-9"/><path d="M136.26 74.05l-20-47.05L54.1 0l82.18 74.05z" class="cls-10"/></g><path d="M90.6 47.1c-1.17-3.25-4.13-5.94-8.82-8-18.1-7.94-36.73-9.5-42.1-5.94l-.1.07c-5.44 3.6-8.4 19.47-4 36.53.15.6.32 1.17.52 1.72A12.94 12.94 0 0 0 44.57 80c7.4 2.35 18.5-.66 29.68-8l.14-.1c11.25-7.48 17.45-15.94 16.68-22.73a9.47 9.47 0 0 0-.5-2.08zM74.07 71.26l-.14.1c-10.9 7.2-21.65 10.15-28.76 7.9-4.28-1.37-7.1-4.6-8.42-9.65-4.2-16.2-1.57-32.06 3.6-35.46l.1-.06c5.14-3.4 23.8-1.57 41.04 6 5.35 2.32 8.35 5.5 8.78 9.37.77 6.45-5.3 14.6-16.2 21.8z" class="cls-12"/><path d="M54.93 69l-2.08-17a1.83 1.83 0 0 1 2.35-2l20.23 6.15a1.83 1.83 0 0 1 .42 3.35L57.68 70.36A1.83 1.83 0 0 1 54.93 69z" class="cls-13"/><path d="M151.5 72.23h8.13v-32q0-.47-.42 0l-16 13.7-16-13.7q-.36-.42-.4 0v32h8.13V58.66l8 7.63a.2.2 0 0 0 .37 0l8-7.64v13.57zM177.25 39.72a.3.3 0 0 0-.28.23l-15.44 32.28h8.32l1.17-2.7h11.94l1.2 2.7h8.78l-15.4-32.27a.3.3 0 0 0-.3-.24zm-3.54 23.46l3.15-7.37 3.27 7.38h-6.44zM216.85 66.7a11.27 11.27 0 0 0 .7-4 10.4 10.4 0 0 0-.44-3.1 7.67 7.67 0 0 0-1.4-2.6 9.66 9.66 0 0 0-2.62-2.16 21.4 21.4 0 0 0-4-1.75l-4.2-1.4a4.4 4.4 0 0 1-1.7-.9 1.9 1.9 0 0 1-.54-1.45 1.94 1.94 0 0 1 .77-1.56 3.6 3.6 0 0 1 2.32-.64 6.48 6.48 0 0 1 3.08.63 8.64 8.64 0 0 1 2.17 1.62l4.88-5.08a10.8 10.8 0 0 0-1.66-1.6 11.3 11.3 0 0 0-2.25-1.32 13.67 13.67 0 0 0-2.9-.93 18.25 18.25 0 0 0-3.76-.36 13.66 13.66 0 0 0-4.07.6 10.7 10.7 0 0 0-3.47 1.8 8.6 8.6 0 0 0-2.4 3 9.06 9.06 0 0 0-.9 4.1 9.6 9.6 0 0 0 .6 3.48 8.54 8.54 0 0 0 1.62 2.68 10.23 10.23 0 0 0 2.5 2 16.33 16.33 0 0 0 3.17 1.4l3.73 1.22a8.2 8.2 0 0 1 2.35 1.1 1.9 1.9 0 0 1 .77 1.6 2 2 0 0 1-1 1.95 6.17 6.17 0 0 1-3 .58 7 7 0 0 1-3.92-1 11.58 11.58 0 0 1-2.7-2.45l-6.17 4.62a15.73 15.73 0 0 0 1.9 2 12.77 12.77 0 0 0 2.75 1.9 18 18 0 0 0 3.73 1.4 18.76 18.76 0 0 0 4.78.55 17.52 17.52 0 0 0 5.4-.75 10.25 10.25 0 0 0 3.76-2.08 8.1 8.1 0 0 0 2.13-3.14zM243.65 59.57a7.67 7.67 0 0 0-1.42-2.6 9.66 9.66 0 0 0-2.6-2.16 21.4 21.4 0 0 0-4-1.74l-4.2-1.4a4.4 4.4 0 0 1-1.7-.9 1.9 1.9 0 0 1-.55-1.44 1.94 1.94 0 0 1 .77-1.56 3.6 3.6 0 0 1 2.3-.63 6.48 6.48 0 0 1 3.1.63 8.64 8.64 0 0 1 2.1 1.66l4.86-5.08a10.8 10.8 0 0 0-1.65-1.6 11.32 11.32 0 0 0-2.2-1.32 13.67 13.67 0 0 0-2.92-.93 18.24 18.24 0 0 0-3.75-.36 13.66 13.66 0 0 0-4.06.6 10.7 10.7 0 0 0-3.47 1.8 8.6 8.6 0 0 0-2.4 3 9.06 9.06 0 0 0-.9 4.1 9.6 9.6 0 0 0 .6 3.48 8.54 8.54 0 0 0 1.62 2.68 10.23 10.23 0 0 0 2.5 2 16.33 16.33 0 0 0 3.17 1.4l3.73 1.22a8.2 8.2 0 0 1 2.35 1.1 1.9 1.9 0 0 1 .77 1.6 2 2 0 0 1-1 1.95 6.17 6.17 0 0 1-3 .58 7 7 0 0 1-3.93-1 11.57 11.57 0 0 1-2.7-2.45l-6.17 4.62a15.74 15.74 0 0 0 1.9 2 12.77 12.77 0 0 0 2.74 1.9 18 18 0 0 0 3.73 1.4 18.76 18.76 0 0 0 4.78.55 17.52 17.52 0 0 0 5.4-.75 10.25 10.25 0 0 0 3.76-2.08 8.1 8.1 0 0 0 2.18-3.17 11.27 11.27 0 0 0 .7-4 10.4 10.4 0 0 0-.43-3.1zM260.04 39.96a.28.28 0 0 0-.56 0l-15.44 32.27h8.3l1.17-2.7h11.95l1.2 2.7h8.78zm-3.82 23.23l3.17-7.38 3.26 7.37h-6.44zM279.43 39.9h7.42a17.82 17.82 0 0 1 5.9.9 11.56 11.56 0 0 1 4.23 2.5 10.45 10.45 0 0 1 2.56 3.9 14.1 14.1 0 0 1 .87 5 13.75 13.75 0 0 1-.86 5 10.7 10.7 0 0 1-2.56 3.92 11.36 11.36 0 0 1-4.22 2.53 17.77 17.77 0 0 1-5.9.9h-4v8.14h-3.48V39.9zm7.24 21.66a14.2 14.2 0 0 0 4.68-.68 8 8 0 0 0 3.13-1.9 7.4 7.4 0 0 0 1.76-2.96 12.13 12.13 0 0 0 .55-3.75 11.9 11.9 0 0 0-.56-3.72 7.43 7.43 0 0 0-1.76-2.93 8.25 8.25 0 0 0-3.13-1.93 13.77 13.77 0 0 0-4.68-.7h-3.82v18.56h3.76zM305.67 39.9h3.47v29.7h15.48v3.1h-19V39.9zM342 39.56h.57l13.9 33.14h-3.68l-2.23-5.5H334l-2.15 5.5h-3.42zm7.32 24.65l-5.8-14.56c-.15-.4-.3-.8-.45-1.26l-.4-1.25q-.2-.67-.4-1.4-.24.72-.43 1.4l-.4 1.3c-.14.44-.3.86-.46 1.25l-5.8 14.57h14.14zM367.6 62.42L355.2 39.9h3.92l8.92 16.3.5 1q.28.54.47 1.07c.14.4.28.8.44 1.2.13-.38.27-.76.43-1.15s.28-.72.46-1.1l.52-1.02 8.88-16.3h3.62l-12.17 22.38V72.7h-3.57V62.42z" class="cls-14"/></g></g></svg>