<?xml version="1.0" encoding="utf-8"?>
<!-- Generator: Adobe Illustrator 19.2.1, SVG Export Plug-In . SVG Version: 6.00 Build 0)  -->
<svg version="1.1" id="Camada_1" xmlns="http://www.w3.org/2000/svg" xmlns:xlink="http://www.w3.org/1999/xlink" x="0px" y="0px"
	 viewBox="0 0 184.6 168.9" style="enable-background:new 0 0 184.6 168.9;" xml:space="preserve">
<style type="text/css">
	.st0{fill:#5B5B5B;}
</style>
<title>massaplayvertical</title>
<g>
	<path class="st0" d="M105.5,72.8l-26.2-8c-1.6-0.5-3.2,0.9-3,2.5L79,89.4c0.2,1.7,2.1,2.6,3.6,1.7L106,77.1
		C107.8,76,107.5,73.4,105.5,72.8z"/>
	<path class="st0" d="M54.3,85.2c0.1,0.6,0.3,1.2,0.4,1.9c0.1,0.2,0.1,0.5,0.2,0.7c0.2,0.8,0.4,1.6,0.6,2.4
		c1.7,6.5,5.4,10.7,10.9,12.5c0.5,0.2,1,0.3,1.6,0.4c0.2,0,0.3,0.1,0.5,0.1c0.4,0.1,0.8,0.1,1.2,0.2c0.3,0,0.6,0.1,0.9,0.1
		c0.3,0,0.7,0.1,1.1,0.1c0.3,0,0.7,0,1,0c0.2,0,0.3,0,0.5,0c1.3,0,2.6-0.1,3.9-0.3c-0.6-0.1-1.3-0.2-1.9-0.3c-3.8-1-6.5-3.4-7.8-7.2
		c-0.2-0.5-0.3-1-0.5-1.6C63.6,81,66,66,72,62.3l0.1-0.1c5.8-3.7,24.2-2,39.2,3.6c4.4,1.6,7.1,3.9,8.1,6.8c0.2,0.6,0.4,1.3,0.4,1.9
		c0.1,1.3-0.1,2.7-0.6,4.1c1.5-1.9,2.7-3.7,3.6-5.5c0.1-0.2,0.1-0.3,0.2-0.4c0.2-0.4,0.4-0.8,0.5-1.2c0.1-0.2,0.2-0.5,0.3-0.7
		c0.1-0.2,0.1-0.4,0.2-0.6c0.1-0.4,0.2-0.8,0.3-1.2c0-0.1,0.1-0.3,0.1-0.4c0.1-0.4,0.2-0.8,0.2-1.3c0-0.1,0-0.2,0-0.3
		c0.1-0.4,0.1-0.9,0.1-1.3c0,0,0,0,0,0c0,0,0,0,0,0c0-0.5,0-1.1-0.1-1.6c-0.6-5-4.4-9.1-11.4-12.2C91,42.1,66.9,39.7,60.2,44.2
		l-0.1,0.1c-4.4,2.9-7.3,12.7-7.3,25.1c0,0.7,0,1.5,0,2.2c0,0.2,0,0.4,0,0.6c0,0.6,0,1.2,0.1,1.8c0,0.2,0,0.4,0,0.6
		c0,0.8,0.1,1.5,0.2,2.3c0,0.1,0,0.3,0,0.4c0.1,0.6,0.1,1.3,0.2,1.9c0,0.2,0.1,0.5,0.1,0.7c0.1,0.6,0.2,1.3,0.3,1.9
		c0,0.1,0,0.3,0.1,0.4c0.1,0.8,0.3,1.6,0.4,2.4C54.2,84.8,54.3,85,54.3,85.2z"/>
	<path class="st0" d="M77.9,103.2c-0.3,0-0.6,0.1-0.9,0.1c0,0,0,0,0,0C77.3,103.3,77.6,103.2,77.9,103.2z"/>
	<path class="st0" d="M83.1,102.1c1-0.3,1.9-0.6,2.9-0.9C85.1,101.5,84.1,101.8,83.1,102.1z"/>
	<path class="st0" d="M77.9,103.2c0.8-0.1,1.5-0.2,2.3-0.4C79.5,102.9,78.7,103.1,77.9,103.2z"/>
	<path class="st0" d="M82,102.4c0.4-0.1,0.7-0.2,1.1-0.3C82.8,102.2,82.4,102.3,82,102.4z"/>
	<path class="st0" d="M80.2,102.8c0.6-0.1,1.2-0.3,1.8-0.4C81.4,102.5,80.8,102.6,80.2,102.8z"/>
	<path class="st0" d="M119.2,78.7C119.3,78.7,119.3,78.7,119.2,78.7c-0.2,0.2-0.4,0.5-0.7,0.8C118.8,79.2,119,78.9,119.2,78.7z"/>
	<path class="st0" d="M103.6,92.4c-3.5,2.3-6.9,4.2-10.3,5.8C96.7,96.6,100.1,94.7,103.6,92.4l0.2-0.1c4-2.7,7.5-5.4,10.5-8.2
		c-2.9,2.8-6.5,5.5-10.5,8.2L103.6,92.4z"/>
	<path class="st0" d="M121.6,113.8c42.6-28,49.6-61.4,13.4-77.3C98.9,20.7,56.6,15.2,41.6,25.3c-15.2,9.9-19.7,46.2-10.9,80.1
		C39.6,139.4,79.1,142,121.6,113.8z M59.1,43.1l0.1-0.1c7-4.6,31.1-2.6,54.5,7.7c6.1,2.7,9.9,6.1,11.4,10.3c0.3,0.9,0.5,1.8,0.6,2.7
		c1,8.8-7,19.8-21.6,29.4l-0.2,0.1c-14.5,9.6-28.9,13.5-38.4,10.4c-5.3-1.7-8.9-5.4-11-11c-0.3-0.7-0.5-1.5-0.7-2.2
		C48.2,68.3,52,47.7,59.1,43.1z"/>
	<path class="st0" d="M23.3,145.5l-11.5,9.9l-11.5-9.9c-0.2-0.2-0.3-0.2-0.3,0v23.1h5.9v-9.8l5.8,5.5c0,0.1,0.1,0.1,0.1,0.1
		c0,0,0.1,0,0.1-0.1l5.8-5.5v9.8h5.9v-23.1C23.6,145.3,23.5,145.2,23.3,145.5z"/>
	<path class="st0" d="M36.3,145.1c-0.1,0-0.2,0.1-0.2,0.2l-11.1,23.2h6l0.8-1.9h8.6l0.9,1.9h6.3l-11.1-23.2
		C36.4,145.2,36.3,145.1,36.3,145.1z M33.7,162l2.3-5.3l2.4,5.3H33.7z"/>
	<path class="st0" d="M64,157.6c-0.5-0.6-1.1-1.1-1.9-1.5c-0.8-0.5-1.7-0.9-2.9-1.3l-3-1c-0.6-0.2-1-0.4-1.2-0.6
		c-0.3-0.2-0.4-0.6-0.4-1c0-0.4,0.2-0.8,0.6-1.1c0.4-0.3,0.9-0.5,1.7-0.5c0.9,0,1.7,0.2,2.2,0.5c0.6,0.3,1.1,0.7,1.5,1.2l3.5-3.7
		c-0.3-0.4-0.7-0.8-1.2-1.1c-0.5-0.4-1-0.7-1.6-1c-0.6-0.3-1.3-0.5-2.1-0.7c-0.8-0.2-1.7-0.3-2.7-0.3c-1,0-2,0.1-2.9,0.4
		c-0.9,0.3-1.8,0.7-2.5,1.3c-0.7,0.6-1.3,1.3-1.7,2.1c-0.4,0.9-0.6,1.8-0.6,3c0,0.9,0.1,1.8,0.4,2.5c0.3,0.7,0.7,1.4,1.2,1.9
		c0.5,0.6,1.1,1,1.8,1.4c0.7,0.4,1.5,0.7,2.3,1l2.7,0.9c0.8,0.2,1.3,0.5,1.7,0.8c0.4,0.3,0.6,0.7,0.6,1.2c0,0.6-0.3,1.1-0.8,1.4
		c-0.5,0.3-1.2,0.4-2.1,0.4c-1.1,0-2.1-0.2-2.8-0.7c-0.7-0.5-1.4-1.1-1.9-1.8l-4.4,3.3c0.4,0.5,0.8,1,1.4,1.5c0.5,0.5,1.2,1,2,1.4
		c0.8,0.4,1.7,0.7,2.7,1c1,0.3,2.2,0.4,3.4,0.4c1.5,0,2.8-0.2,3.9-0.5c1.1-0.4,2-0.9,2.7-1.5c0.7-0.6,1.2-1.4,1.6-2.3
		c0.3-0.9,0.5-1.9,0.5-2.9c0-0.8-0.1-1.5-0.3-2.2C64.8,158.8,64.4,158.1,64,157.6z"/>
	<path class="st0" d="M84.1,159.4c-0.2-0.7-0.6-1.3-1-1.9c-0.5-0.6-1.1-1.1-1.9-1.5c-0.8-0.5-1.7-0.9-2.9-1.3l-3-1
		c-0.6-0.2-1-0.4-1.2-0.6c-0.3-0.2-0.4-0.6-0.4-1c0-0.4,0.2-0.8,0.6-1.1c0.4-0.3,0.9-0.5,1.7-0.5c0.9,0,1.7,0.2,2.2,0.5
		c0.6,0.3,1.1,0.7,1.5,1.2l3.5-3.7c-0.3-0.4-0.7-0.8-1.2-1.1c-0.5-0.4-1-0.7-1.6-1c-0.6-0.3-1.3-0.5-2.1-0.7
		c-0.8-0.2-1.7-0.3-2.7-0.3c-1,0-2,0.1-2.9,0.4c-0.9,0.3-1.8,0.7-2.5,1.3c-0.7,0.6-1.3,1.3-1.7,2.1c-0.4,0.9-0.6,1.8-0.6,3
		c0,0.9,0.1,1.8,0.4,2.5c0.3,0.7,0.7,1.4,1.2,1.9c0.5,0.6,1.1,1,1.8,1.4c0.7,0.4,1.5,0.7,2.3,1l2.7,0.9c0.8,0.2,1.3,0.5,1.7,0.8
		c0.4,0.3,0.6,0.7,0.6,1.2c0,0.6-0.3,1.1-0.8,1.4c-0.5,0.3-1.2,0.4-2.1,0.4c-1.1,0-2.1-0.2-2.8-0.7c-0.7-0.5-1.4-1.1-1.9-1.8
		l-4.4,3.3c0.4,0.5,0.8,1,1.4,1.5c0.5,0.5,1.2,1,2,1.4c0.8,0.4,1.7,0.7,2.7,1c1,0.3,2.2,0.4,3.4,0.4c1.5,0,2.8-0.2,3.9-0.5
		c1.1-0.4,2-0.9,2.7-1.5c0.7-0.6,1.2-1.4,1.6-2.3c0.3-0.9,0.5-1.9,0.5-2.9C84.4,160.9,84.3,160.1,84.1,159.4z"/>
	<path class="st0" d="M95.7,145.1c-0.1,0-0.2,0.1-0.2,0.2l-11.1,23.2h6l0.8-1.9h8.6l0.9,1.9h6.3l-11.1-23.2
		C95.8,145.2,95.8,145.1,95.7,145.1z M93.1,162l2.3-5.3l2.4,5.3H93.1z"/>
	<path class="st0" d="M122.5,147.7c-0.8-0.8-1.8-1.4-3-1.8c-1.2-0.4-2.6-0.6-4.3-0.6h-5.3v23.6h2.5V163h2.8c1.6,0,3-0.2,4.3-0.6
		c1.2-0.4,2.2-1,3-1.8c0.8-0.8,1.4-1.7,1.8-2.8c0.4-1.1,0.6-2.3,0.6-3.6c0-1.3-0.2-2.5-0.6-3.6C123.9,149.4,123.3,148.5,122.5,147.7
		z M121.9,156.9c-0.3,0.8-0.7,1.5-1.3,2.1c-0.6,0.6-1.3,1.1-2.3,1.4c-0.9,0.3-2,0.5-3.4,0.5h-2.7v-13.4h2.7c1.3,0,2.4,0.2,3.4,0.5
		c0.9,0.3,1.7,0.8,2.3,1.4c0.6,0.6,1,1.3,1.3,2.1c0.3,0.8,0.4,1.7,0.4,2.7C122.3,155.2,122.2,156.1,121.9,156.9z"/>
	<polygon class="st0" points="131.2,145.3 128.7,145.3 128.7,168.9 142.4,168.9 142.4,166.7 131.2,166.7 	"/>
	<path class="st0" d="M154.9,145l-9.8,23.9h2.5l1.6-4H161l1.6,4h2.6l-10-23.9H154.9z M155.6,151.4c0.1,0.3,0.2,0.6,0.3,0.9l4.2,10.5
		H150l4.2-10.5c0.1-0.3,0.2-0.6,0.3-0.9c0.1-0.3,0.2-0.6,0.3-0.9c0.1-0.3,0.2-0.7,0.3-1c0.1,0.3,0.2,0.7,0.3,1
		C155.4,150.8,155.5,151.1,155.6,151.4z"/>
	<path class="st0" d="M182,145.3l-6.4,11.7c-0.1,0.3-0.2,0.5-0.4,0.8c-0.1,0.3-0.2,0.5-0.3,0.8c-0.1,0.3-0.2,0.6-0.3,0.8
		c-0.1-0.3-0.2-0.6-0.3-0.9c-0.1-0.3-0.2-0.5-0.3-0.8c-0.1-0.3-0.2-0.5-0.4-0.7l-6.4-11.7h-2.8l8.9,16.2v7.4h2.6v-7.5l8.8-16.1H182z
		"/>
</g>
</svg>
