<svg xmlns="http://www.w3.org/2000/svg" xmlns:xlink="http://www.w3.org/1999/xlink" viewBox="0 0 651.16 222.89"><defs><style>.cls-1{fill:none;}.cls-2{fill:#f59c08;}.cls-3{fill:url(#Gradiente_sem_nome_5);}.cls-4{fill:#ef8704;}.cls-5{fill:url(#Gradiente_sem_nome_5-2);}.cls-6{isolation:isolate;}.cls-7{fill:#76b82a;}.cls-8{fill:url(#Gradiente_sem_nome_2);}.cls-9{fill:url(#Gradiente_sem_nome_2-2);}.cls-10{fill:url(#Gradiente_sem_nome_2-3);}.cls-11{fill:url(#Gradiente_sem_nome_2-4);}.cls-12{fill:url(#Gradiente_sem_nome_2-5);}.cls-13{fill:url(#Gradiente_sem_nome_6);}.cls-14{fill:url(#Gradiente_sem_nome_6-2);}.cls-15{fill:url(#Gradiente_sem_nome_6-3);}.cls-16{fill:url(#Gradiente_sem_nome_6-4);}.cls-17{fill:url(#Gradiente_sem_nome_6-5);}.cls-18{opacity:0.4;}.cls-18,.cls-24,.cls-34,.cls-57,.cls-60,.cls-66{mix-blend-mode:multiply;}.cls-19{fill:url(#Gradiente_sem_nome_7);}.cls-20{fill:url(#Gradiente_sem_nome_7-2);}.cls-21{fill:url(#Gradiente_sem_nome_7-3);}.cls-22{fill:url(#Gradiente_sem_nome_7-4);}.cls-23{fill:url(#Gradiente_sem_nome_7-5);}.cls-24{opacity:0.3;}.cls-25{fill:url(#Gradiente_sem_nome_26);}.cls-26{fill:url(#Gradiente_sem_nome_26-2);}.cls-27{fill:url(#Gradiente_sem_nome_26-3);}.cls-28{fill:url(#Gradiente_sem_nome_26-4);}.cls-29{fill:url(#Gradiente_sem_nome_26-5);}.cls-30{fill:url(#Gradiente_sem_nome_2-11);}.cls-31{fill:url(#Gradiente_sem_nome_2-12);}.cls-32{fill:url(#Gradiente_sem_nome_3);}.cls-33,.cls-34{fill:url(#Gradiente_sem_nome_2-13);}.cls-34,.cls-66{opacity:0.35;}.cls-35{fill:url(#Gradiente_sem_nome_2-15);}.cls-36{fill:url(#Gradiente_sem_nome_2-16);}.cls-37{fill:url(#Gradiente_sem_nome_3-2);}.cls-38{fill:url(#Gradiente_sem_nome_2-17);}.cls-39{clip-path:url(#clip-path);}.cls-40{fill:#b1870f;}.cls-41{fill:#b4890f;}.cls-42{fill:#b88b0e;}.cls-43{clip-path:url(#clip-path-2);}.cls-44{clip-path:url(#clip-path-3);}.cls-45{clip-path:url(#clip-path-4);}.cls-46{clip-path:url(#clip-path-5);}.cls-47{clip-path:url(#clip-path-6);}.cls-48{fill:#a37d13;}.cls-49{clip-path:url(#clip-path-7);}.cls-50{clip-path:url(#clip-path-8);}.cls-51{fill:url(#Gradiente_sem_nome_5-3);}.cls-52{clip-path:url(#clip-path-9);}.cls-53{fill:url(#Gradiente_sem_nome_5-4);}.cls-54{fill:url(#Gradiente_sem_nome_5-5);}.cls-55{fill:#f8af07;}.cls-56,.cls-63{opacity:0.8;mix-blend-mode:overlay;}.cls-56{fill:url(#Gradiente_sem_nome_4);}.cls-57{opacity:0.7;}.cls-58{clip-path:url(#clip-path-10);}.cls-59{fill:url(#Gradiente_sem_nome_5-7);}.cls-60{opacity:0.5;}.cls-61{clip-path:url(#clip-path-11);}.cls-62{fill:url(#Gradiente_sem_nome_5-9);}.cls-63{fill:url(#Gradiente_sem_nome_4-2);}.cls-64{fill:#ef7e08;}.cls-65,.cls-66{fill:url(#Gradiente_sem_nome_2-18);}.cls-67{fill:url(#Gradiente_sem_nome_2-20);}.cls-68{fill:url(#Gradiente_sem_nome_2-21);}.cls-69{fill:url(#Gradiente_sem_nome_3-3);}.cls-70{fill:url(#Gradiente_sem_nome_2-22);}</style><linearGradient id="Gradiente_sem_nome_5" x1="61.18" x2="61.18" y1="381.44" y2="366.6" gradientTransform="translate(37.8 -208.08) rotate(-7.28)" gradientUnits="userSpaceOnUse"><stop offset=".11" stop-color="#c17726"/><stop offset=".51" stop-color="#f5a42b" stop-opacity="0"/><stop offset=".71" stop-color="#fdc954" stop-opacity="0"/></linearGradient><linearGradient id="Gradiente_sem_nome_5-2" x1="-25.55" x2="-25.55" y1="374.44" y2="360.78" xlink:href="#Gradiente_sem_nome_5"/><linearGradient id="Gradiente_sem_nome_2" x1="258.52" x2="258.52" y1="152.37" y2="54" gradientUnits="userSpaceOnUse"><stop offset="0" stop-color="#582c83"/><stop offset=".51" stop-color="#8c368b"/><stop offset="1" stop-color="#522678"/></linearGradient><linearGradient id="Gradiente_sem_nome_2-2" x1="364.99" x2="364.99" y1="152.37" y2="54" xlink:href="#Gradiente_sem_nome_2"/><linearGradient id="Gradiente_sem_nome_2-3" x1="451.36" x2="451.36" y1="154.15" y2="52.22" xlink:href="#Gradiente_sem_nome_2"/><linearGradient id="Gradiente_sem_nome_2-4" x1="525.23" x2="525.23" y1="154.15" y2="52.22" xlink:href="#Gradiente_sem_nome_2"/><linearGradient id="Gradiente_sem_nome_2-5" x1="611.74" x2="611.74" y1="152.37" y2="54" xlink:href="#Gradiente_sem_nome_2"/><linearGradient id="Gradiente_sem_nome_6" x1="255.72" x2="255.72" y1="150.97" y2="52.6" gradientUnits="userSpaceOnUse"><stop offset="0" stop-color="#702381"/><stop offset=".23" stop-color="#81368b"/><stop offset=".46" stop-color="#954c97"/><stop offset="1" stop-color="#7a2181"/></linearGradient><linearGradient id="Gradiente_sem_nome_6-2" x1="362.19" x2="362.19" y1="150.97" y2="52.6" xlink:href="#Gradiente_sem_nome_6"/><linearGradient id="Gradiente_sem_nome_6-3" x1="448.56" x2="448.56" y1="152.75" y2="50.82" xlink:href="#Gradiente_sem_nome_6"/><linearGradient id="Gradiente_sem_nome_6-4" x1="522.43" x2="522.43" y1="152.75" y2="50.82" xlink:href="#Gradiente_sem_nome_6"/><linearGradient id="Gradiente_sem_nome_6-5" x1="608.94" x2="608.94" y1="150.97" y2="52.6" xlink:href="#Gradiente_sem_nome_6"/><linearGradient id="Gradiente_sem_nome_7" x1="610.34" x2="610.34" y1="152.37" y2="111.15" gradientUnits="userSpaceOnUse"><stop offset="0" stop-color="#822080"/><stop offset="1" stop-color="#a51c80"/></linearGradient><linearGradient id="Gradiente_sem_nome_7-2" x1="525.62" x2="525.62" y1="154.15" y2="95.54" xlink:href="#Gradiente_sem_nome_7"/><linearGradient id="Gradiente_sem_nome_7-3" x1="450.09" x2="450.09" y1="154.15" y2="85.4" xlink:href="#Gradiente_sem_nome_7"/><linearGradient id="Gradiente_sem_nome_7-4" x1="363.59" x2="363.59" y1="152.37" y2="79.95" xlink:href="#Gradiente_sem_nome_7"/><linearGradient id="Gradiente_sem_nome_7-5" x1="257.12" x2="257.12" y1="152.37" y2="78.85" xlink:href="#Gradiente_sem_nome_7"/><linearGradient id="Gradiente_sem_nome_26" x1="610.34" x2="610.34" y1="152.37" y2="111.15" gradientUnits="userSpaceOnUse"><stop offset="0" stop-color="#95338a"/><stop offset="1" stop-color="#a7368c"/></linearGradient><linearGradient id="Gradiente_sem_nome_26-2" x1="525.62" x2="525.62" y1="154.15" y2="95.54" xlink:href="#Gradiente_sem_nome_26"/><linearGradient id="Gradiente_sem_nome_26-3" x1="450.09" x2="450.09" y1="154.15" y2="85.4" xlink:href="#Gradiente_sem_nome_26"/><linearGradient id="Gradiente_sem_nome_26-4" x1="363.59" x2="363.59" y1="152.37" y2="79.95" xlink:href="#Gradiente_sem_nome_26"/><linearGradient id="Gradiente_sem_nome_26-5" x1="257.12" x2="257.12" y1="152.37" y2="78.85" xlink:href="#Gradiente_sem_nome_26"/><linearGradient id="Gradiente_sem_nome_2-11" x1="92.77" x2="92.77" y1="117.14" y2="10.73" xlink:href="#Gradiente_sem_nome_2"/><linearGradient id="Gradiente_sem_nome_2-12" x1="92.77" x2="92.77" y1="58.31" y2="6.24" xlink:href="#Gradiente_sem_nome_2"/><linearGradient id="Gradiente_sem_nome_3" x1="92.77" x2="92.77" y1="58.31" y2="12.05" gradientUnits="userSpaceOnUse"><stop offset="0" stop-color="#6e368c"/><stop offset=".23" stop-color="#81368b"/><stop offset=".46" stop-color="#a8599e"/><stop offset="1" stop-color="#8c4091"/></linearGradient><linearGradient id="Gradiente_sem_nome_2-13" x1="250.46" x2="250.46" y1="129.67" y2="54.81" gradientTransform="translate(-61.65 -.91) rotate(10.97)" xlink:href="#Gradiente_sem_nome_2"/><linearGradient id="Gradiente_sem_nome_2-15" x1="228.46" x2="228.46" y1="138.51" y2="45.73" gradientTransform="translate(-61.65 -.91) rotate(10.97)" xlink:href="#Gradiente_sem_nome_2"/><linearGradient id="Gradiente_sem_nome_2-16" x1="245.17" x2="245.17" y1="136.32" y2="47.65" gradientTransform="translate(-61.65 -.91) rotate(10.97)" xlink:href="#Gradiente_sem_nome_2"/><linearGradient id="Gradiente_sem_nome_3-2" x1="249.66" x2="225.3" y1="142.55" y2="41" gradientTransform="translate(-61.65 -.91) rotate(10.97)" xlink:href="#Gradiente_sem_nome_3"/><linearGradient id="Gradiente_sem_nome_2-17" x1="235.33" x2="235.33" y1="143.64" y2="39.89" gradientTransform="translate(-68.57 -7.15) rotate(10.97)" xlink:href="#Gradiente_sem_nome_2"/><clipPath id="clip-path" transform="translate(-6.92 -6.24)"><path d="M125.9 44.13l8.06-.3h.23l-8.08.3h-.23z" class="cls-1"/></clipPath><clipPath id="clip-path-2" transform="translate(-6.92 -6.24)"><path d="M124.95 45.62a1.33 1.33 0 0 1 .7-1.47h.04a1.57 1.57 0 0 1 .42 0 1.3 1.3 0 0 0-.8 1.47h-.38z" class="cls-2"/></clipPath><clipPath id="clip-path-3" transform="translate(-6.92 -6.24)"><path d="M146.52 57.18l9.4 90a.6.6 0 0 0-.25 0l-9.4-90h.25z" class="cls-2"/></clipPath><clipPath id="clip-path-4" transform="translate(-6.92 -6.24)"><path d="M57.26 166.85l-8.07.3h.4c6.44-.32 11.4-6.66 11.3-14.46l8.06-.3c.13 7.8-4.84 14.14-11.3 14.45z" class="cls-4"/></clipPath><clipPath id="clip-path-5" transform="translate(-6.92 -6.24)"><path d="M57.3 47.32l8.07-.32h.27c4.82 0 9.3 3.5 11.2 8.9l-8.08.3c-1.9-5.4-6.36-8.94-11.2-8.9h-.26z" class="cls-4"/></clipPath><clipPath id="clip-path-6" transform="translate(-6.92 -6.24)"><path d="M98.74 155.4h-.2.2z" class="cls-1"/></clipPath><clipPath id="clip-path-7" transform="translate(-6.92 -6.24)"><path d="M104.92 145.86l8.07-.3c-1.57 5.64-5.77 9.44-10.7 9.66l-8.08.3c4.93-.24 9.14-4.03 10.7-9.66z" class="cls-4"/></clipPath><clipPath id="clip-path-8" transform="translate(-6.92 -6.24)"><path d="M126.12 44.14l8.07-.3c6.25 0 11.5 5.74 12.07 13.34l-8.07.3c-.55-7.6-5.82-13.37-12.08-13.34z" class="cls-4"/></clipPath><linearGradient id="Gradiente_sem_nome_5-3" x1="-28.27" x2="-3.06" y1="311.07" y2="354.73" gradientTransform="translate(30.89 -214.32) rotate(-7.28)" xlink:href="#Gradiente_sem_nome_5"/><clipPath id="clip-path-9" transform="translate(-6.92 -6.24)"><path d="M144.22 162.8l-8.07.3h.2a11 11 0 0 0 8.4-4.8 14.72 14.72 0 0 0 2.84-10.82l8.06-.3A14.72 14.72 0 0 1 152.8 158a11 11 0 0 1-8.38 4.8z" class="cls-4"/></clipPath><linearGradient id="Gradiente_sem_nome_5-4" x1="46.11" x2="26.61" y1="307.82" y2="361.39" gradientTransform="translate(30.89 -214.32) rotate(-7.28)" xlink:href="#Gradiente_sem_nome_5"/><linearGradient id="Gradiente_sem_nome_5-5" x1="-.13" x2="17.16" y1="318.68" y2="271.19" gradientTransform="translate(30.89 -214.32) rotate(-7.28)" xlink:href="#Gradiente_sem_nome_5"/><linearGradient id="Gradiente_sem_nome_4" x1="28.81" x2="66.96" y1="371.79" y2="266.98" gradientTransform="translate(37.8 -208.08) rotate(-7.28)" gradientUnits="userSpaceOnUse"><stop offset="0" stop-color="#ef7e08"/><stop offset="1" stop-color="#ffcb09"/></linearGradient><clipPath id="clip-path-10" transform="translate(-6.92 -6.24)"><path d="M57.26 166.85l-8.07.3h.4c6.44-.32 11.4-6.66 11.3-14.46l8.06-.3c.13 7.8-4.84 14.14-11.3 14.45z" class="cls-5"/></clipPath><linearGradient id="Gradiente_sem_nome_5-7" x1="-28.28" x2="-28.28" y1="374.44" y2="371.24" xlink:href="#Gradiente_sem_nome_5"/><clipPath id="clip-path-11" transform="translate(-6.92 -6.24)"><path d="M144.22 162.8l-8.07.3h.2a11 11 0 0 0 8.4-4.8 14.72 14.72 0 0 0 2.84-10.82l8.06-.3A14.72 14.72 0 0 1 152.8 158a11 11 0 0 1-8.38 4.8z" class="cls-3"/></clipPath><linearGradient id="Gradiente_sem_nome_5-9" x1="58.4" x2="58.4" y1="381.44" y2="378.23" xlink:href="#Gradiente_sem_nome_5"/><linearGradient id="Gradiente_sem_nome_4-2" x1="-47.1" x2="-13.15" y1="339.15" y2="339.15" xlink:href="#Gradiente_sem_nome_4"/><linearGradient id="Gradiente_sem_nome_2-18" x1="-198.76" x2="-198.76" y1="216.75" y2="141.89" gradientTransform="matrix(-.98 .19 .19 .98 -210.38 -.91)" xlink:href="#Gradiente_sem_nome_2"/><linearGradient id="Gradiente_sem_nome_2-20" x1="-220.76" x2="-220.76" y1="225.59" y2="132.81" gradientTransform="matrix(-.98 .19 .19 .98 -210.38 -.91)" xlink:href="#Gradiente_sem_nome_2"/><linearGradient id="Gradiente_sem_nome_2-21" x1="-204.04" x2="-204.04" y1="223.4" y2="134.73" gradientTransform="matrix(-.98 .19 .19 .98 -210.38 -.91)" xlink:href="#Gradiente_sem_nome_2"/><linearGradient id="Gradiente_sem_nome_3-3" x1="-199.55" x2="-223.91" y1="229.63" y2="128.08" gradientTransform="matrix(-.98 .19 .19 .98 -210.38 -.91)" xlink:href="#Gradiente_sem_nome_3"/><linearGradient id="Gradiente_sem_nome_2-22" x1="-213.89" x2="-213.89" y1="230.71" y2="126.97" gradientTransform="matrix(-.98 .19 .19 .98 -217.3 -7.15)" xlink:href="#Gradiente_sem_nome_2"/></defs><title>massafmvertical</title><g class="cls-6"><g id="Camada_1"><path d="M584.67 179.37a2.72 2.72 0 0 0-2.68-3.18h-25.52a2.72 2.72 0 0 0-2.72 2.7v41.28a2.72 2.72 0 0 0 2.72 2.72h1.84a2.72 2.72 0 0 0 2.72-2.72v-16.72h14.4a2.85 2.85 0 0 0 2.87-2.84 2.74 2.74 0 0 0-2.7-2.67h-14.52v-16.32h20.8a2.83 2.83 0 0 0 2.8-2.26zM639.74 179.3a3.2 3.2 0 0 0-3.2-3.1h-4.72a3.22 3.22 0 0 0-3 2.1s-10.37 25.17-12.77 30.28c-2.4-5.1-12.77-30.3-12.77-30.3a3.22 3.22 0 0 0-3-2.1h-4.7a3.2 3.2 0 0 0-3.22 3.1l-2.4 40.3a3.2 3.2 0 0 0 3.22 3.32 3.23 3.23 0 0 0 3.32-3.1s0 1.4 1.73-37.1c14.36 35.34 14.36 33.93 14.36 33.93a3.2 3.2 0 0 0 3 2h1a3.2 3.2 0 0 0 3-2s0 1.4 14.35-33.93c1.73 38.5 1.73 37.1 1.73 37.1a3.23 3.23 0 0 0 3.32 3.1 3.2 3.2 0 0 0 3.2-3.33z" class="cls-7"/><path d="M289.44 47.76h-7.47a11.83 11.83 0 0 0-11.06 7.6l-19.32 46-19.26-45.84a11.9 11.9 0 0 0-11.13-7.76h-7.42a11.78 11.78 0 0 0-11.84 11.3l-5.5 74.8a11.76 11.76 0 0 0 3.32 8.65 12 12 0 0 0 20.6-7.82l1.56-46.92 16.83 43a11.8 11.8 0 0 0 11 7.53h3.58a11.8 11.8 0 0 0 11-7.55l16.9-43.15 1.85 47.16a11.86 11.86 0 1 0 23.7-1l-5.48-74.5a11.82 11.82 0 0 0-11.86-11.5z" class="cls-8"/><path d="M402.38 126.9a3.76 3.76 0 0 0-.2-.42L373.35 55.2a11.84 11.84 0 0 0-11-7.44h-8.5a11.84 11.84 0 0 0-11 7.43l-30.25 74.56a11.9 11.9 0 1 0 22.13 8.74l7.06-18.32h31.48l7.06 18.32a12 12 0 0 0 11.1 7.62h1.07a11.9 11.9 0 0 0 11-16.36zm-37.45-28.46h-14.67l7.3-18.85z" class="cls-9"/><path d="M468.28 93.62c-6-4.24-13.5-6.6-20.08-8.7-10.06-3.16-16.22-5.4-16.22-10.43a4.48 4.48 0 0 0 0-.6 4.83 4.83 0 0 1 1.2-3.14c3.72-4.3 15.54-4.8 32-1a10.54 10.54 0 0 0 2.37.27 10.4 10.4 0 0 0 2.75-20.44 99.64 99.64 0 0 0-25.22-3.62c-23.34 0-37.85 11.6-37.85 30.3 0 10.73 4.44 18.63 13.34 24 6 4.23 13.5 6.6 20.08 8.7 10.05 3.18 16.22 5.4 16.22 10.42a4 4 0 0 0 0 .58 4.86 4.86 0 0 1-1.23 3.17c-2 2.34-6.56 3.62-12.77 3.63a87.6 87.6 0 0 1-19.2-2.63 10.6 10.6 0 0 0-2.38-.27 10.4 10.4 0 0 0-2.75 20.44 99.65 99.65 0 0 0 25.14 3.6c23.33 0 37.84-11.6 37.84-30.3.07-10.74-4.37-18.64-13.26-24z" class="cls-10"/><path d="M542.14 93.62c-6-4.24-13.5-6.6-20.08-8.7-10.05-3.2-16.22-5.4-16.22-10.43 0-.13 0-.37 0-.5a4.74 4.74 0 0 1 1.32-3.37c2.07-2.26 6.56-3.5 12.65-3.5a87.54 87.54 0 0 1 19.2 2.63 10.53 10.53 0 0 0 2.38.27 10.4 10.4 0 0 0 2.7-20.45 99.7 99.7 0 0 0-25.14-3.6c-23.34 0-37.85 11.6-37.85 30.3 0 10.73 4.43 18.63 13.33 24 6 4.23 13.5 6.6 20.08 8.7 10.06 3.18 16.23 5.4 16.23 10.42 0 .12 0 .36 0 .48a4.75 4.75 0 0 1-1.32 3.38c-2.06 2.26-6.56 3.5-12.65 3.5a87.6 87.6 0 0 1-19.2-2.62 10.6 10.6 0 0 0-2.38-.27 10.4 10.4 0 0 0-2.75 20.44 99.7 99.7 0 0 0 25.14 3.6c23.34 0 37.85-11.6 37.85-30.28.08-10.74-4.32-18.64-13.26-24z" class="cls-11"/><path d="M650.28 129.76l-1.2-2.85a3.75 3.75 0 0 0-.2-.42l-28.8-71.28a11.85 11.85 0 0 0-11-7.44h-8.5a11.84 11.84 0 0 0-11 7.43l-30.23 74.56a11.9 11.9 0 1 0 22.13 8.74l7.06-18.32h31.5l7.04 18.34a12 12 0 0 0 11.1 7.6h1.07a11.9 11.9 0 0 0 11.03-16.36zm-38.6-31.32H597l7.3-18.85z" class="cls-12"/><path d="M286.64 46.36h-7.47a11.83 11.83 0 0 0-11.1 7.6l-19.32 46-19.23-45.84a11.9 11.9 0 0 0-11.13-7.76h-7.42a11.78 11.78 0 0 0-11.84 11.3l-5.5 74.8a11.76 11.76 0 0 0 3.32 8.65 12 12 0 0 0 20.6-7.82l1.52-46.9 16.83 43a11.8 11.8 0 0 0 11 7.52h3.6a11.8 11.8 0 0 0 11-7.54l16.88-43.15 1.77 47.14a11.86 11.86 0 1 0 23.7-1l-5.36-74.58a11.8 11.8 0 0 0-11.86-11.4z" class="cls-13"/><path d="M399.58 125.5a3.76 3.76 0 0 0-.2-.42l-28.82-71.32a11.84 11.84 0 0 0-11-7.44h-8.5a11.84 11.84 0 0 0-11 7.43l-30.2 74.58a11.9 11.9 0 1 0 22.14 8.74l7-18.3h31.48l7.06 18.3a12 12 0 0 0 11.1 7.63h1.07a11.9 11.9 0 0 0 11-16.36zm-37.45-28.46h-14.66l7.3-18.85z" class="cls-14"/><path d="M465.48 92.22c-6-4.24-13.5-6.6-20.08-8.7-10.05-3.2-16.22-5.4-16.22-10.43a4.48 4.48 0 0 0 0-.6 4.83 4.83 0 0 1 1.23-3.16c3.74-4.3 15.56-4.8 32-1a10.55 10.55 0 0 0 2.4.27 10.4 10.4 0 0 0 2.74-20.43 99.65 99.65 0 0 0-25.14-3.6c-23.34 0-37.85 11.6-37.85 30.3 0 10.73 4.44 18.63 13.34 24 6 4.23 13.5 6.6 20.07 8.7 9.97 3.2 16.1 5.4 16.1 10.43a4 4 0 0 0 0 .58 4.86 4.86 0 0 1-1.22 3.17c-2 2.34-6.56 3.62-12.77 3.63a87.6 87.6 0 0 1-19.12-2.62 10.6 10.6 0 0 0-2.4-.27 10.4 10.4 0 0 0-2.73 20.43 99.64 99.64 0 0 0 25.14 3.6c23.34 0 37.85-11.6 37.85-30.3 0-10.75-4.45-18.65-13.34-24z" class="cls-15"/><path d="M539.34 92.22c-6-4.24-13.5-6.6-20.08-8.7-10.05-3.2-16.18-5.4-16.18-10.43 0-.13 0-.37 0-.5a4.75 4.75 0 0 1 1.32-3.37c2.07-2.26 6.56-3.5 12.65-3.5a87.54 87.54 0 0 1 19.2 2.62 10.53 10.53 0 0 0 2.4.27 10.4 10.4 0 0 0 2.74-20.44 99.7 99.7 0 0 0-25.15-3.6c-23.34 0-37.85 11.6-37.85 30.3 0 10.73 4.44 18.63 13.34 24 6 4.23 13.5 6.6 20.08 8.7 10.05 3.18 16.22 5.4 16.22 10.42 0 .12 0 .36 0 .48a4.75 4.75 0 0 1-1.32 3.38c-2.07 2.26-6.57 3.5-12.66 3.5a87.6 87.6 0 0 1-19.24-2.6 10.6 10.6 0 0 0-2.4-.27 10.4 10.4 0 0 0-2.74 20.43 99.7 99.7 0 0 0 25.14 3.6c23.34 0 37.85-11.6 37.85-30.3 0-10.75-4.43-18.65-13.33-24z" class="cls-16"/><path d="M647.48 128.37l-1.16-2.86a3.74 3.74 0 0 0-.2-.42L617.3 53.76a11.85 11.85 0 0 0-11-7.44h-8.5a11.84 11.84 0 0 0-11 7.43l-30.2 74.58a11.9 11.9 0 1 0 22.14 8.74l7-18.3h31.5l7.05 18.3a12 12 0 0 0 11.1 7.62h1.06a11.9 11.9 0 0 0 11.02-16.33zm-38.6-31.32H594.2l7.3-18.85z" class="cls-17"/><g class="cls-18"><path d="M650.28 129.76l-1.2-2.85a3.78 3.78 0 0 0-.2-.42l-.8-2.13q-42.77-11.17-82-19.44l-9.5 23.48a11.75 11.75 0 0 0 2.27 12.5l.3.3a11.82 11.82 0 0 0 1.08 1l.25.2a73.63 73.63 0 0 1 4.64 2.54l.35.16a11.83 11.83 0 0 0 1.16.46l.47.15a11.8 11.8 0 0 0 1.17.26l.47.1a11.9 11.9 0 0 0 1.66.12 11.82 11.82 0 0 0 5.2-1.2 12.05 12.05 0 0 0 4.1-3.3 11.77 11.77 0 0 0 1.8-3.1l7.06-18.33h29.23l6.5 16.92a11.55 11.55 0 0 0 .7 1.45c.08.15.17.3.26.43.2.32.4.63.63.92.1.15.2.3.32.44a12 12 0 0 0 1 1c.2.2.4.35.6.52s.35.3.53.43.5.36.77.53l.37.22a83.74 83.74 0 0 0 6.4 2.8 11.65 11.65 0 0 0 2.34.26h1.07a11.9 11.9 0 0 0 10.98-16.4z" class="cls-19"/><path d="M481.92 89.3a27.2 27.2 0 0 0 9.76 9.57 43.85 43.85 0 0 0 6.86 3.87 93.8 93.8 0 0 0 16 6.23c3.68 1.17 6.83 2.2 9.35 3.3 2.6 1.54 4.05 3.3 4.05 5.74 0 .13 0 .37 0 .5a4.75 4.75 0 0 1-1.32 3.37c-2.07 2.26-6.57 3.5-12.66 3.5a87.6 87.6 0 0 1-19.15-2.6 10.6 10.6 0 0 0-2.4-.28 10.38 10.38 0 0 0-3.2 20.26 10.35 10.35 0 0 0 3.27 1.57 99.7 99.7 0 0 0 25.13 3.6c23.34 0 37.85-11.6 37.85-30.3a27.42 27.42 0 0 0-4.47-15.87q-36.15-7.3-69.08-12.46z" class="cls-20"/><path d="M468.28 93.62a43.9 43.9 0 0 0-6.86-3.86 82.33 82.33 0 0 0-13.6-5.46q-22.4-3-43.08-5.14c1.06 8.58 5.4 15.1 13.07 19.7a43.9 43.9 0 0 0 6.87 3.86 93.83 93.83 0 0 0 16 6.24c3.68 1.17 6.83 2.2 9.35 3.3 2.6 1.54 4.06 3.3 4.06 5.74a4 4 0 0 0 0 .58 4.86 4.86 0 0 1-1.23 3.17c-2 2.34-6.56 3.62-12.77 3.63a87.6 87.6 0 0 1-19.12-2.62 10.6 10.6 0 0 0-2.4-.27 10.38 10.38 0 0 0-3.2 20.26 10.35 10.35 0 0 0 3.26 1.57 99.64 99.64 0 0 0 25.14 3.6c23.34 0 37.85-11.6 37.85-30.3 0-10.75-4.43-18.65-13.32-24z" class="cls-21"/><path d="M402.38 126.9a3.78 3.78 0 0 0-.2-.42l-20-49.47c-17.84-1.53-34.6-2.6-50.25-3.3l-22.12 54.66a11.87 11.87 0 0 0 7.13 15.68 11.9 11.9 0 0 0 17.8-5.54l7.06-18.32H371l6.52 16.92a12 12 0 0 0 7.18 6.92 11.9 11.9 0 0 0 6.72 2.1h1.07a11.9 11.9 0 0 0 11-16.36zM350.8 97.05l5.64-14.56 5.7 14.56H350.8z" class="cls-22"/><path d="M260.14 72.9l-10.26 24.43-9.94-23.67c-17.44.87-31.55 2.14-42.23 3.37l-4.06 55.4a11.76 11.76 0 0 0 3.32 8.67 11.63 11.63 0 0 0 4.6 2.94 12.06 12.06 0 0 0 6.95 2.1 11.8 11.8 0 0 0 11.86-11.47l1.4-41.6 14.2 36.27a11.77 11.77 0 0 0 7.1 6.85 11.83 11.83 0 0 0 6.74 2.08h3.58a11.8 11.8 0 0 0 11-7.54L278.78 94l1.46 39.3a16.4 16.4 0 0 0 14.65 12.82 11.86 11.86 0 0 0 11.83-12.44l-4.44-60.92c-15.4-.26-29.44-.17-42.16.15z" class="cls-23"/></g><path d="M289.44 47.76h-7.47a11.83 11.83 0 0 0-11.06 7.6l-19.32 46-19.26-45.84a11.9 11.9 0 0 0-11.13-7.76h-7.42a11.78 11.78 0 0 0-11.84 11.3l-5.5 74.8a11.76 11.76 0 0 0 3.32 8.65 12 12 0 0 0 20.6-7.82l1.56-46.92 16.83 43a11.8 11.8 0 0 0 11 7.53h3.58a11.8 11.8 0 0 0 11-7.55l16.9-43.15 1.85 47.16a11.86 11.86 0 1 0 23.7-1l-5.48-74.5a11.82 11.82 0 0 0-11.86-11.5z" class="cls-8"/><path d="M402.38 126.9a3.76 3.76 0 0 0-.2-.42L373.35 55.2a11.84 11.84 0 0 0-11-7.44h-8.5a11.84 11.84 0 0 0-11 7.43l-30.25 74.56a11.9 11.9 0 1 0 22.13 8.74l7.06-18.32h31.48l7.06 18.32a12 12 0 0 0 11.1 7.62h1.07a11.9 11.9 0 0 0 11-16.36zm-37.45-28.46h-14.67l7.3-18.85z" class="cls-9"/><path d="M468.28 93.62c-6-4.24-13.5-6.6-20.08-8.7-10.06-3.16-16.22-5.4-16.22-10.43a4.48 4.48 0 0 0 0-.6 4.83 4.83 0 0 1 1.2-3.14c3.72-4.3 15.54-4.8 32-1a10.54 10.54 0 0 0 2.37.27 10.4 10.4 0 0 0 2.75-20.44 99.64 99.64 0 0 0-25.22-3.62c-23.34 0-37.85 11.6-37.85 30.3 0 10.73 4.44 18.63 13.34 24 6 4.23 13.5 6.6 20.08 8.7 10.05 3.18 16.22 5.4 16.22 10.42a4 4 0 0 0 0 .58 4.86 4.86 0 0 1-1.23 3.17c-2 2.34-6.56 3.62-12.77 3.63a87.6 87.6 0 0 1-19.2-2.63 10.6 10.6 0 0 0-2.38-.27 10.4 10.4 0 0 0-2.75 20.44 99.65 99.65 0 0 0 25.14 3.6c23.33 0 37.84-11.6 37.84-30.3.07-10.74-4.37-18.64-13.26-24z" class="cls-10"/><path d="M542.14 93.62c-6-4.24-13.5-6.6-20.08-8.7-10.05-3.2-16.22-5.4-16.22-10.43 0-.13 0-.37 0-.5a4.74 4.74 0 0 1 1.32-3.37c2.07-2.26 6.56-3.5 12.65-3.5a87.54 87.54 0 0 1 19.2 2.63 10.53 10.53 0 0 0 2.38.27 10.4 10.4 0 0 0 2.7-20.45 99.7 99.7 0 0 0-25.14-3.6c-23.34 0-37.85 11.6-37.85 30.3 0 10.73 4.43 18.63 13.33 24 6 4.23 13.5 6.6 20.08 8.7 10.06 3.18 16.23 5.4 16.23 10.42 0 .12 0 .36 0 .48a4.75 4.75 0 0 1-1.32 3.38c-2.06 2.26-6.56 3.5-12.65 3.5a87.6 87.6 0 0 1-19.2-2.62 10.6 10.6 0 0 0-2.38-.27 10.4 10.4 0 0 0-2.75 20.44 99.7 99.7 0 0 0 25.14 3.6c23.34 0 37.85-11.6 37.85-30.28.08-10.74-4.32-18.64-13.26-24z" class="cls-11"/><path d="M650.28 129.76l-1.2-2.85a3.75 3.75 0 0 0-.2-.42l-28.8-71.28a11.85 11.85 0 0 0-11-7.44h-8.5a11.84 11.84 0 0 0-11 7.43l-30.23 74.56a11.9 11.9 0 1 0 22.13 8.74l7.06-18.32h31.5l7.04 18.34a12 12 0 0 0 11.1 7.6h1.07a11.9 11.9 0 0 0 11.03-16.36zm-38.6-31.32H597l7.3-18.85z" class="cls-12"/><path d="M286.64 46.36h-7.47a11.83 11.83 0 0 0-11.1 7.6l-19.32 46-19.23-45.84a11.9 11.9 0 0 0-11.13-7.76h-7.42a11.78 11.78 0 0 0-11.84 11.3l-5.5 74.8a11.76 11.76 0 0 0 3.32 8.65 12 12 0 0 0 20.6-7.82l1.52-46.9 16.83 43a11.8 11.8 0 0 0 11 7.52h3.6a11.8 11.8 0 0 0 11-7.54l16.88-43.15 1.77 47.14a11.86 11.86 0 1 0 23.7-1l-5.36-74.58a11.8 11.8 0 0 0-11.86-11.4z" class="cls-13"/><path d="M399.58 125.5a3.76 3.76 0 0 0-.2-.42l-28.82-71.32a11.84 11.84 0 0 0-11-7.44h-8.5a11.84 11.84 0 0 0-11 7.43l-30.2 74.58a11.9 11.9 0 1 0 22.14 8.74l7-18.3h31.48l7.06 18.3a12 12 0 0 0 11.1 7.63h1.07a11.9 11.9 0 0 0 11-16.36zm-37.45-28.46h-14.66l7.3-18.85z" class="cls-14"/><path d="M465.48 92.22c-6-4.24-13.5-6.6-20.08-8.7-10.05-3.2-16.22-5.4-16.22-10.43a4.48 4.48 0 0 0 0-.6 4.83 4.83 0 0 1 1.23-3.16c3.74-4.3 15.56-4.8 32-1a10.55 10.55 0 0 0 2.4.27 10.4 10.4 0 0 0 2.74-20.43 99.65 99.65 0 0 0-25.14-3.6c-23.34 0-37.85 11.6-37.85 30.3 0 10.73 4.44 18.63 13.34 24 6 4.23 13.5 6.6 20.07 8.7 9.97 3.2 16.1 5.4 16.1 10.43a4 4 0 0 0 0 .58 4.86 4.86 0 0 1-1.22 3.17c-2 2.34-6.56 3.62-12.77 3.63a87.6 87.6 0 0 1-19.12-2.62 10.6 10.6 0 0 0-2.4-.27 10.4 10.4 0 0 0-2.73 20.43 99.64 99.64 0 0 0 25.14 3.6c23.34 0 37.85-11.6 37.85-30.3 0-10.75-4.45-18.65-13.34-24z" class="cls-15"/><path d="M539.34 92.22c-6-4.24-13.5-6.6-20.08-8.7-10.05-3.2-16.18-5.4-16.18-10.43 0-.13 0-.37 0-.5a4.74 4.74 0 0 1 1.32-3.37c2.07-2.26 6.56-3.5 12.65-3.5a87.54 87.54 0 0 1 19.2 2.62 10.53 10.53 0 0 0 2.4.27 10.4 10.4 0 0 0 2.74-20.44 99.7 99.7 0 0 0-25.15-3.6c-23.34 0-37.85 11.6-37.85 30.3 0 10.73 4.44 18.63 13.34 24 6 4.23 13.5 6.6 20.08 8.7 10.05 3.18 16.22 5.4 16.22 10.42 0 .12 0 .36 0 .48a4.75 4.75 0 0 1-1.32 3.38c-2.07 2.26-6.57 3.5-12.66 3.5a87.6 87.6 0 0 1-19.24-2.6 10.6 10.6 0 0 0-2.4-.27 10.4 10.4 0 0 0-2.74 20.43 99.7 99.7 0 0 0 25.14 3.6c23.34 0 37.85-11.6 37.85-30.3 0-10.75-4.43-18.65-13.33-24z" class="cls-16"/><path d="M647.48 128.37l-1.16-2.86a3.74 3.74 0 0 0-.2-.42L617.3 53.76a11.85 11.85 0 0 0-11-7.44h-8.5a11.84 11.84 0 0 0-11 7.43l-30.2 74.58a11.9 11.9 0 1 0 22.14 8.74l7-18.3h31.5l7.05 18.3a12 12 0 0 0 11.1 7.62h1.06a11.9 11.9 0 0 0 11.02-16.33zm-38.6-31.32H594.2l7.3-18.85z" class="cls-17"/><g class="cls-24"><path d="M650.28 129.76l-1.2-2.85a3.78 3.78 0 0 0-.2-.42l-.8-2.13q-42.77-11.17-82-19.44l-9.5 23.48a11.75 11.75 0 0 0 2.27 12.5l.3.3a11.82 11.82 0 0 0 1.08 1l.25.2a73.63 73.63 0 0 1 4.64 2.54l.35.16a11.83 11.83 0 0 0 1.16.46l.47.15a11.8 11.8 0 0 0 1.17.26l.47.1a11.9 11.9 0 0 0 1.66.12 11.82 11.82 0 0 0 5.2-1.2 12.05 12.05 0 0 0 4.1-3.3 11.77 11.77 0 0 0 1.8-3.1l7.06-18.33h29.23l6.5 16.92a11.55 11.55 0 0 0 .7 1.45c.08.15.17.3.26.43.2.32.4.63.63.92.1.15.2.3.32.44a12 12 0 0 0 1 1c.2.2.4.35.6.52s.35.3.53.43.5.36.77.53l.37.22a83.74 83.74 0 0 0 6.4 2.8 11.65 11.65 0 0 0 2.34.26h1.07a11.9 11.9 0 0 0 10.98-16.4z" class="cls-25"/><path d="M481.92 89.3a27.2 27.2 0 0 0 9.76 9.57 43.85 43.85 0 0 0 6.86 3.87 93.8 93.8 0 0 0 16 6.23c3.68 1.17 6.83 2.2 9.35 3.3 2.6 1.54 4.05 3.3 4.05 5.74 0 .13 0 .37 0 .5a4.75 4.75 0 0 1-1.32 3.37c-2.07 2.26-6.57 3.5-12.66 3.5a87.6 87.6 0 0 1-19.15-2.6 10.6 10.6 0 0 0-2.4-.28 10.38 10.38 0 0 0-3.2 20.26 10.35 10.35 0 0 0 3.27 1.57 99.7 99.7 0 0 0 25.13 3.6c23.34 0 37.85-11.6 37.85-30.3a27.42 27.42 0 0 0-4.47-15.87q-36.15-7.3-69.08-12.46z" class="cls-26"/><path d="M468.28 93.62a43.9 43.9 0 0 0-6.86-3.86 82.33 82.33 0 0 0-13.6-5.46q-22.4-3-43.08-5.14c1.06 8.58 5.4 15.1 13.07 19.7a43.9 43.9 0 0 0 6.87 3.86 93.83 93.83 0 0 0 16 6.24c3.68 1.17 6.83 2.2 9.35 3.3 2.6 1.54 4.06 3.3 4.06 5.74a4 4 0 0 0 0 .58 4.86 4.86 0 0 1-1.23 3.17c-2 2.34-6.56 3.62-12.77 3.63a87.6 87.6 0 0 1-19.12-2.62 10.6 10.6 0 0 0-2.4-.27 10.38 10.38 0 0 0-3.2 20.26 10.35 10.35 0 0 0 3.26 1.57 99.64 99.64 0 0 0 25.14 3.6c23.34 0 37.85-11.6 37.85-30.3 0-10.75-4.43-18.65-13.32-24z" class="cls-27"/><path d="M402.38 126.9a3.78 3.78 0 0 0-.2-.42l-20-49.47c-17.84-1.53-34.6-2.6-50.25-3.3l-22.12 54.66a11.87 11.87 0 0 0 7.13 15.68 11.9 11.9 0 0 0 17.8-5.54l7.06-18.32H371l6.52 16.92a12 12 0 0 0 7.18 6.92 11.9 11.9 0 0 0 6.72 2.1h1.07a11.9 11.9 0 0 0 11-16.36zM350.8 97.05l5.64-14.56 5.7 14.56H350.8z" class="cls-28"/><path d="M260.14 72.9l-10.26 24.43-9.94-23.67c-17.44.87-31.55 2.14-42.23 3.37l-4.06 55.4a11.76 11.76 0 0 0 3.32 8.67 11.63 11.63 0 0 0 4.6 2.94 12.06 12.06 0 0 0 6.95 2.1 11.8 11.8 0 0 0 11.86-11.47l1.4-41.6 14.2 36.27a11.77 11.77 0 0 0 7.1 6.85 11.83 11.83 0 0 0 6.74 2.08h3.58a11.8 11.8 0 0 0 11-7.54L278.78 94l1.46 39.3a16.4 16.4 0 0 0 14.65 12.82 11.86 11.86 0 0 0 11.83-12.44l-4.44-60.92c-15.4-.26-29.44-.17-42.16.15z" class="cls-29"/></g><path d="M146.55 27.76c-16.2-15-37.77-23.27-60.7-23.27s-44.5 8.26-60.7 23.26S0 62.76 0 83.98a74 74 0 0 0 4.2 24.6 3.62 3.62 0 0 0 3.45 2.32 3.9 3.9 0 0 0 1.13-.14 3.33 3.33 0 0 0 2.3-4.27A67.8 67.8 0 0 1 7.24 84c0-40.12 35.24-72.75 78.57-72.75S164.4 43.88 164.4 84a67.8 67.8 0 0 1-3.84 22.5 3.12 3.12 0 0 0 .22 2.57 3.56 3.56 0 0 0 2.12 1.68 3.92 3.92 0 0 0 1.13.17 3.62 3.62 0 0 0 3.47-2.33 74.06 74.06 0 0 0 4.2-24.6c.03-21.24-8.9-41.24-25.12-56.24z" class="cls-30"/><path d="M163.97 42.16a87 87 0 0 0-32.28-30.5 96.06 96.06 0 0 0-91.7 0 87 87 0 0 0-32.27 30.5 6.38 6.38 0 0 0 2.7 9 7.58 7.58 0 0 0 3.53.86 7.3 7.3 0 0 0 6.24-3.26c13.4-21.9 38.55-35.48 65.65-35.48s52.23 13.57 65.65 35.48a7.5 7.5 0 0 0 9.78 2.5 6.38 6.38 0 0 0 2.7-9.1z" class="cls-31"/><path d="M129.66 17.45a88.25 88.25 0 0 0-87.63 0 84.86 84.86 0 0 0-30.85 30.52 6.44 6.44 0 0 0-.9 3.16l.15.08a7.58 7.58 0 0 0 3.53.87 7.3 7.3 0 0 0 6.24-3.3c13.4-21.92 38.55-35.5 65.65-35.5s52.23 13.58 65.65 35.5a7.5 7.5 0 0 0 9.78 2.5l.14-.1a6.45 6.45 0 0 0-.9-3.15 84.84 84.84 0 0 0-30.86-30.57z" class="cls-32"/><path d="M167.35 134.23c-3.58 17.08-10 30.3-14.4 29.5s-5-15.26-1.47-32.35 10-30.3 14.4-29.5 5.04 15.27 1.47 32.35z" class="cls-33"/><path d="M167.35 134.23c-3.58 17.08-10 30.3-14.4 29.5s-5-15.26-1.47-32.35 10-30.3 14.4-29.5 5.04 15.27 1.47 32.35z" class="cls-34"/><path d="M130.16 167.33l-.63-.1a4.14 4.14 0 0 1-3.32-4.94l14.37-68.54a4.14 4.14 0 0 1 4.8-3.23l.62.1a4.14 4.14 0 0 1 3.3 4.94l-14.34 68.56a4.14 4.14 0 0 1-4.8 3.2z" class="cls-35"/><path d="M149.64 169.03l-5.85-1a6 6 0 0 1-4.8-7.1l12.88-61.5a6 6 0 0 1 6.9-4.67l5.85 1a6 6 0 0 1 4.8 7.1l-12.9 61.5a6 6 0 0 1-6.9 4.67z" class="cls-36"/><path d="M145.4 174.76l-14.14-2.54a3.27 3.27 0 0 1-2.63-3.9l16.6-79.25a3.27 3.27 0 0 1 3.77-2.55l14.15 2.54a3.27 3.27 0 0 1 2.63 3.9l-16.6 79.25a3.27 3.27 0 0 1-3.77 2.56z" class="cls-37"/><path d="M137.73 173.36l-4.35-.78L151.3 86.9l4.36.8-17.93 85.66z" class="cls-38"/><g class="cls-39"><path d="M118.97 37.9l8.07-.3h.04l-8.07.3h-.06" class="cls-40"/><path d="M119.08 37.9l8.07-.3h.14l-8.08.3h-.14" class="cls-41"/><path d="M119.18 37.9l8.07-.3-8.07.3" class="cls-42"/></g><g class="cls-6"><path d="M118.03 39.38a1.33 1.33 0 0 1 .7-1.47h.04a1.57 1.57 0 0 1 .43 0 1.3 1.3 0 0 0-.8 1.48h-.38z" class="cls-2"/><g class="cls-6"><path d="M118.03 39.38a1.33 1.33 0 0 1 .7-1.47h.04a1.57 1.57 0 0 1 .43 0 1.3 1.3 0 0 0-.8 1.48h-.38M118.7 38.25a.3.3 0 0 0-.14.26 2.3 2.3 0 0 0-.14.86h-.4a1.33 1.33 0 0 1 .7-1.47h.05a1.57 1.57 0 0 1 .43 0 .67.67 0 0 0-.5.35M118.82 38.08a2 2 0 0 0-.23.13.75.75 0 0 0-.2.24.23.23 0 0 0 .07.35 2.46 2.46 0 0 0-.06.57h-.38a1.33 1.33 0 0 1 .7-1.47h.04a1.57 1.57 0 0 1 .43 0 .56.56 0 0 0-.4.18M118.92 38l-.2.06a1.13 1.13 0 0 0-.2.12 1.63 1.63 0 0 0-.4.4.87.87 0 0 1 .6-.67h.05a1.57 1.57 0 0 1 .43 0 .52.52 0 0 0-.3.1M119 37.95a2.53 2.53 0 0 0-.33.1 2.62 2.62 0 0 0-.42.24.7.7 0 0 1 .47-.38h.05a1.57 1.57 0 0 1 .43 0 .5.5 0 0 0-.2.06M119.08 37.92a2.48 2.48 0 0 0-.32.06 2.6 2.6 0 0 0-.4.18.6.6 0 0 1 .38-.24h.05a1.57 1.57 0 0 1 .42 0h-.13M118.42 39.37h-.4a2.4 2.4 0 0 1 .06-.6.48.48 0 0 0 .36.22 2.55 2.55 0 0 0 0 .38M119.14 37.9a1.64 1.64 0 0 0-.72.16.55.55 0 0 1 .3-.15h.05a1.57 1.57 0 0 1 .43 0h-.06M118.42 39.37h-.4a2.6 2.6 0 0 1 0-.28h.4c0 .07 0 .14 0 .22M119.17 37.9a1.7 1.7 0 0 0-.66.1.5.5 0 0 1 .22-.1h.05a1.55 1.55 0 0 1 .4 0M119.08 37.9a1.86 1.86 0 0 0-.44.05h.45M118.42 39.37h-.4s0-.06 0-.1h.4s0 .06 0 .1M118.92 37.9h-.24.25" class="cls-2"/></g></g><g class="cls-6"><path d="M139.6 50.94l9.4 90a.6.6 0 0 0-.25 0l-9.4-90h.25z" class="cls-2"/><g class="cls-6"><path d="M148.75 140.92l-9.4-90 9.4 90M148.76 140.92l-9.4-90 9.4 90M148.8 140.92l-9.4-90 9.4 90M148.83 140.92l-9.4-90 9.4 90M148.86 140.92l-9.4-90 9.4 90M148.88 140.92l-9.4-90 9.4 90M148.9 140.92l-9.4-90 .48 4.5.47 4.5.47 4.5.47 4.5.46 4.5.47 4.5.47 4.5.47 4.5.47 4.5.47 4.5.48 4.5.47 4.5.47 4.5.47 4.5.46 4.5.47 4.5.47 4.5.47 4.5.47 4.5.47 4.5M148.93 140.92l-9.4-90 .47 4.5.47 4.5.47 4.5.47 4.5.48 4.5.47 4.5.47 4.5.47 4.5.46 4.5.47 4.5.47 4.5.47 4.5.47 4.5.47 4.5.48 4.5.47 4.5.47 4.5.47 4.5.46 4.5.47 4.5M148.95 140.92l-9.4-90 9.4 90M148.96 140.92l-9.4-90 9.4 90M148.97 140.92l-9.4-90 9.4 90M149 140.92l-9.4-90 9.4 90M149 140.93l-9.4-90 .47 4.5.47 4.5.47 4.5.48 4.5.47 4.5.47 4.5.47 4.5.46 4.5.47 4.5.47 4.5.47 4.5.47 4.5.47 4.5.48 4.5.47 4.5.47 4.5.47 4.5.46 4.5.47 4.5.47 4.5M149 140.93l-9.4-90 .47 4.5.47 4.5.47 4.5.48 4.5.47 4.5.47 4.5.47 4.5.46 4.5.47 4.5.47 4.5.47 4.5.47 4.5.47 4.5.48 4.5.47 4.5.47 4.5.47 4.5.46 4.5.47 4.5.47 4.5" class="cls-2"/></g></g><path d="M150.42 143.53v-.63c0-.2 0-.45 0-.65l-.05-.66-.6-5.75-.34-3.26-.47-4.5-.47-4.5-.48-4.5-.47-4.5-.47-4.5-.47-4.5-.46-4.5-.47-4.5-.47-4.5-.47-4.5-.47-4.5-.47-4.5-.48-4.5-.47-4.5-.47-4.5-.47-4.5-.46-4.5-.47-4.5v-.2c0-.3-.07-.63-.1-.9v-.32c0-.22-.07-.44-.12-.66v-.1c0-.1-.05-.24-.1-.37v-.7l-.07-.25-.12-.4.1.32-.07-.2V47.35c0-.14-.12-.3-.2-.48l-.07-.2-.12-.3-.1-.25-.1-.23-.2-.46-.13-.23-.1-.17-.1-.2.08.17-.52-.24-.06-.1-.1-.17-.2-.36-.12-.18-.16-.2c-.14-.2-.3-.42-.47-.63l-.06-.08-.1-.13-.27-.32-.32-.44-.06-.06-.1-.1-.54-.54-.15-.13-.23-.2-.3-.26-.4-.3-.2-.15-.25-.17-.52-.33-.25-.16c-.28-.16-.66-.35-.94-.5l-.74-.3h-.05l-.66-.2h-.56l-.4-.1h-.13.14H130.36l-.43-.05h-1.56l-8.05.3h-.16l-7.5.35h-.07a1.1 1.1 0 0 0-.4 0h-.48l-.67.1-.27.07h-.17l-.28.07h-.13l-.26.07-.3.1h-.1l-.43.16-.3.13-.5.23h.07l-.2.1-.2.1-.5.28-.15.1-.12.08-.32.2-.42.32-.24.18-.55.47c-.1.1-.28.26-.5.5l-.1-.07-.05.06-.3.33-.14.16c-.16.2-.36.46-.52.65l-.1.15-.1.14-.24.33v.08l-.07.12-.32.5c-.13.23-.25.44-.36.65l-.08.17-.22.43-.07.15v.1l-.16.4-.1.25c-.1.24-.2.56-.28.8l-.23.8-13.35 44.14-.1-.28-1.08-2.7-1.12-2.7-1-2.72-1.13-2.72-1.1-2.78-1.12-2.8-1.12-2.8-1.12-2.88-1.13-2.84-1.14-2.9-1.12-2.82-1.14-2.87-1.14-2.88-1.15-2.9-1.15-2.87c-.08-.24-.2-.53-.3-.76v-.1l-.15-.36-.1-.18v-.05l-.18-.2-.08-.15-.1-.18-.12-.24v-.06l-.12-.2-.28-.5-.2-.3-.16-.26-.1-.12-.3-.42-.33-.4-.36-.43-.37-.4-.2-.17-.37-.36-.27-.24-.22-.18a11.84 11.84 0 0 0-1.35-1l-.12-.08-.2-.12-.45-.27-.6-.3h-.23l-.38-.14-.2-.08h-.07l-.26-.1-.26-.16H62.77l-.46-.1h-.03.1-.53l-.54-.1h-1.53l-8.06.06h-.15l-7.42.35-.7.07h.1l-.57.07-.32.06h-.16l-.32.06-.2.05h-.06.07-.22l-.22.08-.32.1h-.1l-.18.18-.38.15-.22.1-.38.18h-.05.05l-.6.3a10.56 10.56 0 0 0-2.14 1.57l-.1.1-.23.23-.1.1-.37.38-.6.7-.16.2-.1.14-.28.4-.1.15-.14.2-.23.37-.14.2c-.16.28-.35.66-.5.94l-.08.2-.13.28-.2.45v.16c-.1.27-.2.58-.3.83a13.66 13.66 0 0 0-.5 1.87v.16l-.07.54-.08.52a8.07 8.07 0 0 0-.1 1V56.35l-.32 11.45V70l-.08 4.53-.12 4.55-.1 4.54-.06 4.54-.08 4.54-.05 3v6.05l-.1 4.54-.07 4.54-.08 4.54-.08 4.54-.08 4.54-.1 4.55-.07 4.56v4.55l-.25 4.6-.08 4.54s0 .07 0 .1 0 .26 0 .38v.2c0 .14 0 .28 0 .4v.07c0 .53.1.92.12 1.07 0 .17.06.4.1.56v.78l.05.25v.07l.13.5.07.23.08.27.44.62v.07l.16.45.22.5v.1l.1.23.06.12v.06l.34.48.1.2a14.1 14.1 0 0 0 1.24 1.9l.05.06a12.55 12.55 0 0 0 2.64 2.53l.1.06.22.17.37.24.2.15.18.1.25.13.28.14.15.07h.06l.4.17.2.08H39.55l.54.3h.25l.2.07.5.12.45.1h2.23l5-.2 3.1-.1H53.86l.28-.06.2-.05c.28-.07.54-.15.78-.24h.07l.14-.07.4-.16.22-.08.32-.16.65-.33a10.1 10.1 0 0 0 1.5-1.14l.48-.4.16-.14.22-.22.08-.08.44-.46.57-.67.1-.13c.1-.14.25-.35.42-.6l.05-.08.13-.24.1-.15.24-.38v-.14l.23-.44.07-.13.18-.34.18-.2c.07-.15.14-.32.2-.48l.08-.16.05-.12v-.08l.06-.14v-.1.08l.12-.34v-.05l.1-.3a14.55 14.55 0 0 0 .42-1.57l.05-.28V150v.1-.4l.08-.54V148.7c0-.05 0-.12 0-.2q0-.1 0-.26v-.84c0 .06 0 .1 0 .17v-1.1l-.08-5.45v-1.79l-.07-4.68v-20.41l.24.6.47 1.25.33.9 1.2 3.2.52 1.4.73 2 2.15 5.76.28.74 1.08 2.76.43 1.14 2.8 7.5c.1.22.22.5.3.74l.08.14.1.2.18.4.2.4v.04l.16.28.4.67c.13.2.32.47.45.67l.46.6.52.6.15.17a11.4 11.4 0 0 0 4.56 3.1l.22.13.18.06h.06l.4.12.36.1h.17l.24.06.4.07h.22l.6.06H84.87l8.07-.28h.13l3.6-.17H98.18l.8-.2.65-.2.77-.3.14-.05.47-.22a11.48 11.48 0 0 0 4-3.38l.06-.07.07-.1.15-.22.18-.24.05-.08.1-.16.43-.56c.13-.22.25-.43.36-.63v-.05l.13-.26.14-.28.1-.2.08-.17.08-.2.17-.4.1-.26.06-.16-.07.16.2-.53.24-.8.82-3 .8-3 .83-3 .82-3 .8-2.95.82-2.9.8-2.9.8-2.86.57-2.08.68-2.44.15-.56.07.9.06.76.22 3 .23 3 .23 3.07.23 3.1.2 2.5.64 8.6.1 1.53.15 1.9.32 4.48c0 .34.08.78.12 1.1v.16c0 .1 0 .22.06.33l.1.58c0 .13.06.28.1.44v.15l.1.46.2.6.05.2.06.2c.1.3.27.68.4 1l.4.9.13.22v.06l.35.65.22.35.1.18.2.3c.12.18.3.4.45.6l.06.1.1.12.6.7.07.07.1.1.54.53.16.13.22.2.3.25.4.3.2.15.25.17.52.33.17.1c.28.17.66.35.94.5a9.93 9.93 0 0 0 1.65.6h.15l.45.1.35.08a6.7 6.7 0 0 0 1 .13h.98a1.56 1.56 0 0 0 .44 0h-.2l8.07-.3h2.2l.2-.04.2-.06h.12l.16-.05.24-.1h.05l.27-.08.24-.1c.3-.1.58-.24.87-.38l.4-.2a11.25 11.25 0 0 0 1.12-.76l.1-.08.32-.25.3-.27.27-.24.2-.2.2-.2.1-.1.08-.08.2-.22a13.48 13.48 0 0 0 2.13-3.12l.08-.14.23-.48.1-.22.1-.24.16-.38v-.12l.16-.47V148.13l.08-.28.08-.3v-.23l.08-.38v-.16c0-.1 0-.23.06-.35v-.17c0-.1 0-.22 0-.34v-1.27c0-.1 0-.2 0-.3v-.2c0-.06 0-.14 0-.22v-.4zM50.34 160.6l-8.07.3h.4c6.45-.3 11.42-6.65 11.3-14.45l8.07-.3c.13 7.8-4.84 14.15-11.3 14.46z" class="cls-4"/><g class="cls-45"><path d="M53.96 146.43l8.07-.3q0 .4 0 .78l-8.07.3q0-.38 0-.77M53.96 147.2l8.07-.28q0 .45 0 .9l-8.07.28q0-.44 0-.9M53.9 148.1l8.08-.34q0 .42-.1.83l-8.06.28q.05-.4.1-.83M53.83 148.93l8.07-.3q-.05.4-.12.8l-8.07.3q.08-.4.13-.8M53.7 149.76l8.08-.3q-.07.4-.15.77l-8.07.3q.08-.38.15-.77M53.56 150.47l8.07-.3q-.08.38-.18.75l-8.07.3q.1-.38.18-.75M53.37 151.2l8.07-.28q-.1.37-.22.72l-8.07.3q.12-.37.22-.73M53.16 151.93l8.07-.3q-.12.38-.25.73l-8.07.3q.14-.37.26-.73M52.9 152.66l8.07-.3q-.14.38-.3.73l-8.06.28q.17-.36.3-.72M52.6 153.38l8.08-.3q-.16.38-.34.74l-8.07.3q.18-.37.34-.74M52.27 154.1l8.07-.28q-.2.38-.4.75l-8.07.3q.2-.37.4-.76M51.86 154.86l8.07-.3q-.23.4-.5.8l-8.06.28q.25-.38.5-.78M51.38 155.64l8.07-.3q-.3.45-.62.86l-8.07.3q.32-.42.62-.86M50.76 156.5l8.07-.3a13 13 0 0 1-.88 1l-8.07.3a13 13 0 0 0 .88-1M49.88 157.5l8.07-.3a10.72 10.72 0 0 1-7.2 3.4h-.4l-8.08.28h.4a10.72 10.72 0 0 0 7.2-3.38" class="cls-4"/></g><path d="M53.1 89.6l8.06-.3.87 56.84-8.06.3-.88-56.85zM50.38 41.08l8.07-.32h.27c4.82 0 9.3 3.5 11.2 8.9l-8.08.3c-1.9-5.4-6.36-8.94-11.2-8.9h-.26z" class="cls-4"/><g class="cls-46"><path d="M50.38 41.08l8.07-.32h.1l-8.07.3h-.1M50.48 41.08l8.06-.32h.12l-8.07.3h-.12M50.6 41.08l8.06-.32h.24l-8.07.3h-.23M50.84 41.08l8.07-.32h.76l-8.07.3h-.76M51.6 41.12l8.06-.3.7.1-8.07.3-.7-.1M52.3 41.2l8.06-.28.67.13-8.07.3-.67-.14M52.95 41.34l8.07-.3.64.18-8.07.3-.65-.18M53.6 41.52l8.06-.3.63.22-8.08.32-.63-.2M54.22 41.76l8.07-.3.6.26-8.07.3-.6-.26M54.84 41.98l8.07-.3.62.3-8.07.3-.6-.3M55.45 42.27l8.07-.3.56.35-8 .3-.6-.35M56.08 42.6l8-.28.66.44-8.07.3-.6-.45M56.67 43l8.07-.24q.32.22.63.46l-8.07.3q-.3-.25-.63-.47M57.3 43.47l8.07-.3q.33.27.65.56l-8.07.3q-.32-.3-.65-.56M57.95 44.02l8.06-.26q.37.32.7.67l-8.07.3q-.34-.36-.7-.68M58.64 44.7l8.07-.3q.4.4.77.87l-8.07.3q-.36-.46-.76-.88M59.4 45.56l8.07-.3a14.24 14.24 0 0 1 .94 1.34l-8.06.3a14.24 14.24 0 0 0-.94-1.34M60.34 46.9l8.07-.3a15.4 15.4 0 0 1 1.5 3.1l-8.07.3a15.4 15.4 0 0 0-1.5-3.1" class="cls-4"/></g><path d="M91.82 149.15h-.2.2" class="cls-48"/><path d="M61.84 50l8.06-.3 21.73 54.6-8.07.3L61.84 50zM98 139.62l8.07-.3c-1.56 5.64-5.76 9.44-10.7 9.66l-8.07.3c4.93-.24 9.14-4.03 10.7-9.66z" class="cls-4"/><g class="cls-49"><path d="M98 139.62l8.07-.3q-.1.36-.2.7l-8.08.3q.1-.35.2-.7M97.8 140.3l8.06-.28q-.12.37-.26.74l-8.07.3q.14-.37.26-.75M97.53 141.05l8.07-.3q-.14.38-.3.74l-8.07.28q.16-.36.3-.73M97.23 141.76l8.07-.3q-.16.4-.35.75l-8.07.3q.18-.36.35-.74M96.9 142.52l8.06-.3q-.2.4-.4.76l-8.08.3q.2-.38.4-.76M96.48 143.27l8.07-.3q-.23.4-.5.8l-8.06.28q.24-.38.48-.78M96 144.05l8.08-.3q-.3.45-.62.86l-8.07.3q.3-.4.6-.85M95.38 144.9l8.07-.3a12.86 12.86 0 0 1-.85 1l-8.07.3a12.87 12.87 0 0 0 .85-1M94.53 145.88l8.07-.3a10.7 10.7 0 0 1-7.23 3.4l-8.07.3a10.7 10.7 0 0 0 7.23-3.4" class="cls-4"/></g><path d="M112.7 86.6l8.06-.3-14.7 53.02-8.06.3 14.7-53.02zM119.2 37.9l8.07-.3c6.26 0 11.52 5.74 12.08 13.34l-8.07.3c-.55-7.6-5.82-13.37-12.08-13.34z" class="cls-4"/><g class="cls-50"><path d="M119.2 37.9l8.07-.3h.2l-8.07.3h-.2M119.4 37.9l8.07-.3h.77l-8.07.3h-.77M120.17 37.94l8.07-.3.7.1-8.07.3-.7-.1M120.87 38.03l8.07-.3.67.14-8.06.3-.67-.14M121.54 38.16l8.07-.3.65.18-8.07.3-.64-.18M122.18 38.33l8.07-.3.62.22-8.07.3-.62-.22M122.8 38.54l8.07-.3.6.26-8.06.3-.6-.26M123.4 38.76l8.08-.3.6.3-8.07.3-.6-.3M124.02 39.08l8.06-.32.6.34-8.07.3-.6-.35M124.62 39.42l8.07-.3.6.4-8.08.3-.6-.4M125.22 39.76l8.07-.3q.3.23.6.47l-8.06.3q-.3-.25-.62-.47M125.84 40.26l8.07-.3q.34.27.65.55l-8.07.3q-.3-.28-.64-.54M126.5 40.76l8.06-.3q.35.33.68.68l-8.07.3q-.33-.36-.68-.68M127.17 41.48l8.07-.3q.4.42.75.87l-8.08.3q-.36-.46-.75-.87M127.92 42.33l8.07-.3a14.25 14.25 0 0 1 1 1.36l-8.08.28a14.28 14.28 0 0 0-1-1.35M128.88 43.7l8.07-.3a15.8 15.8 0 0 1 1.86 4.3l-8.06.3a15.8 15.8 0 0 0-1.86-4.3M130.74 48l8.07-.3a17.15 17.15 0 0 1 .37 1.7l-8.07.28a17.14 17.14 0 0 0-.36-1.68M131.08 49.68l8.07-.3q.1.64.16 1.3l-8.06.28q-.06-.65-.16-1.28M131.26 50.96l8.07-.3v.27l-8.07.3v-.27" class="cls-4"/></g><path d="M131.3 51.23l8.05-.3 9.4 90-8.06.28-9.4-89.97z" class="cls-4"/><path d="M53.1 89.6l8.06-.3.87 56.84-8.06.3-.88-56.85z" class="cls-51"/><g class="cls-6"><path d="M137.3 156.57l-8.07.3h.2a11 11 0 0 0 8.4-4.8 14.72 14.72 0 0 0 2.84-10.83l8.07-.3a14.72 14.72 0 0 1-2.85 10.82 11 11 0 0 1-8.4 4.8z" class="cls-4"/><g class="cls-52"><path d="M140.68 141.2l8.07-.28v.25l-8.07.3v-.26M140.7 141.46l8.07-.3q.05.63.07 1.2l-8.07.3q0-.6-.07-1.2M140.77 142.66l8.07-.3q0 .5 0 1l-8.07.3q0-.47 0-1M140.77 143.62l8.07-.3q0 .43 0 .83l-8.07.3q0-.4 0-.83M140.73 144.44l8.07-.3q0 .38-.07.74l-8.07.3q0-.37.07-.74M140.66 145.17l8.07-.3q0 .35-.1.68l-8.07.3q.06-.34.1-.68M140.55 145.84l8.07-.3q-.06.33-.13.65l-8.08.28q.07-.3.13-.64M140.43 146.48l8.07-.3q-.07.32-.15.63l-8.07.3q.08-.3.15-.62M140.27 147.1l8.07-.3q-.08.32-.18.62l-8.08.34q.1-.3.18-.6M140.08 147.76l8.07-.3q-.1.33-.22.63l-8.07.28q.12-.3.22-.62M139.87 148.33l8.07-.3q-.13.34-.27.66l-8.07.28q.14-.32.27-.65M139.6 149l8.08-.3q-.16.35-.33.7l-8.07.3q.17-.35.33-.7M139.28 149.68l8.07-.3q-.2.4-.43.8l-8.07.3q.23-.4.43-.8M138.85 150.48l8.07-.3q-.28.5-.6 1l-8.06.3q.3-.47.6-1M138.26 151.43l8.07-.3-.43.63-.3.4-8.07.3.3-.4.43-.63M137.53 152.44l8.07-.3a13.2 13.2 0 0 1-.88 1l-8.07.3a13.2 13.2 0 0 0 .88-1M136.65 153.45l8.07-.3a10.63 10.63 0 0 1-7.2 3.4h-.2l-8.08.28h.2a10.63 10.63 0 0 0 7.2-3.38" class="cls-4"/></g></g><path d="M112.7 86.6l8.06-.3-14.7 53.02-8.06.3 14.7-53.02z" class="cls-53"/><path d="M61.84 50l8.06-.3 21.73 54.6-8.07.3L61.84 50z" class="cls-54"/><path d="M118.42 39.37c5.63 0 10.37 5.15 10.87 12l9.4 90a14.6 14.6 0 0 1-2.58 9.7 9.9 9.9 0 0 1-7.55 4.32h-.4c-5.6 0-10.35-5.15-10.86-12l-4.74-63.88-16.48 59.65c-1.4 5.07-5.18 8.48-9.63 8.68l-3.6.17h-.4c-4.3 0-8.16-3-10-7.78l-21.48-57.6 1 63.83c.1 7-4.36 12.72-10.17 13h-.58a9.87 9.87 0 0 1-7.5-3.6 14.36 14.36 0 0 1-3.42-9.32l1.58-90.8c-.1-6.86 4.37-12.57 10.2-12.84l7.45-.34h.36c4.33 0 8.35 3.15 10.05 8l23 57.78 18-59.83c1.28-5 5.18-8.57 9.66-8.78l7.5-.35h.4z" class="cls-55"/><path d="M118.42 39.37h-.4l-7.5.35c-4.47.2-8.37 3.8-9.65 8.8l-7.53 25.07c6.36 5.92 13.35 13.73 15 20.67l.06.3 4.14-15 4.75 63.86c.5 6.8 5.24 12 10.86 12h.4a9.88 9.88 0 0 0 7.54-4.3 14.6 14.6 0 0 0 2.57-9.72l-9.4-90c-.5-6.88-5.2-12.06-10.85-12.03z" class="cls-56"/><g class="cls-57"><path d="M50.34 160.6l-8.07.3h.4c6.45-.3 11.42-6.65 11.3-14.45l8.07-.3c.13 7.8-4.84 14.15-11.3 14.46z" class="cls-5"/><path d="M49.88 157.5l8.07-.3a10.72 10.72 0 0 1-7.2 3.4h-.4l-8.08.28h.4a10.72 10.72 0 0 0 7.2-3.38" class="cls-59"/></g><g class="cls-60"><path d="M137.3 156.57l-8.07.3h.2a11 11 0 0 0 8.4-4.8 14.72 14.72 0 0 0 2.84-10.83l8.07-.3a14.72 14.72 0 0 1-2.85 10.82 11 11 0 0 1-8.4 4.8z" class="cls-3"/><path d="M136.65 153.45l8.07-.3a10.63 10.63 0 0 1-7.2 3.4h-.2l-8.08.28h.2a10.63 10.63 0 0 0 7.2-3.38" class="cls-62"/></g><path d="M30.6 92.03l-.07 4.54-.08 4.54-.08 4.55-.08 4.54-.1 4.56-.12 4.53v4.54L30 128.4l-.08 4.54-.08 4.55-.08 4.54-.08 4.55c0 .16 0 .4 0 .57v.6c0 .06 0 .15 0 .23v.4c0 .23.05.4.06.5 0 .16.06.38.1.55l.04.26V150c0 .16.08.36.12.52v.06l.14.5.06.2v.08l.08.25.18.53.2.52.22.5v.1l.1.23.07.12v.06l.25.48.1.18a13.1 13.1 0 0 0 4.18 4.44l.1.06.16.12.43.28.22.14.43.25.42.22.4.17.33.17H38.23l.47.17h.23l.22.06.5.12.43.24.5.08h1.68l8.07-.3h.4l.7-.06h.99l.27-.06.74-.22.2-.06h.13l.77-.3c.3-.15.68-.35 1-.5a10.08 10.08 0 0 0 1.54-1.23l.46-.4.15-.13.2-.22.1-.08.43-.46.6-.7c.1-.13.3-.4.53-.74l.08-.1.05-.1c.1-.17.23-.37.36-.6l.08-.12.23-.43.08-.14.2-.37.06-.17c.08-.15.15-.32.22-.48l.12-.27v-.07l.08-.2v-.1.1-.12l.1-.3.1-.3c.13-.37.22-.68.3-1l.05-.23v-.1c0-.13.06-.28.1-.43l.05-.3v-.24.1l.14-.94a8.34 8.34 0 0 0 .08-1v-.84c0 .06 0 .1 0 .17v-.56q0-2.13-.07-4.26v-8.49s-7.5-25.37-31.36-41.42z" class="cls-63"/><path d="M42.27 41.48h-.06.15-.08zM38.68 42.48h-.07l.2-.1zM109.08 38.6h.14zM107.2 39.3l-.12.06.26-.13zM128.5 43.14c.13.18.26.35.38.53zM140.78 143.02c0-.1 0-.2 0-.3s0 0 0-.07c0-.37 0-.75-.06-1.14 0 0 0-.06 0-.1s0 0 0 .06 0-.2 0-.3l-9.4-90v-.27q0-.54-.12-1v-.2q-.1-.6-.23-1.17l-.05-.22c0-.1-.05-.23-.1-.34l.07.25a15.66 15.66 0 0 0-2.32-5.13l-.35-.3-.15-.2-.3-.37.12.13-.44-.52-.05-.04-.1-.1-.18-.2-.12-.13-.18-.17-.27-.26-.06-.05-.1-.08-.1-.08-.3-.26-.14-.1-.1-.1-.13-.08-.1-.08-.35-.32h.05-.16l-.15-.1-.15-.1-.1-.07h-.11l-.2-.1-.08-.06-.12-.06h-.06l-.2-.1-.1-.05h-.1l-.14-.06-.48-.4h-.05l-.14-.07H118.7l-7.5.35h-.07a1.1 1.1 0 0 0-.38 0h-.43l-.67.1-.27.07h-.17l-.3.07h-.12l-.25.07-.3.1h-.12l-.42.16-.32.13-.5.23h.08l-.2.1-.2.1-.5.28-.15.1-.12.08-.32.2-.42.32-.22-.32-.55.47c-.1.1-.28.26-.5.5l-.1.07-.05.06-.3.33-.14.15c-.16.2-.36.45-.52.64l-.1.14-.1.14-.24.33v.1l-.07.1-.3.52c-.14.22-.26.43-.37.64l-.08.17-.2.44-.17.2v.1l-.17.4-.1.24c-.08.25-.18.57-.27.8l-.23.8-16.87 56.16L61.83 50a15.32 15.32 0 0 0-1.62-3.3l.13.2-.25-.44-.12-.18q-.26-.37-.54-.72l-.05-.06-.38-.45-.12-.12-.16-.17-.06-.06-.05-.05-.12-.14-.18-.17-.22-.18-.1-.1-.1-.1-.1-.07-.32-.26-.1-.08-.1-.07-.18-.14-.18-.13-.12-.08-.18-.13h-.06l-.16-.1-.16-.14-.2-.12h-.12l-.12-.06-.13-.07-.1-.04h-.08l-.2-.1-.12-.05-.14-.05-.1-.05h-.07l-.54-.44h-4.11l-7.42.35-.72-.6h.1l-.58.08-.32.06h-.16l-.3.12-.2.05h-.05.07-.22l-.22.08-.32.1h-.1l-.17.06-.37.15-.22.08-.37.18h-.05.06l-.6.3a10.56 10.56 0 0 0-2.14 1.57l-.1.1-.28.33-.1.1-.34.34-.6.7-.1.16-.1.14-.3.4-.17.16-.12.2-.23.37-.13.2c-.16.28-.35.66-.5.94l-.07.17-.13.3-.2.44v.17c-.1.27-.2.58-.3.83a13.68 13.68 0 0 0-.5 1.88v.16l-.07.54-.08.52a8.08 8.08 0 0 0-.1 1V55.68l-.3 11.47v2.18L31 73.87l-.08 4.54-.08 4.55-.08 4.54-.08 4.53-.08 4.54-.08 4.54-.08 4.55-.08 4.54-.15 4.56-.12 4.53v4.54L30 128.4l-.08 4.54-.08 4.55-.08 4.54-.08 4.55c0 .16 0 .32 0 .48v.2c0 .14 0 .28 0 .42v.06c0 .54.1.93.12 1.08 0 .17.06.4.1.56l.04.26V149.96c0 .15.08.35.12.5v.08l.13.5.06.23.1.3.17.5.2.53.22.5v.1l.1.23.06.1v.07l.26.48.1.2a13.1 13.1 0 0 0 4.12 4.48l.08.06.23.16.36.24.22.14.17.1.25.13.42.2h.06l.4.18.3.2H38.23l.47.16h.23l.22.06.5.12.43.24.5.08h2.13l.7-.06h.54l.14-.02H46.85l.1-.06.1-.06.1-.06.1-.06h.34l.1-.07h.06l.08-.07.1-.07.06-.05.1-.08.1-.1.06-.05.06-.06.07-.06h.04l.1-.1.06-.06.06-.06.08-.1.1-.08.07-.1.1-.1.04-.05v-.06l.05-.07v-.05l.07-.1v-.05l.08-.1.05-.08v-.33l.08-.13.08-.13v-.22l.07-.12v-.16l.05-.1.05-.1v-.07l.07-.1.07-.17.12-.24V156.6l.06-.16V156.3l.07-.2v-.1l.06-.16v-.17l.08-.26v-.18l.05-.18.1-.28v-.39l.07-.3V153.72c0-.13.06-.25.08-.38V153.04v.05-.12c0-.1 0-.22.06-.33s0-.15 0-.22 0-.13 0-.2v.1-.07c0-.2.05-.4.07-.6s0-.15 0-.24v.13c0-.22 0-.44 0-.67s0-.23 0-.35v.16c0-.32 0-.62 0-.94l2.48-59.5 1.16 3.1.65 1.73.86 2.32.9 2.4.57 1.53.76 2 .52 1.4 1 2.57 1 2.6.63 1.7.9 2.42.47 1.25.34.9 1.2 3.18.45 1.38.74 2 2.15 5.75.27.75 1.07 2.86.43 1.15 2.8 7.5c.1.22.2.5.3.74l.07.13.1.2.18.4.2.4v.05l.16.28.4.67c.13.2.32.47.45.67l.46.6.5.6.16.17a11.4 11.4 0 0 0 4.58 3.1l.18.06.18.06h.06l.4.12.37.1h.17l.24.05.4.07h.23l.6.06h1.3l3.6-.17.67-.05H89.93l.15-.32h1.1l.1-.06.12-.06H91.6l.1-.05.12-.08h.08l.18-.76h.07l.1-.07.12-.08.1-.08.12-.07.1-.1h.07l.07-.04.1-.07.12-.1.1-.07.1-.1.13-.1.1-.1.08-.1.07-.06.1-.1.08-.07h.05l.1-.1.07-.08.06-.07.14-.15.1-.12.1-.1.1-.1v-.06l.08-.1.05-.07.16-.2.06-.07.1-.15.08-.1.07-.1.08-.13.06-.1.05-.08.06-.1.14-.2.06-.1.06-.1.07-.13.12-.22.13-.24.06-.1.07-.15.16-.3.1-.22v-.08l.13-.32.1-.3v-.12l.06-.13.17-.46.06-.17v.06c.07-.26.15-.5.22-.76l14.5-52.3v.48l.17 2.46 1.1 1.68.2 2.6.2 2.7.2 2.73.2 2.8.2 2.85.17 2.12.22 3 .05.76.22 3 .23 3 .23 3.07.23 3.1.2 2.5.63 8.58.1 1.54.14 1.9.33 4.48c0 .33.08.77.12 1.1v.15c0 .1 0 .22.05.33l.1.6c0 .12.06.27.1.43v.16l.1.46.2.6.05.2.06.2c.1.3.26.68.38 1l.42.9.12.22v.06l.35.64.35.42.1.18.2.3c.12.18.3.4.45.6l.06.1.1.12.6.7.05.07.1.1.54.53.14.13.22.18.3.26.4.3.2.15.25.16.53.33.17.1c.28.16.66.34.94.5a9.94 9.94 0 0 0 1.65.6h.13l.45.1.35.07a6.7 6.7 0 0 0 1 .12h1a1.56 1.56 0 0 0 .43 0 10.08 10.08 0 0 0 1.08-.12h.1l.28-.06c.24 0 .46-.1.7-.15h.18l.27-.1.57-.2.27-.1.2-.1.53-.24.33-.17.16-.1.5-.3.33-.22.13-.1.13-.1.4-.3.24-.2.15-.12.28-.28c.12-.12.25-.23.37-.36l.24-.25.38-.45c.1-.1.2-.22.3-.34l-.12.1c.14-.16.28-.32.42-.5l.4-.57V151.14l.08-.14.06-.1v-.07l.05-.1v-.18l.06-.1V150.3l.05-.1v-.06l.05-.1.06-.13v-.63l.05-.14v-.32l.05-.15.05-.14v-1.05l.05-.2v-1.46c0-.07 0-.14 0-.2v-.53c0-.1 0-.18 0-.27s0-.14 0-.2 0-.22 0-.33c0-.15 0-.3 0-.45s1.88-.82 1.88-.88zM100.6 48.38zm-17.46 56.87l-.05.2zm-.06.2zm0 .26v-.18.23zm0 .27v.1-.08zm0 .2zm0 .1v.18zm0 .3zm0 .33zm0 .1zm0 .25v-.1q0 .1 0 .16v-.05zm0 .32zm-33-66.44zm-.36.35zm-.1.28v.06zm-18 14zm0 0zM51.98 87.1v-.07.16zm.16.57zm.14.43zm.13.38zm59.88-4.24v-.1s0 0 0-.07 0 .1 0 .15zm0-.74v-.1c0-.07 0-.15 0-.24v.06c.02.1.02.18.02.26zm0 1.5zm0-2.12c0-.1 0-.22 0-.34v-.3c.05.22.04.42.04.62zm0-1v-.3zm0-.76zm23.7 70a10.1 10.1 0 0 1-6.37 4.17 15 15 0 0 1-3 0c-4.8-.73-8.67-5.24-9.38-11.12a1.07 1.07 0 0 0-.08-.67v-.06l-4.75-63.87-16.34 59.6c-1.4 5.07-5.18 8.48-9.63 8.68l-3.6.17h-.4c-4.16 0-7.93-2.82-9.78-7.37a.62.62 0 0 0-.14-.35v-.06l-21.56-57.6 1 63.83c.1 6.9-4.23 12.54-9.9 13-.46 0-.88 0-1.28 0h-.64a10.06 10.06 0 0 1-6.46-3.55 14.3 14.3 0 0 1-3.4-9 .47.47 0 0 0 0-.2s0 0 0-.08l1.58-90.88a15 15 0 0 1 .38-3.6v-.17c1.23-5.08 5.06-8.86 9.75-9.08l7.46-.35h.36A10.5 10.5 0 0 1 58.68 48l.1.17a13.92 13.92 0 0 1 1.1 2.4l23 57.8 18-59.84c1.3-5 5.2-8.58 9.67-8.8l7.5-.34h.4c5.62 0 10.36 5.14 10.86 12l9.4 90a14.6 14.6 0 0 1-2.62 9.72zM51.7 85.94v-.08zm-.14-.53v-.06.1zm-.14-.64v-.2zm-.15-.68V84zm-.2-.7v-.07z" class="cls-64"/><path d="M4.35 134.23c3.58 17.08 10 30.3 14.4 29.5s5-15.26 1.47-32.35-10-30.3-14.4-29.5-5.05 15.27-1.47 32.35z" class="cls-65"/><path d="M4.35 134.23c3.58 17.08 10 30.3 14.4 29.5s5-15.26 1.47-32.35-10-30.3-14.4-29.5-5.05 15.27-1.47 32.35z" class="cls-66"/><path d="M41.53 167.33l.63-.1a4.14 4.14 0 0 0 3.32-4.94L31.13 93.75a4.14 4.14 0 0 0-4.8-3.23l-.62.1a4.14 4.14 0 0 0-3.3 4.94l14.34 68.56a4.14 4.14 0 0 0 4.8 3.2z" class="cls-67"/><path d="M22.08 169.03l5.85-1a6 6 0 0 0 4.8-7.1L19.8 99.37a6 6 0 0 0-6.88-4.6l-5.84 1a6 6 0 0 0-4.8 7.1l12.9 61.5a6 6 0 0 0 6.9 4.66z" class="cls-68"/><path d="M26.3 174.76l14.14-2.54a3.27 3.27 0 0 0 2.64-3.9l-16.6-79.27a3.27 3.27 0 0 0-3.8-2.55L8.55 89.03a3.27 3.27 0 0 0-2.63 3.9l16.6 79.25a3.27 3.27 0 0 0 3.8 2.58z" class="cls-69"/><path d="M33.97 173.36l4.36-.78L20.4 86.9l-4.36.8 17.93 85.66z" class="cls-70"/></g></g></svg>