<?xml version="1.0" encoding="utf-8"?>
<!-- Generator: Adobe Illustrator 19.2.1, SVG Export Plug-In . SVG Version: 6.00 Build 0)  -->
<svg version="1.1" id="Camada_1" xmlns="http://www.w3.org/2000/svg" xmlns:xlink="http://www.w3.org/1999/xlink" x="0px" y="0px"
	 viewBox="0 0 514.6 122.4" style="enable-background:new 0 0 514.6 122.4;" xml:space="preserve">
<style type="text/css">
	.st0{fill:#BABABA;}
</style>
<title>massa-news-gray</title>
<path class="st0" d="M269.9,25.8c0-8.6,6.3-15.9,13.7-15.9c8.1,0,12.9,5.7,12.9,15.3v28.4h5.9v-28c0-9.8,7.1-15.8,13.6-15.8
	c8.1,0,13,5.8,13,15.4v28.3h5.9V25c0-12.9-7.2-20.8-18.7-20.8c-6.6,0-12.6,3.6-16.1,9.7c-3.1-6.3-8.8-9.7-16.1-9.7
	c-5.5,0-10.7,2.6-14,7.1v-6H264v48.4h5.9L269.9,25.8L269.9,25.8z"/>
<path class="st0" d="M360.3,54.7c7.2,0,13.5-2.6,17.6-7.2v6.1h5.9V23.9c0-5.8-1.7-10.6-4.9-13.9c-3.6-3.6-8.8-5.4-15.5-5.4
	c-5.8,0-11.5,1.4-16.7,4.1l-1.3,0.6l2.3,5.3l1.4-0.7c4.3-2.3,9.2-3.6,14.1-3.6c6.7,0,14.7,2.4,14.7,13.8v1c-4.8-1.3-9.7-2-14.7-2
	c-13.1,0-21.6,6.3-21.6,16.1v0.2C341.6,49.9,351.3,54.7,360.3,54.7z M347.6,39c0-6.3,5.9-10.2,15.4-10.2c5,0,10.1,0.7,14.9,2.1v4.5
	c0,7.6-7.7,13.6-17.5,13.6c-6.4,0-12.8-3-12.8-9.8V39z"/>
<path class="st0" d="M409.8,48.7c-5.8-0.1-11.5-2.2-16-5.9l-1.2-0.9l-3.5,4.6l1.1,0.9c5.5,4.4,12.3,6.9,19.4,7
	c10.2,0,17.6-5.8,17.6-13.9v-0.2c0-8.9-8-11.8-16.8-14.2c-7.4-2.1-12.7-3.9-12.7-8.4v-0.2c0-4.3,4.6-7.4,10.9-7.4
	c4.9,0.1,9.6,1.7,13.5,4.5l1.3,0.9l3.3-4.9l-1.2-0.8c-5-3.3-10.8-5.2-16.8-5.3c-9.8,0-17,5.6-17,13.4V18c0,8.9,8.6,11.4,16.9,13.8
	c7.4,2,12.7,3.8,12.7,8.8v0.2C421.2,45.4,416.4,48.7,409.8,48.7z"/>
<path class="st0" d="M467.9,40.5v-0.2c0-8.9-8-11.8-16.8-14.2c-7.4-2.1-12.7-3.9-12.7-8.4v-0.2c0-4.3,4.6-7.4,10.9-7.4
	c4.9,0.1,9.6,1.7,13.5,4.5l1.3,0.9l3.3-4.9l-1.2-0.8c-5-3.3-10.8-5.2-16.8-5.3c-9.8,0-17,5.6-17,13.4V18c0,8.9,8.6,11.4,16.9,13.8
	c7.4,2,12.7,3.8,12.7,8.8v0.2c0,4.6-4.8,8-11.5,8c-5.8-0.1-11.5-2.2-16-5.9l-1.2-0.9l-3.5,4.6l1.1,0.9c5.5,4.4,12.3,6.9,19.4,7
	C460.5,54.4,467.9,48.6,467.9,40.5z"/>
<path class="st0" d="M509.7,9.9L509.7,9.9c-3.6-3.6-8.8-5.4-15.5-5.4c-5.8,0-11.5,1.4-16.7,4.1l-1.3,0.6l2.3,5.3l1.4-0.7
	c4.3-2.3,9.2-3.6,14.1-3.6c6.7,0,14.7,2.4,14.7,13.8v1c-4.8-1.3-9.7-2-14.7-2c-13.1,0-21.6,6.3-21.6,16.1v0.2
	c0,10.5,9.7,15.3,18.7,15.3c7.2,0,13.5-2.6,17.6-7.2v6.1h5.9V23.9C514.6,18.1,512.9,13.3,509.7,9.9z M508.9,35.4
	c0,7.6-7.7,13.6-17.5,13.6c-6.4,0-12.8-3-12.8-9.8V39c0-6.3,5.9-10.2,15.4-10.2c5,0,10.1,0.7,14.9,2.1L508.9,35.4L508.9,35.4z"/>
<path class="st0" d="M351.7,100.2h-13.8v14.3h28.8C366.4,106.5,359.7,100.1,351.7,100.2z"/>
<path class="st0" d="M433.7,113.8h28.4c8,0,14.6-6.3,15-14.3h-28.4C440.7,99.5,434.1,105.8,433.7,113.8z"/>
<path class="st0" d="M300.6,78.2v36.3c8-0.4,14.3-7,14.3-15V63.2C306.9,63.5,300.6,70.1,300.6,78.2z"/>
<path class="st0" d="M264.9,78.2v36.3c8-0.4,14.3-7,14.3-15V63.1C271.2,63.5,264.9,70.1,264.9,78.2z"/>
<path class="st0" d="M336.5,114.5V63.1c-8.1,0.5-14.4,7.3-14.3,15.5v20.8C322.1,107.5,328.5,114.1,336.5,114.5z"/>
<path class="st0" d="M366.7,63.1h-28.8v14.3h13.8C359.7,77.5,366.4,71.1,366.7,63.1z"/>
<path class="st0" d="M358.8,81.5h-20.9v14.3h5.8C351.8,95.9,358.4,89.5,358.8,81.5z"/>
<path class="st0" d="M371.9,63.2v36.3c0,8,6.3,14.6,14.3,15V78.2C386.2,70.1,379.9,63.5,371.9,63.2z"/>
<path class="st0" d="M413.4,78.2v36.3c8-0.4,14.3-7,14.3-15V63.2C419.7,63.5,413.4,70.1,413.4,78.2z"/>
<polygon class="st0" points="400.2,99.3 412,113.3 412,90.1 400.2,77.7 "/>
<path class="st0" d="M477.1,63.8h-28.4c-8,0-14.6,6.3-15,14.3h28.4C470.1,78.1,476.7,71.8,477.1,63.8z"/>
<polygon class="st0" points="280.6,88.4 299.2,113.1 299.2,89.3 280.6,64.5 "/>
<polygon class="st0" points="387.6,113.2 398.9,99.3 398.9,77.7 387.6,90 "/>
<polygon class="st0" points="434.8,79.5 455.8,98.1 476,98.1 455,79.5 "/>
<polygon class="st0" points="0,88.9 3.4,111.1 13.5,93.4 "/>
<polygon class="st0" points="111.9,9.4 78,69.1 77.4,113 111.7,51 "/>
<path class="st0" d="M98.7,2.3C84.8-3.2,68,1.6,61.4,13.1l-57,100.5l12.1,4.8l0,0c13.9,5.5,30.7,0.7,37.3-10.8l57-100.5L98.7,2.3z"
	/>
<path class="st0" d="M170.2,3.2c-13.2-5.2-29.4-0.2-36,11.3L78.2,115.8l11.5,4.6c13.2,5.2,29.4,0.2,36-11.3l56-101.3L170.2,3.2z"/>
<polygon class="st0" points="181.9,11.5 148.4,72.2 148.2,110.3 180.9,54.5 "/>
<path class="st0" d="M187.4,47.5l-38.8,66.1l10.2,4.8c13.9,5.5,30.6,0.7,37.3-10.8l36.7-66.1l-12.1-4.8
	C207.3,31.4,194.2,35.7,187.4,47.5z"/>
</svg>
