<?xml version="1.0" encoding="utf-8"?>
<!-- Generator: Adobe Illustrator 22.0.1, SVG Export Plug-In . SVG Version: 6.00 Build 0)  -->
<svg version="1.1" id="Camada_1" xmlns="http://www.w3.org/2000/svg" xmlns:xlink="http://www.w3.org/1999/xlink" x="0px" y="0px"
	 viewBox="0 0 334 223.3" style="enable-background:new 0 0 334 223.3;" xml:space="preserve">
<style type="text/css">
	.st0{fill:#7D2DBB;}
</style>
<title>redemassavertical</title>
<g>
	<g>
		<path class="st0" d="M15.9,136.1L5,135.6l-2-0.5c-1.5-0.5-2.2-1.2-2.2-2.9c0-1.5,0.5-3.7,1.4-7c2.2-7.9,3.1-10.8,7.4-11l13-0.5
			c1.5-4.8,2.8-9.9,4.3-14.9c-5.3-0.2-9-0.5-11.3-0.6c-0.8,0-1.4-0.2-2-0.3c-1.5-0.5-2.3-1.4-2.3-3.3c0-1.5,0.5-3.6,1.4-6.7
			c2.3-7.9,3.1-10.8,7.6-11l13.2-0.5c1.4-4.3,4.8-16.6,6-20.1c1.4-4.2,4.5-4.2,12.7-4.2c7.3,0,9.3,0.6,9.3,3.6c0,0.6,0,1.2-0.2,2
			c-0.5,1.7-3.4,13.6-4.8,18.6l15.8-0.3l5.9-19.7c1.4-4.2,4.5-4.2,12.7-4.2c7.3,0,9.3,0.6,9.3,3.6c0,0.6,0,1.2-0.2,2
			c-0.3,1.7-3.4,13.3-4.6,17.8c8.4,0.2,14.9,0.3,16,0.6c1.1,0.3,2.5,1.5,2.5,3.3c0,0.3,0,0.8-0.2,1.1l-3.3,11.9
			c-1.9,6.4-3.7,6.4-14.4,6.4h-2.3c-1.4,0-2.9,0.2-4.5,0.2L85.4,113c8.1,0,14.4,0.2,15.3,0.5c1.2,0.3,2.6,1.5,2.6,3.4
			c0,0.3,0,0.6-0.2,0.9l-3.4,11.9c-1.9,6.4-3.7,6.4-14.4,6.4h-2.3c-1.4,0-3.4,0-4.8,0.2l-2,6.4c-6,18.9-4,21.2-12.4,21.2H51.5
			c-2.5,0-3.6-2.2-3.6-3.6c0-5.4,3.7-16,6-22.3l0.6-1.5h-15c-8.2,25.1-6,27.4-14.4,27.4H12.8c-2.5,0-3.6-2.2-3.6-3.6
			C9.2,154.5,14,142.6,15.9,136.1z M50.6,99.2l-4,14.4c5,0,9.9-0.2,15-0.2c1.4-4.6,2.6-9.5,4-14.3H64H50.6z"/>
	</g>
	<g>
		<path d="M157.2,57.3c1.9-4.5,3.9-4.9,7-4.9h4.7c5.2,0,5.2,3.5,5.2,6.9v47.8c0,3.5,0,6.9-5.2,6.9h-4.3c-5.2,0-5.2-3.5-5.2-6.9V83.2
			c0-0.5-0.2-0.9-0.4-0.9s-0.5,0.3-0.8,0.9c-6.2,12.2-6.3,15.2-9.2,15.2c-2.9,0-3.1-3-9.2-15.2c-0.3-0.5-0.6-0.9-0.8-0.9
			c-0.3,0-0.4,0.3-0.4,0.9v23.9c0,3.5,0,6.9-5.2,6.9H129c-5.2,0-5.2-3.5-5.2-6.9V59.3c0-3.5,0-6.9,5.2-6.9h4.6
			c3.2,0,5.2,0.4,7.1,4.9l6.5,15.4c0.7,1.6,1.1,2.4,1.7,2.4c0.6,0,1-0.9,1.7-2.4L157.2,57.3z"/>
		<path d="M220,109.7c0,4-2.7,4.3-7.6,4.3h-4.6c-5.4,0-2.7-13-6.2-13h-6.9c-3.5,0-1.5,13-6.7,13h-4.1c-4.5,0-7.2-0.3-7.2-4.3
			c0-5.2,2.1-9.8,8.9-50.4c0.7-4.3,2.4-6.9,5.9-6.9h13.4c3.5,0,5.2,2.6,6.1,6.9C216.8,95,220,104.5,220,109.7z M194.8,86.6
			c0,1.4,0.6,1.4,3.4,1.4c2.7,0,3.4,0,3.4-1.3c0-0.3,0-0.8-0.1-1.4c-1-8.5-1.4-19-3.3-19c-1.8,0-2.4,10.4-3.3,19
			C194.8,85.8,194.8,86.3,194.8,86.6z"/>
		<path d="M240.6,52c7.2,0,12.1,1.3,12.1,3.7v6.7c0,1-0.3,2.6-3.3,2.6h-0.7c-1.4,0-4.5-1-7-1c-2.1,0-3.7,0.7-3.7,3.5
			c0,2.7,0.8,4.1,4.2,6.9c10.3,8.5,12.4,14.6,12.4,21.6c0,4-0.1,7.6-2.3,11c-2.9,4.3-7.4,6-9.3,6.5c-2.3,0.6-5.6,1-8.3,1
			c-6.4,0-12.7-1.2-12.7-4.7v-6.7c0-1,0.9-2.1,3.2-2.1c2.3,0,4.2,1.3,9.1,1.3c2.4,0,5.7-1.9,5.7-4.6c0-2-0.1-3.5-5.4-8.7
			c-8.1-7.9-11.9-11.6-11.9-18.7C222.6,53.3,233.7,52,240.6,52z"/>
		<path d="M275,52c7.2,0,12.1,1.3,12.1,3.7v6.7c0,1-0.3,2.6-3.3,2.6h-0.7c-1.4,0-4.5-1-7-1c-2.1,0-3.7,0.7-3.7,3.5
			c0,2.7,0.8,4.1,4.2,6.9c10.3,8.5,12.4,14.6,12.4,21.6c0,4-0.1,7.6-2.3,11c-2.9,4.3-7.4,6-9.3,6.5c-2.3,0.6-5.6,1-8.3,1
			c-6.4,0-12.7-1.2-12.7-4.7v-6.7c0-1,0.9-2.1,3.2-2.1c2.3,0,4.2,1.3,9.1,1.3c2.4,0,5.7-1.9,5.7-4.6c0-2-0.1-3.5-5.4-8.7
			c-8.1-7.9-11.9-11.6-11.9-18.7C257,53.3,268.1,52,275,52z"/>
		<path d="M334.1,109.7c0,4-2.7,4.3-7.6,4.3h-4.6c-5.4,0-2.7-13-6.2-13h-6.9c-3.5,0-1.5,13-6.7,13H298c-4.5,0-7.2-0.3-7.2-4.3
			c0-5.2,2.1-9.8,8.9-50.4c0.7-4.3,2.4-6.9,5.9-6.9h13.4c3.5,0,5.2,2.6,6.1,6.9C330.9,95,334.1,104.5,334.1,109.7z M308.8,86.6
			c0,1.4,0.6,1.4,3.4,1.4c2.7,0,3.4,0,3.4-1.3c0-0.3,0-0.8-0.1-1.4c-1-8.5-1.4-19-3.3-19c-1.8,0-2.4,10.4-3.3,19
			C308.8,85.8,308.8,86.3,308.8,86.6z"/>
	</g>
	<g>
		<path class="st0" d="M111.5,137.2c3.9-0.6,4.9,0.9,4,4.6c2.2-3.4,5.4-5.1,8.2-5.1c3.1,0,5.3,2.2,5.3,6.3c2.2-4.2,5.2-6.3,9.2-6.3
			c4.3,0,6.5,3.3,4.9,10.9l-1.9,9.2c-0.7,3-0.6,5,2.6,4.3l-0.5,2c-4.5,1-5.7-1.3-4.6-6.4l1.9-9.2c1.3-6.4-0.1-8.7-3.3-8.7
			c-4.1,0-7.3,3.8-8.4,9.1l-3.2,15.2h-2.4l3.2-15.2c1-5,0.5-9-3.7-9c-4.1,0-7.4,3.6-8.5,9l-3.2,15.2h-2.4l3.9-18.2
			c1-4.7,1.3-6.4-1.7-6L111.5,137.2z"/>
		<path class="st0" d="M166.2,157.3c-0.9,4.2-0.1,4.6,2.3,4l-0.4,2.1c-3,0.6-5,0-4.3-4.2c-2.7,3.6-5.1,4.6-8.5,4.6
			c-5.2,0-7.1-4.9-5.8-11.2l3.2-15.4h2.4l-3.3,15.8c-1.2,6,0.7,8.3,4.6,8.3c3.8,0,7.3-3.3,8.5-8.7l3.2-15.4h2.4L166.2,157.3z"/>
		<path class="st0" d="M176.9,153.9c-1,4.7-1.1,7.6,2,7.8c0.7,0,1.4-0.1,2.1-0.2l-0.5,2.2c-0.7,0.2-1.5,0.2-2.2,0.2
			c-4.6,0-5.1-3.7-3.8-10.2l6.4-29.8h2.4L176.9,153.9z"/>
		<path class="st0" d="M200.3,139.6h-7.7l-3,14c-1.2,5.8-0.4,8,2.6,8c1.1,0,2.6-0.4,4.6-1.2l-0.2,2.3c-1.9,0.8-3.7,1.2-5.2,1.2
			c-4.1,0-5.8-3.3-4.3-10.2l3-14.1l-4.6-0.2l0.5-2h4.7l1.9-8h2.1l-1.7,8h7.6L200.3,139.6z"/>
		<path class="st0" d="M206.2,137.3h2.4l-5.6,26h-2.4L206.2,137.3z M208.9,129.9c-2.2,0-1.7-3.3,0.8-3.3
			C211.8,126.6,211.2,129.9,208.9,129.9z"/>
		<path class="st0" d="M229.3,159.2c-0.5,2.2,0.3,2.6,2.5,2.3l-0.4,2.1c-3.5,0.6-5-0.9-4.2-4.8l0.2-0.8c-2.3,4.3-5.6,5.9-9.2,5.9
			c-12.3,0-7.7-27.1,5.7-27.1c3.7,0,6.3,2.5,6.7,5.8l4-18.9h2.3L229.3,159.2z M229,150.5c1.2-6.4-0.2-11.4-5.1-11.4
			c-10.2,0-14.6,22.4-5.4,22.4C223.2,161.5,227.8,157.2,229,150.5z"/>
		<path class="st0" d="M241.8,137.3h2.4l-5.6,26h-2.4L241.8,137.3z M244.5,129.9c-2.2,0-1.7-3.3,0.8-3.3
			C247.4,126.6,246.8,129.9,244.5,129.9z"/>
		<path class="st0" d="M244.4,172.4c2,1.7,4.3,2.6,6.7,2.6c4.5,0,8.5-2.7,10.1-10.1l1.5-7c-2.4,4-5.2,5.8-9.1,5.8
			c-4.4,0-7.5-3.4-6.9-10.3c0.9-10.6,7.1-16.7,14.7-16.7c2.9,0,5.3,0.9,7.5,2.4l-5.5,26c-1.9,8.6-6.6,12.1-12,12.1
			c-2.7,0-5.4-1-8-2.9L244.4,172.4z M266.2,140.7c-1.7-1.2-3.7-1.6-5.6-1.6c-5.9,0-10.7,5.3-11.5,13.9c-0.6,5.7,1.5,8.6,5.1,8.6
			c5,0,8.9-5.9,10-11.3L266.2,140.7z"/>
		<path class="st0" d="M276.4,137.3h2.4l-5.6,26h-2.4L276.4,137.3z M279.1,129.9c-2.2,0-1.7-3.3,0.8-3.3
			C282,126.6,281.4,129.9,279.1,129.9z"/>
		<path class="st0" d="M296.8,139.6h-7.7l-3,14c-1.2,5.8-0.4,8,2.6,8c1.1,0,2.6-0.4,4.6-1.2l-0.2,2.3c-1.9,0.8-3.7,1.2-5.2,1.2
			c-4.1,0-5.8-3.3-4.3-10.2l3-14.1l-4.6-0.2l0.5-2h4.7l1.9-8h2.1l-1.7,8h7.6L296.8,139.6z"/>
		<path class="st0" d="M316.5,157.2c-0.6,2.7-0.6,4.7,2.4,4.2l-0.5,2.2c-3.7,0.6-5.2-1.2-4.2-5.5c-2.4,4.3-5.7,5.8-9.3,5.8
			c-6.3,0-8-6.6-6.4-14.1c1.7-8.4,7.4-12.9,14.2-12.9c2.7,0,5.3,0.8,7.6,2.5L316.5,157.2z M317.7,140.5c-1.7-1.2-3.7-1.6-5.6-1.6
			c-5,0-9.8,4.1-11.2,11.1c-1.3,6.3-0.4,11.4,4.7,11.4c4.7,0,8.7-4.5,10.1-11.2L317.7,140.5z"/>
		<path class="st0" d="M326.9,153.9c-1,4.7-1.1,7.6,2,7.8c0.7,0,1.4-0.1,2.1-0.2l-0.5,2.2c-0.7,0.2-1.5,0.2-2.2,0.2
			c-4.6,0-5.1-3.7-3.8-10.2l6.4-29.8h2.4L326.9,153.9z"/>
	</g>
</g>
</svg>
