<svg xmlns="http://www.w3.org/2000/svg" viewBox="0 0 184.63 168.89"><defs><style>.cls-1{fill:none;}.cls-2{isolation:isolate;}.cls-3{fill:#274867;}.cls-4{fill:url(#linear-gradient);}.cls-5{clip-path:url(#clip-path);}.cls-6{fill:#f58233;}.cls-7{fill:#fbaa19;}.cls-8{fill:#f2612a;}.cls-9{fill:#0079a9;}.cls-10{fill:#009bc1;}.cls-11{fill:#3f5ba4;}.cls-12{opacity:0.5;mix-blend-mode:multiply;}.cls-13{fill:#6f315a;}.cls-14{fill:#005b7e;}</style><linearGradient id="linear-gradient" x1="289.98" x2="291.21" y1="131.95" y2="77.75" gradientTransform="matrix(-.3 -.85 -.94 .34 275.17 276.17)" gradientUnits="userSpaceOnUse"><stop offset="0" stop-color="#23415e"/><stop offset=".19" stop-color="#115478"/><stop offset=".38" stop-color="#04618a"/><stop offset=".51" stop-color="#006690"/><stop offset="1" stop-color="#23415e"/></linearGradient><clipPath id="clip-path" transform="translate(-4.2 14.7)"><path d="M139.25 21.82C103.08 6 60.85.5 45.8 10.6 30.57 20.5 26.12 56.8 34.92 90.72s48.4 36.52 90.9 8.4 49.64-61.44 13.42-77.3zM108 77.57l-.2.13C93.68 87 79.75 90.85 70.55 87.93c-5.54-1.76-9.2-6-10.9-12.48-5.44-20.95-2-41.53 4.64-45.94l.12-.07c6.67-4.4 30.83-2 53.17 7.74 7 3 10.78 7.15 11.38 12.17 1 8.35-6.85 18.9-20.95 28.23z" class="cls-1"/></clipPath></defs><title>massaplayvertical</title><g class="cls-2"><g id="Layer_1"><path d="M17.7 168.55h5.87v-23.07q0-.34-.3 0L11.8 155.3.3 145.46q-.27-.3-.3 0v23.07h5.86v-9.77l5.8 5.5a.15.15 0 0 0 .26 0l5.8-5.5v9.77zM36.26 145.15a.22.22 0 0 0-.2.17l-11.12 23.23h6l.86-1.94h8.6l.87 1.96h6.3l-11.1-23.24a.22.22 0 0 0-.2-.17zm-2.55 16.9l2.3-5.35 2.34 5.3H33.7zM64.8 164.58a8.1 8.1 0 0 0 .5-2.9 7.48 7.48 0 0 0-.32-2.23 5.52 5.52 0 0 0-1-1.88 7 7 0 0 0-1.88-1.54 15.4 15.4 0 0 0-2.9-1.26l-3-1a3.17 3.17 0 0 1-1.22-.64 1.37 1.37 0 0 1-.4-1 1.4 1.4 0 0 1 .56-1.12 2.58 2.58 0 0 1 1.66-.44 4.67 4.67 0 0 1 2.22.45 6.22 6.22 0 0 1 1.55 1.2l3.5-3.66a7.77 7.77 0 0 0-1.27-1.2 8.14 8.14 0 0 0-1.6-1 9.84 9.84 0 0 0-2.1-.68 13.14 13.14 0 0 0-2.7-.25 9.84 9.84 0 0 0-2.9.45 7.7 7.7 0 0 0-2.5 1.3 6.2 6.2 0 0 0-1.74 2.12 6.52 6.52 0 0 0-.64 3 6.92 6.92 0 0 0 .42 2.5 6.14 6.14 0 0 0 1.2 1.93 7.37 7.37 0 0 0 1.8 1.44 11.76 11.76 0 0 0 2.28 1l2.7.9a5.9 5.9 0 0 1 1.7.8 1.37 1.37 0 0 1 .54 1.16 1.47 1.47 0 0 1-.76 1.4 4.44 4.44 0 0 1-2.13.4 5.07 5.07 0 0 1-2.82-.7 8.33 8.33 0 0 1-1.95-1.77l-4.43 3.37a11.32 11.32 0 0 0 1.36 1.46 9.2 9.2 0 0 0 2 1.36 13 13 0 0 0 2.7 1 13.5 13.5 0 0 0 3.43.4 12.6 12.6 0 0 0 3.9-.54 7.37 7.37 0 0 0 2.7-1.5 5.83 5.83 0 0 0 1.54-2.3zM84.06 159.44a5.52 5.52 0 0 0-1-1.88 7 7 0 0 0-1.88-1.54 15.4 15.4 0 0 0-2.9-1.26l-3-1a3.17 3.17 0 0 1-1.22-.64 1.37 1.37 0 0 1-.4-1 1.4 1.4 0 0 1 .56-1.12 2.58 2.58 0 0 1 1.66-.45 4.67 4.67 0 0 1 2.22.45 6.22 6.22 0 0 1 1.55 1.2l3.5-3.67a7.78 7.78 0 0 0-1.2-1.14 8.15 8.15 0 0 0-1.6-1 9.84 9.84 0 0 0-2.1-.68 13.14 13.14 0 0 0-2.7-.25 9.84 9.84 0 0 0-2.9.44 7.7 7.7 0 0 0-2.5 1.3 6.2 6.2 0 0 0-1.74 2.13 6.52 6.52 0 0 0-.63 3 6.92 6.92 0 0 0 .42 2.5 6.14 6.14 0 0 0 1.12 1.87 7.37 7.37 0 0 0 1.8 1.44 11.76 11.76 0 0 0 2.28 1l2.7.9a5.9 5.9 0 0 1 1.7.8 1.37 1.37 0 0 1 .54 1.16 1.47 1.47 0 0 1-.76 1.4 4.44 4.44 0 0 1-2.13.4 5.07 5.07 0 0 1-2.82-.7 8.33 8.33 0 0 1-1.95-1.77l-4.43 3.37a11.33 11.33 0 0 0 1.36 1.46 9.2 9.2 0 0 0 2 1.36 13 13 0 0 0 2.7 1 13.5 13.5 0 0 0 3.44.4 12.6 12.6 0 0 0 3.9-.54 7.37 7.37 0 0 0 2.7-1.5 5.83 5.83 0 0 0 1.56-2.27 8.1 8.1 0 0 0 .5-2.9 7.48 7.48 0 0 0-.34-2.26zM95.86 145.32a.2.2 0 0 0-.4 0l-11.1 23.23h6l.83-1.95h8.6l.87 1.95h6.3zm-2.75 16.72l2.3-5.34 2.34 5.3H93.1zM109.8 145.28h5.35a12.83 12.83 0 0 1 4.25.64 8.32 8.32 0 0 1 3 1.8 7.52 7.52 0 0 1 1.84 2.82 10.15 10.15 0 0 1 .63 3.63 9.9 9.9 0 0 1-.63 3.58 7.7 7.7 0 0 1-1.84 2.8 8.18 8.18 0 0 1-3 1.83 12.8 12.8 0 0 1-4.25.64h-2.85v5.87h-2.5v-23.62zm5.2 15.6a10.23 10.23 0 0 0 3.38-.5 5.76 5.76 0 0 0 2.26-1.38 5.33 5.33 0 0 0 1.27-2.12 8.73 8.73 0 0 0 .4-2.7 8.57 8.57 0 0 0-.4-2.68 5.35 5.35 0 0 0-1.26-2.1 5.94 5.94 0 0 0-2.26-1.4 9.9 9.9 0 0 0-3.37-.5h-2.7v13.37h2.7zM128.7 145.28h2.5v21.42h11.16v2.22H128.7v-23.64zM154.86 145.03h.42l10 23.86h-2.64l-1.6-4H149.1l-1.56 4h-2.47zm5.28 17.75l-4.17-10.5c-.12-.27-.23-.57-.33-.9l-.3-.9q-.14-.48-.28-1-.17.53-.3 1l-.3.9c-.1.34-.22.64-.34.9l-4.17 10.5h10.18zM173.3 161.5l-8.92-16.23h2.8l6.44 11.74.36.76q.2.4.33.78c.1.28.2.57.32.87.1-.27.2-.55.3-.82s.2-.52.34-.78l.36-.78 6.4-11.74h2.6l-8.76 16.1v7.5h-2.57v-7.4z" class="cls-3"/><path d="M37.73 113.37c3.06 8.56 9.12 14.22 18 16.84 16.35 4.82 39.9-1.4 64.6-17 26.9-16.94 39.94-35.46 34.9-49.56-2.43-6.78-8.86-12.16-19.1-16-33.93-12.66-72.9-15.66-86.9-6.7-14.02 8.76-19.63 39.66-12.53 69a34.63 34.63 0 0 0 1 3.43zm81.74-40.78a7.58 7.58 0 0 1 .4 1.9c.53 5.95-5.63 13.57-16.45 20.4l-.15.1c-10.73 6.77-21.25 9.76-28.13 8a10.78 10.78 0 0 1-7.82-7.2 15.65 15.65 0 0 1-.47-1.58c-3.2-13.25-.8-28.16 5.13-31.9l.12-.08c5.82-3.67 24.16-2 39.22 3.6 4.4 1.65 7.13 3.92 8.14 6.77z" class="cls-4"/><g class="cls-5"><path d="M51.52 45.04l-32.93 56.3 165.7-5.44L51.52 45.04z" class="cls-6"/><path d="M18.6 101.33l40.3 51.96 125.4-57.4-165.7 5.43z" class="cls-7"/><path d="M51.52 45.04L26.87 35.6 7.82 56.48l10.77 44.85 32.92-56.3z" class="cls-8"/><path d="M26.87 35.6l24.65 9.44L77.87 0l-51 35.6z" class="cls-9"/><path d="M51.52 45.04L184.3 95.9 77.87 0 51.52 45.04z" class="cls-10"/><path d="M184.3 95.9l-25.9-60.93L77.88 0 184.3 95.9z" class="cls-11"/></g><path d="M125.15 61c-1.5-4.2-5.34-7.7-11.4-10.35-23.47-10.27-47.58-12.28-54.54-7.7l-.14.1c-7 4.65-10.87 25.22-5.14 47.32.2.77.43 1.52.7 2.23 2 5.65 5.7 9.36 11 11 9.57 3 24-.86 38.44-10.43l.2-.12c14.54-9.6 22.54-20.58 21.54-29.35a12.27 12.27 0 0 0-.65-2.7zM103.8 92.3l-.2.14c-14.13 9.32-28.06 13.14-37.26 10.26-5.54-1.8-9.2-6-10.9-12.53-5.44-20.95-2-41.53 4.64-45.94l.12-.08c6.67-4.4 30.83-2 53.17 7.74 7 3 10.78 7.14 11.38 12.16 1 8.36-6.85 18.92-20.95 28.25z" class="cls-13"/><path d="M78.97 89.38l-2.7-22.05a2.37 2.37 0 0 1 3-2.55l26.2 8a2.37 2.37 0 0 1 .54 4.3L82.54 91.12a2.37 2.37 0 0 1-3.56-1.75z" class="cls-14"/></g></g></svg>