<svg xmlns="http://www.w3.org/2000/svg" xmlns:xlink="http://www.w3.org/1999/xlink" viewBox="0 0 515.9 124.44"><defs><style>.cls-1{fill:url(#linear-gradient);}.cls-2{fill:url(#linear-gradient-2);}.cls-3{fill:url(#linear-gradient-3);}.cls-4{fill:url(#linear-gradient-4);}.cls-5{fill:url(#linear-gradient-5);}.cls-6{fill:url(#linear-gradient-6);}.cls-7{fill:#d2232a;}.cls-8{fill:url(#linear-gradient-7);}.cls-9{fill:url(#linear-gradient-8);}.cls-10{fill:url(#linear-gradient-9);}.cls-11{fill:url(#linear-gradient-10);}.cls-12{fill:url(#linear-gradient-11);}.cls-13{fill:url(#linear-gradient-12);}.cls-14{fill:url(#linear-gradient-13);}.cls-15{fill:url(#linear-gradient-14);}.cls-16{fill:url(#linear-gradient-15);}.cls-17{fill:url(#linear-gradient-16);}.cls-18{fill:url(#linear-gradient-17);}.cls-19{fill:url(#linear-gradient-18);}.cls-20{fill:url(#linear-gradient-19);}.cls-21{fill:url(#linear-gradient-20);}</style><linearGradient id="linear-gradient" x1="382.24" x2="382.24" y1="2329.62" y2="2438.5" gradientTransform="matrix(-.83 .02 -.02 -1 474.57 2442.15)" gradientUnits="userSpaceOnUse"><stop offset="0" stop-color="#d2232a"/><stop offset=".84" stop-color="#8e1416"/><stop offset="1" stop-color="#8e1416"/></linearGradient><linearGradient id="linear-gradient-2" x1="257.15" x2="282.09" y1="414.58" y2="414.58" gradientTransform="matrix(.74 -.68 .68 .74 -473.2 -24.9)" gradientUnits="userSpaceOnUse"><stop offset=".52" stop-color="#d2232a"/><stop offset=".84" stop-color="#8e1416"/><stop offset="1" stop-color="#8e1416"/></linearGradient><linearGradient id="linear-gradient-3" x1="218.34" x2="218.34" y1="1422.47" y2="1566.71" gradientTransform="matrix(.9 .43 -.43 .9 509.94 -1376.61)" xlink:href="#linear-gradient-2"/><linearGradient id="linear-gradient-4" x1="296.47" x2="296.47" y1="2330.61" y2="2437.8" gradientTransform="matrix(-.83 .02 -.02 -.99 473.63 2426.86)" xlink:href="#linear-gradient"/><linearGradient id="linear-gradient-5" x1="264.88" x2="264.88" y1="1391.45" y2="1535.84" gradientTransform="matrix(.86 .41 -.43 .9 538.87 -1361.75)" xlink:href="#linear-gradient-2"/><linearGradient id="linear-gradient-6" x1="345.86" x2="345.86" y1="1400.79" y2="1504.35" gradientTransform="matrix(.9 .43 -.43 .9 509.94 -1376.61)" xlink:href="#linear-gradient-2"/><linearGradient id="linear-gradient-7" x1="300.75" x2="283.42" y1="106.36" y2="82.4" gradientUnits="userSpaceOnUse"><stop offset="0" stop-color="#414042"/><stop offset=".42" stop-color="#3f3d3f"/><stop offset=".69" stop-color="#373537"/><stop offset=".91" stop-color="#2a2728"/><stop offset="1" stop-color="#231f20"/></linearGradient><linearGradient id="linear-gradient-8" x1="362.53" x2="324.57" y1="95.51" y2="95.51" xlink:href="#linear-gradient-7"/><linearGradient id="linear-gradient-9" x1="383.74" x2="402.65" y1="102.39" y2="102.39" xlink:href="#linear-gradient-7"/><linearGradient id="linear-gradient-10" x1="402.65" x2="422.07" y1="102.39" y2="102.39" xlink:href="#linear-gradient-7"/><linearGradient id="linear-gradient-11" x1="436.1" x2="480.9" y1="95.66" y2="95.66" xlink:href="#linear-gradient-7"/><linearGradient id="linear-gradient-12" x1="275.16" x2="275.16" y1="69.27" y2="122.01" xlink:href="#linear-gradient-7"/><linearGradient id="linear-gradient-13" x1="370.52" x2="324.57" y1="77.12" y2="77.12" xlink:href="#linear-gradient-7"/><linearGradient id="linear-gradient-14" x1="370.52" x2="324.57" y1="114.15" y2="114.15" xlink:href="#linear-gradient-7"/><linearGradient id="linear-gradient-15" x1="332.43" x2="332.43" y1="69.27" y2="122.01" xlink:href="#linear-gradient-7"/><linearGradient id="linear-gradient-16" x1="480.9" x2="436.11" y1="113.5" y2="113.5" xlink:href="#linear-gradient-7"/><linearGradient id="linear-gradient-17" x1="480.88" x2="436.08" y1="77.81" y2="77.81" xlink:href="#linear-gradient-7"/><linearGradient id="linear-gradient-18" x1="310.85" x2="310.85" y1="69.27" y2="122.01" xlink:href="#linear-gradient-7"/><linearGradient id="linear-gradient-19" x1="423.66" x2="423.66" y1="69.27" y2="122.01" xlink:href="#linear-gradient-7"/><linearGradient id="linear-gradient-20" x1="826.36" x2="826.36" y1="69.27" y2="122.01" gradientTransform="matrix(-1 0 0 1 1208.52 0)" xlink:href="#linear-gradient-7"/></defs><title>Logo_MassaNews_2015</title><path d="M106.87 7.8l7.27-.16-.38 92.46c.4 13.2-13 16.83-28.9 17.15l-7.28.15 1.12-85.1c-.4-13.2 12.25-24.2 28.17-24.5z" class="cls-1"/><path d="M19.43 94.9l-15.3 20.23L0 88.4l19.43 6.5z" class="cls-2"/><path d="M17.35 120.38l-13.22-5.25L61.75 13.6c6.9-11.92 24.2-16.95 38.56-11.24l13.23 5.25-57.58 101.54c-6.94 11.92-24.2 16.95-38.6 11.24z" class="cls-3"/><path d="M177.03 8.48l7.27-.15-2.06 88.2c.4 13.12-10.6 18.62-26.55 19l-7.28.15.43-82.9c-.4-13.07 12.22-24 28.18-24.3z" class="cls-4"/><path d="M90.55 122.3l-12.57-5 56.6-102.33c6.9-11.9 23.6-17.18 37.27-11.74l12.57 5-56.6 102.34c-6.87 11.9-23.6 17.16-37.27 11.74z" class="cls-5"/><path d="M159.7 120.38l-11.28-5.25 39.32-67.1c6.9-11.92 20.2-16.95 34.6-11.24l13.22 5.24-37.3 67.1c-6.9 11.92-24.18 16.95-38.57 11.24z" class="cls-6"/><path d="M317.4 6.55c-6.6 0-12.57 3.62-16.14 9.74-3.1-6.3-8.8-9.75-16.15-9.75a17.55 17.55 0 0 0-14 7.07v-6h-5.85v48.35h5.87V28.1c0-8.6 6.28-15.86 13.7-15.86 8.1 0 12.92 5.73 12.92 15.33v28.4h5.86V28.02c0-9.75 7.07-15.78 13.62-15.78 8.14 0 13 5.77 13 15.42v28.3h5.86V27.4c0-12.86-7.13-20.85-18.67-20.85zM364.56 6.9a36.88 36.88 0 0 0-16.67 4.12l-1.3.62 2.27 5.3 1.42-.72a30.3 30.3 0 0 1 14.08-3.62c6.7 0 14.7 2.4 14.7 13.8v1a54 54 0 0 0-14.7-2c-13.1 0-21.56 6.32-21.56 16.08v.18C342.82 52.2 352.5 57 361.5 57c7.16 0 13.48-2.58 17.6-7.15v6.08h5.85v-29.7c0-5.8-1.7-10.6-4.94-13.93-3.56-3.58-8.75-5.4-15.44-5.4zm14.6 26.35v4.54c0 7.63-7.67 13.62-17.48 13.62-6.38 0-12.82-3-12.82-9.85v-.23c0-6.3 5.9-10.2 15.42-10.2a49.9 49.9 0 0 1 14.9 2.12zM411.58 28.47c-7.42-2.08-12.63-3.9-12.63-8.37v-.18c0-4.3 4.6-7.42 10.93-7.42A24.06 24.06 0 0 1 423.4 17l1.26.88 3.3-4.93-1.23-.83a31.1 31.1 0 0 0-16.78-5.33c-9.83 0-17 5.6-17 13.36v.18c0 8.93 8.56 11.4 16.85 13.77 7.42 2 12.67 3.85 12.67 8.83v.18c0 4.62-4.82 8-11.47 8a26.24 26.24 0 0 1-16-5.88l-1.2-.94-3.48 4.6 1.1.9a31.58 31.58 0 0 0 19.4 7c10.2 0 17.6-5.84 17.6-13.9v-.2c0-8.9-7.97-11.8-16.84-14.2zM452.35 28.47c-7.42-2.08-12.67-3.9-12.67-8.37v-.18c0-4.3 4.6-7.42 10.93-7.42a24.06 24.06 0 0 1 13.54 4.5l1.25.88 3.28-4.94-1.22-.83a31.1 31.1 0 0 0-16.77-5.3c-9.84 0-17 5.6-17 13.36v.18c0 8.93 8.55 11.4 16.84 13.77 7.42 2 12.67 3.85 12.67 8.83v.18c0 4.62-4.8 8-11.46 8a26.24 26.24 0 0 1-16-5.88l-1.2-.94-3.48 4.6 1.12.9a31.57 31.57 0 0 0 19.4 7c10.2 0 17.6-5.84 17.6-13.9v-.2c0-8.9-7.96-11.8-16.83-14.2zM510.95 12.3c-3.57-3.56-8.77-5.38-15.45-5.38a36.85 36.85 0 0 0-16.67 4.1l-1.28.63 2.27 5.3 1.4-.72a30.3 30.3 0 0 1 14.1-3.62c6.7 0 14.7 2.4 14.7 13.82v1a54 54 0 0 0-14.7-2c-13.1 0-21.56 6.3-21.56 16.07v.17c0 10.55 9.68 15.35 18.68 15.35 7.16 0 13.48-2.6 17.6-7.15v6.08h5.85V26.22c0-5.78-1.7-10.6-4.95-13.9zm-.84 21v4.5c0 7.63-7.67 13.62-17.48 13.62-6.38 0-12.82-3-12.82-9.85v-.23c0-6.3 5.9-10.2 15.42-10.2a49.9 49.9 0 0 1 14.9 2.12z" class="cls-7"/><path d="M301.4 117.46l-.45.33-23.46-31.2a15.13 15.13 0 0 1 3-21.2l.46-.34 23.45 31.2a15.13 15.13 0 0 1-3 21.2z" class="cls-8"/><path d="M322.52 98.57v.58h22.83a15.13 15.13 0 0 0 15.13-15.13v-.58h-22.82a15.13 15.13 0 0 0-15.14 15.13z" class="cls-9"/><path d="M400.6 78.56L384.84 95.8a15.72 15.72 0 0 0 3.1 22l12.64-15.6V78.55z" class="cls-10"/><path d="M416.87 95.8L400.6 78.55v23.66l13.14 15.57a15.72 15.72 0 0 0 3.13-22z" class="cls-11"/><path d="M434.05 81.46l26.1 23.1c5.9 5.2 14.27 3.8 18.7-3.12l-26.1-23.1c-5.9-5.22-14.27-3.82-18.7 3.12z" class="cls-12"/><path d="M265.83 117.8h-.58V80.2a15.13 15.13 0 0 1 15.13-15.14h.57v37.6a15.13 15.13 0 0 1-15.12 15.13z" class="cls-13"/><path d="M322.52 80.2v.6h30.82a15.13 15.13 0 0 0 15.13-15.14v-.6h-30.8A15.13 15.13 0 0 0 322.5 80.2z" class="cls-14"/><path d="M368.47 117.22v.57h-30.8a15.13 15.13 0 0 1-15.14-15.14v-.58h30.82a15.13 15.13 0 0 1 15.12 15.14z" class="cls-15"/><path d="M338.24 117.8V65.05a16 16 0 0 0-15.72 16.18v20.85a15.72 15.72 0 0 0 15.72 15.7z" class="cls-16"/><path d="M434.06 116.57v.58h29.66a15.13 15.13 0 0 0 15.13-15.13v-.58H449.2a15.13 15.13 0 0 0-15.14 15.13z" class="cls-17"/><path d="M434.03 80.87v.58h29.66a15.13 15.13 0 0 0 15.12-15.13v-.58h-29.65a15.13 15.13 0 0 0-15.14 15.13z" class="cls-18"/><path d="M301.53 117.8h-.58V80.2a15.13 15.13 0 0 1 15.13-15.14h.58v37.6a15.13 15.13 0 0 1-15.13 15.13z" class="cls-19"/><path d="M414.33 117.8h-.58V80.2a15.13 15.13 0 0 1 15.13-15.14h.58v37.6a15.13 15.13 0 0 1-15.13 15.13z" class="cls-20"/><path d="M387.38 117.8h.57V80.2a15.13 15.13 0 0 0-15.13-15.14h-.57v37.6a15.13 15.13 0 0 0 15.13 15.13z" class="cls-21"/></svg>