<?xml version="1.0" encoding="utf-8"?>
<!-- Generator: Adobe Illustrator 22.0.1, SVG Export Plug-In . SVG Version: 6.00 Build 0)  -->
<svg version="1.1"
	 id="svg2" xmlns:cc="http://creativecommons.org/ns#" xmlns:dc="http://purl.org/dc/elements/1.1/" xmlns:rdf="http://www.w3.org/1999/02/22-rdf-syntax-ns#" xmlns:svg="http://www.w3.org/2000/svg"
	 xmlns="http://www.w3.org/2000/svg" xmlns:xlink="http://www.w3.org/1999/xlink" x="0px" y="0px" viewBox="0 0 266.7 80"
	 style="enable-background:new 0 0 266.7 80;" xml:space="preserve">
<style type="text/css">
	.st0{clip-path:url(#SVGID_2_);}
	.st1{fill:#5B5B5B;}
</style>
<g id="g10" transform="matrix(1.3333333,0,0,-1.3333333,0,80)">
	<g id="g12">
		<g>
			<defs>
				<rect id="SVGID_1_" x="-33.3" y="-10" width="266.7" height="80"/>
			</defs>
			<clipPath id="SVGID_2_">
				<use xlink:href="#SVGID_1_"  style="overflow:visible;"/>
			</clipPath>
			<g id="g14" class="st0">
				<g>
					<path class="st1" d="M4,26l-1.9,0.1l-0.3,0.1c-0.3,0.1-0.4,0.2-0.4,0.5c0,0.3,0.1,0.6,0.2,1.2c0.4,1.4,0.5,1.9,1.3,1.9l2.2,0.1
						c0.3,0.8,0.5,1.7,0.7,2.6c-0.9,0-1.5,0.1-1.9,0.1c-0.1,0-0.2,0-0.3,0.1c-0.3,0.1-0.4,0.2-0.4,0.6c0,0.3,0.1,0.6,0.2,1.1
						c0.4,1.4,0.5,1.9,1.3,1.9L7,36.3c0.2,0.7,0.8,2.9,1,3.5c0.2,0.7,0.8,0.7,2.2,0.7c1.3,0,1.6-0.1,1.6-0.6c0-0.1,0-0.2,0-0.3
						c-0.1-0.3-0.6-2.3-0.8-3.2l2.7,0.1l1,3.4c0.2,0.7,0.8,0.7,2.2,0.7c1.3,0,1.6-0.1,1.6-0.6c0-0.1,0-0.2,0-0.3
						c-0.1-0.3-0.6-2.3-0.8-3.1c1.4,0,2.6-0.1,2.7-0.1c0.2-0.1,0.4-0.3,0.4-0.6c0-0.1,0-0.1,0-0.2l-0.6-2.1
						c-0.3-1.1-0.6-1.1-2.5-1.1h-0.4c-0.2,0-0.5,0-0.8,0L16,30c1.4,0,2.5,0,2.6-0.1c0.2-0.1,0.5-0.3,0.5-0.6c0-0.1,0-0.1,0-0.2
						l-0.6-2.1C18.1,26,17.8,26,16,26h-0.4c-0.2,0-0.6,0-0.8,0l-0.3-1.1c-1-3.3-0.7-3.7-2.1-3.7h-2.1c-0.4,0-0.6,0.4-0.6,0.6
						c0,0.9,0.6,2.7,1,3.8l0.1,0.3H8.1c-1.4-4.3-1-4.7-2.5-4.7H3.5c-0.4,0-0.6,0.4-0.6,0.6C2.9,22.9,3.7,24.9,4,26z M10,32.4
						l-0.7-2.5c0.9,0,1.7,0,2.6,0c0.2,0.8,0.5,1.6,0.7,2.5h-0.3H10z"/>
					<g>
						<path class="st1" d="M32.3,38.9c0.6,1.4,1.2,1.5,2.2,1.5h1.4c1.6,0,1.6-1.1,1.6-2.1V23.5c0-1.1,0-2.1-1.6-2.1h-1.3
							c-1.6,0-1.6,1.1-1.6,2.1v7.3c0,0.2-0.1,0.3-0.1,0.3c-0.1,0-0.2-0.1-0.2-0.3c-1.9-3.8-1.9-4.7-2.8-4.7c-0.9,0-1,0.9-2.8,4.7
							c-0.1,0.2-0.2,0.3-0.2,0.3c-0.1,0-0.1-0.1-0.1-0.3v-7.3c0-1.1,0-2.1-1.6-2.1h-1.3c-1.6,0-1.6,1.1-1.6,2.1v14.7
							c0,1.1,0,2.1,1.6,2.1H25c1,0,1.6-0.1,2.2-1.5l2-4.7c0.2-0.5,0.3-0.7,0.5-0.7c0.2,0,0.3,0.3,0.5,0.7L32.3,38.9z"/>
						<path class="st1" d="M51.6,22.7c0-1.2-0.8-1.3-2.3-1.3h-1.4c-1.7,0-0.8,4-1.9,4h-2.1c-1.1,0-0.5-4-2.1-4h-1.3
							c-1.4,0-2.2,0.1-2.2,1.3c0,1.6,0.6,3,2.7,15.5c0.2,1.3,0.7,2.1,1.8,2.1h4.1c1.1,0,1.6-0.8,1.9-2.1
							C50.6,27.3,51.6,24.3,51.6,22.7z M43.8,29.8c0-0.4,0.2-0.4,1-0.4c0.8,0,1,0,1,0.4c0,0.1,0,0.2,0,0.4c-0.3,2.6-0.4,5.8-1,5.8
							c-0.6,0-0.7-3.2-1-5.8C43.8,30.1,43.8,29.9,43.8,29.8z"/>
						<path class="st1" d="M57.9,40.5c2.2,0,3.7-0.4,3.7-1.1v-2.1c0-0.3-0.1-0.8-1-0.8h-0.2c-0.4,0-1.4,0.3-2.2,0.3
							c-0.6,0-1.1-0.2-1.1-1.1c0-0.8,0.2-1.3,1.3-2.1c3.2-2.6,3.8-4.5,3.8-6.6c0-1.2,0-2.3-0.7-3.4c-0.9-1.3-2.3-1.8-2.9-2
							c-0.7-0.2-1.7-0.3-2.6-0.3c-2,0-3.9,0.4-3.9,1.4v2.1c0,0.3,0.3,0.6,1,0.6c0.7,0,1.3-0.4,2.8-0.4c0.7,0,1.8,0.6,1.8,1.4
							c0,0.6,0,1.1-1.7,2.7c-2.5,2.4-3.7,3.5-3.7,5.7C52.4,40.1,55.8,40.5,57.9,40.5z"/>
						<path class="st1" d="M68.5,40.5c2.2,0,3.7-0.4,3.7-1.1v-2.1c0-0.3-0.1-0.8-1-0.8H71c-0.4,0-1.4,0.3-2.2,0.3
							c-0.6,0-1.1-0.2-1.1-1.1c0-0.8,0.2-1.3,1.3-2.1c3.2-2.6,3.8-4.5,3.8-6.6c0-1.2,0-2.3-0.7-3.4c-0.9-1.3-2.3-1.8-2.9-2
							c-0.7-0.2-1.7-0.3-2.6-0.3c-2,0-3.9,0.4-3.9,1.4v2.1c0,0.3,0.3,0.6,1,0.6c0.7,0,1.3-0.4,2.8-0.4c0.7,0,1.8,0.6,1.8,1.4
							c0,0.6,0,1.1-1.7,2.7c-2.5,2.4-3.7,3.5-3.7,5.7C63,40.1,66.3,40.5,68.5,40.5z"/>
						<path class="st1" d="M86.6,22.7c0-1.2-0.8-1.3-2.3-1.3h-1.4c-1.7,0-0.8,4-1.9,4h-2.1c-1.1,0-0.5-4-2.1-4h-1.3
							c-1.4,0-2.2,0.1-2.2,1.3c0,1.6,0.6,3,2.7,15.5c0.2,1.3,0.7,2.1,1.8,2.1H82c1.1,0,1.6-0.8,1.9-2.1
							C85.6,27.3,86.6,24.3,86.6,22.7z M78.9,29.8c0-0.4,0.2-0.4,1-0.4c0.8,0,1,0,1,0.4c0,0.1,0,0.2,0,0.4c-0.3,2.6-0.4,5.8-1,5.8
							c-0.6,0-0.7-3.2-1-5.8C78.9,30.1,78.9,29.9,78.9,29.8z"/>
					</g>
					<path class="st1" d="M88.7,34.3c1.9,0.3,2.4-0.5,2-2.3c1.1,1.7,2.7,2.5,4.1,2.5c1.5,0,2.6-1.1,2.6-3.1c1.1,2.1,2.6,3.1,4.5,3.1
						c2.1,0,3.2-1.7,2.4-5.4l-0.9-4.6c-0.3-1.5-0.3-2.5,1.3-2.1l-0.2-1c-2.2-0.5-2.8,0.7-2.3,3.1l1,4.6c0.6,3.2-0.1,4.3-1.7,4.3
						c-2,0-3.6-1.9-4.2-4.5l-1.6-7.5h-1.2l1.6,7.5c0.5,2.5,0.3,4.5-1.8,4.5c-2,0-3.7-1.8-4.2-4.5l-1.6-7.5h-1.2l1.9,9
						c0.5,2.3,0.7,3.2-0.8,3L88.7,34.3z"/>
					<path class="st1" d="M115.8,24.4c-0.4-2.1-0.1-2.3,1.1-2l-0.2-1c-1.5-0.3-2.5,0-2.1,2.1c-1.4-1.8-2.5-2.3-4.2-2.3
						c-2.6,0-3.5,2.4-2.9,5.5l1.6,7.6h1.2l-1.6-7.8c-0.6-3,0.3-4.1,2.3-4.1c1.9,0,3.6,1.6,4.2,4.3l1.6,7.6h1.2L115.8,24.4z"/>
					<path class="st1" d="M121.1,26c-0.5-2.3-0.6-3.8,1-3.8c0.3,0,0.7,0,1,0.1l-0.2-1.1c-0.3-0.1-0.7-0.1-1.1-0.1
						c-2.3,0-2.5,1.8-1.9,5l3.2,14.8h1.2L121.1,26z"/>
					<path class="st1" d="M132.7,33.2h-3.8l-1.5-6.9c-0.6-2.9-0.2-4,1.3-4c0.6,0,1.3,0.2,2.3,0.6l-0.1-1.1c-1-0.4-1.8-0.6-2.6-0.6
						c-2,0-2.9,1.6-2.1,5.1l1.5,7l-2.3,0.1l0.2,1h2.3l1,3.9h1l-0.8-3.9h3.8L132.7,33.2z"/>
					<path class="st1" d="M135.6,34.3h1.2L134,21.4h-1.2L135.6,34.3z M136.9,37.9c-1.1,0-0.8,1.7,0.4,1.7
						C138.4,39.6,138.1,37.9,136.9,37.9z"/>
					<path class="st1" d="M147.1,23.5c-0.2-1.1,0.2-1.3,1.3-1.1l-0.2-1c-1.7-0.3-2.5,0.4-2.1,2.4l0.1,0.4c-1.1-2.1-2.8-2.9-4.6-2.9
						c-6.1,0-3.8,13.4,2.8,13.4c1.8,0,3.1-1.3,3.3-2.9l2,9.4h1.1L147.1,23.5z M146.9,27.8c0.6,3.1-0.1,5.7-2.5,5.7
						c-5,0-7.2-11.1-2.7-11.1C144,22.3,146.3,24.4,146.9,27.8z"/>
					<path class="st1" d="M153.2,34.3h1.2l-2.8-12.9h-1.2L153.2,34.3z M154.6,37.9c-1.1,0-0.8,1.7,0.4,1.7
						C156,39.6,155.7,37.9,154.6,37.9z"/>
					<path class="st1" d="M154.5,16.9c1-0.8,2.1-1.3,3.3-1.3c2.2,0,4.2,1.4,5,5l0.7,3.4c-1.2-2-2.6-2.9-4.5-2.9
						c-2.2,0-3.7,1.7-3.4,5.1c0.4,5.3,3.5,8.3,7.3,8.3c1.4,0,2.6-0.5,3.7-1.2l-2.7-12.9c-0.9-4.3-3.3-6-5.9-6
						c-1.4,0-2.7,0.5-3.9,1.4L154.5,16.9z M165.3,32.6c-0.9,0.6-1.8,0.8-2.8,0.8c-2.9,0-5.3-2.6-5.7-6.9c-0.3-2.8,0.7-4.2,2.5-4.2
						c2.5,0,4.4,2.9,5,5.6L165.3,32.6z"/>
					<path class="st1" d="M170.4,34.3h1.2l-2.8-12.9h-1.2L170.4,34.3z M171.7,37.9c-1.1,0-0.8,1.7,0.4,1.7
						C173.2,39.6,172.9,37.9,171.7,37.9z"/>
					<path class="st1" d="M180.5,33.2h-3.8l-1.5-6.9c-0.6-2.9-0.2-4,1.3-4c0.6,0,1.3,0.2,2.3,0.6l-0.1-1.1c-1-0.4-1.8-0.6-2.6-0.6
						c-2,0-2.9,1.6-2.1,5.1l1.5,7l-2.3,0.1l0.2,1h2.3l1,3.9h1l-0.8-3.9h3.8L180.5,33.2z"/>
					<path class="st1" d="M190.2,24.4c-0.3-1.4-0.3-2.3,1.2-2.1l-0.2-1.1c-1.8-0.3-2.6,0.6-2.1,2.7c-1.2-2.1-2.8-2.9-4.6-2.9
						c-3.1,0-3.9,3.3-3.2,7c0.9,4.2,3.7,6.4,7,6.4c1.4,0,2.6-0.4,3.8-1.2L190.2,24.4z M190.8,32.7c-0.9,0.6-1.8,0.8-2.8,0.8
						c-2.5,0-4.9-2-5.6-5.5c-0.6-3.1-0.2-5.6,2.3-5.6c2.3,0,4.3,2.2,5,5.6L190.8,32.7z"/>
					<path class="st1" d="M195.4,26c-0.5-2.3-0.6-3.8,1-3.8c0.3,0,0.7,0,1,0.1l-0.2-1.1c-0.3-0.1-0.7-0.1-1.1-0.1
						c-2.3,0-2.5,1.8-1.9,5l3.2,14.8h1.2L195.4,26z"/>
				</g>
			</g>
		</g>
	</g>
</g>
</svg>
