<?xml version="1.0" encoding="utf-8"?>
<!-- Generator: Adobe Illustrator 19.2.1, SVG Export Plug-In . SVG Version: 6.00 Build 0)  -->
<svg version="1.1" id="svg2" xmlns="http://www.w3.org/2000/svg" xmlns:xlink="http://www.w3.org/1999/xlink" x="0px" y="0px"
	 height="70" width="215" viewBox="0 15 215 70" style="enable-background:new 0 0 215 100;" xml:space="preserve">
<style type="text/css">
	.st0{fill:#009640;}
	.st1{fill:#FBBC43;}
	.st2{fill:#9D9D9C;}
</style>
<g>
	<path class="st0" d="M0,50.9v-5c0.1-1,0.2-1.9,0.5-2.8c2.4-10.9,8.9-18.2,19.7-21.4c1.8-0.5,3.6-0.7,5.4-1.1h6.7
		c1.4,0.3,2.7,0.6,4.1,1c3.8,0.9,7.5,2.3,10.6,4.7c1.2,0.9,1.2,1.2,0.2,2.4C40.9,36.2,34.6,43.5,28.3,51c-3.9,4.8-8.6,8.4-14.5,10.3
		c-2.4,0.8-4.8,1.6-7.3,1.6c-1.1,0-1.8-0.6-1.9-1.8V60c0.5-4.8,2.2-9.1,4.9-13.1c4-5.8,9.4-9.9,15.7-13.1c1.7-0.9,3.6-1.7,5.5-2.6
		H30C22.5,33.4,16,37,10.9,43c-3.6,3.9-6.1,8.6-8.4,13.3c-0.2,0.5-0.5,1-0.9,1.8c-0.3-1-0.6-1.7-0.8-2.4C0.6,54.1,0.3,52.5,0,50.9
		L0,50.9z M25.7,78.4c-1.7-0.3-3.4-0.5-5-1c-2.9-0.7-5.7-1.8-8.1-3.7c-1.9-1.5-1.9-1.9,0.4-2.8c6.7-2.7,13-6.1,18.5-10.8
		c4.1-3.6,7.6-7.8,10.5-12.4c2.4-3.7,5.3-7,8.8-9.7c0.7-0.6,1.6-1.1,2.5-1.4c1.2-0.5,2.2-0.1,2.7,1.1c0.5,1.4,0.9,2.9,1,4.3
		c0.6,7.1-2.4,12.7-7.3,17.5c-3.4,3.3-7.4,5.5-11.7,7.3c-0.4,0.2-0.7,0.3-1.1,0.6c6-1.5,11.2-4.3,15.3-9c4.1-4.8,5.7-10.5,5.8-16.7
		h0.3c0.3,1,0.7,2,0.9,3.1c0.2,0.8,0.2,1.7,0.4,2.6v6c-0.2,1.2-0.4,2.5-0.7,3.7c-2.1,10.6-11.5,19.1-23.1,20.8
		c-1.2,0.2-2.5,0.4-3.7,0.6C29.9,78.4,27.8,78.4,25.7,78.4z"/>
	<path class="st1" d="M67.5,33.7v-9.3c0-0.8-0.5-1.2-1.2-1.2s-1.2,0.4-1.2,1.2v9.3h-4V20.4h3.8v1c0.3-0.3,0.7-0.6,1.2-0.8
		c0.5-0.2,1-0.3,1.5-0.3c1.5,0,2.3,0.3,3.1,1.1c0.6,0.6,0.9,1.4,0.9,3v9.4C71.6,33.8,67.5,33.7,67.5,33.7z M76.3,28.1
		c0,0.9,0,1.9,0.3,2.3c0.2,0.3,0.5,0.5,1,0.5c0.5,0,0.8-0.2,1-0.5c0.1-0.2,0.2-0.6,0.2-0.8h3.9c-0.1,1-0.5,2.2-1.4,3.1
		c-0.9,0.8-2.2,1.1-3.8,1.1c-1.6,0-2.6-0.2-3.7-1.2c-1.5-1.2-1.6-3.7-1.6-5.7s0-4.5,1.6-5.7c1.1-0.9,2.4-1.1,3.7-1.1
		c1.4,0,2.6,0.2,3.7,1.1c1.8,1.6,1.5,4.6,1.6,6.8C82.8,28,76.3,28.1,76.3,28.1z M78.7,23.6c-0.2-0.3-0.5-0.5-1-0.5
		c-0.5,0-0.8,0.2-1,0.5c-0.2,0.3-0.3,1.2-0.3,2H79C78.9,24.8,78.9,23.9,78.7,23.6z M92.5,37c-0.9,0.7-2.4,1.1-3.8,1.1
		s-2.8-0.4-3.8-1.1c-1.1-0.8-1.5-1.9-1.5-3h4c0,0.4,0.1,0.7,0.3,1c0.2,0.2,0.5,0.3,1,0.3c0.4,0,0.7-0.1,1-0.3
		c0.2-0.2,0.3-0.5,0.3-0.9v-2.6c-0.3,0.3-0.6,0.6-1,0.7c-0.4,0.2-0.8,0.2-1.4,0.2c-1.5,0-2.1-0.2-2.9-1c-1-1-1.3-2.5-1.3-5.1
		s0.2-4.1,1.3-5.1c0.8-0.7,1.4-1,2.9-1c0.5,0,1.1,0.1,1.5,0.3c0.4,0.2,0.7,0.4,1,0.7v-0.8h3.8v13.5C94,35.3,93.4,36.3,92.5,37
		L92.5,37z M90,24.3c0-0.4-0.1-0.7-0.4-0.9c-0.2-0.2-0.5-0.3-0.9-0.3c-0.5,0-0.8,0.2-1,0.5c-0.3,0.4-0.3,1.7-0.3,2.7s0,2.3,0.3,2.7
		c0.2,0.3,0.5,0.5,1,0.5c0.4,0,0.7-0.1,0.9-0.3s0.3-0.5,0.3-0.9v-4L90,24.3z M104.3,32.3c-1,1.3-2.5,1.6-4.2,1.6
		c-1.7,0-3.1-0.3-4.2-1.6c-1-1.2-1.1-3.5-1.1-5.3s0.1-4,1.1-5.3s2.5-1.6,4.2-1.6c1.7,0,3.1,0.3,4.2,1.6c1,1.2,1.1,3.5,1.1,5.3
		C105.5,28.8,105.3,31,104.3,32.3z M101.1,19.2h-2.6l2.2-3.6h3.1L101.1,19.2z M101.2,23.7c-0.2-0.4-0.7-0.5-1-0.5
		c-0.4,0-0.8,0.2-1,0.5c-0.3,0.5-0.3,1.9-0.3,3.4s0,2.8,0.3,3.4c0.2,0.4,0.7,0.5,1,0.5c0.4,0,0.8-0.2,1-0.5c0.3-0.5,0.3-1.9,0.3-3.4
		S101.5,24.2,101.2,23.7z M115,32.8c-0.9,0.7-2.1,1-3.6,1c-1.7,0-3.1-0.3-4.2-1.6c-1-1.2-1.1-3.5-1.1-5.3s0.1-4,1.1-5.3
		c1-1.3,2.5-1.6,4.2-1.6c1.4,0,2.6,0.2,3.6,1s1.5,2.1,1.6,3.3h-3.9c0-0.3-0.1-0.6-0.3-0.9c-0.2-0.2-0.5-0.4-1-0.4
		c-0.4,0-0.8,0.2-1,0.5c-0.3,0.5-0.3,1.9-0.3,3.4s0,2.8,0.3,3.4c0.2,0.4,0.7,0.5,1,0.5c0.5,0,0.8-0.2,1-0.5s0.2-0.6,0.2-0.9h3.9
		C116.5,30.8,116,32.1,115,32.8z M119.4,19.5c-1.3,0-2.4-0.9-2.4-2c0-1.1,1.1-2,2.4-2s2.4,0.9,2.4,2
		C121.8,18.6,120.7,19.5,119.4,19.5z M117.4,33.7V20.9h4v12.8H117.4z M131.8,32.3c-1,1.3-2.5,1.6-4.2,1.6c-1.7,0-3.1-0.3-4.2-1.6
		c-1-1.2-1.1-3.5-1.1-5.3s0.1-4,1.1-5.3s2.5-1.6,4.2-1.6c1.7,0,3.1,0.3,4.2,1.6c1,1.2,1.1,3.5,1.1,5.3S132.8,31,131.8,32.3z
		 M128.6,23.7c-0.2-0.4-0.7-0.5-1-0.5c-0.4,0-0.8,0.2-1,0.5c-0.3,0.5-0.3,1.9-0.3,3.4s0,2.8,0.3,3.4c0.2,0.4,0.7,0.5,1,0.5
		c0.4,0,0.8-0.2,1-0.5c0.3-0.5,0.3-1.9,0.3-3.4S129,24.2,128.6,23.7z M142.3,32.8c-1,0.9-2.3,1.1-3.7,1.1c-1.4,0-2.9-0.4-3.8-1.2
		c-0.9-0.8-1.5-1.7-1.5-3h3.9c0,0.4,0.2,0.7,0.4,0.9c0.2,0.2,0.6,0.3,1,0.3c0.4,0,0.7,0,1-0.3c0.2-0.2,0.3-0.5,0.3-0.7
		c0-0.3,0-0.5-0.2-0.7c-0.2-0.2-0.6-0.4-1-0.6l-2.2-0.7c-1.1-0.4-1.9-0.9-2.4-1.5c-0.4-0.5-0.5-1.1-0.5-1.9c0-1.5,0.6-2.3,1.5-3.1
		c0.9-0.8,2.3-1.2,3.8-1.2c1.4,0,2.7,0.4,3.6,1.1c0.9,0.7,1.5,1.6,1.5,3h-3.9c0-0.3-0.1-0.6-0.3-0.8c-0.2-0.2-0.6-0.3-0.9-0.3
		c-0.4,0-0.7,0.1-0.9,0.3c-0.2,0.2-0.3,0.4-0.3,0.7c0,0.2,0,0.4,0.2,0.6s0.5,0.5,1,0.6l2.2,0.7c1.2,0.4,1.9,0.8,2.4,1.4
		c0.4,0.5,0.7,1.2,0.7,2.2C143.8,31.1,143.1,32.1,142.3,32.8L142.3,32.8z M154.7,33.7v-1c-0.2,0.2-0.8,0.7-1.2,0.8
		c-0.5,0.2-1,0.3-1.5,0.3c-1.3,0-2.2-0.3-2.9-1.1c-1.1-1.1-1.1-3.1-1.1-5.8s0-4.6,1.1-5.8c0.8-0.8,1.7-1.1,2.9-1.1
		c0.5,0,1.1,0.1,1.5,0.3c0.4,0.2,0.7,0.4,1,0.7v-5.1h4v17.6C158.5,33.7,154.7,33.7,154.7,33.7z M154.5,24.3c0-0.4-0.2-0.7-0.4-1
		c-0.2-0.2-0.6-0.3-0.9-0.3c-0.4,0-0.8,0.2-1,0.5c-0.3,0.5-0.3,1.9-0.3,3.4s0,2.8,0.3,3.4c0.2,0.4,0.7,0.5,1,0.5s0.7-0.1,0.9-0.3
		c0.2-0.2,0.4-0.5,0.4-1C154.5,29.5,154.5,24.3,154.5,24.3z M166.1,33.7v-1.1c-0.3,0.3-0.6,0.6-1,0.9c-0.5,0.3-1,0.4-1.7,0.4
		c-1.5,0-2.4-0.3-3.2-1.2c-0.7-0.7-0.9-1.7-0.9-2.9c0-1.2,0.5-2.2,1.5-2.9c0.8-0.6,1.8-1,3.9-1h1.2v-1.5c0-0.7-0.5-1.2-1.2-1.2
		c-0.4,0-0.7,0.1-0.9,0.3c-0.2,0.2-0.4,0.5-0.4,0.9h-4c0-1.1,0.4-2.1,1.5-2.9c0.8-0.7,2.3-1.2,3.7-1.2c1.4,0,2.7,0.3,3.6,1.1
		c0.9,0.7,1.5,1.8,1.5,3.3v9.1C169.7,33.7,166.1,33.7,166.1,33.7L166.1,33.7z M165.9,28.1h-0.7c-0.7,0-1.1,0-1.5,0.3
		c-0.3,0.2-0.5,0.8-0.5,1.1c0,1,0.5,1.5,1.4,1.5c0.7,0,1.3-0.5,1.3-1.5V28.1z"/>
	<g>
		<path class="st2" d="M79.9,42.9v34H69.7v-34h-8.6v-7.5h27.4v7.5H79.9z M90.4,76.9V35.4H114v7.5h-13.3v9.4h11.5v7.5h-11.5v9.7H114
			V77H90.4V76.9z M136.6,76.9l-6.3-16.1h-3.4v16.1h-10.2V35.4h14.5c11.1,0,14.2,4.7,14.2,12.6c0,4.4-0.9,8.4-5.8,10.9l7.5,17.9
			h-10.5V76.9z M131.3,42.9H127v10.4h4.3c3.9,0,4.1-2.9,4.1-5.2C135.4,45.7,135.2,42.9,131.3,42.9z M169.3,76.9L163,60.8h-3.4v16.1
			h-10.2V35.4h14.5c11.1,0,14.2,4.7,14.2,12.6c0,4.4-0.9,8.4-5.8,10.9l7.5,17.9h-10.5V76.9z M164,42.9h-4.3v10.4h4.3
			c3.9,0,4.1-2.9,4.1-5.2C168.1,45.7,167.9,42.9,164,42.9z"/>
		<path class="st2" d="M204.4,76.9l-1.7-6.5h-11.8l-1.7,6.5h-10.6l13.3-41.5h10L215,76.8h-10.6V76.9z M196.9,47.6L193,63h7.9
			L196.9,47.6z"/>
	</g>
</g>
</svg>
