<?xml version="1.0" encoding="utf-8"?>
<!-- Generator: Adobe Illustrator 19.2.1, SVG Export Plug-In . SVG Version: 6.00 Build 0)  -->
<svg version="1.1" id="Camada_1" xmlns="http://www.w3.org/2000/svg" xmlns:xlink="http://www.w3.org/1999/xlink" x="0px" y="0px"
	 viewBox="0 0 425.2 85.3" style="enable-background:new 0 0 425.2 85.3;" xml:space="preserve">
<style type="text/css">
	.st0{fill:#5B5B5B;}
</style>
<title>redemassavertical</title>
<path class="st0" d="M48.7,74.5c2-4.8-4.8-7.7-9.3-7.1c-3.3,0.4-7.4,2.8-5.4,7S46.2,79.4,48.7,74.5L48.7,74.5z M16,35.2
	c6.4,2.5,12-3.5,12.9-7.7s-0.7-7.1-3.2-8.3C16.8,15,7.2,31.9,16,35.2L16,35.2z M19.9,46.6c-0.9-4.4-6.5-6.8-9-2.4
	c-1.6,3,0,7.1,2,8.4C17.2,55.5,20.7,51.1,19.9,46.6z M13.2,65.6c-2.7,4,9.3,15.1,12.9,10.8C29.2,71.4,16.1,61.8,13.2,65.6L13.2,65.6
	z M44.7,84.4c0.8,2.4,11.1-0.1,10.5-2.4S44,82.5,44.7,84.4z M26.3,80c-1.2,3,10.5,6.3,11.2,3.9C38.3,81,27,78.2,26.3,80z M77.4,19.5
	c1.2-1.9-5.6-8.9-7.3-7.7C67.7,13.7,75.8,21.6,77.4,19.5L77.4,19.5z M76.2,21.9c-5,1.6,0.8,19.6,6.2,18.1
	C86.9,38.1,82.3,19.7,76.2,21.9L76.2,21.9z M62.4,81.4c1.2,1.5,13.3-6.7,11.7-8.7C72.8,71.2,61.3,80,62.4,81.4z M81.9,61
	c-2-0.7-6.8,8.4-5.1,8.7C79.9,69.5,83.4,61.6,81.9,61L81.9,61z M83.1,41.6c-3.9,0-5.7,13.7-2,14.8C85.5,56.4,86.8,41.6,83.1,41.6z
	 M63.5,70.4c-0.5-1.7-1.7-2.4-4-2.1c-2.7,0.2-8.5,3.7-7,7.3C54.6,79.8,64.5,75,63.5,70.4z M53.5,66.4c4.9-1.1,8-6,6.9-11
	c0-0.2-0.1-0.4-0.2-0.6c-3-7.9-15.8-7.1-18.2,1.2C40,62.9,46.7,68.1,53.5,66.4L53.5,66.4z M67.1,35.5c-1.6,0.3-2.9,1.5-3.4,3.1
	c-2.5,7.3,6.4,13.6,9.4,5.5C74.6,38.9,71.3,34.9,67.1,35.5L67.1,35.5z M67.1,9.2c0.7-3.3-11.8-8.4-13-6.6
	C51.9,5.9,65.8,12.5,67.1,9.2z M32.9,33.8c-2.5,0.3-4.5,2.2-5,4.7c-0.9,3.3,1.1,6.8,4.5,7.6c1,0.3,2,0.3,3,0
	C42.6,44.5,41.4,32.4,32.9,33.8L32.9,33.8z M28.6,17c3.2-0.4,10.6-4.3,8.5-8.9c-0.8-1.5-3.2-1.9-5.3-1.5c-3.1,0.6-9.8,3.5-8.9,8.3
	C23.4,16.8,25.9,17.3,28.6,17z M32.5,64.2c6.6-3.8,3.1-13.7-3.8-14c-2.6,0-5.4,0.8-6.5,4.5C20.4,60.8,27.1,67.3,32.5,64.2L32.5,64.2
	z M48,23.8c0.7-3.1-1.3-6.2-4.4-6.9c-0.4-0.1-0.8-0.1-1.2-0.1c-3.1,0.1-5.5,2.7-5.4,5.7s2.7,5.5,5.7,5.4
	C45.3,27.8,47.4,26.1,48,23.8z M44,35.6c-1.9,5.8,3,11.6,8.3,10.6c3.7-0.6,5.9-3.5,6.5-7.3c0.5-5.2-4-8.4-7.8-8.4
	C47.7,30.5,44.9,32.5,44,35.6z M69.7,54c-3.5,1.7-7.8,10.3-3.5,12.7c4,2.3,8.6-2.4,9.9-6.4S74.8,51.8,69.7,54L69.7,54z M5.6,27.6
	c2.6,0.9,8.7-8.6,5.9-10.2C8.7,16.4,3.1,26.3,5.6,27.6L5.6,27.6z M3.7,51.9C1.4,54,5.7,65,9.3,64.5C12.2,63,7.3,50.3,3.7,51.9
	L3.7,51.9z M3.6,31.1c-4,0-5.1,17.9-1.2,17.9C6.8,49.1,7.5,31.1,3.6,31.1L3.6,31.1z M68.5,27.1c5.6-5.4-2.3-14.4-10.6-14.2
	c-2,0.2-3.7,1.7-4.1,3.7C52.1,23.5,63.2,32.2,68.5,27.1L68.5,27.1z M43.4,1c-0.5-2.5-13.5,0-13.2,2.3C30.4,5.8,44,4,43.4,1L43.4,1z
	 M40.2,8.1c0,2.5,2.5,4,5.8,4.4c2.3,0.1,8-0.7,6.3-4.7c-0.8-1.7-3.9-3.1-7.6-2.7C41.7,5.3,40.2,6.9,40.2,8.1L40.2,8.1z M25.5,4.5
	c-1.8-1.9-14.3,7.4-12.9,9.2C13.8,15.3,26.9,6.2,25.5,4.5z M133.3,49.7c-0.8-1.2-1.3-2.7-1.4-4.1c0.1-1.3,0.6-2.5,1.4-3.4
	c1.7-2.2,2.5-5,2.4-7.8c0.1-2.3-0.6-4.6-2-6.4c-1.8-2.2-4.6-3.3-8.4-3.3h-16.4c-2.7,0-4.1,1.3-4.1,4v34.1c0,1.8,0.9,2.8,2.6,2.8h7.3
	c1.7,0,2.6-0.9,2.6-2.7V51.1c0-0.6,0.2-1.1,0.7-1.5c0.4-0.4,1-0.7,1.6-0.7h0.3c0.9,0,1.5,0.7,2,2L126,63c0.5,1.6,2,2.6,3.7,2.4h7.1
	c1.8,0,2.6-1,2.6-2.9c0-0.9-0.2-1.8-0.7-2.6L133.3,49.7z M122.9,42.1c-0.4,1.7-1.1,2.5-2.2,2.5h-1.4c-0.6,0-1.2-0.2-1.7-0.6
	c-0.4-0.4-0.7-1-0.7-1.6V31.5c0-0.6,0.3-1.2,0.7-1.5c0.4-0.4,1-0.7,1.6-0.7h1.5c1.2,0,1.9,0.7,2.2,2.1c0.3,1.6,0.4,3.3,0.4,4.9
	C123.4,38.2,123.2,40.2,122.9,42.1L122.9,42.1z M163,60.8h-5.4c-0.6,0-1.2-0.2-1.6-0.7c-0.4-0.4-0.7-1-0.7-1.6v-9.7
	c0-0.6,0.2-1.1,0.7-1.5c0.4-0.4,1-0.6,1.6-0.6h3.3c1.6,0,2.4-0.7,2.4-2.1c0-0.6-0.2-1.1-0.7-1.5c-0.4-0.4-1-0.6-1.6-0.6h-3.5
	c-0.6,0-1.2-0.2-1.6-0.7c-0.4-0.4-0.7-1-0.7-1.6v-8.8c0-0.6,0.2-1.2,0.7-1.5c0.4-0.4,1-0.7,1.6-0.7h4.2c0.6,0,1.3-0.2,1.7-0.7
	c0.5-0.5,0.7-1.1,0.7-1.8c0-0.6-0.3-1.1-0.7-1.5c-0.4-0.4-1-0.7-1.7-0.7H147c-2.7,0-4.1,1.3-4.1,4v32.9c0,2.6,1.4,3.9,4.1,3.9h16
	c1.2,0.2,2.3-0.6,2.4-1.8c0-0.2,0-0.4,0-0.6c0-0.6-0.3-1.2-0.7-1.5C164.3,61,163.7,60.8,163,60.8L163,60.8z M190.2,24.6h-16.3
	c-2.7,0-4.1,1.3-4.1,4v32.9c0,2.6,1.4,3.9,4.1,3.9h15.8c5.3,0,9-1.7,11.1-5c2.2-3.6,3.4-9.1,3.4-16.6c0-7.9-1.3-13.3-3.9-16.1
	C198.4,25.7,195,24.6,190.2,24.6L190.2,24.6z M189.6,58.7c-0.2,1.3-1.4,2.1-2.6,2h-2.5c-0.6,0-1.2-0.2-1.6-0.7
	c-0.4-0.4-0.7-1-0.7-1.5v-27c0-0.6,0.2-1.2,0.7-1.5c0.4-0.4,1-0.7,1.6-0.7h2.5c1.3-0.1,2.4,0.7,2.6,2c0.8,4.4,1.1,8.9,1,13.4
	C190.6,51.1,190.3,55.8,189.6,58.7L189.6,58.7z M230.4,60.8h-5.4c-0.6,0-1.2-0.2-1.6-0.7c-0.4-0.4-0.7-1-0.7-1.6v-9.7
	c0-0.6,0.3-1.1,0.7-1.5c0.4-0.4,1-0.6,1.6-0.6h3.3c1.6,0,2.4-0.7,2.4-2.1c0-0.6-0.2-1.1-0.7-1.5c-0.4-0.4-1-0.6-1.6-0.6h-3.5
	c-0.6,0-1.2-0.2-1.6-0.7c-0.4-0.4-0.7-1-0.7-1.6v-8.8c0-0.6,0.3-1.2,0.7-1.5c0.4-0.4,1-0.7,1.6-0.7h4.2c0.6,0,1.3-0.2,1.7-0.7
	c0.5-0.5,0.7-1.1,0.7-1.8c0-0.6-0.3-1.1-0.7-1.5c-0.4-0.4-1-0.7-1.7-0.7h-14.8c-2.7,0-4.1,1.3-4.1,4v32.9c0,2.6,1.4,3.9,4.1,3.9h16
	c1.2,0.2,2.3-0.6,2.5-1.8c0-0.2,0-0.4,0-0.6c0-0.6-0.3-1.2-0.7-1.5C231.7,61,231.1,60.8,230.4,60.8L230.4,60.8z M289.7,28.8
	c-0.4-2.7-1.9-4.1-4.4-4.1h-5.1c-2.2,0-3.6,1.4-4.2,4.1l-4.6,19.9c0,0.6-0.4,1-1,1c-0.5-0.1-0.8-0.5-0.8-1l-3.7-19.9
	c-0.5-2.7-1.9-4.1-4.2-4.1h-5.2c-2.5,0-4,1.5-4.5,4.4l-4.5,31.5c-0.2,1-0.2,2-0.2,3c0,1.7,0.9,2.6,2.7,2.6s2.8-0.8,3-2.4l2.4-24.5
	c-0.1-0.5,0.3-0.9,0.7-1c0,0,0.1,0,0.1,0c0.5,0.1,0.8,0.5,0.8,1l4.7,22.6c0.4,2,2.5,3,6.1,3c3.2,0,5-1.1,5.5-3.2l4.8-22.5
	c0-0.5,0.3-0.9,0.8-1c0.5,0,0.9,0.4,0.9,0.9c0,0,0,0.1,0,0.1l2.4,23.8c0.1,0.7,0.4,1.3,1,1.8c0.5,0.4,1.2,0.7,1.9,0.7h6.9
	c1.3,0.1,2.4-0.8,2.5-2c0-0.2,0-0.4,0-0.6c0-1-0.1-2-0.2-2.9L289.7,28.8z M320.9,28c-0.3-1.1-0.9-2.1-1.7-2.9
	c-1.3-0.9-2.9-1.4-4.5-1.3c-3.8,0-6.1,1.4-7,4.2l-11,32.5c-0.4,1-0.6,2-0.6,3c0,1.7,1,2.6,3,2.6c1.6,0.2,3.1-0.9,3.5-2.5l2.7-9.5
	c0.3-1.4,1.6-2.3,3-2.2h5.9c1.3,0,2.4,0.9,2.6,2.2l2.4,8.8c0.2,1.5,1.5,2.5,3,2.4h7.8c1.7,0,2.5-1,2.5-2.9c0-0.9-0.1-1.8-0.4-2.6
	L320.9,28z M313.5,48h-4c-1.3,0-2-0.6-2-1.8c0-0.5,0.1-1,0.3-1.5l2.3-8.1c0.3-1.1,0.8-1.6,1.5-1.6c0.9,0,1.7,0.7,1.8,1.6l1.8,7.9
	c0.2,0.6,0.3,1.2,0.3,1.8C315.4,47.4,314.7,48,313.5,48L313.5,48z M349.8,37c-0.8-1.3-1.3-2.7-1.5-4.3c0-0.9,0.3-1.8,0.9-2.5
	c0.5-0.6,1.3-1,2.1-1h4.9c1.4,0,2.2-0.6,2.2-1.8c0-1.6-1.3-2.6-3.8-3c-1.8-0.2-3.7-0.3-5.5-0.2c-9.2,0-13.9,3.1-13.9,9.4
	c0.1,2.6,0.8,5.1,2,7.3l6.9,13.4c0.6,1.1,1,2.4,1.1,3.7c0,1.8-1.1,2.7-3.4,2.8h-6.1c-0.5,0-1.1,0.2-1.4,0.6c-0.4,0.4-0.6,1-0.6,1.6
	c-0.1,1,0.5,2,1.4,2.3c1.4,0.4,5,0.6,10.8,0.6c4.1,0,7.1-0.6,9.1-1.7c2.3-1.3,3.5-3.6,3.5-6.9c0-2.6-0.9-5.7-2.8-9.2L349.8,37z
	 M377.9,37c-0.8-1.3-1.3-2.8-1.5-4.3c0-0.9,0.3-1.8,0.9-2.5c0.5-0.6,1.3-1,2.1-1h4.9c1.4,0,2.1-0.6,2.1-1.8c0-1.6-1.3-2.6-3.8-3
	c-1.8-0.2-3.7-0.3-5.5-0.2c-9.2,0-13.8,3.1-13.9,9.4c0.1,2.6,0.8,5.1,2,7.4l6.9,13.4c0.6,1.1,1,2.4,1.1,3.7c0,1.8-1.1,2.7-3.4,2.8
	h-6.1c-0.5,0-1,0.2-1.4,0.6c-0.4,0.4-0.6,1-0.6,1.6c-0.1,1,0.5,2,1.4,2.3c1.4,0.4,5,0.6,10.8,0.6c4.1,0,7.1-0.6,9.1-1.7
	c2.4-1.3,3.5-3.6,3.5-6.9c0-2.6-0.9-5.7-2.8-9.2L377.9,37z M424.8,59.8l-11.1-31.9c-0.3-1.1-0.9-2.1-1.7-2.9
	c-1.3-0.9-2.9-1.4-4.5-1.3c-3.7,0-6.1,1.4-7,4.2l-11,32.5c-0.4,1-0.6,2-0.6,3c0,1.7,1,2.6,3,2.6c1.6,0.2,3.1-0.9,3.5-2.5l2.7-9.4
	c0.3-1.4,1.5-2.3,2.9-2.2h5.9c1.3,0,2.4,0.9,2.6,2.2l2.4,8.8c0.2,1.5,1.5,2.5,3,2.4h7.8c1.7,0,2.5-1,2.5-2.9
	C425.2,61.6,425.1,60.7,424.8,59.8L424.8,59.8z M406.3,48h-4c-1.3,0-2-0.6-2-1.8c0-0.5,0.1-1,0.3-1.5l2.3-8.1
	c0.3-1.1,0.8-1.6,1.5-1.6c0.9,0,1.7,0.7,1.7,1.6l1.8,7.9c0.2,0.6,0.3,1.2,0.3,1.8C408.2,47.4,407.6,48,406.3,48L406.3,48z"/>
</svg>
