<?xml version="1.0" encoding="utf-8"?>
<!-- Generator: Adobe Illustrator 19.2.1, SVG Export Plug-In . SVG Version: 6.00 Build 0)  -->
<svg version="1.1" id="Camada_1" xmlns="http://www.w3.org/2000/svg" xmlns:xlink="http://www.w3.org/1999/xlink" x="0px" y="0px"
	 viewBox="0 0 278.1 223.3" style="enable-background:new 0 0 278.1 223.3;" xml:space="preserve">
<style type="text/css">
	.st0{fill:#5B5B5B;}
</style>
<title>redemassavertical</title>
<path class="st0" d="M15.7,202.5c-0.3,1.5-0.9,2.2-1.9,2.2h-1.2c-0.5,0-1.1-0.2-1.4-0.6c-0.4-0.3-0.6-0.8-0.6-1.4v-9.4
	c0-0.5,0.2-1,0.6-1.4c0.4-0.4,0.9-0.6,1.4-0.6h1.3c1,0,1.8,0.8,1.9,1.8c0,0,0,0,0,0c0.2,1.4,0.4,2.8,0.4,4.3
	C16.1,199.1,16,200.8,15.7,202.5L15.7,202.5z M261.6,207.6h-3.5c-0.8,0.1-1.5-0.4-1.7-1.2c0-0.1,0-0.3,0-0.4c0-0.5,0.1-0.9,0.3-1.4
	l2-7.1c0.3-0.9,0.7-1.4,1.3-1.4c0.8,0,1.4,0.6,1.5,1.4l1.6,6.8c0.1,0.5,0.2,1,0.3,1.6c0.1,0.8-0.5,1.5-1.3,1.6
	C261.9,207.6,261.8,207.6,261.6,207.6L261.6,207.6z M277.7,217.9l-9.6-27.7c-0.3-0.9-0.8-1.8-1.5-2.5c-1.1-0.8-2.5-1.2-3.9-1.1
	c-3.2,0-5.3,1.2-6.1,3.6l-9.5,28.3c-0.3,0.8-0.5,1.7-0.5,2.6c0,1.5,0.9,2.2,2.6,2.2c1.4,0.1,2.7-0.8,3-2.1l2.4-8.2
	c0.3-1.2,1.3-2,2.5-1.9h5c1.1,0,2.1,0.8,2.3,1.9l2.1,7.6c0.2,1.3,1.3,2.2,2.6,2.1h6.7c1.5,0,2.2-0.8,2.2-2.5
	C278,219.4,277.9,218.7,277.7,217.9L277.7,217.9z M237,198.1c-0.7-1.1-1.1-2.4-1.3-3.7c0-0.8,0.2-1.6,0.8-2.1
	c0.4-0.5,1.1-0.9,1.8-0.9h4.2c1.2,0,1.9-0.5,1.9-1.6c0-1.4-1.1-2.3-3.3-2.6c-1.6-0.2-3.2-0.2-4.8-0.2c-8,0-12,2.7-12,8.1
	c0.1,2.2,0.7,4.4,1.8,6.4l6,11.6c0.6,1,0.9,2.1,0.9,3.2c0,1.6-1,2.4-3,2.4h-5.3c-0.5,0-0.9,0.2-1.2,0.5c-0.3,0.4-0.5,0.9-0.5,1.4
	c-0.1,0.9,0.4,1.7,1.3,2c1.2,0.3,4.4,0.5,9.3,0.5c3.5,0,6.2-0.5,7.9-1.5c2-1.2,3.1-3.2,3.1-6c-0.2-2.8-1-5.6-2.4-8L237,198.1
	L237,198.1z M212.7,198.1c-0.7-1.1-1.1-2.4-1.3-3.7c0-0.8,0.2-1.6,0.8-2.1c0.4-0.5,1.1-0.9,1.8-0.9h4.3c1.2,0,1.9-0.5,1.9-1.6
	c0-1.4-1.1-2.3-3.3-2.6c-1.6-0.2-3.2-0.2-4.8-0.2c-8,0-12,2.7-12,8.1c0.1,2.2,0.7,4.4,1.8,6.4l6,11.6c0.6,1,0.9,2.1,0.9,3.2
	c0,1.6-1,2.4-3,2.4h-5.3c-0.5,0-0.9,0.2-1.2,0.5c-0.3,0.4-0.5,0.9-0.5,1.4c-0.1,0.9,0.4,1.7,1.3,2c1.2,0.3,4.4,0.5,9.3,0.5
	c3.5,0,6.2-0.5,7.9-1.5c2-1.2,3.1-3.2,3.1-6c-0.2-2.8-1-5.6-2.4-8L212.7,198.1L212.7,198.1z M181.1,207.7h-3.5
	c-0.8,0.2-1.5-0.4-1.7-1.1c0-0.1,0-0.3,0-0.4c0-0.5,0.1-0.9,0.3-1.4l2-7.1c0.3-0.9,0.7-1.4,1.3-1.4c0.8,0,1.4,0.6,1.5,1.4l1.6,6.8
	c0.1,0.5,0.2,1,0.3,1.6c0.1,0.8-0.5,1.5-1.3,1.6C181.4,207.7,181.2,207.7,181.1,207.7L181.1,207.7z M187.5,190.2
	c-0.3-0.9-0.8-1.8-1.4-2.5c-1.1-0.8-2.5-1.2-3.9-1.1c-3.2,0-5.3,1.2-6.1,3.6l-9.5,28.3c-0.3,0.8-0.5,1.7-0.5,2.6
	c0,1.5,0.9,2.2,2.6,2.2c1.4,0.1,2.7-0.8,3-2.1l2.4-8.2c0.3-1.2,1.3-2,2.6-1.9h5.1c1.1,0,2.1,0.8,2.3,1.9l2.1,7.6
	c0.2,1.3,1.3,2.2,2.6,2.1h6.7c1.5,0,2.2-0.9,2.2-2.6c0-0.8-0.1-1.5-0.4-2.3L187.5,190.2L187.5,190.2z M160.5,190.9
	c-0.3-2.4-1.6-3.6-3.8-3.6h-4.4c-1.9,0-3.1,1.2-3.7,3.6l-3.9,17.3c0,0.5-0.4,0.8-0.8,0.8c-0.4-0.1-0.7-0.4-0.7-0.8l-3.3-17.3
	c-0.5-2.4-1.7-3.6-3.6-3.6h-4.5c-2.2,0-3.5,1.3-3.9,3.8l-3.9,27.3c-0.1,0.9-0.2,1.7-0.2,2.6c-0.1,1.1,0.6,2.1,1.7,2.2
	c0.2,0,0.4,0,0.6,0c1.6,0,2.5-0.7,2.6-2.1l2.1-21.2c0-0.4,0.3-0.8,0.7-0.8c0,0,0,0,0,0c0.4,0.1,0.7,0.4,0.7,0.8l4,19.7
	c0.3,1.8,2.1,2.6,5.3,2.6c2.8,0,4.3-0.9,4.7-2.8l4.1-19.5c0-0.4,0.3-0.8,0.7-0.8c0.4,0,0.7,0.4,0.7,0.8c0,0,0,0,0,0l2.1,20.6
	c0.1,0.6,0.4,1.2,0.9,1.5c0.5,0.4,1.1,0.6,1.7,0.6h6c1.1,0.1,2.1-0.6,2.2-1.7c0-0.2,0-0.4,0-0.6c0-0.8,0-1.7-0.1-2.5L160.5,190.9
	L160.5,190.9z M109,218.8h-4.7c-0.5,0-1-0.2-1.4-0.6c-0.4-0.3-0.6-0.8-0.6-1.4v-8.4c0-0.5,0.2-1,0.6-1.3c0.4-0.4,0.9-0.6,1.4-0.6
	h2.9c1.4,0,2.1-0.6,2.1-1.8c0-0.5-0.2-0.9-0.6-1.3c-0.4-0.3-0.8-0.5-1.3-0.5h-3.1c-0.5,0-1-0.2-1.4-0.6c-0.4-0.3-0.6-0.8-0.6-1.4
	v-7.7c0-0.5,0.2-1,0.6-1.4c0.4-0.4,0.9-0.6,1.4-0.6h3.6c0.6,0,1.1-0.2,1.5-0.6c0.4-0.4,0.6-1,0.6-1.5c0-0.5-0.2-1-0.6-1.3
	c-0.4-0.4-0.9-0.6-1.4-0.6H95.2c-2.4,0-3.6,1.1-3.6,3.4v28.6c0,2.3,1.2,3.4,3.6,3.4h13.9c1,0.2,2-0.5,2.1-1.5c0-0.2,0-0.3,0-0.5
	c0-0.5-0.2-1-0.6-1.4C110.2,218.9,109.6,218.7,109,218.8L109,218.8z M73.6,216.9c-0.2,1.1-1.2,1.9-2.3,1.8h-2.2
	c-0.5,0-1-0.2-1.4-0.6c-0.4-0.3-0.6-0.8-0.6-1.3v-23.5c0-0.5,0.2-1,0.6-1.4c0.4-0.4,0.9-0.6,1.4-0.6h2.1c1.1-0.1,2.1,0.7,2.3,1.8
	c0.7,3.8,1,7.7,0.9,11.6C74.6,208.8,74.3,212.9,73.6,216.9L73.6,216.9z M74.1,187.3H60c-2.4,0-3.6,1.1-3.6,3.4v28.6
	c0,2.3,1.2,3.4,3.6,3.4h13.7c4.6,0,7.9-1.4,9.7-4.4c1.9-3.1,2.9-7.9,2.9-14.4c0-6.9-1.1-11.5-3.4-14
	C81.2,188.2,78.3,187.3,74.1,187.3L74.1,187.3z M50.6,218.7h-4.7c-0.5,0-1-0.2-1.4-0.6c-0.4-0.3-0.6-0.8-0.6-1.4v-8.4
	c0-0.5,0.2-1,0.6-1.3c0.4-0.4,0.9-0.6,1.4-0.6h2.9c1.4,0,2.1-0.6,2.1-1.8c0-0.5-0.2-0.9-0.6-1.3c-0.4-0.3-0.8-0.5-1.3-0.5h-3
	c-0.5,0-1-0.2-1.4-0.6c-0.4-0.3-0.6-0.8-0.6-1.4v-7.7c0-0.5,0.2-1,0.6-1.4c0.4-0.4,0.9-0.6,1.4-0.6h3.6c0.6,0,1.1-0.2,1.5-0.6
	c0.4-0.4,0.6-1,0.6-1.5c0-0.5-0.2-1-0.6-1.3c-0.4-0.4-0.9-0.6-1.5-0.6H36.7c-2.4,0-3.6,1.1-3.6,3.4v28.6c0,2.3,1.2,3.4,3.6,3.4h13.9
	c1,0.2,2-0.6,2.1-1.6c0-0.2,0-0.3,0-0.5c0-0.5-0.2-1-0.6-1.4C51.6,218.9,51.1,218.7,50.6,218.7L50.6,218.7z M24.8,209.1
	c-0.7-1.1-1.1-2.3-1.3-3.6c0-1.1,0.5-2.2,1.2-3c1.5-1.9,2.2-4.4,2.1-6.8c0.1-2-0.6-4-1.8-5.5c-1.6-1.9-4-2.9-7.3-2.9H3.6
	c-2.4,0-3.6,1.1-3.6,3.4v29.6c0,1.6,0.7,2.4,2.2,2.4h6.3c1.5,0,2.2-0.8,2.2-2.4v-10.1c0-0.5,0.2-1,0.6-1.4c0.4-0.4,0.9-0.6,1.4-0.6
	H13c0.8,0,1.3,0.6,1.7,1.7l3.6,10.5c0.4,1.4,1.8,2.3,3.2,2.1h6.2c1.5,0,2.3-0.8,2.3-2.5c0-0.8-0.2-1.5-0.6-2.2L24.8,209.1z
	 M149.6,147.7c4-9.6-9.6-15.2-18.5-14c-6.6,0.7-14.8,5.6-10.8,13.8C124.1,155.7,144.7,157.6,149.6,147.7L149.6,147.7z M103.5,8.8
	c-3.5-3.7-28.3,14.7-25.5,18.3C80.3,30.4,106.3,12.3,103.5,8.8z M132.7,16.1c0,4.9,4.9,8,11.5,8.7c4.4,0.2,15.9-1.4,12.4-9.4
	c-1.6-3.3-7.7-6.1-15-5.4C135.8,10.5,132.7,13.8,132.7,16.1L132.7,16.1z M139.1,2.1c1.2,5.8-25.8,9.4-26.2,4.4
	C112.4,2,138.2-2.9,139.1,2.1L139.1,2.1z M188.9,53.8c11-10.5-4.4-28.6-21.1-28.1c-4,0.4-7.3,3.3-8.2,7.3
	C156.4,46.5,178.4,63.9,188.9,53.8L188.9,53.8z M60.2,61.7c-8,0-10.1,35.6-2.3,35.6C66.5,97.3,67.9,61.7,60.2,61.7z M60.4,103
	c-4.7,4.2,4,26,11,25.1C77.2,125,67.4,99.7,60.4,103z M64.2,54.7c5.1,1.9,17.3-17.1,11.7-20.2C70.2,32.5,59.2,52.1,64.2,54.7z
	 M191.3,107.2c-7,3.3-15.4,20.4-7,25.3c8,4.4,17.1-4.7,19.7-12.7C206.5,111.6,201.3,102.7,191.3,107.2L191.3,107.2z M154,60.5
	c7.5,0,16.4,6.3,15.4,16.6c-1.2,7.5-5.6,13.3-12.9,14.5c-10.5,1.9-20.1-9.6-16.4-21.1C142,64.5,147.7,60.4,154,60.5L154,60.5z
	 M137.2,33.2c-5.3-0.2-10,3.5-11.2,8.6c-1.6,8.2,5.4,13.8,12.2,13.3c4.7-0.2,9.1-3.8,10.1-8C150.1,37.6,142.1,33.2,137.2,33.2
	L137.2,33.2z M117.5,127.3c-10.8,6.1-24.1-6.8-20.4-19c2.1-7.3,7.7-8.9,12.9-8.9C123.6,100.1,130.6,119.8,117.5,127.3L117.5,127.3z
	 M116.1,13.1c4.2-0.7,8.9,0,10.5,3c4.2,9.1-10.5,16.9-16.9,17.6c-5.4,0.7-10.3-0.5-11.2-4.2C96.7,20,110,14.2,116.1,13.1L116.1,13.1
	z M118.2,66.9c-5.6,0.9-8.7,4.7-9.8,9.4c-2.1,9.1,5.6,17.3,14.8,15.2C137.4,88.2,135,64.4,118.2,66.9L118.2,66.9z M186.1,18.2
	c-2.6,6.6-30.2-6.5-25.8-13.1C162.7,1.6,187.5,11.7,186.1,18.2z M198.1,87.6c-6.1,15.9-23.6,3.5-18.7-11c1-3.1,3.6-5.5,6.8-6.1
	C194.3,69.3,200.9,77.3,198.1,87.6L198.1,87.6z M136.5,111.2c4.7-16.4,30.2-18,36.1-2.3c3.5,14.3-7,21.5-13.3,23
	C145.6,135.1,132.3,124.8,136.5,111.2L136.5,111.2z M178.9,139.8c2.1,9.1-17.6,18.5-21.8,10.3c-3-7.3,8.4-14,13.8-14.5
	C175.6,135.1,177.9,136.5,178.9,139.8L178.9,139.8z M217.7,82.6c-7.7,0-11.2,27.2-4,29.3C222.6,111.8,225.2,82.6,217.7,82.6z
	 M205.3,138.3c-3.5-0.7,6.1-18.7,10.1-17.3C218.4,122.1,211.4,137.8,205.3,138.3L205.3,138.3z M199.9,144.1
	c-2.6-3-25.3,14.5-23.2,17.3C179.1,164.5,203.2,148.1,199.9,144.1L199.9,144.1z M204.2,43.5c12.2-4.5,21.3,32.1,12.2,35.8
	C205.8,82.3,194.4,46.8,204.2,43.5L204.2,43.5z M206.5,38.5c-3,4.2-19.2-11.5-14.5-15.2C195.5,21,208.8,34.8,206.5,38.5L206.5,38.5z
	 M127.3,166.4c-1.4,4.7-24.6-1.9-22.2-7.7C106.5,155.2,129,160.6,127.3,166.4L127.3,166.4z M162.5,162.7c-1.2-4.4-22.2,0.9-20.8,4.7
	C143.3,172,163.6,167.1,162.5,162.7z M104.6,151.4c-7,8.7-30.9-13.3-25.5-21.3C85,122.6,110.9,141.6,104.6,151.4z M74.7,87.8
	c4.9-8.9,15.9-4,17.8,4.7c1.6,8.9-5.4,17.6-13.8,11.9C74.7,101.8,71.4,93.6,74.7,87.8L74.7,87.8z M84.7,69.8
	c-17.6-6.5,1.6-40,19.2-31.6c4.9,2.3,8,8.4,6.3,16.4C108.6,62.7,97.4,74.6,84.7,69.8L84.7,69.8z"/>
</svg>
