<?xml version="1.0" encoding="utf-8"?>
<!-- Generator: Adobe Illustrator 19.2.1, SVG Export Plug-In . SVG Version: 6.00 Build 0)  -->
<svg version="1.1" id="Camada_1" xmlns="http://www.w3.org/2000/svg" xmlns:xlink="http://www.w3.org/1999/xlink" x="0px" y="0px"
	 viewBox="0 0 370.1 409.4" style="enable-background:new 0 0 370.1 409.4;" xml:space="preserve">
<style type="text/css">
	.st0{fill:#FEDEBF;}
	.st1{fill:#5B5B5B;}
	.st2{fill:none;}
</style>
<path class="st0" d="M107.3,409.2c0,0.1,0,0.1,0,0.2H88.8c0-0.1,0-0.1,0-0.2C95,409.2,101.1,409.2,107.3,409.2"/>
<path class="st1" d="M143.8,0c27.5,0,55,0,82.6,0c0.4,0.1,0.9,0.3,1.4,0.4c3.1,0.9,4.8,3,5.2,6.2c1.8,15.4,3.7,30.9,5.5,46.3
	c2.7,22.8,5.5,45.6,8.1,68.3c1.5,12.5,2.8,25,4.1,37.5c2.1,19.8,4.2,39.7,6.3,59.5c1.2,11.2,2.3,22.3,3.4,33.5
	c0.5,4.8,1.1,9.6,1.6,14.4c0.1,0.6,0,1.3,1,0.8c0.7-10.3,1.3-20.6,2-30.9c1-15.1,1.9-30.2,3.1-45.3c1.7-21.9,3.6-43.9,5.5-65.8
	c1-11.4,2.1-22.8,3.1-34.1c1.1-11.9,2.1-23.8,3.2-35.7c0.8-8.8,1.5-17.5,2.3-26.3c0.6-7.3,1.3-14.6,2-22c0.3-3.5,2.3-5.7,5.7-6.5
	c0.3-0.1,0.6-0.2,0.9-0.3h74.6c2,0.7,3.8,1.7,4.2,4c0.3,1.2,0.4,2.5,0.3,3.7c-0.7,6-1.5,12.1-2.3,18.1c-2.2,17.1-4.4,34.2-6.5,51.3
	c-1.9,15.2-3.9,30.4-5.8,45.6c-1.2,9.3-2.4,18.5-3.6,27.8c-1.4,11.4-2.9,22.8-4.3,34.2c-1.4,11.2-2.9,22.4-4.3,33.5
	c-1.6,12.7-3.2,25.4-4.9,38.1c-1.5,12-3.1,23.9-4.6,35.9c-2.2,17.4-4.4,34.8-6.7,52.2c-0.4,3-1.9,5.2-4.8,6.2
	c-1.5,0.5-3.2,0.9-4.8,0.9c-32.8,0-65.5,0-98.3,0c-0.4,0-0.7,0-1.1,0c-5.1-0.3-7.9-2.6-8.4-7c-0.5-4.3-0.8-8.6-1.2-12.9
	c-0.8-8.2-1.5-16.5-2.3-24.7c-1.1-11.3-2.1-22.6-3.2-33.9c-1.3-13.4-2.5-26.9-3.8-40.3c-1.2-12.3-2.4-24.7-3.6-37
	c-1.6-16.8-3-33.6-4.6-50.4c-1-10.4-2.1-20.8-3.2-31.3c-0.8-7.9-1.6-15.8-2.4-23.6c0-0.3-0.3-0.7-0.5-1c-0.2,0.3-0.5,0.6-0.6,1
	c-0.7,7-1.4,14.1-2.1,21.1c-0.9,8.6-1.7,17.2-2.5,25.8c-1,10-2.2,20-3.1,30.1c-2,21.3-3.8,42.5-5.8,63.8c-2.1,23.5-4.4,47-6.6,70.4
	c-1.3,14.2-2.6,28.5-3.9,42.7c-0.3,3.9-2.1,6-5.9,6.9c-1.2,0.3-2.4,0.4-3.6,0.4c-32.8,0-65.6,0-98.4,0c-0.2,0-0.4,0-0.6,0
	c-5.2-0.4-8.5-2.6-9-7.9c-0.3-2.9-0.7-5.7-1.1-8.6c-2.5-19.6-5-39.3-7.5-58.9c-1.6-12.7-3.3-25.4-4.9-38.2
	c-1.9-14.5-3.7-29-5.6-43.5c-2.2-17.6-4.5-35.1-6.7-52.7c-1.4-11.4-2.9-22.8-4.3-34.1c-1.6-12.7-3.2-25.5-4.9-38.2
	C6.9,59.9,5.7,50.4,4.5,41c-1.2-9.3-2.4-18.6-3.5-27.8c-0.3-2-0.6-4-0.9-6V4.6C0.7,2,2.4,0.4,5,0h74.2c0.3,0.1,0.7,0.2,1,0.3
	c3.4,0.8,5.4,3,5.7,6.4c0.5,5.5,1,10.9,1.5,16.4c1.9,21.8,3.8,43.6,5.8,65.4c1.6,18.4,3.3,36.7,4.9,55.1c1,10.9,1.9,21.9,2.8,32.9
	c0.9,11.2,1.8,22.5,2.6,33.7c1.2,16.9,2.2,33.8,3.4,50.7c0.1,2.1,0.3,4.3,0.4,6.4c1,0.3,1-0.4,1-0.9c1.1-10.2,2.2-20.3,3.3-30.5
	c1.6-15.6,3.2-31.1,4.8-46.7c1.4-13.5,2.8-27.1,4.3-40.6c1.9-17.1,3.8-34.1,5.8-51.1c1.4-12.6,3-25.2,4.5-37.7
	c2.1-17.6,4.2-35.3,6.3-52.9c0.4-3.3,2.2-5.4,5.4-6.3C143.1,0.3,143.4,0.1,143.8,0 M46,318.2c0.3,2.6,0.6,5.1,0.9,7.5
	c0.4,3.4,0.9,6.8,1.4,10.1c0.4,3.1,0.8,6.2,1.2,9.3c0,0.4,0.6,0.9,1,0.9c2.4,0.1,4.9,0.1,7.3,0c0.3,0,1-0.5,1-0.9
	c0.3-2.5,0.5-4.9,0.8-7.4c0.3-2.9,0.5-5.9,0.7-8.8c0.1-1,0.3-2,0.4-3.1c0.4,2.2,0.6,4.5,0.8,6.7c0.4,4,0.8,8.1,1.1,12.1
	c0.1,0.9,0.4,1.4,1.4,1.4c2.2,0,4.5-0.1,6.7,0c1,0,1.4-0.5,1.5-1.3c0.3-2.8,0.7-5.5,1-8.3c0.3-2.7,0.7-5.4,1-8.1
	c0.4-3.1,0.8-6.3,1.2-9.4c0-0.2-0.3-0.7-0.6-0.7c-1.8,0-3.6-0.1-5.4,0c-0.3,0-0.7,0.5-0.8,0.8c-0.3,2.6-0.5,5.2-0.7,7.8
	c-0.3,3.5-0.5,7.1-0.8,10.6c0,0.5-0.2,0.9-0.3,1.7c-0.2-1.9-0.4-3.5-0.6-5.1c-0.6-4.9-1.2-9.9-1.7-14.8c-0.1-1-0.5-1.1-1.3-1.1
	c-1.3,0-2.6,0-3.8,0c-2.2,0-2.3,0-2.7,2.1c-0.5,3-0.8,6-1.1,9.1c-0.4,3.1-0.7,6.3-1,9.5c-0.6-5.1-1-10.1-1.4-15.2
	c-0.1-1.6-0.3-3.2-0.5-4.7c0-0.3-0.5-0.7-0.7-0.7C50.1,318.2,48.1,318.2,46,318.2 M117.7,345.9c0.1,0.1,0.2,0.1,0.3,0.1
	c1.5,0,3,0,4.6,0c2.6,0,2.3,0.3,2.3-2.3c0-2.8,0-5.7,0-8.5c1.4,3.2,2.6,6.4,3.8,9.5c0.3,0.7,0.5,1.3,1.5,1.3c1.9,0,3.9,0,5.8,0
	c0.9,0,1.1-0.4,0.7-1.2c-1-2-1.9-4.1-2.8-6.1c-0.6-1.4-1.2-2.7-1.8-4.1c2.7-0.4,3.9-1.4,4-4c0.1-2.8,0.1-5.7-0.1-8.5
	c-0.2-3-2.1-3.9-4.3-3.9c-4.4-0.1-8.9,0-13.3,0c-0.2,0-0.4,0.1-0.6,0.1L117.7,345.9L117.7,345.9z M77.5,346.1c2.1,0,4.1,0,6.1,0
	c0.8,0,1.1-0.3,1.1-1.1c0-2.9,0-5.8,0-8.6c0-0.6,0-1.2,0-1.8c1.5-0.1,2.9-0.2,4.3-0.3c0,3.7,0,7.1,0,10.6c0,0.9,0.3,1.2,1.2,1.2
	c1.7-0.1,3.4,0,5,0c0.8,0,1-0.2,1-1c0-8.6,0-17.3,0-25.9c0-0.8-0.3-1-1-1c-1.7,0-3.4,0-5.2,0c-0.8,0-1.1,0.3-1.1,1.1
	c0.1,2.2,0,4.3,0,6.5c0,1,0,2.1,0,3.1h-4.3c0-0.4,0-0.8,0-1.2c0-2.8,0-5.6,0-8.4c0-0.4-0.4-1.1-0.6-1.1c-2.2-0.1-4.4,0-6.6,0
	L77.5,346.1L77.5,346.1z M106.6,334.5c2.7-0.1,5.4-0.3,8.1-0.4v-5.3h-8V324c2.5,0,4.9,0,7.3,0c0.8,0,1.1-0.2,1.1-1
	c-0.1-1.2-0.1-2.3,0-3.5c0.1-1-0.3-1.3-1.3-1.3c-4.4,0-8.9,0-13.3,0c-0.3,0-0.6,0-0.9,0.1v27.8h12.9c3.1,0,3.1,0,3.1-3.1
	c0-2.7,0-2.7-2.7-2.7h-6.2L106.6,334.5L106.6,334.5z M139,318.2v27.8h13.1c2.8,0,2.8,0,2.8-2.9c0-2.9,0-2.9-2.9-2.9h-5.9v-5.8
	c2.7-0.1,5.4-0.3,8.1-0.4v-5.3h-8V324c2.5,0,4.9,0,7.3,0c0.8,0,1.1-0.2,1.1-1c-0.1-1.3,0-2.6-0.1-3.9c0-0.3-0.5-0.9-0.8-0.9
	C148.9,318.2,144,318.2,139,318.2"/>
<path class="st1" d="M53.8,409.4c-0.5-0.1-1-0.2-1.4-0.3c-5.3-0.7-8-3.5-8-9c-0.1-11.8-0.1-23.7,0-35.5c0-5.8,3.2-9,9.1-9
	c6.4,0,12.9,0.3,19.3,0.4c0.9,0,1.5,0.5,1.5,1.5c0,2.9,0,5.9,0,8.8c0,1.1-0.5,1.5-1.9,1.5c-4,0-7.9,0-11.9,0c-1.5,0-1.6,0.1-1.6,1.6
	c0,8.6,0,17.2,0,25.8c0,1.5,0.1,1.6,1.7,1.6c3.9,0,7.8,0,11.6,0c1.7,0,2.1,0.4,2.1,2c0,2.6,0,5.2,0,7.8c0,1.6-0.4,2-2,2
	c-4.1,0.1-8.2,0.3-12.3,0.5c-0.2,0-0.4,0.2-0.6,0.2L53.8,409.4L53.8,409.4z"/>
<path class="st1" d="M285.7,380.5c4,1.5,5.8,4.3,5.7,8.4c-0.1,4.1,0.1,8.3-0.2,12.5c-0.3,4.5-3.6,7.5-8.1,7.6c-8.5,0.1-17,0-25.4,0
	c-1.3,0-1.8-0.5-1.8-1.9c0-16.4,0-32.9,0-49.3c0-1.4,0.5-1.9,1.8-1.9c7.9,0,15.8-0.1,23.8,0c5.9,0.1,8.9,3.2,9.1,9.4
	c0.1,2.8,0,5.6,0,8.4C290.6,377,288.7,379,285.7,380.5 M270.5,398.1c1.8,0,3.6,0,5.3,0c0.3,0,0.9-0.6,0.9-1c0.1-3,0-6.1,0-9.1
	c0-0.8-0.3-1.3-1.2-1.3c-1.7,0-3.3,0.1-5,0.2L270.5,398.1L270.5,398.1z M270.5,376c1.6,0,3.1,0,4.6,0c0.8,0,1.2-0.4,1.2-1.2
	c0-2.4,0.1-4.8,0-7.2c0-0.3-0.4-0.9-0.7-0.9c-1.7-0.1-3.4,0-5.1,0V376L270.5,376z M151.5,387.6c1.7,3.6,3.3,7.2,4.9,10.8
	c1.2,2.6,2.4,5.3,3.6,7.9c0.9,1.9,0.4,2.6-1.7,2.6c-3.8,0-7.5,0-11.3,0c-1.4,0-2.1-0.6-2.6-1.8c-1.9-5.1-3.9-10.2-5.8-15.2
	c-0.2-0.4-0.3-0.9-0.7-1.3v1.1c0,5,0,10,0,15c0,1.7-0.4,2.1-2.1,2.1c-3.5,0-7,0-10.4,0c-1.6,0-2-0.4-2-2.1c0-16.3,0-32.6,0-48.9
	c0-1.6,0.4-2.1,1.8-2.1c8.2,0,16.5-0.1,24.7,0c5.4,0.1,8.6,2.9,8.8,8.4c0.3,5.3,0.2,10.5,0,15.8c-0.1,4-3.1,7.2-6.8,7.4
	C151.8,387.5,151.7,387.5,151.5,387.6 M138,378.6c1.8,0,3.6,0,5.3,0c0.3,0,0.9-0.6,0.9-1c0.1-3.1,0.1-6.3,0-9.5
	c0-0.3-0.5-0.9-0.8-0.9c-1.8-0.1-3.6-0.1-5.4-0.1L138,378.6L138,378.6z M107.3,409.2c-6.2,0-12.3,0-18.5,0c-5.9-0.4-8.9-3.6-8.9-9.5
	c0-13.8,0-27.7,0-41.5c0-2,0.3-2.3,2.3-2.3c3.4,0,6.8,0,10.2,0c1.7,0,2.1,0.4,2.1,2.1c0,12.7,0,25.4,0,38.1c0,1.7,0,1.7,1.7,1.7
	c1.3,0,2.6,0,3.9,0c1,0,1.3-0.3,1.3-1.3c0-4.3,0-8.6,0-13c0-8.5,0-17,0-25.5c0-1.8,0.4-2.2,2.2-2.2c3.4,0,6.9,0,10.3,0
	c1.7,0,2.1,0.5,2.1,2.2c0,14,0,27.9,0,41.9C116.1,405.7,113,408.9,107.3,409.2"/>
<path class="st1" d="M318.9,399.2c-2.7,0.1-5.3,0.3-7.9,0.4c-0.3,2.1-0.6,4.1-0.9,6.2c-0.1,0.5-0.1,1.1-0.2,1.7
	c-0.2,1-0.8,1.6-1.8,1.6c-3.7,0-7.5,0-11.2,0c-1.3,0-1.6-0.6-1.4-2c0.8-4.5,1.6-8.9,2.4-13.3c2.1-11.2,4.1-22.4,6.2-33.6
	c0.2-0.9,0.3-1.7,0.5-2.6c0.2-1,0.8-1.5,1.8-1.5c5.7,0,11.4,0,17.2,0c1.2,0,1.7,0.7,1.9,1.8c1.7,9.6,3.5,19.2,5.3,28.8
	c1.2,6.8,2.5,13.6,3.7,20.4c0.3,1.6-0.1,2.1-1.7,2.1c-3.5,0-7,0-10.5,0c-1.5,0-2-0.4-2.2-1.9C319.6,404.4,319.3,401.8,318.9,399.2
	 M317.5,388.5c-0.8-6-1.6-11.9-2.5-17.8c0,0-0.1,0-0.1,0c-0.8,5.9-1.6,11.8-2.5,17.8H317.5z"/>
<path class="st1" d="M214.4,368v1.6c0,12.4,0,24.8,0,37.2c0,2-0.3,2.3-2.3,2.3c-3.4,0-6.7,0-10.1,0c-1.8,0-2.2-0.4-2.2-2.2
	c0-12.4,0-24.8,0-37.2V368c-2.6,0-5.1,0-7.6,0c-2,0-2.3-0.3-2.3-2.3c0-2.6,0-5.2,0-7.8c0-1.6,0.4-2,1.9-2c10.2,0,20.3,0,30.5,0
	c1.5,0,1.9,0.4,1.9,1.9c0,2.7,0,5.4,0,8.2c0,1.6-0.4,2-2,2C219.7,368,217.1,368,214.4,368 M168.1,397.6v-30.4c-0.9,0-1.6,0-2.4,0
	c-1,0-1.5-0.6-1.5-1.6c0-2.7,0-5.4,0-8.1c0-1.2,0.6-1.6,2-1.6c5.7,0,11.4,0,17.1,0c0.6,0,1.3,0,1.9,0c0.9,0,1.5,0.6,1.5,1.5
	c0,2.8,0,5.5,0,8.3c0,1-0.6,1.5-1.6,1.5c-0.8,0-1.5,0-2.3,0v30.4c0.9,0,1.6,0,2.4,0c1,0,1.5,0.6,1.5,1.5c0,2.8,0,5.5,0,8.3
	c0,1-0.6,1.5-1.6,1.5c-6.5,0-13,0-19.4,0c-1.1,0-1.6-0.6-1.6-1.7c0-2.6,0-5.2,0-7.8c0-1.4,0.4-1.8,1.9-1.9
	C166.7,397.6,167.4,397.6,168.1,397.6"/>
<path class="st1" d="M246.2,397.7c0.9,0,1.6,0,2.4,0c1,0,1.5,0.6,1.5,1.5c0,2.8,0,5.5,0,8.3c0,1.2-0.8,1.5-1.8,1.5
	c-3.4,0-6.8,0-10.2,0c-2.9,0-5.8,0-8.6,0c-1.5,0-1.9-0.5-1.9-2c0-2.5,0-5,0-7.4c0-1.5,0.4-1.9,1.9-2c0.7,0,1.3,0,2.1,0v-30.4
	c-0.7,0-1.5,0-2.2,0c-1.3,0-1.8-0.5-1.8-1.7c0-2.6,0-5.3,0-7.9c0-1.2,0.5-1.7,1.7-1.7c6.4,0,12.8,0,19.2,0c1.3,0,1.7,0.5,1.7,1.8
	c0,2.5,0,5.1,0,7.7c0,1.4-0.4,1.9-1.8,1.9c-0.7,0-1.3,0-2.1,0L246.2,397.7L246.2,397.7z"/>
<path class="st1" d="M124.9,323.8c0.7,0,1.4,0,2,0c1.8,0,1.8,0,1.8,1.9c0,1.2,0,2.4,0,3.6c0,0.9-0.3,1.3-1.3,1.3c-0.8,0-1.7,0-2.6,0
	L124.9,323.8L124.9,323.8z"/>
<path class="st2" d="M-13.6-16.9h397.2v443.3H-13.6L-13.6-16.9z"/>
</svg>
