<svg xmlns="http://www.w3.org/2000/svg" width="370.06" height="409.439"><style type="text/css"><![CDATA[
	.st0{fill:#FE7F05;}
	.st1{fill:#FE7F06;}
	.st2{fill:#FE820C;}
	.st3{fill:#FEDEBF;}
	.st4{fill:none;}
]]></style><path d="M107.3 409.24c0 .06-.02.13-.02.2H88.8c0-.07 0-.13 0-.2 6.16 0 12.32 0 18.5 0" class="st3"/><path d="M143.76 0c27.52 0 55.04 0 82.56 0 .45.14.9.3 1.35.43 3.1.9 4.84 2.97 5.22 6.17 1.83 15.44 3.66 30.88 5.5 46.32 2.7 22.77 5.47 45.55 8.12 68.33 1.46 12.5 2.75 25.02 4.1 37.54 2.1 19.82 4.2 39.66 6.3 59.5 1.17 11.16 2.27 22.34 3.43 33.5.5 4.82 1.07 9.63 1.62 14.43.06.58.05 1.32 1.05.78.67-10.3 1.33-20.6 2.02-30.94 1.02-15.1 1.94-30.23 3.13-45.33 1.72-21.95 3.6-43.9 5.48-65.82.98-11.38 2.1-22.76 3.15-34.14 1.08-11.9 2.13-23.8 3.2-35.7.76-8.77 1.52-17.53 2.3-26.3.64-7.3 1.27-14.64 1.95-21.96.33-3.5 2.33-5.7 5.73-6.53.3-.07.6-.18.9-.27h74.64c2 .7 3.75 1.7 4.22 3.95.25 1.2.4 2.47.27 3.68-.7 6.03-1.5 12.05-2.28 18.08-2.2 17.1-4.37 34.2-6.54 51.28-1.94 15.2-3.86 30.38-5.8 45.57-1.18 9.27-2.38 18.55-3.57 27.82-1.44 11.4-2.88 22.77-4.33 34.15-1.42 11.18-2.86 22.36-4.28 33.54-1.63 12.7-3.24 25.4-4.86 38.08-1.52 11.97-3.06 23.94-4.58 35.92-2.22 17.4-4.42 34.8-6.66 52.2-.38 2.98-1.9 5.22-4.8 6.18-1.53.5-3.2.88-4.78.88-32.76.05-65.52.04-98.28.04-.36 0-.72 0-1.08 0-5.06-.26-7.9-2.6-8.37-7.03-.47-4.3-.83-8.6-1.23-12.9-.76-8.23-1.5-16.47-2.27-24.7-1.05-11.3-2.12-22.6-3.17-33.92-1.25-13.44-2.47-26.9-3.75-40.34-1.17-12.34-2.44-24.67-3.6-37-1.55-16.8-2.98-33.6-4.55-50.4-.98-10.43-2.12-20.85-3.17-31.27-.8-7.88-1.58-15.76-2.4-23.64-.03-.35-.34-.68-.52-1.02-.2.33-.5.64-.55.98-.74 7.04-1.45 14.08-2.15 21.12-.85 8.6-1.66 17.18-2.54 25.77-1 10.03-2.2 20.04-3.13 30.07-1.97 21.25-3.8 42.52-5.75 63.78-2.15 23.48-4.38 46.96-6.56 70.44-1.33 14.23-2.63 28.48-3.95 42.72-.34 3.9-2.07 5.96-5.87 6.88-1.16.28-2.37.44-3.55.44-32.8.02-65.6.02-98.4.02-.2 0-.4 0-.6 0-5.23-.35-8.55-2.65-9.04-7.85-.27-2.86-.72-5.7-1.08-8.56-2.5-19.63-4.98-39.26-7.48-58.9-1.63-12.72-3.28-25.45-4.9-38.18-1.86-14.5-3.7-29.02-5.55-43.54-2.24-17.56-4.48-35.12-6.72-52.68-1.44-11.38-2.9-22.76-4.33-34.14-1.62-12.73-3.24-25.46-4.86-38.2C6.9 59.88 5.7 50.44 4.5 41 3.28 31.7 2.14 22.43.95 13.16.7 11.17.32 9.2 0 7.2V4.56C.72 1.96 2.37.43 5.04 0H79.2c.35.1.7.2 1.04.27 3.37.8 5.42 3.04 5.73 6.38.5 5.46 1 10.9 1.48 16.36 1.92 21.8 3.84 43.58 5.76 65.36 1.64 18.36 3.3 36.7 4.9 55.07.96 10.95 1.88 21.9 2.76 32.85.9 11.24 1.8 22.47 2.6 33.72 1.17 16.9 2.24 33.82 3.36 50.73.14 2.14.3 4.28.45 6.37 1.04.3.96-.4 1.02-.93 1.1-10.17 2.23-20.34 3.3-30.5 1.64-15.56 3.23-31.1 4.85-46.66 1.42-13.54 2.83-27.1 4.32-40.65 1.87-17.05 3.8-34.1 5.76-51.13 1.45-12.58 3.02-25.15 4.52-37.73 2.1-17.64 4.2-35.27 6.3-52.9.4-3.28 2.23-5.36 5.44-6.26.32-.1.63-.22.96-.34M45.98 318.24c.3 2.63.58 5.07.9 7.5.43 3.38.9 6.76 1.36 10.13.4 3.1.77 6.2 1.24 9.3.05.35.62.86.96.87 2.44.07 4.88.07 7.32 0 .35 0 .95-.52 1-.85.3-2.45.54-4.9.76-7.37.26-2.93.47-5.87.74-8.8.1-1.02.28-2.05.43-3.07.4 2.24.58 4.46.8 6.67.37 4.04.77 8.08 1.13 12.12.08.9.37 1.37 1.38 1.35 2.24-.05 4.5-.08 6.72 0 1.02.05 1.37-.45 1.48-1.27.35-2.75.66-5.5 1-8.26.33-2.7.66-5.43 1-8.14.4-3.14.84-6.28 1.2-9.43.04-.23-.35-.72-.56-.73-1.8-.05-3.6-.06-5.4 0-.27.02-.73.48-.77.77-.3 2.6-.54 5.22-.74 7.84-.28 3.53-.5 7.06-.75 10.6-.03.46-.17.92-.32 1.68-.23-1.92-.43-3.5-.6-5.07-.58-4.93-1.17-9.86-1.67-14.8-.1-.95-.47-1.1-1.27-1.07-1.28.04-2.56 0-3.84 0-2.23 0-2.33 0-2.67 2.15-.47 3-.8 6.05-1.14 9.08-.37 3.15-.68 6.3-1 9.45-.58-5.06-1-10.13-1.42-15.2-.14-1.58-.3-3.16-.5-4.73-.05-.27-.47-.7-.73-.7-1.95-.06-3.9-.03-6.07-.03m71.7 27.68c.12.06.2.12.26.13 1.52 0 3.04.04 4.56.03 2.63-.02 2.28.33 2.3-2.28 0-2.84 0-5.68 0-8.52 1.42 3.16 2.63 6.35 3.85 9.53.26.7.52 1.3 1.46 1.3 1.93-.05 3.85-.03 5.77-.02.92 0 1.1-.36.7-1.2-.96-2-1.9-4.06-2.82-6.1-.6-1.36-1.2-2.72-1.83-4.1 2.72-.4 3.87-1.4 4-3.97.15-2.82.1-5.66-.07-8.5-.17-3-2.1-3.9-4.3-3.94-4.43-.1-8.87-.02-13.3-.02-.2 0-.38.07-.58.1v27.58zm-40.12.16c2.1 0 4.08-.03 6.07 0 .84.04 1.1-.26 1.1-1.1-.03-2.87 0-5.75 0-8.63 0-.58 0-1.17 0-1.75 1.52-.1 2.88-.2 4.3-.3 0 3.67.03 7.14 0 10.62-.02.88.25 1.2 1.15 1.18 1.68-.06 3.36-.05 5.04 0 .78.02 1.04-.22 1.03-1.02-.02-8.63-.02-17.27 0-25.9 0-.75-.25-.97-.97-.95-1.72.04-3.44.04-5.16 0-.85-.03-1.1.3-1.1 1.1.05 2.17.02 4.33.02 6.5 0 1.05 0 2.1 0 3.15h-4.32c0-.44 0-.84 0-1.22 0-2.8.02-5.6-.03-8.4 0-.37-.36-1.06-.57-1.06-2.17-.08-4.36-.05-6.57-.05v27.83zm29.05-11.53c2.73-.15 5.4-.3 8.05-.43v-5.33h-8V324c2.47 0 4.87-.02 7.26 0 .78.02 1.1-.2 1.07-1-.05-1.17-.07-2.33 0-3.5.07-.98-.26-1.3-1.27-1.28-4.44.05-8.88.02-13.3.02-.32 0-.63.05-.95.08v27.76h12.92c3.07 0 3.07 0 3.07-3.1 0-2.66 0-2.66-2.65-2.66h-6.2v-5.77zm32.46-16.3v27.83h13.15c2.84 0 2.84 0 2.84-2.85 0-2.9 0-2.9-2.9-2.9h-5.93v-5.78c2.73-.15 5.4-.3 8.05-.43v-5.33h-8V324c2.48 0 4.87-.02 7.27 0 .76.02 1.08-.2 1.05-1-.05-1.3.04-2.57-.05-3.85-.02-.32-.48-.87-.75-.87-4.87-.05-9.74-.04-14.7-.04" class="st0"/><path d="M53.76 409.44c-.48-.1-.95-.22-1.44-.3-5.32-.67-7.97-3.48-8-8.95-.1-11.84-.1-23.68 0-35.5.04-5.84 3.2-8.96 9.08-8.98 6.43-.02 12.86.26 19.3.4.94.04 1.5.54 1.5 1.5 0 2.93.02 5.85 0 8.77-.02 1.15-.54 1.55-1.93 1.55-3.96.02-7.92 0-11.88 0-1.48 0-1.56.1-1.56 1.58 0 8.6 0 17.2 0 25.8 0 1.53.07 1.6 1.65 1.6 3.87 0 7.75-.02 11.63 0 1.7 0 2.06.37 2.07 2.02 0 2.6 0 5.2 0 7.8 0 1.6-.4 1.96-1.97 2-4.1.15-8.22.3-12.33.46-.2.02-.4.16-.62.24h-5.52z" class="st0"/><path d="M285.67 380.5c4.05 1.48 5.78 4.28 5.67 8.38-.12 4.15.06 8.32-.22 12.46-.3 4.53-3.56 7.53-8.07 7.6-8.48.1-16.96.05-25.44.05-1.3 0-1.75-.52-1.75-1.87 0-16.44 0-32.88 0-49.32 0-1.42.45-1.9 1.82-1.9 7.92-.02 15.84-.1 23.76 0 5.94.08 8.94 3.22 9.15 9.37.1 2.8.05 5.6 0 8.4-.03 3.3-1.9 5.38-4.9 6.84m-15.17 17.62c1.82 0 3.57.05 5.32-.05.32-.02.85-.62.86-.96.07-3.03.05-6.07.03-9.1 0-.78-.34-1.34-1.2-1.3-1.67.04-3.33.14-5 .22v11.2zm-.02-22.08c1.62 0 3.13 0 4.64 0 .76 0 1.2-.42 1.2-1.18.04-2.4.06-4.78 0-7.17 0-.32-.44-.88-.7-.9-1.7-.07-3.4-.03-5.14-.03v9.27zM151.48 387.65c1.66 3.6 3.3 7.2 4.93 10.78 1.22 2.64 2.44 5.3 3.64 7.94.85 1.87.36 2.62-1.67 2.63-3.76 0-7.52-.03-11.28.02-1.37 0-2.15-.56-2.62-1.8-1.9-5.1-3.85-10.16-5.78-15.23-.16-.44-.34-.87-.74-1.25v1.12c0 5 0 10 0 15 0 1.7-.42 2.12-2.12 2.13-3.48 0-6.96 0-10.44 0-1.63 0-2.04-.44-2.04-2.1 0-16.3 0-32.62 0-48.94 0-1.56.4-2.07 1.8-2.07 8.24-.03 16.48-.1 24.72 0 5.44.1 8.56 2.93 8.84 8.37.27 5.26.17 10.55 0 15.82-.14 4.03-3.08 7.2-6.83 7.4-.12 0-.22.07-.42.15m-13.46-8.98c1.8 0 3.55.05 5.3-.04.32-.02.87-.62.88-.96.07-3.15.06-6.3 0-9.45 0-.33-.5-.92-.77-.93-1.78-.1-3.57-.06-5.4-.06v11.43zM107.3 409.24c-6.18 0-12.34 0-18.5 0-5.9-.4-8.88-3.57-8.88-9.53 0-13.83 0-27.66 0-41.5 0-1.96.35-2.32 2.28-2.32 3.4 0 6.8 0 10.2 0 1.7 0 2.12.43 2.12 2.13 0 12.72 0 25.44 0 38.15 0 1.73 0 1.73 1.74 1.73 1.3 0 2.64-.04 3.95 0 1 .05 1.34-.34 1.33-1.32-.03-4.32 0-8.64 0-12.96 0-8.5 0-17.03 0-25.55 0-1.77.38-2.16 2.17-2.17 3.44 0 6.88 0 10.32 0 1.67 0 2.1.45 2.1 2.16 0 13.95 0 27.9 0 41.86 0 5.74-3.12 9-8.83 9.34" class="st1"/><path d="M318.9 399.18c-2.73.14-5.28.27-7.93.4-.3 2.1-.6 4.14-.9 6.18-.07.55-.14 1.1-.23 1.66-.18 1-.78 1.56-1.8 1.57-3.73 0-7.45 0-11.17-.02-1.28-.02-1.65-.6-1.4-2.04.8-4.45 1.63-8.88 2.44-13.32 2.07-11.2 4.13-22.4 6.18-33.58.16-.86.32-1.73.5-2.6.18-1 .77-1.54 1.8-1.54 5.73 0 11.44-.02 17.16 0 1.16 0 1.7.73 1.9 1.8 1.74 9.58 3.5 19.17 5.26 28.75 1.24 6.8 2.48 13.6 3.72 20.4.3 1.63-.1 2.14-1.73 2.14-3.5 0-6.97 0-10.45 0-1.5 0-1.98-.4-2.22-1.94-.4-2.6-.75-5.2-1.13-7.88m-1.43-10.7c-.83-6.02-1.64-11.9-2.45-17.78-.04 0-.08 0-.12 0-.8 5.9-1.63 11.8-2.46 17.78h5.03z" class="st1"/><path d="M214.36 367.96v1.56c0 12.4 0 24.8 0 37.2 0 1.98-.3 2.28-2.3 2.28-3.36 0-6.72 0-10.08 0-1.8 0-2.18-.4-2.18-2.2 0-12.4 0-24.8 0-37.2v-1.64c-2.6 0-5.1 0-7.56 0-2 0-2.28-.3-2.28-2.3 0-2.6 0-5.2 0-7.8 0-1.56.38-1.97 1.88-1.97 10.16-.02 20.32-.02 30.48 0 1.5 0 1.94.43 1.95 1.92.02 2.72.02 5.44 0 8.16-.02 1.57-.44 1.97-2.04 1.98-2.55 0-5.1 0-7.87 0M168.13 397.64v-30.4c-.85 0-1.64 0-2.43-.02-1-.03-1.54-.57-1.54-1.6 0-2.7-.02-5.43 0-8.14.02-1.2.56-1.6 2.03-1.6 5.7 0 11.43 0 17.14 0 .64 0 1.28 0 1.92.02.95.05 1.5.56 1.5 1.52 0 2.76 0 5.52 0 8.28-.02 1.03-.6 1.5-1.6 1.53-.76.02-1.5 0-2.33 0v30.43c.86 0 1.65-.02 2.43 0 .96.04 1.5.56 1.5 1.52 0 2.76 0 5.52 0 8.27-.02 1.04-.6 1.54-1.6 1.54-6.48 0-12.96 0-19.44-.02-1.08 0-1.57-.62-1.56-1.7 0-2.58 0-5.18 0-7.78 0-1.4.45-1.82 1.9-1.86.66 0 1.33 0 2.07 0" class="st0"/><path d="M246.2 397.66c.85 0 1.64-.03 2.43 0 .96.04 1.48.57 1.48 1.53.02 2.75.03 5.5 0 8.26 0 1.2-.78 1.54-1.84 1.54-3.4 0-6.8 0-10.2 0-2.87 0-5.75 0-8.63 0-1.5-.02-1.9-.45-1.9-1.96-.02-2.47-.02-4.95 0-7.43 0-1.5.4-1.93 1.9-1.96.66 0 1.33 0 2.06 0v-30.4c-.74 0-1.48.02-2.2 0-1.3-.05-1.77-.5-1.78-1.74 0-2.64 0-5.28 0-7.92 0-1.18.48-1.7 1.68-1.7 6.4 0 12.8 0 19.2 0 1.25 0 1.7.5 1.7 1.8.03 2.55.03 5.1 0 7.66 0 1.44-.42 1.86-1.84 1.9-.67 0-1.34 0-2.07 0v30.42z" class="st0"/><path d="M124.9 323.76c.7 0 1.36 0 2.03 0 1.8 0 1.8 0 1.82 1.87 0 1.2-.02 2.4 0 3.58 0 .9-.34 1.34-1.28 1.3-.83-.05-1.66-.02-2.58-.02v-6.72z" class="st2"/><path d="M-13.57-16.92h397.2v443.28h-397.2z" class="st4"/></svg>