<?xml version="1.0" encoding="utf-8"?>
<!-- Generator: Adobe Illustrator 19.2.1, SVG Export Plug-In . SVG Version: 6.00 Build 0)  -->
<svg version="1.1"
	 id="svg2" xmlns:cc="http://creativecommons.org/ns#" xmlns:dc="http://purl.org/dc/elements/1.1/" xmlns:rdf="http://www.w3.org/1999/02/22-rdf-syntax-ns#" xmlns:svg="http://www.w3.org/2000/svg"
	 xmlns="http://www.w3.org/2000/svg" xmlns:xlink="http://www.w3.org/1999/xlink" x="0px" y="0px" viewBox="0 0 266.7 80"
	 style="enable-background:new 0 0 266.7 80;" xml:space="preserve">
<style type="text/css">
	.st0{clip-path:url(#SVGID_2_);}
	.st1{fill:#5B5B5B;}
</style>
<g id="g10" transform="matrix(1.3333333,0,0,-1.3333333,0,80)">
	<g id="g12">
		<g>
			<defs>
				<rect id="SVGID_1_" x="-33.3" y="-10" width="266.7" height="80"/>
			</defs>
			<clipPath id="SVGID_2_">
				<use xlink:href="#SVGID_1_"  style="overflow:visible;"/>
			</clipPath>
			<g id="g14" class="st0">
				<g id="g20" transform="translate(39.934,48.2342)">
					<path id="path22" class="st1" d="M0,0l-4.4-34.7c0-0.3-0.1-0.5-0.3-0.6c-0.2-0.1-0.4-0.2-0.7-0.2h-10.1c-0.3,0-0.5,0.1-0.7,0.2
						c-0.2,0.1-0.3,0.3-0.3,0.6l-1.1,11.5c-0.2,1.5-0.3,3.2-0.5,4.9s-0.3,3.3-0.5,4.8c-0.2,1.7-0.3,3.4-0.5,5.1h-0.1
						c-0.2-1.7-0.3-3.4-0.5-5.1c-0.2-1.5-0.3-3.1-0.5-4.8c-0.2-1.7-0.3-3.3-0.4-4.9l-1.1-11.5c0-0.3-0.1-0.5-0.3-0.6
						c-0.2-0.1-0.4-0.2-0.7-0.2h-10.1c-0.3,0-0.5,0.1-0.7,0.2c-0.2,0.1-0.3,0.3-0.3,0.6L-38.3,0c-0.1,0.5,0.2,0.8,0.7,0.8h7.3
						c0.6,0,0.9-0.3,0.9-0.8l1-11.5c0.1-1.5,0.3-3.2,0.4-5s0.3-3.4,0.4-5l0.4-5.4h0.1c0.2,1.8,0.4,3.6,0.6,5.4
						c0.2,1.5,0.3,3.2,0.5,5c0.2,1.8,0.4,3.4,0.5,5L-24.1,0c0,0.5,0.3,0.8,0.9,0.8h8.1c0.6,0,0.9-0.3,0.9-0.8l1.4-11.5
						c0.2-1.5,0.3-3.2,0.5-5c0.2-1.8,0.4-3.4,0.5-5c0.2-1.8,0.4-3.6,0.6-5.4h0.1l0.4,5.4c0.1,1.5,0.2,3.2,0.4,5
						c0.1,1.8,0.3,3.4,0.5,5l1,11.5c0,0.5,0.3,0.8,0.9,0.8h7.3C-0.2,0.8,0,0.5,0,0"/>
				</g>
				<g id="g24" transform="translate(116.9872,21.5023)">
					<path id="path26" class="st1" d="M0,0c0-0.2-0.1-0.3-0.3-0.3l-4.1-0.1H-6c-1,0-1.7,0.2-2.2,0.6C-8.7,0.6-9,1.2-9,2v9.3
						c0,0.8,0.3,1.5,0.8,1.9c0.5,0.4,1.2,0.6,2.2,0.6h1.6l4.1-0.1c0.2,0,0.3-0.1,0.3-0.3V11c0-0.2-0.1-0.3-0.3-0.3h-4.1
						c-0.1,0-0.2,0-0.2-0.1c-0.1-0.1-0.1-0.1-0.1-0.2V2.9c0-0.1,0-0.1,0.1-0.2c0.1-0.1,0.1-0.1,0.2-0.1h4.1C-0.1,2.6,0,2.5,0,2.3V0z
						"/>
				</g>
				<g id="g28" transform="translate(130.1683,23.4414)">
					<path id="path30" class="st1" d="M0,0c0-0.8-0.2-1.3-0.7-1.8c-0.5-0.4-1.1-0.6-2-0.6h-5.5c-0.9,0-1.5,0.2-2,0.6
						c-0.5,0.4-0.7,1-0.7,1.8v11.5c0,0.2,0.1,0.3,0.3,0.3H-7c0.2,0,0.3-0.1,0.3-0.3V0.8c0-0.1,0-0.1,0.1-0.2s0.1-0.1,0.2-0.1h1.8
						c0.1,0,0.2,0,0.2,0.1c0.1,0.1,0.1,0.1,0.1,0.2v10.7c0,0.2,0.1,0.3,0.3,0.3h3.5c0.2,0,0.3-0.1,0.3-0.3V0z"/>
				</g>
				<g id="g32" transform="translate(139.3724,32.1272)">
					<path id="path34" class="st1" d="M0,0c0,0.1,0,0.1-0.1,0.2c-0.1,0.1-0.1,0.1-0.2,0.1h-1.9v-3.4h1.9c0.1,0,0.2,0,0.2,0.1
						C0-2.9,0-2.8,0-2.8V0z M4.7-10.6c0.1-0.1,0.1-0.2,0-0.3S4.6-11,4.4-11H0.6c-0.1,0-0.2,0-0.3,0.1s-0.1,0.1-0.2,0.2l-2.3,5.3h0
						v-5.3c0-0.2-0.1-0.3-0.3-0.3h-3.5c-0.2,0-0.3,0.1-0.3,0.3V2.8c0,0.2,0.1,0.3,0.3,0.3h7.6c0.9,0,1.5-0.2,2-0.6
						C4,2,4.2,1.4,4.2,0.7V-3c0-0.6-0.2-1.1-0.6-1.5C3.2-5,2.7-5.2,2-5.2H1.8L4.7-10.6z"/>
				</g>
				<g id="g36" transform="translate(152.44,21.4431)">
					<path id="path38" class="st1" d="M0,0c0-0.2-0.1-0.3-0.3-0.3h-6c-0.2,0-0.3,0.1-0.3,0.3v2.2c0,0.2,0.1,0.3,0.3,0.3h0.9V11h-0.9
						c-0.2,0-0.3,0.1-0.3,0.3v2.2c0,0.2,0.1,0.3,0.3,0.3h6c0.2,0,0.3-0.1,0.3-0.3v-2.2C0,11.1-0.1,11-0.3,11h-0.9V2.5h0.9
						C-0.1,2.5,0,2.4,0,2.2V0z"/>
				</g>
				<g id="g40" transform="translate(164.2576,32.5228)">
					<path id="path42" class="st1" d="M0,0c0-0.2-0.1-0.3-0.3-0.3h-2.7v-10.8c0-0.2-0.1-0.3-0.3-0.3h-3.5c-0.2,0-0.3,0.1-0.3,0.3
						v10.8H-10c-0.2,0-0.3,0.1-0.3,0.3v2.4c0,0.2,0.1,0.3,0.3,0.3h9.7C-0.1,2.7,0,2.6,0,2.4V0z"/>
				</g>
				<g id="g44" transform="translate(172.439,21.4431)">
					<path id="path46" class="st1" d="M0,0c0-0.2-0.1-0.3-0.3-0.3h-6c-0.2,0-0.3,0.1-0.3,0.3v2.2c0,0.2,0.1,0.3,0.3,0.3h0.9V11h-0.9
						c-0.2,0-0.3,0.1-0.3,0.3v2.2c0,0.2,0.1,0.3,0.3,0.3h6c0.2,0,0.3-0.1,0.3-0.3v-2.2C0,11.1-0.1,11-0.3,11h-0.9V2.5h0.9
						C-0.1,2.5,0,2.4,0,2.2V0z"/>
				</g>
				<g id="g48" transform="translate(181.1884,26.6466)">
					<path id="path50" class="st1" d="M0,0c0,0.2,0,0.3-0.1,0.4c-0.1,0.1-0.2,0.1-0.4,0.1l-1.7-0.1v-3.3h1.9c0.1,0,0.2,0,0.2,0.1
						C0-2.7,0-2.6,0-2.5V0z M-0.1,5.6c0,0.1,0,0.1-0.1,0.2c-0.1,0.1-0.1,0.1-0.2,0.1h-1.8V3.1h1.6c0.4,0,0.6,0.2,0.6,0.5L-0.1,5.6z
						 M4.2-3.1c0-0.8-0.2-1.3-0.7-1.8C3-5.3,2.3-5.5,1.5-5.5h-7.6c-0.2,0-0.3,0.1-0.3,0.3V8.3c0,0.2,0.1,0.3,0.3,0.3h7.4
						c0.9,0,1.5-0.2,2-0.6C3.7,7.5,4,6.9,4,6.2V3.8c0-0.3-0.1-0.5-0.2-0.7C3.7,2.9,3.5,2.7,3.3,2.6C3.1,2.4,2.8,2.3,2.5,2.2
						C2.3,2.1,2,2,1.7,2v0C2.4,2,3,1.8,3.5,1.5S4.2,0.6,4.2,0V-3.1z"/>
				</g>
				<g id="g52" transform="translate(194.0969,26.3895)">
					<path id="path54" class="st1" d="M0,0l-0.2,1.1c-0.1,0.5-0.2,1-0.3,1.6c-0.1,0.6-0.2,1.1-0.2,1.7C-0.8,5-0.9,5.6-1,6.2l0,0
						C-1.1,5.6-1.2,5-1.2,4.4c-0.1-0.5-0.2-1.1-0.3-1.7c-0.1-0.6-0.2-1.1-0.3-1.6L-2,0H0z M4.9-4.9c0-0.2-0.1-0.3-0.3-0.3H1.2
						C1-5.2,0.8-5.1,0.8-4.9L0.4-2.6l-2.7-0.1l-0.4-2.3c0-0.2-0.2-0.3-0.4-0.3h-3.5c-0.2,0-0.3,0.1-0.3,0.3L-4,8.5
						C-4,8.6-4,8.7-3.9,8.7c0.1,0,0.2,0.1,0.3,0.1h5.2c0.3,0,0.4-0.1,0.5-0.3L4.9-4.9z"/>
				</g>
				<g id="g56" transform="translate(44.3862,34.8087)">
					<path id="path58" class="st1" d="M0,0h1.9l2.7-10.4h0.1L7.3,0h1.9l2.7-10.5H12L14.6,0h1.9l-3.6-13.6H11L8.3-3.1H8.2L5.6-13.6
						H3.7L0,0z"/>
				</g>
				<g id="g60" transform="translate(64.4084,40.0834)">
					<path id="path62" class="st1" d="M0,0v-7.1h0.1C0.6-6.5,1.2-6,1.9-5.6C2.5-5.2,3.3-5,4-5c0.5,0,1-0.1,1.5-0.2
						C6-5.4,6.4-5.6,6.7-5.9c0.4-0.3,0.7-0.7,0.9-1.2S7.9-8.3,7.9-9v-9.9H6.1V-9c0,0.9-0.2,1.5-0.6,1.9C5.1-6.8,4.5-6.6,3.9-6.6
						c-0.3,0-0.7-0.1-1.1-0.2C2.4-7,2.1-7.1,1.7-7.3C1.4-7.5,1.1-7.7,0.8-8C0.5-8.2,0.2-8.5,0-8.7v-10.2h-1.9V0H0z"/>
				</g>
				<g id="g64" transform="translate(83.4194,29.2728)">
					<path id="path66" class="st1" d="M0,0c0,1.3-0.3,2.3-0.8,3s-1.4,1.1-2.4,1.1c-1.1,0-2-0.4-2.6-1.1c-0.6-0.8-0.9-1.8-1-3H0z
						 M2.3-5.1C2.1-5.5,1.8-5.9,1.5-6.3c-0.3-0.4-0.6-0.7-1-1C0.1-7.6-0.4-7.8-0.9-8c-0.6-0.2-1.2-0.3-2-0.3s-1.5,0.1-2.2,0.4
						C-5.8-7.6-6.4-7.2-7-6.6c-0.5,0.6-1,1.3-1.3,2.2c-0.3,0.9-0.5,1.9-0.5,3.2c0,1.1,0.1,2.1,0.4,3c0.3,0.9,0.6,1.6,1.1,2.2
						C-6.8,4.5-6.2,5-5.5,5.3c0.7,0.3,1.4,0.5,2.3,0.5c0.7,0,1.3-0.1,2-0.4c0.6-0.2,1.2-0.6,1.6-1.1s0.8-1.1,1.1-1.9
						c0.3-0.8,0.4-1.7,0.4-2.8v-1.3h-8.8c0-0.7,0.1-1.4,0.3-2.1c0.2-0.6,0.5-1.1,0.9-1.6c0.4-0.4,0.8-0.8,1.3-1
						c0.5-0.3,1-0.4,1.6-0.4c0.8,0,1.6,0.2,2.2,0.6c0.6,0.4,1.1,1,1.5,1.7L2.3-5.1z"/>
				</g>
				<g id="g68" transform="translate(87.3615,34.8087)">
					<path id="path70" class="st1" d="M0,0h1.9v-2.7h0.1c0.3,0.5,0.5,0.9,0.8,1.2C3-1.1,3.3-0.8,3.7-0.5C4-0.3,4.4-0.1,4.8,0
						s0.9,0.2,1.5,0.2v-1.9c-1.2,0-2.1-0.4-2.8-1.2C2.9-3.6,2.3-4.6,1.9-6.1v-7.5H0V0z"/>
				</g>
				<g id="g72" transform="translate(102.9486,29.2728)">
					<path id="path74" class="st1" d="M0,0c0,1.3-0.3,2.3-0.8,3s-1.4,1.1-2.4,1.1c-1.1,0-2-0.4-2.6-1.1c-0.6-0.8-0.9-1.8-1-3H0z
						 M2.3-5.1C2.1-5.5,1.8-5.9,1.5-6.3c-0.3-0.4-0.6-0.7-1-1C0.1-7.6-0.4-7.8-0.9-8c-0.6-0.2-1.2-0.3-2-0.3s-1.5,0.1-2.2,0.4
						C-5.8-7.6-6.4-7.2-7-6.6c-0.5,0.6-1,1.3-1.3,2.2c-0.3,0.9-0.5,1.9-0.5,3.2c0,1.1,0.1,2.1,0.4,3c0.3,0.9,0.6,1.6,1.1,2.2
						C-6.8,4.5-6.2,5-5.5,5.3s1.4,0.5,2.3,0.5c0.7,0,1.3-0.1,2-0.4c0.6-0.2,1.2-0.6,1.6-1.1s0.8-1.1,1.1-1.9
						c0.3-0.8,0.4-1.7,0.4-2.8v-1.3h-8.8c0-0.7,0.1-1.4,0.3-2.1c0.2-0.6,0.5-1.1,0.9-1.6c0.4-0.4,0.8-0.8,1.3-1
						c0.5-0.3,1-0.4,1.6-0.4c0.8,0,1.6,0.2,2.2,0.6c0.6,0.4,1.1,1,1.5,1.7L2.3-5.1z"/>
				</g>
			</g>
		</g>
	</g>
</g>
</svg>
