<?xml version="1.0" encoding="UTF-8" standalone="no"?>
<svg
   xmlns:dc="http://purl.org/dc/elements/1.1/"
   xmlns:cc="http://creativecommons.org/ns#"
   xmlns:rdf="http://www.w3.org/1999/02/22-rdf-syntax-ns#"
   xmlns:svg="http://www.w3.org/2000/svg"
   xmlns="http://www.w3.org/2000/svg"
   viewBox="0 0 266.66666 80"
   height="80"
   width="266.66666"
   xml:space="preserve"
   id="svg2"
   version="1.1"><metadata
     id="metadata8"><rdf:RDF><cc:Work
         rdf:about=""><dc:format>image/svg+xml</dc:format><dc:type
           rdf:resource="http://purl.org/dc/dcmitype/StillImage" /></cc:Work></rdf:RDF></metadata><defs
     id="defs6"><clipPath
       id="clipPath18"
       clipPathUnits="userSpaceOnUse"><path
         id="path16"
         d="M 0,60 H 200 V 0 H 0 Z" /></clipPath></defs><g
     transform="matrix(1.3333333,0,0,-1.3333333,0,80)"
     id="g10"><g
       id="g12"><g
         clip-path="url(#clipPath18)"
         id="g14"><g
           transform="translate(39.934,48.2342)"
           id="g20"><path
             id="path22"
             style="fill:#ff8000;fill-opacity:1;fill-rule:nonzero;stroke:none"
             d="m 0,0 -4.442,-34.718 c -0.034,-0.273 -0.145,-0.469 -0.332,-0.587 -0.187,-0.12 -0.417,-0.179 -0.689,-0.179 h -10.109 c -0.273,0 -0.503,0.051 -0.689,0.153 -0.188,0.102 -0.299,0.306 -0.332,0.613 l -1.072,11.487 c -0.171,1.532 -0.324,3.157 -0.46,4.876 -0.136,1.719 -0.29,3.327 -0.459,4.825 -0.171,1.702 -0.341,3.403 -0.511,5.106 h -0.102 c -0.171,-1.703 -0.341,-3.404 -0.511,-5.106 -0.17,-1.498 -0.331,-3.106 -0.485,-4.825 -0.153,-1.719 -0.298,-3.344 -0.434,-4.876 l -1.072,-11.487 c -0.034,-0.307 -0.145,-0.511 -0.332,-0.613 -0.187,-0.102 -0.417,-0.153 -0.689,-0.153 h -10.109 c -0.273,0 -0.503,0.059 -0.689,0.179 -0.188,0.118 -0.299,0.314 -0.332,0.587 L -38.292,0 c -0.069,0.511 0.153,0.766 0.664,0.766 h 7.301 c 0.578,0 0.884,-0.255 0.919,-0.766 l 1.021,-11.488 c 0.135,-1.531 0.281,-3.191 0.434,-4.978 0.153,-1.787 0.281,-3.446 0.383,-4.978 l 0.357,-5.361 h 0.102 c 0.204,1.77 0.391,3.557 0.562,5.361 0.17,1.532 0.348,3.191 0.536,4.978 0.187,1.787 0.365,3.447 0.536,4.978 L -24.099,0 c 0.034,0.511 0.34,0.766 0.919,0.766 h 8.067 c 0.579,0 0.885,-0.255 0.919,-0.766 l 1.379,-11.488 c 0.17,-1.531 0.348,-3.191 0.536,-4.978 0.187,-1.787 0.365,-3.446 0.536,-4.978 0.17,-1.804 0.358,-3.591 0.562,-5.361 h 0.102 l 0.357,5.361 c 0.102,1.532 0.221,3.191 0.358,4.978 0.135,1.787 0.288,3.447 0.459,4.978 L -8.884,0 c 0.034,0.511 0.34,0.766 0.919,0.766 h 7.301 C -0.187,0.766 0.034,0.511 0,0" /></g><g
           transform="translate(116.9872,21.5023)"
           id="g24"><path
             id="path26"
             style="fill:#ff8000;fill-opacity:1;fill-rule:nonzero;stroke:none"
             d="m 0,0 c 0,-0.198 -0.114,-0.297 -0.341,-0.297 l -4.091,-0.118 h -1.591 c -0.97,0 -1.704,0.194 -2.204,0.583 -0.5,0.389 -0.75,1.006 -0.75,1.85 v 9.299 c 0,0.844 0.25,1.461 0.75,1.85 0.5,0.389 1.234,0.584 2.204,0.584 h 1.591 l 4.091,-0.119 C -0.114,13.632 0,13.533 0,13.335 V 11.02 c 0,-0.197 -0.114,-0.296 -0.341,-0.296 h -4.091 c -0.091,0 -0.17,-0.03 -0.238,-0.089 -0.069,-0.06 -0.103,-0.129 -0.103,-0.208 V 2.909 c 0,-0.08 0.034,-0.149 0.103,-0.208 0.068,-0.06 0.147,-0.089 0.238,-0.089 h 4.091 C -0.114,2.612 0,2.513 0,2.315 Z" /></g><g
           transform="translate(130.1683,23.4414)"
           id="g28"><path
             id="path30"
             style="fill:#ff8000;fill-opacity:1;fill-rule:nonzero;stroke:none"
             d="m 0,0 c 0,-0.751 -0.238,-1.335 -0.716,-1.751 -0.477,-0.416 -1.147,-0.623 -2.011,-0.623 h -5.455 c -0.863,0 -1.533,0.207 -2.011,0.623 -0.477,0.416 -0.716,1 -0.716,1.751 v 11.456 c 0,0.197 0.114,0.296 0.341,0.296 h 3.523 c 0.227,0 0.341,-0.099 0.341,-0.296 V 0.772 c 0,-0.08 0.034,-0.149 0.102,-0.208 0.068,-0.059 0.147,-0.089 0.239,-0.089 h 1.817 c 0.092,0 0.171,0.03 0.24,0.089 0.067,0.059 0.102,0.128 0.102,0.208 v 10.684 c 0,0.197 0.113,0.296 0.341,0.296 h 3.522 C -0.113,11.752 0,11.653 0,11.456 Z" /></g><g
           transform="translate(139.3724,32.1272)"
           id="g32"><path
             id="path34"
             style="fill:#ff8000;fill-opacity:1;fill-rule:nonzero;stroke:none"
             d="M 0,0 C 0,0.079 -0.034,0.148 -0.102,0.208 -0.17,0.267 -0.25,0.297 -0.341,0.297 h -1.931 v -3.364 h 1.931 c 0.091,0 0.171,0.03 0.239,0.089 C -0.034,-2.918 0,-2.849 0,-2.77 Z m 4.659,-10.585 c 0.06,-0.105 0.072,-0.198 0.034,-0.277 -0.038,-0.079 -0.125,-0.119 -0.261,-0.119 H 0.568 c -0.106,0 -0.201,0.03 -0.284,0.089 -0.083,0.059 -0.14,0.129 -0.17,0.208 l -2.341,5.342 h -0.045 v -5.342 c 0,-0.198 -0.114,-0.297 -0.342,-0.297 h -3.522 c -0.227,0 -0.341,0.099 -0.341,0.297 V 2.77 c 0,0.198 0.114,0.297 0.341,0.297 H 1.477 C 2.341,3.067 3.011,2.859 3.489,2.443 3.966,2.028 4.205,1.444 4.205,0.692 V -3.027 C 4.205,-3.647 4.003,-4.162 3.602,-4.57 3.201,-4.979 2.659,-5.184 1.977,-5.184 H 1.818 Z" /></g><g
           transform="translate(152.44,21.4431)"
           id="g36"><path
             id="path38"
             style="fill:#ff8000;fill-opacity:1;fill-rule:nonzero;stroke:none"
             d="m 0,0 c 0,-0.198 -0.113,-0.297 -0.341,-0.297 h -6.022 c -0.228,0 -0.341,0.099 -0.341,0.297 v 2.177 c 0,0.197 0.113,0.296 0.341,0.296 h 0.909 v 8.508 h -0.909 c -0.228,0 -0.341,0.099 -0.341,0.297 v 2.176 c 0,0.198 0.113,0.297 0.341,0.297 h 6.022 C -0.113,13.751 0,13.652 0,13.454 V 11.278 C 0,11.08 -0.113,10.981 -0.341,10.981 H -1.25 V 2.473 h 0.909 C -0.113,2.473 0,2.374 0,2.177 Z" /></g><g
           transform="translate(164.2576,32.5228)"
           id="g40"><path
             id="path42"
             style="fill:#ff8000;fill-opacity:1;fill-rule:nonzero;stroke:none"
             d="M 0,0 C 0,-0.198 -0.113,-0.297 -0.341,-0.297 H -3.068 V -11.08 c 0,-0.197 -0.114,-0.297 -0.341,-0.297 h -3.522 c -0.228,0 -0.341,0.1 -0.341,0.297 v 10.783 h -2.727 c -0.228,0 -0.342,0.099 -0.342,0.297 v 2.374 c 0,0.198 0.114,0.297 0.342,0.297 h 9.658 C -0.113,2.671 0,2.572 0,2.374 Z" /></g><g
           transform="translate(172.439,21.4431)"
           id="g44"><path
             id="path46"
             style="fill:#ff8000;fill-opacity:1;fill-rule:nonzero;stroke:none"
             d="m 0,0 c 0,-0.198 -0.113,-0.297 -0.341,-0.297 h -6.022 c -0.228,0 -0.341,0.099 -0.341,0.297 v 2.177 c 0,0.197 0.113,0.296 0.341,0.296 h 0.909 v 8.508 h -0.909 c -0.228,0 -0.341,0.099 -0.341,0.297 v 2.176 c 0,0.198 0.113,0.297 0.341,0.297 h 6.022 C -0.113,13.751 0,13.652 0,13.454 V 11.278 C 0,11.08 -0.113,10.981 -0.341,10.981 H -1.25 V 2.473 h 0.909 C -0.113,2.473 0,2.374 0,2.177 Z" /></g><g
           transform="translate(181.1884,26.6466)"
           id="g48"><path
             id="path50"
             style="fill:#ff8000;fill-opacity:1;fill-rule:nonzero;stroke:none"
             d="m 0,0 c 0,0.158 -0.049,0.284 -0.148,0.376 -0.098,0.092 -0.238,0.132 -0.42,0.119 l -1.704,-0.06 v -3.264 h 1.931 c 0.091,0 0.171,0.029 0.239,0.089 C -0.034,-2.681 0,-2.611 0,-2.532 Z m -0.113,5.579 c 0,0.08 -0.035,0.149 -0.103,0.208 -0.068,0.06 -0.148,0.089 -0.238,0.089 h -1.818 v -2.77 h 1.59 c 0.379,0 0.569,0.165 0.569,0.495 z M 4.205,-3.126 C 4.205,-3.878 3.966,-4.461 3.489,-4.877 3.011,-5.293 2.341,-5.5 1.477,-5.5 h -7.613 c -0.227,0 -0.341,0.099 -0.341,0.297 V 8.25 c 0,0.198 0.114,0.297 0.341,0.297 H 1.25 C 2.114,8.547 2.784,8.339 3.261,7.924 3.739,7.509 3.977,6.925 3.977,6.173 V 3.799 C 3.977,3.548 3.913,3.317 3.784,3.106 3.655,2.895 3.485,2.711 3.273,2.552 3.06,2.394 2.818,2.268 2.545,2.176 2.273,2.084 1.992,2.038 1.705,2.038 V 1.998 C 2.401,1.998 2.992,1.82 3.477,1.464 3.962,1.108 4.205,0.633 4.205,0.04 Z" /></g><g
           transform="translate(194.0969,26.3895)"
           id="g52"><path
             id="path54"
             style="fill:#ff8000;fill-opacity:1;fill-rule:nonzero;stroke:none"
             d="m 0,0 -0.182,1.088 c -0.091,0.501 -0.182,1.045 -0.273,1.632 -0.09,0.587 -0.174,1.144 -0.249,1.672 -0.091,0.607 -0.175,1.22 -0.251,1.84 L -1,6.232 C -1.076,5.612 -1.159,4.999 -1.25,4.392 -1.326,3.864 -1.413,3.307 -1.511,2.72 -1.61,2.133 -1.697,1.589 -1.772,1.088 L -1.954,0 Z M 4.932,-4.946 C 4.977,-5.144 4.878,-5.243 4.636,-5.243 H 1.182 c -0.227,0 -0.364,0.099 -0.409,0.297 l -0.387,2.374 -2.749,-0.119 -0.364,-2.255 c -0.046,-0.198 -0.182,-0.297 -0.409,-0.297 h -3.455 c -0.242,0 -0.341,0.099 -0.295,0.297 l 2.841,13.454 c 0.03,0.118 0.083,0.197 0.159,0.237 0.076,0.04 0.174,0.059 0.295,0.059 h 5.227 c 0.258,0 0.409,-0.099 0.455,-0.296 z" /></g><g
           transform="translate(44.3862,34.8087)"
           id="g56"><path
             id="path58"
             style="fill:#6c6e7c;fill-opacity:1;fill-rule:nonzero;stroke:none"
             d="M 0,0 H 1.893 L 4.617,-10.445 H 4.668 L 7.314,0 h 1.893 l 2.697,-10.497 h 0.052 L 14.576,0 h 1.893 L 12.864,-13.579 H 10.971 L 8.273,-3.081 H 8.222 L 5.55,-13.579 H 3.657 Z" /></g><g
           transform="translate(64.4084,40.0834)"
           id="g60"><path
             id="path62"
             style="fill:#6c6e7c;fill-opacity:1;fill-rule:nonzero;stroke:none"
             d="m 0,0 v -7.103 h 0.052 c 0.536,0.61 1.141,1.11 1.815,1.502 0.675,0.392 1.401,0.587 2.179,0.587 0.501,0 0.986,-0.069 1.452,-0.209 0.467,-0.139 0.882,-0.365 1.245,-0.679 0.363,-0.313 0.653,-0.722 0.869,-1.227 0.216,-0.505 0.324,-1.123 0.324,-1.854 v -9.87 H 6.069 v 9.818 c 0,0.905 -0.199,1.532 -0.596,1.88 -0.399,0.348 -0.934,0.522 -1.609,0.522 -0.346,0 -0.704,-0.065 -1.076,-0.195 C 2.416,-6.959 2.062,-7.125 1.725,-7.325 1.388,-7.525 1.067,-7.747 0.765,-7.99 0.462,-8.235 0.208,-8.47 0,-8.696 V -18.853 H -1.867 V 0 Z" /></g><g
           transform="translate(83.4194,29.2728)"
           id="g64"><path
             id="path66"
             style="fill:#6c6e7c;fill-opacity:1;fill-rule:nonzero;stroke:none"
             d="m 0,0 c 0,1.253 -0.281,2.263 -0.843,3.029 -0.562,0.766 -1.353,1.149 -2.373,1.149 -1.141,0 -2.01,-0.383 -2.607,-1.149 C -6.419,2.263 -6.761,1.253 -6.847,0 Z M 2.282,-5.144 C 2.057,-5.527 1.807,-5.906 1.53,-6.28 1.253,-6.655 0.912,-6.994 0.506,-7.298 0.099,-7.603 -0.381,-7.847 -0.934,-8.03 c -0.553,-0.183 -1.21,-0.274 -1.971,-0.274 -0.761,0 -1.491,0.135 -2.191,0.405 -0.701,0.269 -1.323,0.692 -1.868,1.267 -0.544,0.574 -0.981,1.305 -1.31,2.193 -0.328,0.888 -0.492,1.949 -0.492,3.186 0,1.096 0.129,2.08 0.389,2.95 0.259,0.871 0.631,1.61 1.115,2.22 0.484,0.609 1.063,1.075 1.738,1.397 0.674,0.322 1.426,0.483 2.256,0.483 0.691,0 1.349,-0.117 1.971,-0.352 C -0.674,5.209 -0.13,4.844 0.337,4.348 0.804,3.852 1.176,3.212 1.452,2.428 1.729,1.645 1.867,0.714 1.867,-0.366 v -1.253 h -8.766 c 0,-0.749 0.104,-1.432 0.311,-2.05 0.208,-0.618 0.493,-1.149 0.856,-1.593 0.363,-0.444 0.787,-0.792 1.271,-1.044 0.484,-0.253 1.003,-0.379 1.556,-0.379 0.83,0 1.56,0.205 2.192,0.614 0.631,0.409 1.145,0.97 1.543,1.684 z" /></g><g
           transform="translate(87.3615,34.8087)"
           id="g68"><path
             id="path70"
             style="fill:#6c6e7c;fill-opacity:1;fill-rule:nonzero;stroke:none"
             d="m 0,0 h 1.868 v -2.69 h 0.051 c 0.26,0.47 0.528,0.884 0.804,1.241 0.277,0.356 0.588,0.657 0.934,0.901 0.346,0.243 0.735,0.43 1.167,0.561 0.432,0.131 0.925,0.196 1.478,0.196 v -1.88 C 5.127,-1.706 4.206,-2.094 3.54,-2.833 2.875,-3.573 2.317,-4.648 1.868,-6.058 v -7.521 H 0 Z" /></g><g
           transform="translate(102.9486,29.2728)"
           id="g72"><path
             id="path74"
             style="fill:#6c6e7c;fill-opacity:1;fill-rule:nonzero;stroke:none"
             d="m 0,0 c 0,1.253 -0.281,2.263 -0.843,3.029 -0.562,0.766 -1.353,1.149 -2.373,1.149 -1.141,0 -2.01,-0.383 -2.606,-1.149 C -6.419,2.263 -6.76,1.253 -6.847,0 Z M 2.282,-5.144 C 2.058,-5.527 1.807,-5.906 1.531,-6.28 1.254,-6.655 0.912,-6.994 0.506,-7.298 0.1,-7.603 -0.38,-7.847 -0.934,-8.03 c -0.553,-0.183 -1.21,-0.274 -1.971,-0.274 -0.761,0 -1.491,0.135 -2.191,0.405 -0.701,0.269 -1.323,0.692 -1.867,1.267 -0.545,0.574 -0.982,1.305 -1.31,2.193 -0.329,0.888 -0.493,1.949 -0.493,3.186 0,1.096 0.13,2.08 0.389,2.95 0.259,0.871 0.631,1.61 1.115,2.22 0.484,0.609 1.064,1.075 1.738,1.397 0.674,0.322 1.426,0.483 2.256,0.483 0.692,0 1.349,-0.117 1.971,-0.352 C -0.674,5.209 -0.13,4.844 0.337,4.348 0.804,3.852 1.176,3.212 1.453,2.428 1.729,1.645 1.867,0.714 1.867,-0.366 v -1.253 h -8.766 c 0,-0.749 0.104,-1.432 0.311,-2.05 0.208,-0.618 0.493,-1.149 0.856,-1.593 0.363,-0.444 0.787,-0.792 1.271,-1.044 0.484,-0.253 1.003,-0.379 1.556,-0.379 0.83,0 1.56,0.205 2.192,0.614 0.631,0.409 1.145,0.97 1.543,1.684 z" /></g></g></g></g></svg>