<svg id="Layer_1" xmlns="http://www.w3.org/2000/svg" width="94.204" height="94.204" viewBox="0 0 94.204 94.204"><style>.st0{fill:#a4a4a5}</style><path class="st0" d="M47.102 0C21.088 0 0 21.088 0 47.102s21.088 47.103 47.102 47.103 47.102-21.09 47.102-47.103S73.116 0 47.102 0zM64.06 42.277a.587.587 0 0 1-.586.585h-3.07a.586.586 0 0 1-.584-.585v-4.312c0-.322-.187-.4-.414-.172l-8.894 8.896a.586.586 0 0 0 0 .825l8.894 8.89c.228.227.414.15.414-.172v-4.31c0-.32.263-.585.585-.585h3.07c.32 0 .584.263.584.584V63.47a.59.59 0 0 1-.587.585H51.93a.587.587 0 0 1-.585-.585V60.4c0-.32.263-.584.585-.584h4.312c.32 0 .398-.186.17-.413l-8.896-8.894a.585.585 0 0 0-.827 0l-8.893 8.896c-.228.228-.15.413.17.413h4.31c.322 0 .586.263.586.584v3.07a.587.587 0 0 1-.585.584H30.73a.586.586 0 0 1-.585-.586V51.928c0-.32.263-.584.585-.584h3.07c.32 0 .584.263.584.584v4.312c0 .322.186.4.414.172l8.893-8.896a.585.585 0 0 0 0-.827l-8.89-8.896c-.228-.228-.414-.15-.414.172v4.31a.586.586 0 0 1-.585.586h-3.07a.586.586 0 0 1-.584-.585V30.73c0-.322.263-.586.585-.586h11.55a.59.59 0 0 1 .584.586v3.068a.588.588 0 0 1-.585.586h-4.314c-.322 0-.398.186-.17.413l8.894 8.894c.227.23.6.23.827 0L56.41 34.8c.228-.228.15-.413-.172-.413h-4.31a.587.587 0 0 1-.586-.586v-3.07c0-.322.263-.586.585-.586h11.548a.59.59 0 0 1 .585.586v11.547z"/></svg>