<svg xmlns="http://www.w3.org/2000/svg" width="220.137" height="66.455" viewBox="0 0 220.137 66.455"><path d="M41.335 34.203c-2.77 0-4.85 3.233-6.004 7.082L30.1 65.995H19.012l5.62-26.558c.153-.615.23-1.23.23-1.924 0-1.694-.616-3.387-2.31-3.387-3 0-5.08 3.31-6.234 7.158l-5.234 24.71H0l8.16-38.488h11.083l-.847 4.003c3.232-3.697 6.696-4.39 9.39-4.39 4.08 0 7.083 1.85 7.93 6.62 3.694-5.697 7.85-6.543 10.7-6.543 4.925 0 8.543 2.54 8.543 8.697 0 6.235-3.697 15.55-3.697 19.86 0 1.924.77 3.232 3.08 3.232 3.386 0 4.77-2.77 6.465-6.773h3.23c-4.31 12.623-10.236 14.24-14.316 14.24-6.697 0-9.083-4.312-9.083-8.698 0-5.234 3.464-14.702 3.464-19.63 0-2.537-.922-3.923-2.77-3.923z"/><path d="M97.755 27.507l-5.542 26.17c-.23 1.002-.308 1.772-.308 2.464 0 2.157 1 3.313 3.156 3.313 3.004 0 5.08-3.387 6.237-7.235h3.233c-4.39 12.546-11.316 14.24-15.473 14.24-4.31 0-7.082-2.464-7.543-7.082-2.386 3.54-6.004 7.08-11.47 7.08-5.233 0-10.237-3.23-10.237-12.392 0-10.392 6.39-26.94 19.782-26.94 4.386 0 6.233 1.693 6.233 3.925v.54l.847-4.08h11.085zM71.2 52.985c0 5.927 2.463 6.004 3.85 6.004 2.23 0 5.464-2.31 6.388-6.775l3.694-17.396c0-.925-.692-2.926-3.156-2.926-6.543 0-10.776 13.855-10.776 21.09z"/><path d="M133.93 52.216c-4.002 4.618-8.235 7.543-11.776 9.62-3.233 3.39-8.16 4.62-12.085 4.62-7.854 0-11.24-5.158-11.24-9.853 0-3.54 2-6.158 4.08-7.16 4.31-7.62 7.082-15.24 9.47-22.783l11.39-1.54c.924 19.937 1.693 22.94 1.693 28.02 0 1.077-.076 2-.308 2.925 2.078-1.232 4.08-2.617 5.542-3.85h3.232zm-28.94 3.77c-.77 0-1.694-.23-2.08-1 0 3.618 1.31 5.39 4.696 5.39s6.696-1.772 6.696-7.16c0-4.003-.692-6.39-1.462-18.242-1.54 5.003-3.695 9.62-6.235 14.548 1 .462 1.77 1.385 1.77 2.694 0 1.846-1.385 3.77-3.386 3.77z"/><path d="M163.333 52.216c-4.002 4.618-8.235 7.543-11.776 9.62-3.233 3.39-8.16 4.62-12.085 4.62-7.852 0-11.238-5.158-11.238-9.853 0-3.54 2-6.158 4.08-7.16 4.31-7.62 7.08-15.24 9.467-22.783l11.395-1.54c.924 19.937 1.693 22.94 1.693 28.02 0 1.077-.076 2-.308 2.925 2.077-1.232 4.078-2.617 5.54-3.85h3.233zm-28.942 3.77c-.77 0-1.69-.23-2.076-1 0 3.618 1.31 5.39 4.695 5.39s6.695-1.772 6.695-7.16c0-4.003-.692-6.39-1.462-18.242-1.54 5.003-3.695 9.62-6.235 14.548 1 .462 1.77 1.385 1.77 2.694 0 1.846-1.385 3.77-3.386 3.77z"/><path d="M197.046 27.507l-5.542 26.17c-.23 1.002-.31 1.772-.31 2.464 0 2.157 1.002 2.85 3.157 2.85.695 0 1.156-.076 1.695-.31-2.078 5.39-3.54 7.776-7.697 7.776s-6.928-2.693-7.543-7.158c-2.31 3.54-6.004 7.158-11.47 7.158-5.233 0-10.237-3.232-10.237-12.393 0-10.392 6.39-26.94 19.782-26.94 4.387 0 6.233 1.693 6.233 3.925v.54l.847-4.08h11.086zM170.49 52.985c0 5.927 2.464 6.004 3.85 6.004 2.23 0 5.465-2.31 6.388-6.775l3.695-17.396c0-.925-.693-2.926-3.156-2.926-6.544 0-10.777 13.855-10.777 21.09zm34.33 13.01c-3.388 0-6.158-2.77-6.158-6.16s2.77-6.08 6.157-6.08 6.08 2.694 6.08 6.08-2.695 6.16-6.08 6.16zm-1.232-17.78l5.465-36.103h11.084l-10.007 36.1h-6.542zM11.905 0c3.796 0 6.317 1.73 8.018 4.01l-2.46 1.426c-1.154-1.55-3.19-2.732-5.558-2.732-4.22 0-7.38 3.22-7.38 7.774 0 4.525 3.16 7.806 7.38 7.806 2.248 0 4.16-1.094 5.133-2.005v-3.647h-6.5V9.96h9.537v7.442c-1.944 2.156-4.738 3.584-8.17 3.584-5.8 0-10.508-4.19-10.508-10.51S6.104 0 11.905 0zm12.057.334h3.067v12.24c0 3.46 1.91 5.68 5.465 5.68s5.437-2.22 5.437-5.68V.334H41v12.3c0 5.04-2.824 8.32-8.504 8.32s-8.534-3.31-8.534-8.29V.333zm21.563 0h3.037v20.258h-3.037V.334zM65.782 16.4h-9.688l-1.64 4.19h-3.462L59.04.335h3.796l8.048 20.258h-3.462l-1.64-4.192zm-8.808-2.703H64.9L60.923 3.432l-3.948 10.265z"/></svg>