<svg id="Layer_1" xmlns="http://www.w3.org/2000/svg" width="94.204" height="94.204" viewBox="0 0 94.204 94.204"><style>.st0{fill:#a4a4a5}</style><path class="st0" d="M47.102 0C21.088 0 0 21.09 0 47.103s21.088 47.102 47.102 47.102c26.014 0 47.102-21.09 47.102-47.102C94.204 21.09 73.116 0 47.102 0zM70.54 47.793l-14.783 14.9a1.067 1.067 0 0 1-1.504.005l-3.96-3.93a1.067 1.067 0 0 1-.006-1.503l5.52-5.565c.413-.415.272-.707-.313-.704H23.357v-7.658H55.46c.586-.002.725-.432.31-.843l-5.562-5.52a1.067 1.067 0 0 1-.006-1.504l3.93-3.96a1.067 1.067 0 0 1 1.503-.005l14.9 14.783a1.07 1.07 0 0 1 .005 1.505z"/></svg>