<svg id="Layer_1" xmlns="http://www.w3.org/2000/svg" width="94.204" height="94.204" viewBox="0 0 94.204 94.204"><style>.st0{fill:#a4a4a5}</style><path class="st0" d="M47.102 0C21.088 0 0 21.09 0 47.103s21.088 47.102 47.102 47.102c26.014 0 47.102-21.09 47.102-47.102C94.204 21.09 73.116 0 47.102 0zm20.963 49.3c0 .682-.56 1.24-1.24 1.24H50.54v16.284c0 .684-.56 1.242-1.242 1.242h-4.393c-.683 0-1.24-.56-1.24-1.242V50.54H27.378c-.684 0-1.243-.56-1.243-1.24v-4.395c0-.683.56-1.24 1.242-1.24H43.66V27.38c0-.683.56-1.242 1.24-1.242h4.4c.684 0 1.242.56 1.242 1.242v16.284h16.284c.683 0 1.24.56 1.24 1.24V49.3z"/></svg>