<svg id="Layer_1" xmlns="http://www.w3.org/2000/svg" width="94.204" height="94.204" viewBox="0 0 94.204 94.204"><style>.st0{fill:#a4a4a5}</style><path class="st0" d="M47.102 94.204c26.014 0 47.102-21.09 47.102-47.103C94.204 21.09 73.116 0 47.102 0S0 21.09 0 47.102c0 26.013 21.088 47.102 47.102 47.102zM23.664 46.41l14.783-14.898a1.067 1.067 0 0 1 1.504-.006l3.96 3.93c.417.41.42 1.088.008 1.503l-5.52 5.563c-.413.415-.272.707.313.704H70.85v7.658H38.743c-.585.002-.724.432-.31.843l5.563 5.52c.415.41.418 1.088.006 1.503l-3.93 3.96a1.067 1.067 0 0 1-1.503.007l-14.9-14.784a1.07 1.07 0 0 1-.007-1.505z"/></svg>