<svg id="Layer_1" xmlns="http://www.w3.org/2000/svg" width="94.203" height="94.204" viewBox="0 0 94.203 94.204"><style>.st0{fill:#a4a4a5}</style><path class="st0" d="M47.102 0C21.088 0 0 21.09 0 47.103s21.088 47.102 47.102 47.102 47.102-21.09 47.102-47.102C94.204 21.09 73.114 0 47.102 0zm-9.614 47.103c0 .4-.04.792-.104 1.175l12.498 7.498a7.14 7.14 0 0 1 4.367-1.49 7.185 7.185 0 0 1 0 14.368 7.184 7.184 0 0 1-7.185-7.184c0-.402.04-.792.104-1.176L34.67 52.796a7.136 7.136 0 0 1-4.37 1.49 7.184 7.184 0 0 1 0-14.367c1.647 0 3.16.56 4.37 1.49l12.497-7.5a7.233 7.233 0 0 1-.105-1.176 7.184 7.184 0 1 1 7.183 7.184 7.133 7.133 0 0 1-4.368-1.492l-12.498 7.498c.063.385.104.774.104 1.177z"/></svg>