<svg id="Layer_1" xmlns="http://www.w3.org/2000/svg" width="94.204" height="94.203" viewBox="0 0 94.204 94.203"><style>.st0{fill:#a4a4a5}</style><path class="st0" d="M31.343 50.425h2.663v14.43h2.536v-14.43h2.715V48.04h-7.914zm21.357 1.75c-.846 0-1.63.457-2.36 1.37V48.04h-2.256v16.816h2.257V63.64c.764.93 1.55 1.395 2.36 1.395.914 0 1.515-.465 1.8-1.395.154-.457.23-1.303.23-2.537v-4.996c0-1.234-.075-2.07-.23-2.51-.285-.95-.886-1.422-1.8-1.422zm-.228 9.105c0 1.134-.33 1.7-.99 1.7-.39 0-.77-.187-1.14-.56v-7.634c.37-.37.75-.558 1.14-.558.66 0 .99.566.99 1.7v5.352zM46.79 39.467c.727 0 1.09-.592 1.09-1.775v-5.327c0-1.167-.363-1.75-1.09-1.75-.728 0-1.09.583-1.09 1.75v5.327c0 1.183.362 1.775 1.09 1.775zm-2.942 22.447c-.507.71-.99 1.065-1.446 1.065-.304 0-.482-.18-.533-.534-.02-.05-.027-.347-.027-.888v-9.234h-2.258v9.918c0 .828.068 1.446.203 1.852.202.626.692.938 1.47.938.812 0 1.674-.516 2.587-1.547v1.37h2.257v-12.53h-2.257v9.587z"/><path class="st0" d="M47.102 0C21.088 0 0 21.088 0 47.102s21.088 47.102 47.102 47.102c26.014 0 47.102-21.088 47.102-47.102S73.116 0 47.102 0zm4.963 28.712h2.31v9.31c0 .558.007.853.024.887.05.37.226.557.53.557.457 0 .94-.363 1.446-1.09v-9.665h2.31V41.37h-2.31v-1.396c-.896 1.05-1.768 1.573-2.613 1.573-.777 0-1.276-.313-1.496-.938-.135-.408-.203-1.04-.203-1.904V28.71zm-8.648 4.11c0-1.354.237-2.343.71-2.97.643-.86 1.53-1.293 2.664-1.293 1.17 0 2.064.43 2.69 1.292.474.626.71 1.615.71 2.968v4.44c0 1.37-.236 2.367-.71 2.992-.626.862-1.52 1.294-2.69 1.294-1.13 0-2.02-.432-2.662-1.294-.473-.643-.71-1.64-.71-2.993v-4.44zm-6.138-8.447l1.8 6.67 1.724-6.67h2.587l-3.07 10.12v6.874h-2.534v-6.876c-.237-1.25-.752-3.044-1.547-5.377a227.246 227.246 0 0 1-1.65-4.743h2.69zm28.177 41.243a4.813 4.813 0 0 1-1.47 2.51 4.436 4.436 0 0 1-2.59 1.168c-3.11.355-7.803.532-14.076.532-6.273 0-10.965-.177-14.077-.532a4.5 4.5 0 0 1-2.6-1.167 4.642 4.642 0 0 1-1.46-2.513c-.438-1.895-.66-4.854-.66-8.878 0-3.958.22-6.917.66-8.88a4.816 4.816 0 0 1 1.472-2.51 4.596 4.596 0 0 1 2.613-1.192c3.093-.34 7.777-.508 14.05-.508 6.275 0 10.968.17 14.078.507A4.65 4.65 0 0 1 64 45.35a4.63 4.63 0 0 1 1.457 2.512c.44 1.894.66 4.854.66 8.878 0 3.957-.22 6.916-.66 8.878z"/><path class="st0" d="M59.93 52.175c-1.15 0-2.056.43-2.716 1.293-.473.626-.71 1.606-.71 2.942v4.39c0 1.335.246 2.315.735 2.94.66.862 1.57 1.294 2.74 1.294 1.215 0 2.13-.448 2.737-1.344.306-.457.482-.914.532-1.37.033-.152.05-.643.05-1.472v-.328H60.99c0 .862-.017 1.378-.05 1.547-.12.61-.457.913-1.016.913-.777 0-1.166-.583-1.166-1.75v-2.206h4.54V56.41c0-1.336-.228-2.316-.685-2.942-.657-.863-1.553-1.293-2.686-1.293zm1.115 4.945h-2.282v-1.166c0-1.15.38-1.725 1.14-1.725s1.143.572 1.143 1.723v1.166z"/></svg>