<svg id="svg2" height="100" width="333.334" xmlns="http://www.w3.org/2000/svg" viewBox="0 0 333.3 100"><style>.st0{fill:#009640}.st1{fill:#fbbc43}.st2{fill:#9d9d9c}</style><path class="st0" d="M59.2 50.9v-5c.1-1 .2-1.9.5-2.8 2.4-10.9 8.9-18.2 19.7-21.4 1.8-.5 3.6-.7 5.4-1.1h6.7c1.4.3 2.7.6 4.1 1 3.8.9 7.5 2.3 10.6 4.7 1.2.9 1.2 1.2.2 2.4-6.3 7.5-12.6 14.8-18.9 22.3-3.9 4.8-8.6 8.4-14.5 10.3-2.4.8-4.8 1.6-7.3 1.6-1.1 0-1.8-.6-1.9-1.8V60c.5-4.8 2.2-9.1 4.9-13.1 4-5.8 9.4-9.9 15.7-13.1 1.7-.9 3.6-1.7 5.5-2.6h-.7c-7.5 2.2-14 5.8-19.1 11.8-3.6 3.9-6.1 8.6-8.4 13.3-.2.5-.5 1-.9 1.8-.3-1-.6-1.7-.8-2.4-.2-1.6-.5-3.2-.8-4.8zM84.9 78.4c-1.7-.3-3.4-.5-5-1-2.9-.7-5.7-1.8-8.1-3.7-1.9-1.5-1.9-1.9.4-2.8 6.7-2.7 13-6.1 18.5-10.8 4.1-3.6 7.6-7.8 10.5-12.4 2.4-3.7 5.3-7 8.8-9.7.7-.6 1.6-1.1 2.5-1.4 1.2-.5 2.2-.1 2.7 1.1.5 1.4.9 2.9 1 4.3.6 7.1-2.4 12.7-7.3 17.5-3.4 3.3-7.4 5.5-11.7 7.3-.4.2-.7.3-1.1.6 6-1.5 11.2-4.3 15.3-9 4.1-4.8 5.7-10.5 5.8-16.7h.3c.3 1 .7 2 .9 3.1.2.8.2 1.7.4 2.6v6c-.2 1.2-.4 2.5-.7 3.7C116 67.7 106.6 76.2 95 77.9c-1.2.2-2.5.4-3.7.6-2.2-.1-4.3-.1-6.4-.1z"/><path class="st1" d="M126.7 33.7v-9.3c0-.8-.5-1.2-1.2-1.2s-1.2.4-1.2 1.2v9.3h-4V20.4h3.8v1c.3-.3.7-.6 1.2-.8.5-.2 1-.3 1.5-.3 1.5 0 2.3.3 3.1 1.1.6.6.9 1.4.9 3v9.4l-4.1-.1zM135.5 28.1c0 .9 0 1.9.3 2.3.2.3.5.5 1 .5s.8-.2 1-.5c.1-.2.2-.6.2-.8h3.9c-.1 1-.5 2.2-1.4 3.1-.9.8-2.2 1.1-3.8 1.1-1.6 0-2.6-.2-3.7-1.2-1.5-1.2-1.6-3.7-1.6-5.7s0-4.5 1.6-5.7c1.1-.9 2.4-1.1 3.7-1.1 1.4 0 2.6.2 3.7 1.1 1.8 1.6 1.5 4.6 1.6 6.8l-6.5.1zm2.4-4.5c-.2-.3-.5-.5-1-.5s-.8.2-1 .5c-.2.3-.3 1.2-.3 2h2.6c-.1-.8-.1-1.7-.3-2zM151.7 37c-.9.7-2.4 1.1-3.8 1.1s-2.8-.4-3.8-1.1c-1.1-.8-1.5-1.9-1.5-3h4c0 .4.1.7.3 1 .2.2.5.3 1 .3.4 0 .7-.1 1-.3.2-.2.3-.5.3-.9v-2.6c-.3.3-.6.6-1 .7-.4.2-.8.2-1.4.2-1.5 0-2.1-.2-2.9-1-1-1-1.3-2.5-1.3-5.1s.2-4.1 1.3-5.1c.8-.7 1.4-1 2.9-1 .5 0 1.1.1 1.5.3.4.2.7.4 1 .7v-.8h3.8v13.5c.1 1.4-.5 2.4-1.4 3.1zm-2.5-12.7c0-.4-.1-.7-.4-.9-.2-.2-.5-.3-.9-.3-.5 0-.8.2-1 .5-.3.4-.3 1.7-.3 2.7 0 1 0 2.3.3 2.7.2.3.5.5 1 .5.4 0 .7-.1.9-.3.2-.2.3-.5.3-.9v-4zM163.5 32.3c-1 1.3-2.5 1.6-4.2 1.6-1.7 0-3.1-.3-4.2-1.6-1-1.2-1.1-3.5-1.1-5.3s.1-4 1.1-5.3c1-1.3 2.5-1.6 4.2-1.6 1.7 0 3.1.3 4.2 1.6 1 1.2 1.1 3.5 1.1 5.3.1 1.8-.1 4-1.1 5.3zm-3.2-13.1h-2.6l2.2-3.6h3.1l-2.7 3.6zm.1 4.5c-.2-.4-.7-.5-1-.5-.4 0-.8.2-1 .5-.3.5-.3 1.9-.3 3.4s0 2.8.3 3.4c.2.4.7.5 1 .5.4 0 .8-.2 1-.5.3-.5.3-1.9.3-3.4s0-2.9-.3-3.4zM174.1 32.8c-.9.7-2.1 1-3.6 1-1.7 0-3.1-.3-4.2-1.6-1-1.2-1.1-3.5-1.1-5.3s.1-4 1.1-5.3c1-1.3 2.5-1.6 4.2-1.6 1.4 0 2.6.2 3.6 1s1.5 2.1 1.6 3.3h-3.9c0-.3-.1-.6-.3-.9-.2-.2-.5-.4-1-.4-.4 0-.8.2-1 .5-.3.5-.3 1.9-.3 3.4s0 2.8.3 3.4c.2.4.7.5 1 .5.5 0 .8-.2 1-.5.2-.3.2-.6.2-.9h3.9c0 1.4-.5 2.7-1.5 3.4zM178.5 19.5c-1.3 0-2.4-.9-2.4-2s1.1-2 2.4-2 2.4.9 2.4 2-1.1 2-2.4 2zm-2 14.2V20.9h4v12.8h-4zM190.9 32.3c-1 1.3-2.5 1.6-4.2 1.6-1.7 0-3.1-.3-4.2-1.6-1-1.2-1.1-3.5-1.1-5.3s.1-4 1.1-5.3c1-1.3 2.5-1.6 4.2-1.6 1.7 0 3.1.3 4.2 1.6 1 1.2 1.1 3.5 1.1 5.3s-.1 4-1.1 5.3zm-3.2-8.6c-.2-.4-.7-.5-1-.5-.4 0-.8.2-1 .5-.3.5-.3 1.9-.3 3.4s0 2.8.3 3.4c.2.4.7.5 1 .5.4 0 .8-.2 1-.5.3-.5.3-1.9.3-3.4s.1-2.9-.3-3.4zM201.4 32.8c-1 .9-2.3 1.1-3.7 1.1s-2.9-.4-3.8-1.2c-.9-.8-1.5-1.7-1.5-3h3.9c0 .4.2.7.4.9.2.2.6.3 1 .3s.7 0 1-.3c.2-.2.3-.5.3-.7 0-.3 0-.5-.2-.7-.2-.2-.6-.4-1-.6l-2.2-.7c-1.1-.4-1.9-.9-2.4-1.5-.4-.5-.5-1.1-.5-1.9 0-1.5.6-2.3 1.5-3.1.9-.8 2.3-1.2 3.8-1.2 1.4 0 2.7.4 3.6 1.1.9.7 1.5 1.6 1.5 3h-3.9c0-.3-.1-.6-.3-.8-.2-.2-.6-.3-.9-.3-.4 0-.7.1-.9.3-.2.2-.3.4-.3.7 0 .2 0 .4.2.6.2.2.5.5 1 .6l2.2.7c1.2.4 1.9.8 2.4 1.4.4.5.7 1.2.7 2.2-.4 1.4-1.1 2.4-1.9 3.1zM213.8 33.7v-1c-.2.2-.8.7-1.2.8-.5.2-1 .3-1.5.3-1.3 0-2.2-.3-2.9-1.1-1.1-1.1-1.1-3.1-1.1-5.8s0-4.6 1.1-5.8c.8-.8 1.7-1.1 2.9-1.1.5 0 1.1.1 1.5.3.4.2.7.4 1 .7v-5.1h4v17.6c0 .2-3.8.2-3.8.2zm-.2-9.4c0-.4-.2-.7-.4-1-.2-.2-.6-.3-.9-.3-.4 0-.8.2-1 .5-.3.5-.3 1.9-.3 3.4s0 2.8.3 3.4c.2.4.7.5 1 .5.3 0 .7-.1.9-.3.2-.2.4-.5.4-1v-5.2zM225.2 33.7v-1.1c-.3.3-.6.6-1 .9-.5.3-1 .4-1.7.4-1.5 0-2.4-.3-3.2-1.2-.7-.7-.9-1.7-.9-2.9s.5-2.2 1.5-2.9c.8-.6 1.8-1 3.9-1h1.2v-1.5c0-.7-.5-1.2-1.2-1.2-.4 0-.7.1-.9.3-.2.2-.4.5-.4.9h-4c0-1.1.4-2.1 1.5-2.9.8-.7 2.3-1.2 3.7-1.2 1.4 0 2.7.3 3.6 1.1.9.7 1.5 1.8 1.5 3.3v9.1c0-.1-3.6-.1-3.6-.1zm-.2-5.6h-.7c-.7 0-1.1 0-1.5.3-.3.2-.5.8-.5 1.1 0 1 .5 1.5 1.4 1.5.7 0 1.3-.5 1.3-1.5v-1.4z"/><g><path class="st2" d="M139.1 42.9v34h-10.2v-34h-8.6v-7.5h27.4v7.5h-8.6zM149.6 76.9V35.4h23.5v7.5h-13.3v9.4h11.5v7.5h-11.5v9.7h13.3V77h-23.5zM195.7 76.9l-6.3-16.1H186v16.1h-10.2V35.4h14.5c11.1 0 14.2 4.7 14.2 12.6 0 4.4-.9 8.4-5.8 10.9l7.5 17.9h-10.5zm-5.3-34h-4.3v10.4h4.3c3.9 0 4.1-2.9 4.1-5.2 0-2.4-.2-5.2-4.1-5.2zM228.4 76.9l-6.3-16.1h-3.4v16.1h-10.2V35.4H223c11.1 0 14.2 4.7 14.2 12.6 0 4.4-.9 8.4-5.8 10.9l7.5 17.9h-10.5zm-5.3-34h-4.3v10.4h4.3c3.9 0 4.1-2.9 4.1-5.2 0-2.4-.2-5.2-4.1-5.2z"/><path class="st2" d="M263.5 76.9l-1.7-6.5H250l-1.7 6.5h-10.6L251 35.4h10l13.1 41.4h-10.6zM256 47.6L252.1 63h7.9l-4-15.4z"/></g></svg>