<svg id="Camada_1" xmlns="http://www.w3.org/2000/svg" viewBox="0 0 278.1 223.3"><style>.st0,.st1{fill:#5b5b5b}.st1{fill-rule:evenodd;clip-rule:evenodd}</style><title>redemassavertical</title><path class="st0" d="M140.4 14.4c1 5.2-22.9 8.3-23.3 4-.4-4 22.4-8.4 23.3-4zm18.9 2.7c2.1-3.1 24.1 5.8 22.9 11.7-2.3 5.8-26.9-5.9-22.9-11.7zm-16.6 4.3c6.4-.6 11.9 1.9 13.3 4.8 3.1 7.1-7.1 8.5-11 8.3-5.8-.6-10.2-3.3-10.2-7.7 0-2 2.7-4.9 7.9-5.4zm-34-1c2.5 3.1-20.6 19.2-22.7 16.3-2.4-3.2 19.6-19.6 22.7-16.3zm11.3 3.8c3.7-.6 7.9 0 9.4 2.7 3.7 8.1-9.4 15-15 15.6-4.8.6-9.2-.4-10-3.8-1.7-8.3 10.2-13.5 15.6-14.5zm67.4 9.1c3.1-2.1 15 10.2 12.9 13.6-2.7 3.7-17.1-10.2-12.9-13.6zM166 35.4c14.8-.4 28.5 15.6 18.7 25-9.4 9-28.9-6.5-26-18.6.8-3.3 3.3-6 7.3-6.4zm-27.3 6.7c4.4 0 11.4 4 9.8 12.5-.8 3.8-4.8 6.9-8.9 7.1-6 .4-12.3-4.6-10.8-11.9 1.6-6 6.4-7.7 9.9-7.7zm-54.5 1.2c5 2.7-5.8 19.6-10.4 17.9-4.4-2.2 5.4-19.7 10.4-17.9zm25 3.2c4.4 2.1 7.1 7.5 5.6 14.6-1.5 7.3-11.4 17.9-22.7 13.6-15.6-5.9 1.5-35.7 17.1-28.2zM209 83.2c-9.4 2.7-19.6-29-10.8-31.9 10.8-4 18.9 28.5 10.8 31.9zm-55.3-16.7c6.7 0 14.6 5.6 13.7 14.8-1 6.7-5 11.9-11.4 12.9-9.4 1.7-17.9-8.6-14.6-18.8 1.9-6 7.1-8.9 12.3-8.9zm-83.4 1c6.9 0 5.6 31.7-2.1 31.7-6.9 0-5-31.7 2.1-31.7zm51.6 4.6c15-2.3 17.1 19 4.4 21.9-8.1 1.9-15-5.4-13.1-13.6 1-4.1 3.7-7.4 8.7-8.3zm60.3 3.1c7.3-1 13.1 6 10.6 15.2-5.4 14.2-21 3.1-16.6-9.8 1-2.9 3.3-4.9 6-5.4zm24.5 37c-6.4-1.9-3.3-26.1 3.5-26.1 6.7 0 4.4 26.1-3.5 26.1zM99 94.8c1.5 7.9-4.8 15.6-12.3 10.6-3.5-2.3-6.4-9.6-3.5-14.8 4.3-7.8 14.1-3.5 15.8 4.2zm71.1 14.6c3.1 12.7-6.2 19.2-11.9 20.4-12.1 2.9-23.9-6.3-20.2-18.4 4.2-14.5 26.9-15.9 32.1-2zm-55.5-8.3c12.1.6 18.3 18.1 6.7 24.8-9.6 5.4-21.4-6-18.1-16.9 1.8-6.4 6.8-7.9 11.4-7.9zm-44.1 3.1c6.2-2.9 15 19.6 9.8 22.3-6.3.9-14-18.5-9.8-22.3zM198 119.3c-2.3 7.1-10.4 15.2-17.5 11.3-7.5-4.4 0-19.6 6.2-22.5 9-4.1 13.6 3.9 11.3 11.2zm1.3 16.4c-3.1-.6 5.4-16.7 8.9-15.4 2.7 1-3.5 15-8.9 15.4zm-89.5 11.7c-6.2 7.7-27.5-11.9-22.7-19 5.2-6.6 28.3 10.2 22.7 19zm23.5-15.8c7.9-1 20 4 16.4 12.5-4.4 8.8-22.7 7.1-26-.2-3.5-7.3 3.8-11.7 9.6-12.3zm35.4 1.6c4.2-.4 6.2.8 7.1 3.8 1.9 8.1-15.6 16.5-19.3 9.2-2.8-6.5 7.4-12.6 12.2-13zm25.8 7.7c2.9 3.5-18.5 18.1-20.6 15.4-1.9-2.4 18.3-18.1 20.6-15.4zM130 160.7c-1.2 4.2-21.8-1.7-19.8-6.9 1.2-3.1 21.2 1.7 19.8 6.9zm31.2-3.3c1 4-17.1 8.3-18.5 4.2-1.3-3.4 17.4-8.1 18.5-4.2z"/><path class="st1" d="M12.3 195.6v2.3H20c1.9 11.1-9.5 12.2-13.8 7.7-5.6-5.8-3.5-19.5 1.2-23.1 5.2-4 12.2.4 12.7 5.6.7-.1 1.7-.3 2.5-.5-1.2-5.5-4.5-9.6-11.2-9.1-14.8 1.1-14.9 30.4-.8 31.8 4.7.5 7.9-.9 9.9-3.1v2.6h2.6v-14.3c-3.7.1-7.3.1-10.8.1zm119.2-14.2c-1.9-1.7-5.5-3-8.7-2.6-8.3 1-11.8 8.6-11 18.1.6 7.8 5.4 14.5 13.8 13.5 12-1.3 13.6-22 5.9-29zm-4.1 26.1c-4.5 1.9-9-.4-10.9-3.6-3.8-6.4-2.2-18.9 3.3-21.9 1.1-.6 2.2-.8 4.3-.8 1.9 0 3.9.7 5.1 1.6 5.6 4.4 5.9 21.4-1.8 24.7zm-49.8-6.3c0 4.9-3.5 7.3-8.7 7.3-4.9 0-8.3-3.1-8.3-7.5v-21.7l-2.8.1v21.5s0 9.8 11.1 9.8 11.4-8.2 11.4-9.4v-22h-2.7v21.9zm-27.9-13.1c0-9.4-8.7-8.7-8.7-8.7H30v30.8l2.9.1v-14.1h8l7.2 14h3.1l-7.6-14.5s6.1-1.1 6.1-7.6zm-8.9 5.8h-8v-12.2h8.1s6-.3 6 6-5.6 6.2-6.1 6.2zM99 179.4H88.3v30.9H91v-14.1h8.4c2.5 0 8.5-.2 8.5-8.5 0-8.4-8.9-8.3-8.9-8.3zm0 14.7h-8v-12.4h8.1s6-.4 6 6.2c0 6.5-5.6 6.2-6.1 6.2z"/><path class="st0" d="M177.2 182.8c-.3-2-1.4-3.1-3.3-3.1h-3.8c-1.6 0-2.7 1-3.2 3.1l-3.4 14.8c-.1.5-.4.7-.7.7-.3 0-.5-.2-.6-.7l-2.8-14.8c-.4-2-1.4-3.1-3.1-3.1h-3.9c-1.9 0-3 1.1-3.3 3.3l-3.4 23.4c-.1.8-.2 1.6-.2 2.2 0 1.3.7 1.9 2 1.9 1.4 0 2.1-.6 2.2-1.8l1.8-18.2c.1-.5.3-.7.6-.7s.5.2.6.7l3.5 16.9c.3 1.5 1.8 2.3 4.6 2.3 2.4 0 3.7-.8 4-2.4l3.6-16.8c.1-.5.3-.7.6-.7.4 0 .6.2.6.7l1.8 17.7c.1.5.3 1 .7 1.3.4.3.9.5 1.4.5h5.1c1.3 0 1.9-.6 1.9-2 0-.8 0-1.6-.1-2.2l-3.2-23zM200.4 182.2c-.4-1-.8-1.7-1.2-2.2-.7-.6-1.9-.9-3.3-.9-2.8 0-4.5 1-5.2 3.1l-8.1 24.2c-.3.9-.4 1.6-.4 2.2 0 1.3.7 1.9 2.2 1.9 1.4 0 2.2-.6 2.6-1.8l2-7c.3-1.1 1.1-1.6 2.2-1.6h4.4c1 0 1.7.5 2 1.6l1.8 6.5c.3 1.2 1.1 1.8 2.2 1.8h5.8c1.2 0 1.9-.7 1.9-2.2 0-.7-.1-1.4-.3-2l-8.6-23.6zm-5.5 15h-3c-1 0-1.5-.4-1.5-1.3 0-.2.1-.6.2-1.2l1.7-6c.2-.8.6-1.2 1.1-1.2.7 0 1.1.4 1.3 1.2l1.4 5.9c.1.6.2 1.1.2 1.3.1.8-.4 1.3-1.4 1.3zM222 189c-.7-1.4-1.1-2.5-1.1-3.2 0-.7.2-1.4.6-1.8.4-.5.9-.7 1.5-.7h3.6c1.1 0 1.6-.4 1.6-1.3 0-1.2-.9-1.9-2.8-2.3-.7-.1-2.1-.2-4.1-.2-6.9 0-10.3 2.3-10.3 7 0 1.7.5 3.5 1.5 5.5l5.2 10c.5 1 .8 2 .8 2.8 0 1.4-.8 2-2.5 2h-4.5c-.4 0-.8.2-1 .5-.3.3-.4.7-.4 1.2 0 .9.4 1.5 1.1 1.7 1.1.3 3.7.4 8 .4 3 0 5.3-.4 6.8-1.3 1.7-1 2.6-2.7 2.6-5.2 0-1.9-.7-4.2-2.1-6.8L222 189zM242.8 189c-.7-1.4-1.1-2.5-1.1-3.2 0-.7.2-1.4.6-1.8.4-.5.9-.7 1.5-.7h3.6c1.1 0 1.6-.4 1.6-1.3 0-1.2-.9-1.9-2.8-2.3-.7-.1-2.1-.2-4.1-.2-6.9 0-10.3 2.3-10.3 7 0 1.7.5 3.5 1.5 5.5l5.2 10c.5 1 .8 2 .8 2.8 0 1.4-.8 2-2.5 2h-4.5c-.4 0-.8.2-1 .5-.3.3-.4.7-.4 1.2 0 .9.4 1.5 1.1 1.7 1.1.3 3.7.4 8 .4 3 0 5.3-.4 6.8-1.3 1.7-1 2.6-2.7 2.6-5.2 0-1.9-.7-4.2-2.1-6.8l-4.5-8.3zM277.7 206l-8.3-23.7c-.4-1-.8-1.7-1.2-2.2-.7-.6-1.9-.9-3.3-.9-2.8 0-4.5 1-5.2 3.1l-8.1 24.2c-.3.9-.4 1.6-.4 2.2 0 1.3.7 1.9 2.2 1.9 1.4 0 2.2-.6 2.6-1.8l2-7c.3-1.1 1.1-1.6 2.2-1.6h4.4c1 0 1.7.5 2 1.6l1.8 6.5c.3 1.2 1.1 1.8 2.2 1.8h5.8c1.2 0 1.9-.7 1.9-2.2-.3-.7-.4-1.3-.6-1.9zm-13.8-8.8h-3c-1 0-1.5-.4-1.5-1.3 0-.2.1-.6.2-1.2l1.7-6c.2-.8.6-1.2 1.1-1.2.7 0 1.1.4 1.3 1.2l1.4 5.9c.1.6.2 1.1.2 1.3.1.8-.4 1.3-1.4 1.3z"/></svg>