<svg xmlns="http://www.w3.org/2000/svg" viewBox="0 0 292.5 155.55" height="155.55" width="292.5"><defs><clipPath id="a"><path d="M107.077 116.64c-15.92-.3-28.571-11.3-28.17-24.5l-1.121-85.1 7.28.15c15.9.32 29.301 3.95 28.9 17.15l.381 92.46-7.27-.16z"/></clipPath><linearGradient id="b" gradientTransform="matrix(-2.17737 108.86854 -90.36089 -2.17737 97.226 3.935)" gradientUnits="userSpaceOnUse" x2="1"><stop offset="0" stop-color="#d2232a"/><stop offset=".84" stop-color="#8e1416"/><stop offset="1" stop-color="#8e1416"/></linearGradient><clipPath id="c"><path d="M4.336 9.31l15.3 20.23-19.43 6.5 4.13-26.73z"/></clipPath><linearGradient id="d" gradientTransform="scale(25.0644) rotate(42.58 -1 .271)" gradientUnits="userSpaceOnUse" x2="1"><stop offset="0" stop-color="#d2232a"/><stop offset=".52" stop-color="#d2232a"/><stop offset=".84" stop-color="#8e1416"/><stop offset="1" stop-color="#8e1416"/></linearGradient><clipPath id="e"><path d="M61.956 110.84L4.336 9.31l13.22-5.25.01-.01c14.4-5.71 31.66-.68 38.6 11.24l57.581 101.54-13.23 5.25c-4.02 1.598-8.269 2.355-12.456 2.355-10.774-.001-21.136-5.011-26.105-13.595"/></clipPath><linearGradient id="f" gradientTransform="rotate(-115.537 85.968 35.976) scale(143.87171)" gradientUnits="userSpaceOnUse" x2="1"><stop offset="0" stop-color="#d2232a"/><stop offset=".52" stop-color="#d2232a"/><stop offset=".84" stop-color="#8e1416"/><stop offset="1" stop-color="#8e1416"/></linearGradient><clipPath id="g"><path d="M177.236 115.961h-.01c-15.96-.301-28.58-11.231-28.18-24.301l-.43-82.9 7.28.15c15.95.38 26.951 5.881 26.55 19.001l2.06 88.199-7.27-.149z"/></clipPath><linearGradient id="h" gradientTransform="matrix(-2.1438 106.11804 -88.96765 -2.1438 167.85 -1.366)" gradientUnits="userSpaceOnUse" x2="1"><stop offset="0" stop-color="#d2232a"/><stop offset=".84" stop-color="#8e1416"/><stop offset="1" stop-color="#8e1416"/></linearGradient><linearGradient id="i" gradientTransform="matrix(-62.0877 -129.951 124.17541 -59.1999 163.05 127.906)" gradientUnits="userSpaceOnUse" x2="1"><stop offset="0" stop-color="#d2232a"/><stop offset=".52" stop-color="#d2232a"/><stop offset=".84" stop-color="#8e1416"/><stop offset="1" stop-color="#8e1416"/></linearGradient><linearGradient id="j" gradientTransform="rotate(-115.537 135.847 -20.266) scale(103.29552)" gradientUnits="userSpaceOnUse" x2="1"><stop offset="0" stop-color="#d2232a"/><stop offset=".52" stop-color="#d2232a"/><stop offset=".84" stop-color="#8e1416"/><stop offset="1" stop-color="#8e1416"/></linearGradient></defs><g clip-path="url(#a)" transform="matrix(1.25 0 0 -1.25 0 155.55)"><path d="M107.077 116.64c-15.92-.3-28.571-11.3-28.17-24.5l-1.121-85.1 7.28.15c15.9.32 29.301 3.95 28.9 17.15l.381 92.46-7.27-.16z" fill="url(#b)"/></g><g clip-path="url(#c)" transform="matrix(1.25 0 0 -1.25 0 155.55)"><path d="M4.336 9.31l15.3 20.23-19.43 6.5 4.13-26.73z" fill="url(#d)"/></g><g clip-path="url(#e)" transform="matrix(1.25 0 0 -1.25 0 155.55)"><path d="M61.956 110.84L4.336 9.31l13.22-5.25.01-.01c14.4-5.71 31.66-.68 38.6 11.24l57.581 101.54-13.23 5.25c-4.02 1.598-8.269 2.355-12.456 2.355-10.774-.001-21.136-5.011-26.105-13.595" fill="url(#f)"/></g><g clip-path="url(#g)" transform="matrix(1.25 0 0 -1.25 0 155.55)"><path d="M177.236 115.961h-.01c-15.96-.301-28.58-11.231-28.18-24.301l-.43-82.9 7.28.15c15.95.38 26.951 5.881 26.55 19.001l2.06 88.199-7.27-.149z" fill="url(#h)"/></g><path d="M134.787 109.47L78.187 7.14l12.569-5v-.01C94.252.744 97.947.057 101.628 0h.997c10.364.16 20.447 5.289 25.401 13.87l56.6 102.34-12.569 5c-3.656 1.455-7.527 2.143-11.371 2.143-10.53 0-20.845-5.165-25.899-13.883" fill="url(#i)" transform="matrix(1.25 0 0 -1.25 0 155.55)"/><path d="M185.651 76.41l-39.32-67.1 11.28-5.25-.009.01c14.39-5.711 31.669-.681 38.569 11.24l37.301 67.1-13.22 5.24c-4.031 1.598-7.974 2.355-11.716 2.355-9.627-.001-17.916-5.012-22.885-13.595" fill="url(#j)" transform="matrix(1.25 0 0 -1.25 0 155.55)"/></svg>