<svg id="Camada_1" xmlns="http://www.w3.org/2000/svg" viewBox="0 0 651.2 222.9"><style>.st0{fill:#5b5b5b}</style><title>massafmvertical</title><path class="st0" d="M583.7 175.2H559c-2.2 0-3.9 1.7-3.9 3.9V219c0 2.1 1.7 3.9 3.9 3.9h1.8c2.1 0 3.9-1.7 3.9-3.9v-14.9h12.6c1.1 0 2.2-.5 3-1.3.7-.8 1.1-1.8 1.1-2.8-.1-2.1-1.8-3.8-3.9-3.8h-12.8V183h18.8c2 0 3.7-1.4 4-3.3.2-1.1-.1-2.3-.9-3.2-.7-.8-1.7-1.3-2.9-1.3zm1.4 4.1c-.1.6-.8 1.1-1.5 1.1h-20.1c-.7 0-1.3.6-1.3 1.3v15.8c0 .7.6 1.3 1.3 1.3h14.1c.7 0 1.3.6 1.4 1.4 0 .5-.2.8-.4.9-.3.3-.7.5-1.1.5h-13.9c-.7 0-1.3.6-1.3 1.3V219c0 .7-.6 1.4-1.4 1.4H559c-.7 0-1.4-.6-1.4-1.4v-39.9c0-.7.6-1.4 1.4-1.4h24.7c.4 0 .8.2 1 .5.3.3.4.7.4 1.1zM636.4 175.2h-4.6c-1.8 0-3.5 1.2-4.1 2.8-.1.2-7.8 18.8-11.2 26.7-3.4-7.8-11.1-26.5-11.2-26.6-.6-1.7-2.3-2.9-4.1-2.9h-4.6c-2.4 0-4.3 1.9-4.4 4.2l-2.3 39c0 1.2.4 2.3 1.2 3.2.8.9 2 1.3 3.1 1.3 2.5 0 4.4-1.8 4.5-4.2h-.1.1v-.3c.1-.9.2-2.3.3-4.6.2-4.1.5-11.5 1.2-25.2 7.9 19.5 10.6 25.5 11.8 27.4h-.1c.7 1.7 2.3 2.8 4.1 2.8h.9c1.8 0 3.4-1.1 4.1-2.8h-.1c1.2-1.9 3.8-7.9 11.8-27.4.6 13.6 1 21.1 1.2 25.2.1 2.3.2 3.7.3 4.6v.3h.1-.1c.1 2.4 2 4.2 4.5 4.2 1.2 0 2.3-.5 3.1-1.3.8-.9 1.3-2 1.2-3.2l-2.3-38.9c0-2.5-1.9-4.3-4.3-4.3zm3.7 44.6c-.3.4-.8.6-1.3.6-1.1 0-1.9-.7-1.9-1.8v-.1c0-.5-.3-4.4-1.7-35.8 0-.6-.5-1.1-1.1-1.2-.6-.1-1.2.2-1.4.8-11.1 27.3-13.2 31.7-13.6 32.4-.1.1-.2.2-.3.4-.3.7-.9 1.2-1.7 1.2h-.9c-.8 0-1.4-.5-1.7-1.2-.1-.2-.1-.3-.3-.4-.4-.7-2.6-5.1-13.6-32.4-.2-.6-.8-.9-1.4-.8-.6.1-1 .6-1.1 1.2-1.4 31.4-1.6 35.3-1.7 35.8v.1c0 1-.9 1.8-1.9 1.8-.5 0-1-.2-1.3-.6-.3-.4-.5-.8-.5-1.3l2.3-39c0-1 .8-1.8 1.8-1.8h4.6c.8 0 1.5.5 1.7 1.2.4 1 10.1 24.4 12.4 29.3.2.4.7.7 1.1.7.5 0 .9-.3 1.1-.7 2.3-4.9 12-28.4 12.4-29.4.3-.7 1-1.2 1.7-1.2h4.6c1 0 1.8.8 1.8 1.8l2.3 38.9c.1.7-.1 1.1-.4 1.5zM287.6 46.2h-7.5c-4.9 0-9.4 3.1-11.1 7.6l-19.3 46L230.4 54c-1.7-4.6-6.2-7.8-11.1-7.8H212c-6.4 0-11.6 5-11.8 11.3l-5.5 74.8c-.1 3.2 1.1 6.3 3.3 8.7 2.3 2.3 5.3 3.6 8.7 3.6 6.4 0 11.6-5 11.9-11.5l1.6-46.9 16.8 43c1.8 4.6 6.1 7.5 11 7.5h3.6c4.9 0 9.3-3 11-7.5L279.5 86l1.8 47.1c.2 6.4 5.4 11.4 11.9 11.4 3.3 0 6.3-1.3 8.5-3.6 2.3-2.3 3.4-5.4 3.3-8.8l-5.5-74.5c-.2-6.4-5.4-11.4-11.9-11.4zM400.6 125.3c-.1-.1-.1-.3-.2-.4l-28.8-71.3c-1.8-4.5-6.2-7.4-11-7.4H352c-4.9 0-9.2 2.9-11 7.4l-30.2 74.6c-1.5 3.7-1.1 7.8 1.2 11.1 2.2 3.3 5.9 5.2 9.9 5.2 4.9 0 9.3-3.1 11.1-7.6l7.1-18.3h31.5l7.1 18.3c1.8 4.6 6.2 7.6 11.1 7.6h1.1c4 0 7.7-2 9.9-5.2 2.2-3.3 2.6-7.4 1.2-11.1l-1.4-2.9zm-52.1-28.4l7.3-18.8 7.4 18.8h-14.7zM466.5 92c-6-4.2-13.5-6.6-20.1-8.7-10.1-3.2-16.2-5.4-16.2-10.4v-.6s-.1-1.7 1.2-3.2c3.7-4.3 15.6-4.8 32-1 .8.2 1.6.3 2.4.3 5.7 0 10.4-4.7 10.4-10.4 0-4.7-3.2-8.8-7.7-10-4.9-1.3-14.7-3.6-25.1-3.6-23.3 0-37.8 11.6-37.8 30.3 0 10.7 4.4 18.6 13.3 24 6 4.2 13.5 6.6 20.1 8.7 10.1 3.2 16.2 5.4 16.2 10.4v.6s.1 1.7-1.2 3.2c-2 2.3-6.6 3.6-12.8 3.6-5.2 0-11.7-.9-19.2-2.6-.8-.2-1.6-.3-2.4-.3-5.7 0-10.4 4.7-10.4 10.4 0 4.7 3.2 8.8 7.7 10 4.9 1.3 14.7 3.6 25.1 3.6 23.3 0 37.8-11.6 37.8-30.3 0-10.7-4.4-18.6-13.3-24zM540.3 92c-6-4.2-13.5-6.6-20.1-8.7-10.1-3.2-16.2-5.4-16.2-10.4v-.5c0-.1-.1-1.8 1.3-3.4 2.1-2.3 6.6-3.5 12.7-3.5 5.2 0 11.7.9 19.2 2.6.8.2 1.6.3 2.4.3 5.7 0 10.4-4.7 10.4-10.4 0-4.7-3.1-8.8-7.7-10-4.9-1.3-14.7-3.6-25.1-3.6-23.3 0-37.8 11.6-37.8 30.3 0 10.7 4.4 18.6 13.3 24 6 4.2 13.5 6.6 20.1 8.7 10.1 3.2 16.2 5.4 16.2 10.4v.5c0 .1.1 1.8-1.3 3.4-2.1 2.3-6.6 3.5-12.7 3.5-5.2 0-11.7-.9-19.2-2.6-.8-.2-1.6-.3-2.4-.3-5.7 0-10.4 4.7-10.4 10.4 0 4.7 3.1 8.8 7.7 10 4.9 1.3 14.7 3.6 25.1 3.6 23.3 0 37.8-11.6 37.8-30.3.1-10.7-4.4-18.6-13.3-24zM648.5 128.2l-1.2-2.9c-.1-.1-.1-.3-.2-.4l-28.8-71.3c-1.8-4.5-6.2-7.4-11-7.4h-8.5c-4.9 0-9.2 2.9-11 7.4l-30.2 74.6c-1.5 3.7-1.1 7.8 1.2 11.1 2.2 3.3 5.9 5.2 9.9 5.2 4.9 0 9.3-3.1 11.1-7.6l7.1-18.3h31.5l7.1 18.3c1.8 4.6 6.2 7.6 11.1 7.6h1.1c4 0 7.6-2 9.9-5.2 1.9-3.3 2.4-7.4.9-11.1zm-53.3-31.3l7.3-18.8 7.4 18.8h-14.7zM165 42c-7.7-12.6-18.9-23.1-32.3-30.5C118.9 3.8 103-.2 86.9-.2c-16.2 0-32 4-45.8 11.6-13.5 7.5-24.7 18-32.4 30.6-1.5 2.4-1.1 5.4.7 7.4C3.9 60 1 71.7 1 83.8c0 6 .7 11.9 2.2 17.7 0 .4 0 .8.1 1.2l.6 3c-1.5 5.6-1.1 16.3 1.4 28.4 2.5 12 6.5 22.1 10.1 26.8l.7 3.4c.6 2.8 3.1 4.7 5.8 4.7.3 0 .6 0 .9-.1l.7 3.1c.4 1.7 2 2.9 3.8 2.6l14.1-2.5c1.8-.3 3-2.1 2.6-3.9l-.3-1.3c1.9-.7 3.1-2.7 2.7-4.8l-.2-.8 3.3-.1 3.1-.1H54.4l.3-.1c.1 0 .1 0 .2-.1.3-.1.5-.2.8-.2h.1l.2-.1c.1-.1.3-.1.4-.2l.2-.1c.1 0 .2-.1.3-.2l.6-.3c.4-.2.9-.5 1.6-1.1.2-.1.3-.3.5-.4l.2-.1.2-.2.1-.1c.2-.2.3-.3.4-.5l.6-.7.1-.1c.1-.1.3-.3.4-.6 0 0 0-.1.1-.1l.1-.1s.1-.1.1-.2c.1-.1.2-.3.2-.4v-.2c.1-.1.2-.3.2-.4 0 0 0-.1.1-.1.1-.1.1-.2.2-.3l.1-.1c.1-.2.1-.3.2-.5l.1-.2.1-.1v-.1s0-.1.1-.1v-.1.1c0-.1.1-.2.1-.3v-.1c0-.1.1-.2.1-.3.2-.6.3-1.1.4-1.6 0-.1 0-.2.1-.3v-.2-.1.1-.4c0-.2.1-.3.1-.5v-.2-.2-.1-.2-.3-.1-.2-.5-.7c0-1.8-.1-3.6-.1-5.5V139.6c0-1.6 0-3.1-.1-4.7v-.5-7.7-6.9-.8l8.3 22.4c.1.2.1.4.2.5l.4 1c.1.1.1.3.2.5l.6 1c.1.2.2.3.3.5 0 0 2.6 4.5 9.1 5.5l.4.1h.2c.2 0 .4 0 .6.1h2.6l6.6-.2h.1l3.6-.2h1.5c.2 0 .6-.1.8-.2l.6-.2c.2-.1.5-.2.8-.3l.1-.1c.2-.1.3-.1.5-.2 1.4-.7 2.8-1.7 4-3.4l.1-.1.1-.1c0-.1.1-.1.1-.2l.2-.3s0-.1.1-.1c0-.1.1-.1.1-.2.1-.2.2-.3.3-.5.1-.2.2-.4.4-.6v-.1c0-.1.1-.2.1-.3 0-.1.1-.2.1-.3 0-.1.1-.1.1-.2l.1-.2c0-.1.1-.1.1-.2l.2-.4c0-.1.1-.2.1-.3 0-.1 0-.1.1-.2 0 .1 0 .1-.1.2.1-.2.1-.4.2-.5.1-.2.2-.6.2-.8l.8-3 .8-3 .8-3 .8-3 .8-2.9.8-2.9.8-2.9.8-2.9v-.1.1s0 .3.1.9l2 26.3c0 .2 0 .5.1.8l.1.5v.2l.1.7c0 .1.1.3.1.5v.2l.4 1.5c.1.2.2.5.3.7l.1.3c2.9 7.5 9.3 9.6 14.5 9.2 0 0 5.6-.2 7.9-.4 7.4-1.3 9.8-7 10.4-11.6.1-1.1.2-2.2.1-3.1 0-.9-2.7-25.1-2.7-25.1l-3.6-35.6-.4-3.8-.5-4.5-.5-4.5-.5-4.5-.5-4.5-.5-4.5-.5-4.5v-.2c0-.3-.1-.6-.1-.9v-.1-.1.1-.1-.2c0-.2-.1-.4-.1-.7v-.1c0-.1-.1-.2-.1-.4v-.1-.4-.2l-.1-.2c0-.1-.1-.3-.1-.4l.1.3-.1-.2V48v-.1-.2c0-.1-.1-.3-.2-.5 0-.1 0-.1-.1-.2 0-.1-.1-.2-.1-.3l-.1-.2c0-.1-.1-.2-.1-.2l-.2-.5c0-.1-.1-.2-.1-.2 0-.1-.1-.1-.1-.2s-.1-.1-.1-.2c0 0 .1.1.1.2 0-.1-.1-.1-.1-.2 0 0 0-.1-.1-.1 0-.1-.1-.1-.1-.2l-.2-.4c0-.1-.1-.1-.1-.2l-.2-.3c-.1-.2-.3-.4-.5-.6 0 0 0-.1-.1-.1l-.1-.1-.3-.3-.3-.4-.1-.1-.1-.1-.5-.5-.1-.1c-.1-.1-.2-.1-.2-.2l-.3-.3c-.1-.1-.3-.2-.4-.3-.1 0-.1-.1-.2-.1-.1-.1-.2-.1-.2-.2l-.5-.3c-.1 0-.1-.1-.2-.1-.3-.2-.7-.3-.9-.5l-.7-.3c-.1 0-.2-.1-.3-.1-.1 0-.2-.1-.3-.1-.1 0-.1-.1-.2-.1s-.1-.1-.2-.1c-.2-.1-.4-.2-.6-.2h-.1c-.1 0-.1 0-.2-.1-.1 0-.2-.1-.3-.1-.2-.1-.4-.1-.6-.2h-.1c-.2 0-.4-.1-.6-.1H128.7h-1.1l-4.4.2c-.8 0-9.3.3-10 .3-6.4.2-8.9 2.8-8.9 2.8l-.5.5-.1.2-.3.3-.2.2c-.1.1-.3.3-.4.5l-.6.8-.1.1-.4.6c-.1.2-.3.4-.4.7l-.1.2c-.1.2-.2.3-.2.5l-.1.2c-.1.1-.1.3-.2.4l-.1.3c-.1.2-.1.4-.2.6L88.2 89.8v-.1L87.1 87 86 84.3l-1.1-2.8-1.1-2.8-1.1-2.7-1.1-2.8-1.1-2.8-1.1-2.8-1.1-2.9-1.1-2.9-1.1-2.9-1.3-2.9-1.1-2.9-1.1-2.9c-.1-.2-.2-.5-.3-.8v-.1c-.2-.1-.3-.2-.3-.3 0-.1-.1-.1-.1-.2v-.1l-.1-.2-.1-.1c0-.1-.1-.1-.1-.2s-.1-.2-.1-.2v-.1c0-.1-.1-.1-.1-.2l-.2-.4c-.1-.1-.1-.2-.2-.3-.1-.1-.1-.2-.2-.2l-.1-.1-.3-.4c-.1-.1-.2-.3-.3-.4-.1-.1-.2-.3-.4-.4-.1-.1-.2-.3-.4-.4l-.2-.2c-.1-.1-.3-.2-.4-.4-.1-.1-.2-.2-.3-.2l-.2-.2c-.5-.4-.9-.7-1.4-1l-.1-.1c-.1 0-.1-.1-.2-.1-.2-.1-.3-.2-.5-.3l-.6-.3h-.1-.1-.1-.1c-.2-.1-.3-.2-.5-.3l-.6-.3h-.1-.1-.1-.1c-.1-.1-.3-.1-.4-.2-.1 0-.1-.1-.2-.1h-.1c-.1 0-.2-.1-.3-.1-.1 0-.1 0-.2-.1h-.1-.2c-.2 0-.3-.1-.5-.1h-.1.1-.5c-.2 0-.4-.1-.5-.1h-1.4l-8.1.3h-1.8c-5.6-.1-8.8.3-10.6 1.3-.5.3-1.3.8-2.2 1.6V44l-.2.2-.5.5-.1.1-.6.7-.2.3c-.1.1-.2.2-.3.4l-.3.4c-.1.1-.2.2-.2.4l-.1.2c-.1.2-.2.5-.4.7L33 49v.2c-.1.2-.1.4-.2.6l-.1.3c-.2.7-.4 1.3-.5 1.9l-.2 1.2c-.1.3-.1.6-.1 1l-.7 37.4c-.8-.9-2.1-1.5-3.4-1.4l-.3-1.4c-.4-1.7-2-2.9-3.8-2.6L9.5 88.9c-.4.1-.7.2-1 .4-.1-1.8-.2-3.6-.2-5.4 0-11.5 2.9-22.4 8-32 .9-.2 1.8-.5 2.6-1 .1 0 .1-.1.2-.1.1-.1.3-.2.4-.3l.3-.3.3-.3.4-.4c.1-.1.1-.2.2-.2.2-.2.3-.5.5-.7 13.4-21.9 38.5-35.4 65.6-35.4 27.1 0 52.3 13.6 65.6 35.4.1.2.3.4.4.6 0 .1.1.1.1.2.1.1.2.3.3.4l.2.2c.1.1.2.2.4.3.1.1.1.1.2.1.1.1.3.2.4.3.1 0 .1.1.2.1.1.1.3.2.5.3.1 0 .1.1.2.1.2.1.3.2.5.2 0 0 .1 0 .1.1.2.1.4.1.6.2h.1c.2.1.5.1.7.2 5.1 9.7 8 20.5 8 32 0 2.2-.1 4.4-.3 6.6-.5-.8-1.2-1.4-2.2-1.5l-14.1-2.5c-.5-.1-1.2-.2-1.7.1l2.2 21.4 4.1-19.5 1.7.3-5.3 25 3.1 29.1v1.2l-.2 2.2v.6c0 .1 0 .3-.1.4l-.2.8v.1c0 .1-.1.2-.1.4l-.4 1.1-.4.9-.5 1c-.6 1.3-1 2.2-2 3.3l-.4.4-.2.2-.2.2-.3.3c-.1.1-.3.2-.4.3l-.1.1-.3.3-.2.1c-.4.3-.9.6-1.3.9l-.1.1c-.1.1-.3.1-.4.2l-.2.1c-.3.1-.6.3-.9.4h-.1c-.1 0-.2.1-.3.1-.1 0-.2.1-.3.1l-1.8.5h-.3l-.1-.2h-.7l-2.6 12.5-1.7-.3 2.5-12.2-6.8.2h-.4l-1.1-.1c-.4 0-.8-.1-1.2-.2l-1.1-.2c-.5-.1-.9-.3-1.3-.4l-.8 3.6c-.4 2.1.8 4.1 2.7 4.8l-.3 1.3c-.4 1.8.8 3.6 2.6 3.9l14.1 2.5c1.7.3 3.4-.8 3.8-2.6l.4-2c.4.1.7.1 1.1.1 3.3 0 6.3-2.4 6.9-5.6l1.3-6.1c3.1-5.3 6.3-14.1 8.4-24.3 2.1-10.2 2.8-19.5 2-25.5l1.2-5.7c0-.1 0-.2.1-.4 1.6-6.1 2.4-12.4 2.4-18.7 0-12.1-2.9-23.8-8.4-34.4 2-1.8 2.4-4.8.9-7.2zM32.2 93.1l1.1-37.6v-1.1-.4c0-.2 0-.5.1-.7v-.1-.3c.1-.3.1-.6.2-1v-.1l.3-.9c0-.1.1-.2.1-.4.1-.2.2-.5.3-.7v-.1c0-.1.1-.2.1-.2.1-.3.2-.5.4-.7.1-.1.1-.2.2-.3.1-.2.2-.4.4-.6.1-.1.1-.2.2-.3.1-.2.3-.4.4-.6.1-.1.1-.2.2-.3.2-.2.3-.4.5-.5.1-.1.1-.2.2-.2l.5-.5c.1-.1.2-.1.2-.2.2-.2.4-.3.6-.5l.2-.2c.2-.1.4-.2.6-.4.1-.1.2-.1.3-.1.2-.1.5-.2.7-.3l.2-.1c.1 0 .2-.1.2-.1h.1c.8-.3 1.6-.4 2.4-.5l4.3-.2c2-.1 7.3 0 9.7 1.8.3.2.5.4.7.7l.1.1c1.3 1.3 2.3 2.9 2.9 4.8 7.7 19.3 15.3 38.5 23 57.8.3-.9.6-1.9.8-2.8.2 0 17.6-56.9 17.6-56.9.1-.3.2-.5.2-.8l.1-.3c.1-.2.1-.4.2-.5 0-.1.1-.2.1-.3.1-.2.1-.3.2-.5l.1-.3.3-.6.1-.1c.1-.2.3-.5.4-.7l.1-.2c.1-.2.2-.3.3-.4l.2-.2c.1-.1.2-.3.4-.4l.1-.2.4-.4.2-.2s1.7-2.2 7.3-2.9c.4 0 1.1-.1 1.9-.2 1.3-.1 2.6-.1 3.9-.2h.4c5.6 0 10.4 5.2 10.9 12 1.5 13.9 10 88.7 10 88.7s.1.9.1 1.8c.4 3.6-1.8 16.5-13.6 13.5-.2 0-.8-.2-1.6-.7-2-1.2-3.9-3.2-5.1-6.5 0-.1 0-.1-.1-.2-.1-.2-.2-.5-.2-.8 0-.1-.1-.2-.1-.3-.1-.2-.1-.5-.2-.7 0-.1-.1-.2-.1-.3-.1-.2-.1-.5-.2-.8 0-.1 0-.2-.1-.3-.1-.4-.1-.8-.2-1.2-.4-9.2-1.1-17.6-1.6-22.6l-1.1-5.7-1.7-29.5c-.1-2-.3-4-.4-6-5.5 19.9-11 39.7-16.5 59.6-1.4 5.1-5.2 8.5-9.6 8.7h-.4c-8.9.1-11.5-4.7-11.5-4.7-.7-.9-1.2-2-1.6-3.1L53 85.2c-.3-.9-.7-1.8-1-2.7.3 21.3.7 42.6 1 63.8.1 5.8-2.9 10.6-7.2 12.3L32.2 93.9v-.8zm-11.8-4.8l17.4 83.1-1.7.3-17.5-83.1 1.8-.3zm2 78.3H22c-1.7 0-3.3-1.2-3.6-2.9l-.1-.4-12.8-61.1c-.2-1 0-2 .6-2.8.4-.7 1.1-1.2 1.9-1.4l14.4 68.6zm145.3-67.2c.6.8.8 1.8.6 2.8l-12.8 61.1-.1.4c-.4 1.7-1.9 2.9-3.6 2.9h-.4L165.8 98c.7.2 1.4.7 1.9 1.4z"/></svg>