<svg id="Camada_1" xmlns="http://www.w3.org/2000/svg" viewBox="0 0 514.6 122.4"><style>.st0{fill:#bababa}</style><title>massa-news-gray</title><path class="st0" d="M269.9 25.8c0-8.6 6.3-15.9 13.7-15.9 8.1 0 12.9 5.7 12.9 15.3v28.4h5.9v-28c0-9.8 7.1-15.8 13.6-15.8 8.1 0 13 5.8 13 15.4v28.3h5.9V25c0-12.9-7.2-20.8-18.7-20.8-6.6 0-12.6 3.6-16.1 9.7-3.1-6.3-8.8-9.7-16.1-9.7-5.5 0-10.7 2.6-14 7.1v-6h-6v48.4h5.9V25.8zM360.3 54.7c7.2 0 13.5-2.6 17.6-7.2v6.1h5.9V23.9c0-5.8-1.7-10.6-4.9-13.9-3.6-3.6-8.8-5.4-15.5-5.4-5.8 0-11.5 1.4-16.7 4.1l-1.3.6 2.3 5.3 1.4-.7c4.3-2.3 9.2-3.6 14.1-3.6 6.7 0 14.7 2.4 14.7 13.8v1c-4.8-1.3-9.7-2-14.7-2-13.1 0-21.6 6.3-21.6 16.1v.2c0 10.5 9.7 15.3 18.7 15.3zM347.6 39c0-6.3 5.9-10.2 15.4-10.2 5 0 10.1.7 14.9 2.1v4.5c0 7.6-7.7 13.6-17.5 13.6-6.4 0-12.8-3-12.8-9.8V39zM409.8 48.7c-5.8-.1-11.5-2.2-16-5.9l-1.2-.9-3.5 4.6 1.1.9c5.5 4.4 12.3 6.9 19.4 7 10.2 0 17.6-5.8 17.6-13.9v-.2c0-8.9-8-11.8-16.8-14.2-7.4-2.1-12.7-3.9-12.7-8.4v-.2c0-4.3 4.6-7.4 10.9-7.4 4.9.1 9.6 1.7 13.5 4.5l1.3.9 3.3-4.9-1.2-.8c-5-3.3-10.8-5.2-16.8-5.3-9.8 0-17 5.6-17 13.4v.1c0 8.9 8.6 11.4 16.9 13.8 7.4 2 12.7 3.8 12.7 8.8v.2c-.1 4.6-4.9 7.9-11.5 7.9zM467.9 40.5v-.2c0-8.9-8-11.8-16.8-14.2-7.4-2.1-12.7-3.9-12.7-8.4v-.2c0-4.3 4.6-7.4 10.9-7.4 4.9.1 9.6 1.7 13.5 4.5l1.3.9 3.3-4.9-1.2-.8c-5-3.3-10.8-5.2-16.8-5.3-9.8 0-17 5.6-17 13.4v.1c0 8.9 8.6 11.4 16.9 13.8 7.4 2 12.7 3.8 12.7 8.8v.2c0 4.6-4.8 8-11.5 8-5.8-.1-11.5-2.2-16-5.9l-1.2-.9-3.5 4.6 1.1.9c5.5 4.4 12.3 6.9 19.4 7 10.2-.1 17.6-5.9 17.6-14zM509.7 9.9c-3.6-3.6-8.8-5.4-15.5-5.4-5.8 0-11.5 1.4-16.7 4.1l-1.3.6 2.3 5.3 1.4-.7c4.3-2.3 9.2-3.6 14.1-3.6 6.7 0 14.7 2.4 14.7 13.8v1c-4.8-1.3-9.7-2-14.7-2-13.1 0-21.6 6.3-21.6 16.1v.2c0 10.5 9.7 15.3 18.7 15.3 7.2 0 13.5-2.6 17.6-7.2v6.1h5.9V23.9c0-5.8-1.7-10.6-4.9-14zm-.8 25.5c0 7.6-7.7 13.6-17.5 13.6-6.4 0-12.8-3-12.8-9.8V39c0-6.3 5.9-10.2 15.4-10.2 5 0 10.1.7 14.9 2.1v4.5zM351.7 100.2h-13.8v14.3h28.8c-.3-8-7-14.4-15-14.3zM433.7 113.8h28.4c8 0 14.6-6.3 15-14.3h-28.4c-8 0-14.6 6.3-15 14.3zM300.6 78.2v36.3c8-.4 14.3-7 14.3-15V63.2c-8 .3-14.3 6.9-14.3 15zM264.9 78.2v36.3c8-.4 14.3-7 14.3-15V63.1c-8 .4-14.3 7-14.3 15.1zM336.5 114.5V63.1c-8.1.5-14.4 7.3-14.3 15.5v20.8c-.1 8.1 6.3 14.7 14.3 15.1zM366.7 63.1h-28.8v14.3h13.8c8 .1 14.7-6.3 15-14.3zM358.8 81.5h-20.9v14.3h5.8c8.1.1 14.7-6.3 15.1-14.3zM371.9 63.2v36.3c0 8 6.3 14.6 14.3 15V78.2c0-8.1-6.3-14.7-14.3-15zM413.4 78.2v36.3c8-.4 14.3-7 14.3-15V63.2c-8 .3-14.3 6.9-14.3 15zM400.2 99.3l11.8 14V90.1l-11.8-12.4zM477.1 63.8h-28.4c-8 0-14.6 6.3-15 14.3h28.4c8 0 14.6-6.3 15-14.3zM280.6 88.4l18.6 24.7V89.3l-18.6-24.8zM387.6 113.2l11.3-13.9V77.7L387.6 90zM434.8 79.5l21 18.6H476l-21-18.6zM0 88.9l3.4 22.2 10.1-17.7zM111.9 9.4L78 69.1l-.6 43.9 34.3-62zM98.7 2.3C84.8-3.2 68 1.6 61.4 13.1l-57 100.5 12.1 4.8c13.9 5.5 30.7.7 37.3-10.8l57-100.5-12.1-4.8zM170.2 3.2C157-2 140.8 3 134.2 14.5l-56 101.3 11.5 4.6c13.2 5.2 29.4.2 36-11.3l56-101.3-11.5-4.6zM181.9 11.5l-33.5 60.7-.2 38.1 32.7-55.8zM187.4 47.5l-38.8 66.1 10.2 4.8c13.9 5.5 30.6.7 37.3-10.8l36.7-66.1-12.1-4.8c-13.4-5.3-26.5-1-33.3 10.8z"/></svg>