<svg id="svg2" xmlns="http://www.w3.org/2000/svg" xmlns:xlink="http://www.w3.org/1999/xlink" viewBox="0 0 266.7 80"><style>.st0{clip-path:url(#SVGID_2_)}.st1{fill:#7d2dbb}</style><g id="g10" transform="matrix(1.33333 0 0 -1.33333 0 80)"><g id="g12"><defs><path id="SVGID_1_" d="M-33.3-10h266.7v80H-33.3z"/></defs><clipPath id="SVGID_2_"><use xlink:href="#SVGID_1_" overflow="visible"/></clipPath><g id="g14" class="st0"><path class="st1" d="M4 26l-1.9.1-.3.1c-.3.1-.4.2-.4.5s.1.6.2 1.2c.4 1.4.5 1.9 1.3 1.9l2.2.1c.3.8.5 1.7.7 2.6-.9 0-1.5.1-1.9.1-.1 0-.2 0-.3.1-.3.1-.4.2-.4.6 0 .3.1.6.2 1.1.4 1.4.5 1.9 1.3 1.9H7c.2.7.8 2.9 1 3.5.2.7.8.7 2.2.7 1.3 0 1.6-.1 1.6-.6v-.3c-.1-.3-.6-2.3-.8-3.2l2.7.1 1 3.4c.2.7.8.7 2.2.7 1.3 0 1.6-.1 1.6-.6v-.3c-.1-.3-.6-2.3-.8-3.1 1.4 0 2.6-.1 2.7-.1.2-.1.4-.3.4-.6v-.2l-.6-2.1c-.3-1.1-.6-1.1-2.5-1.1H16.5L16 30c1.4 0 2.5 0 2.6-.1.2-.1.5-.3.5-.6v-.2l-.6-2.1c-.4-1-.7-1-2.5-1H14.8l-.3-1.1c-1-3.3-.7-3.7-2.1-3.7h-2.1c-.4 0-.6.4-.6.6 0 .9.6 2.7 1 3.8l.1.3H8.1c-1.4-4.3-1-4.7-2.5-4.7H3.5c-.4 0-.6.4-.6.6 0 1.1.8 3.1 1.1 4.2zm6 6.4l-.7-2.5h2.6c.2.8.5 1.6.7 2.5H10z"/><path d="M32.3 38.9c.6 1.4 1.2 1.5 2.2 1.5h1.4c1.6 0 1.6-1.1 1.6-2.1V23.5c0-1.1 0-2.1-1.6-2.1h-1.3c-1.6 0-1.6 1.1-1.6 2.1v7.3c0 .2-.1.3-.1.3-.1 0-.2-.1-.2-.3-1.9-3.8-1.9-4.7-2.8-4.7-.9 0-1 .9-2.8 4.7-.1.2-.2.3-.2.3-.1 0-.1-.1-.1-.3v-7.3c0-1.1 0-2.1-1.6-2.1h-1.3c-1.6 0-1.6 1.1-1.6 2.1v14.7c0 1.1 0 2.1 1.6 2.1H25c1 0 1.6-.1 2.2-1.5l2-4.7c.2-.5.3-.7.5-.7s.3.3.5.7l2.1 4.8zM51.6 22.7c0-1.2-.8-1.3-2.3-1.3h-1.4c-1.7 0-.8 4-1.9 4h-2.1c-1.1 0-.5-4-2.1-4h-1.3c-1.4 0-2.2.1-2.2 1.3 0 1.6.6 3 2.7 15.5.2 1.3.7 2.1 1.8 2.1h4.1c1.1 0 1.6-.8 1.9-2.1 1.8-10.9 2.8-13.9 2.8-15.5zm-7.8 7.1c0-.4.2-.4 1-.4s1 0 1 .4v.4c-.3 2.6-.4 5.8-1 5.8s-.7-3.2-1-5.8v-.4zM57.9 40.5c2.2 0 3.7-.4 3.7-1.1v-2.1c0-.3-.1-.8-1-.8h-.2c-.4 0-1.4.3-2.2.3-.6 0-1.1-.2-1.1-1.1 0-.8.2-1.3 1.3-2.1 3.2-2.6 3.8-4.5 3.8-6.6 0-1.2 0-2.3-.7-3.4-.9-1.3-2.3-1.8-2.9-2-.7-.2-1.7-.3-2.6-.3-2 0-3.9.4-3.9 1.4v2.1c0 .3.3.6 1 .6s1.3-.4 2.8-.4c.7 0 1.8.6 1.8 1.4 0 .6 0 1.1-1.7 2.7-2.5 2.4-3.7 3.5-3.7 5.7.1 5.3 3.5 5.7 5.6 5.7zM68.5 40.5c2.2 0 3.7-.4 3.7-1.1v-2.1c0-.3-.1-.8-1-.8H71c-.4 0-1.4.3-2.2.3-.6 0-1.1-.2-1.1-1.1 0-.8.2-1.3 1.3-2.1 3.2-2.6 3.8-4.5 3.8-6.6 0-1.2 0-2.3-.7-3.4-.9-1.3-2.3-1.8-2.9-2-.7-.2-1.7-.3-2.6-.3-2 0-3.9.4-3.9 1.4v2.1c0 .3.3.6 1 .6s1.3-.4 2.8-.4c.7 0 1.8.6 1.8 1.4 0 .6 0 1.1-1.7 2.7-2.5 2.4-3.7 3.5-3.7 5.7.1 5.3 3.4 5.7 5.6 5.7zM86.6 22.7c0-1.2-.8-1.3-2.3-1.3h-1.4c-1.7 0-.8 4-1.9 4h-2.1c-1.1 0-.5-4-2.1-4h-1.3c-1.4 0-2.2.1-2.2 1.3 0 1.6.6 3 2.7 15.5.2 1.3.7 2.1 1.8 2.1H82c1.1 0 1.6-.8 1.9-2.1 1.7-10.9 2.7-13.9 2.7-15.5zm-7.7 7.1c0-.4.2-.4 1-.4s1 0 1 .4v.4c-.3 2.6-.4 5.8-1 5.8s-.7-3.2-1-5.8v-.4z"/><path class="st1" d="M88.7 34.3c1.9.3 2.4-.5 2-2.3 1.1 1.7 2.7 2.5 4.1 2.5 1.5 0 2.6-1.1 2.6-3.1 1.1 2.1 2.6 3.1 4.5 3.1 2.1 0 3.2-1.7 2.4-5.4l-.9-4.6c-.3-1.5-.3-2.5 1.3-2.1l-.2-1c-2.2-.5-2.8.7-2.3 3.1l1 4.6c.6 3.2-.1 4.3-1.7 4.3-2 0-3.6-1.9-4.2-4.5l-1.6-7.5h-1.2l1.6 7.5c.5 2.5.3 4.5-1.8 4.5-2 0-3.7-1.8-4.2-4.5l-1.6-7.5h-1.2l1.9 9c.5 2.3.7 3.2-.8 3l.3.9zM115.8 24.4c-.4-2.1-.1-2.3 1.1-2l-.2-1c-1.5-.3-2.5 0-2.1 2.1-1.4-1.8-2.5-2.3-4.2-2.3-2.6 0-3.5 2.4-2.9 5.5l1.6 7.6h1.2l-1.6-7.8c-.6-3 .3-4.1 2.3-4.1 1.9 0 3.6 1.6 4.2 4.3l1.6 7.6h1.2l-2.2-9.9zM121.1 26c-.5-2.3-.6-3.8 1-3.8.3 0 .7 0 1 .1l-.2-1.1c-.3-.1-.7-.1-1.1-.1-2.3 0-2.5 1.8-1.9 5l3.2 14.8h1.2L121.1 26zM132.7 33.2h-3.8l-1.5-6.9c-.6-2.9-.2-4 1.3-4 .6 0 1.3.2 2.3.6l-.1-1.1c-1-.4-1.8-.6-2.6-.6-2 0-2.9 1.6-2.1 5.1l1.5 7-2.3.1.2 1h2.3l1 3.9h1l-.8-3.9h3.8l-.2-1.2zM135.6 34.3h1.2L134 21.4h-1.2l2.8 12.9zm1.3 3.6c-1.1 0-.8 1.7.4 1.7 1.1 0 .8-1.7-.4-1.7zM147.1 23.5c-.2-1.1.2-1.3 1.3-1.1l-.2-1c-1.7-.3-2.5.4-2.1 2.4l.1.4c-1.1-2.1-2.8-2.9-4.6-2.9-6.1 0-3.8 13.4 2.8 13.4 1.8 0 3.1-1.3 3.3-2.9l2 9.4h1.1l-3.7-17.7zm-.2 4.3c.6 3.1-.1 5.7-2.5 5.7-5 0-7.2-11.1-2.7-11.1 2.3-.1 4.6 2 5.2 5.4zM153.2 34.3h1.2l-2.8-12.9h-1.2l2.8 12.9zm1.4 3.6c-1.1 0-.8 1.7.4 1.7 1 0 .7-1.7-.4-1.7zM154.5 16.9c1-.8 2.1-1.3 3.3-1.3 2.2 0 4.2 1.4 5 5l.7 3.4c-1.2-2-2.6-2.9-4.5-2.9-2.2 0-3.7 1.7-3.4 5.1.4 5.3 3.5 8.3 7.3 8.3 1.4 0 2.6-.5 3.7-1.2l-2.7-12.9c-.9-4.3-3.3-6-5.9-6-1.4 0-2.7.5-3.9 1.4l.4 1.1zm10.8 15.7c-.9.6-1.8.8-2.8.8-2.9 0-5.3-2.6-5.7-6.9-.3-2.8.7-4.2 2.5-4.2 2.5 0 4.4 2.9 5 5.6l1 4.7zM170.4 34.3h1.2l-2.8-12.9h-1.2l2.8 12.9zm1.3 3.6c-1.1 0-.8 1.7.4 1.7 1.1 0 .8-1.7-.4-1.7zM180.5 33.2h-3.8l-1.5-6.9c-.6-2.9-.2-4 1.3-4 .6 0 1.3.2 2.3.6l-.1-1.1c-1-.4-1.8-.6-2.6-.6-2 0-2.9 1.6-2.1 5.1l1.5 7-2.3.1.2 1h2.3l1 3.9h1l-.8-3.9h3.8l-.2-1.2zM190.2 24.4c-.3-1.4-.3-2.3 1.2-2.1l-.2-1.1c-1.8-.3-2.6.6-2.1 2.7-1.2-2.1-2.8-2.9-4.6-2.9-3.1 0-3.9 3.3-3.2 7 .9 4.2 3.7 6.4 7 6.4 1.4 0 2.6-.4 3.8-1.2l-1.9-8.8zm.6 8.3c-.9.6-1.8.8-2.8.8-2.5 0-4.9-2-5.6-5.5-.6-3.1-.2-5.6 2.3-5.6 2.3 0 4.3 2.2 5 5.6l1.1 4.7zM195.4 26c-.5-2.3-.6-3.8 1-3.8.3 0 .7 0 1 .1l-.2-1.1c-.3-.1-.7-.1-1.1-.1-2.3 0-2.5 1.8-1.9 5l3.2 14.8h1.2L195.4 26z"/></g></g></g></svg>