<svg id="Camada_1" xmlns="http://www.w3.org/2000/svg" viewBox="0 0 383.3 118.3"><style>.st0{fill:#5b5b5b}</style><title>massaplayhorizontal</title><path class="st0" d="M159.2 40.1l-16 13.7-16-13.7c-.2-.3-.4-.3-.4 0v32h8.1V58.7l8 7.6c.1.1.1.1.2.1s.1 0 .2-.1l8-7.6v13.6h8.1v-32c.2-.4.1-.4-.2-.2zM177.3 39.7c-.1 0-.2.1-.3.2l-15.4 32.3h8.3l1.2-2.7H183l1.2 2.7h8.8L177.5 40c0-.2-.1-.3-.2-.3zm-3.6 23.5l3.2-7.4 3.3 7.4h-6.5zM215.7 57c-.7-.8-1.5-1.5-2.6-2.1-1.1-.6-2.4-1.2-4-1.7l-4.2-1.4c-.8-.2-1.3-.5-1.7-.9-.4-.3-.5-.8-.5-1.4 0-.6.3-1.1.8-1.6.5-.4 1.3-.6 2.3-.6 1.3 0 2.3.2 3.1.6.8.4 1.5 1 2.1 1.7l4.9-5.1c-.5-.6-1-1.1-1.7-1.6-.6-.5-1.4-.9-2.2-1.3-.8-.4-1.8-.7-2.9-.9-1.1-.2-2.4-.4-3.8-.4s-2.8.2-4.1.6c-1.3.4-2.5 1-3.5 1.8s-1.8 1.8-2.4 3c-.6 1.2-.9 2.5-.9 4.1 0 1.3.2 2.5.6 3.5.4 1 .9 1.9 1.6 2.7.7.8 1.5 1.4 2.5 2 1 .6 2 1 3.2 1.4l3.7 1.3c1.1.3 1.8.7 2.4 1.1.5.4.8.9.8 1.6 0 .9-.3 1.5-1 1.9-.7.4-1.7.6-3 .6-1.6 0-2.9-.3-3.9-1s-1.9-1.5-2.7-2.4l-6.2 4.6c.5.7 1.1 1.3 1.9 2 .8.7 1.7 1.3 2.8 1.9 1.1.6 2.3 1 3.7 1.4 1.4.4 3 .6 4.8.6 2.1 0 3.9-.2 5.4-.7 1.5-.5 2.8-1.2 3.8-2.1 1-.9 1.7-1.9 2.2-3.2.5-1.2.7-2.6.7-4 0-1.1-.1-2.2-.4-3.1-.4-1.3-.9-2.2-1.6-2.9zM243.7 59.6c-.3-.9-.8-1.8-1.4-2.6-.7-.8-1.5-1.5-2.6-2.1-1.1-.6-2.4-1.2-4-1.7l-4.2-1.4c-.8-.2-1.3-.5-1.7-.9-.4-.3-.5-.8-.5-1.4 0-.6.3-1.1.8-1.6.5-.4 1.3-.6 2.3-.6 1.3 0 2.3.2 3.1.6.8.4 1.5 1 2.1 1.7l4.9-5.1c-.5-.6-1-1.1-1.7-1.6-.6-.5-1.4-.9-2.2-1.3-.8-.4-1.8-.7-2.9-.9-1.1-.2-2.4-.4-3.8-.4s-2.8.2-4.1.6c-1.3.4-2.5 1-3.5 1.8s-1.8 1.8-2.4 3c-.6 1.2-.9 2.5-.9 4.1 0 1.3.2 2.5.6 3.5.4 1 .9 1.9 1.6 2.7.7.8 1.5 1.4 2.5 2 1 .6 2 1 3.2 1.4l3.7 1.3c1.1.3 1.8.7 2.4 1.1.5.4.8.9.8 1.6 0 .9-.3 1.5-1 1.9-.7.4-1.7.6-3 .6-1.6 0-2.9-.3-3.9-1s-1.9-1.5-2.7-2.4l-6.2 4.6c.5.7 1.1 1.3 1.9 2 .8.7 1.7 1.3 2.8 1.9 1.1.6 2.3 1 3.7 1.4 1.4.4 3 .6 4.8.6 2.1 0 3.9-.2 5.4-.7 1.5-.5 2.8-1.2 3.8-2.1 1-.9 1.7-1.9 2.2-3.2.5-1.2.7-2.6.7-4-.2-1.5-.3-2.5-.6-3.4zM259.8 39.7c-.1 0-.2.1-.3.2l-15.4 32.3h8.3l1.2-2.7h11.9l1.2 2.7h8.8L260 40c0-.2-.1-.3-.2-.3zm-3.6 23.5l3.2-7.4 3.3 7.4h-6.5zM297 43.3c-1.1-1.1-2.5-1.9-4.2-2.5-1.7-.6-3.7-.9-5.9-.9h-7.4v32.8h3.5v-8.2h4c2.3 0 4.2-.3 5.9-.9 1.7-.6 3.1-1.4 4.2-2.5s2-2.4 2.6-3.9c.6-1.5.9-3.2.9-5 0-1.8-.3-3.5-.9-5-.7-1.5-1.6-2.8-2.7-3.9zm-.8 12.7c-.4 1.1-1 2.1-1.8 2.9-.8.8-1.8 1.5-3.1 1.9-1.3.5-2.8.7-4.7.7h-3.8V43h3.8c1.8 0 3.4.2 4.7.7 1.3.5 2.3 1.1 3.1 1.9.8.8 1.4 1.8 1.8 2.9.4 1.1.6 2.4.6 3.7 0 1.4-.2 2.7-.6 3.8zM309.2 39.9h-3.5v32.8h18.9v-3.1h-15.4zM342 39.6l-13.6 33.1h3.4l2.2-5.5h16.6l2.2 5.5h3.7l-13.9-33.1h-.6zm1.1 8.8c.1.5.3.9.5 1.3l5.8 14.6h-14.1l5.8-14.6c.2-.4.3-.8.5-1.3.1-.4.3-.9.4-1.3.1-.4.3-.9.4-1.4.1.5.3 1 .4 1.4 0 .4.1.8.3 1.3zM379.7 39.9l-8.9 16.3c-.2.4-.3.7-.5 1.1-.2.4-.3.7-.5 1.1-.2.4-.3.8-.4 1.2-.2-.4-.3-.8-.4-1.2-.1-.4-.3-.7-.5-1.1-.2-.4-.3-.7-.5-1L359.1 40h-3.9l12.4 22.5v10.3h3.6V62.3l12.2-22.4h-3.7zM75.4 56.2L55.2 50c-1.3-.4-2.5.7-2.3 2L55 69c.2 1.3 1.6 2 2.8 1.3L76 59.4c1.2-.7 1-2.8-.6-3.2zM55.7 79.4c.1 0 .2 0 .3-.1-.1.1-.2.1-.3.1zM56 79.3c.8-.2 1.6-.4 2.5-.6-.8.3-1.7.5-2.5.6zM53.5 79.8c.7-.1 1.4-.2 2.2-.4-.7.1-1.5.3-2.2.4z"/><path class="st0" d="M90.3 49.5c-.5-3.9-3.4-7-8.8-9.4-17.2-7.5-35.9-9.4-41.1-6l-.1.1c-3.4 2.2-5.7 9.8-5.7 19.4v2.2c0 .4 0 .9.1 1.4v.4c0 .6.1 1.2.1 1.8v.3c0 .5.1 1 .2 1.5 0 .2 0 .4.1.5.1.5.1 1 .2 1.5 0 .1 0 .2.1.3l.3 1.8c0 .2.1.3.1.5.1.5.2 1 .3 1.4 0 .2.1.4.1.5.1.6.3 1.2.5 1.9 1.3 5 4.1 8.3 8.4 9.6l1.2.3c.1 0 .3.1.4.1.3.1.6.1.9.2.2 0 .5.1.7.1.3 0 .5.1.8.1H50.3c1 0 2-.1 3-.2-.5-.1-1-.1-1.4-.3-3-.8-5-2.6-6-5.6-.1-.4-.3-.8-.4-1.2-2.5-10.2-.6-21.7 4-24.6l.1-.1c4.5-2.8 18.7-1.5 30.3 2.8 3.4 1.3 5.5 3 6.3 5.2.2.5.3 1 .3 1.5.1 1-.1 2.1-.5 3.2 1.1-1.4 2.1-2.9 2.8-4.3.1-.1.1-.2.2-.3.1-.3.3-.6.4-.9.1-.2.1-.4.2-.6.1-.2.1-.3.2-.5l.3-.9c0-.1.1-.2.1-.3.1-.3.1-.7.2-1v-.2c0-.3.1-.7.1-1-.1-.4-.2-.8-.2-1.2zM53.5 79.8c-.1 0-.1 0 0 0zM74 71.3c-2.7 1.8-5.3 3.3-7.9 4.5 2.5-1.2 5.2-2.7 7.9-4.5l.1-.1c3.1-2.1 5.8-4.2 8.1-6.4-2.3 2.1-5 4.3-8.1 6.3l-.1.2z"/><path class="st0" d="M98.2 28.2C70.3 16 37.7 11.7 26.1 19.5c-11.7 7.6-15.2 35.7-8.4 61.9 6.8 26.2 37.4 28.2 70.2 6.5 32.8-21.7 38.3-47.5 10.3-59.7zM74.4 71.9l-.1.1C63.1 79.4 52 82.4 44.6 80c-4.1-1.3-6.9-4.2-8.5-8.5-.2-.5-.4-1.1-.5-1.7-4.4-17.1-1.5-32.9 4-36.5l.1-.1c5.4-3.5 24-2 42.1 5.9 4.7 2.1 7.7 4.7 8.8 8 .2.7.4 1.4.5 2.1.8 6.8-5.4 15.2-16.7 22.7z"/></svg>