<svg id="Camada_1" data-name="Camada 1" xmlns="http://www.w3.org/2000/svg" viewBox="0 0 514.64 122.41"><defs><style>.cls-1{fill:#5b5b5b}</style></defs><title>massa-news-gray</title><path class="cls-1" d="M271.09 26.76c0-8.6 6.28-15.87 13.71-15.87 8.08 0 12.91 5.73 12.91 15.34v28.4h5.86V26.67c0-9.75 7.07-15.78 13.62-15.78 8.14 0 13 5.77 13 15.42v28.31h5.86V26c0-12.85-7.16-20.84-18.68-20.84-6.62 0-12.58 3.62-16.15 9.74-3.1-6.29-8.79-9.74-16.15-9.74a17.55 17.55 0 0 0-14 7.07v-6h-5.87v48.39h5.87V26.76zM361.48 55.69c7.16 0 13.48-2.59 17.59-7.16v6.08h5.86V24.87c0-5.78-1.71-10.59-4.94-13.92-3.57-3.57-8.77-5.39-15.45-5.39a36.88 36.88 0 0 0-16.67 4.11l-1.28.62 2.27 5.29 1.42-.71a30.31 30.31 0 0 1 14.09-3.62c6.71 0 14.71 2.4 14.71 13.81v1a54 54 0 0 0-14.71-2c-13.1 0-21.56 6.31-21.56 16.07v.18c-.01 10.58 9.67 15.38 18.67 15.38zM348.84 40c0-6.3 5.91-10.21 15.42-10.21a49.9 49.9 0 0 1 14.88 2.12v4.49c.01 7.6-7.67 13.6-17.48 13.6-6.38 0-12.82-3-12.82-9.85V40zM411 49.74a26.24 26.24 0 0 1-16-5.89l-1.19-.94-3.49 4.59 1.09.91a31.58 31.58 0 0 0 19.4 7c10.2 0 17.6-5.85 17.6-13.91v-.16c0-8.9-8-11.81-16.84-14.22-7.42-2.08-12.67-3.9-12.67-8.37v-.18c0-4.3 4.6-7.42 10.93-7.42a24.06 24.06 0 0 1 13.53 4.49l1.25.89 3.29-4.94-1.22-.83a31.09 31.09 0 0 0-16.77-5.3c-9.83 0-17 5.62-17 13.37V19c0 8.93 8.56 11.39 16.85 13.77 7.42 2 12.67 3.84 12.67 8.82v.18c.01 4.62-4.82 7.97-11.43 7.97zM469.16 41.51v-.17c0-8.9-8-11.81-16.84-14.22-7.42-2.08-12.67-3.9-12.67-8.37v-.18c0-4.3 4.6-7.42 10.93-7.42a24.07 24.07 0 0 1 13.53 4.49l1.25.89 3.29-4.94-1.22-.83a31.1 31.1 0 0 0-16.77-5.3c-9.83 0-17 5.62-17 13.37V19c0 8.93 8.56 11.39 16.85 13.77 7.42 2 12.67 3.84 12.67 8.82v.18c0 4.61-4.82 8-11.47 8a26.24 26.24 0 0 1-16-5.89l-1.19-.94-3.49 4.59 1.09.91a31.57 31.57 0 0 0 19.4 7c10.24-.02 17.64-5.87 17.64-13.93zM510.93 10.95c-3.57-3.57-8.77-5.39-15.45-5.39a36.85 36.85 0 0 0-16.67 4.11l-1.28.62 2.27 5.29 1.41-.71a30.31 30.31 0 0 1 14.09-3.62C502 11.24 510 13.64 510 25v1a54 54 0 0 0-14.71-2c-13.1 0-21.56 6.31-21.56 16.07v.18c0 10.55 9.68 15.35 18.68 15.35 7.17 0 13.48-2.59 17.59-7.15v6.08h5.86V24.87c0-5.78-1.7-10.6-4.93-13.92zm-.84 25.44C510.09 44 502.41 50 492.6 50c-6.38 0-12.82-3-12.82-9.85V40c0-6.3 5.91-10.21 15.42-10.21a49.9 49.9 0 0 1 14.89 2.12v4.49zM352.93 101.16H339.1v14.34h28.84a15 15 0 0 0-15.01-14.34zM434.94 114.85h28.37a15 15 0 0 0 15-14.34h-28.36a15 15 0 0 0-15.01 14.34zM301.81 79.19v36.32a15 15 0 0 0 14.34-15V64.18a15 15 0 0 0-14.34 15.01zM266.11 79.16v36.32a15 15 0 0 0 14.34-15V64.14a15 15 0 0 0-14.34 15.02zM337.72 115.48V64.14a15.31 15.31 0 0 0-14.34 15.47v20.85a15 15 0 0 0 14.34 15.02zM367.94 64.13H339.1v14.34h13.83a15 15 0 0 0 15.01-14.34zM360 82.51h-20.9v14.34h5.84A15 15 0 0 0 360 82.51zM373.11 64.18v36.32a15 15 0 0 0 14.34 15V79.19a15 15 0 0 0-14.34-15.01zM414.61 79.19v36.32a15 15 0 0 0 14.34-15V64.18a15 15 0 0 0-14.34 15.01z" transform="translate(-1.23 -1.01)"/><path class="cls-1" d="M400.24 99.33l11.77 13.97V90.14l-11.77-12.48v21.67z"/><path class="cls-1" d="M478.29 64.81h-28.37a15 15 0 0 0-15 14.34h28.37a15 15 0 0 0 15-14.34z" transform="translate(-1.23 -1.01)"/><path class="cls-1" d="M280.6 88.37l18.6 24.76V89.25l-18.6-24.76v23.88zM387.6 113.24l11.26-13.9V77.7L387.6 90.03v23.21zM434.81 79.51l21.03 18.6h20.14l-21.03-18.6h-20.14zM0 88.88l3.43 22.19 10.04-17.68L0 88.88zM111.86 9.38l-33.9 59.74-.58 43.91 34.31-62.04.17-41.61z"/><path class="cls-1" d="M99.91 3.3C86-2.23 69.25 2.62 62.6 14.1l-57 100.51 12.14 4.82c13.93 5.52 30.66.68 37.31-10.8l57-100.51zM171.45 4.17c-13.21-5.24-29.37-.17-36 11.31L79.4 116.8l11.49 4.56c13.21 5.24 29.37.17 36-11.31l56-101.31z" transform="translate(-1.23 -1.01)"/><path class="cls-1" d="M181.93 11.52L148.4 72.16l-.2 38.17 32.73-55.85 1-42.96z"/><path class="cls-1" d="M188.58 48.54l-38.76 66.14 10.23 4.76c13.92 5.51 30.64.66 37.28-10.81l36.73-66.07-12.15-4.82c-13.37-5.31-26.45-1.07-33.33 10.8z" transform="translate(-1.23 -1.01)"/></svg>