<svg id="Camada_1" xmlns="http://www.w3.org/2000/svg" viewBox="0 0 334 223.3"><style>.st0{fill:#7d2dbb}</style><title>redemassavertical</title><path class="st0" d="M15.9 136.1L5 135.6l-2-.5c-1.5-.5-2.2-1.2-2.2-2.9 0-1.5.5-3.7 1.4-7 2.2-7.9 3.1-10.8 7.4-11l13-.5c1.5-4.8 2.8-9.9 4.3-14.9-5.3-.2-9-.5-11.3-.6-.8 0-1.4-.2-2-.3-1.5-.5-2.3-1.4-2.3-3.3 0-1.5.5-3.6 1.4-6.7 2.3-7.9 3.1-10.8 7.6-11l13.2-.5c1.4-4.3 4.8-16.6 6-20.1 1.4-4.2 4.5-4.2 12.7-4.2 7.3 0 9.3.6 9.3 3.6 0 .6 0 1.2-.2 2-.5 1.7-3.4 13.6-4.8 18.6l15.8-.3 5.9-19.7c1.4-4.2 4.5-4.2 12.7-4.2 7.3 0 9.3.6 9.3 3.6 0 .6 0 1.2-.2 2-.3 1.7-3.4 13.3-4.6 17.8 8.4.2 14.9.3 16 .6 1.1.3 2.5 1.5 2.5 3.3 0 .3 0 .8-.2 1.1l-3.3 11.9c-1.9 6.4-3.7 6.4-14.4 6.4h-2.3c-1.4 0-2.9.2-4.5.2l-3.8 14c8.1 0 14.4.2 15.3.5 1.2.3 2.6 1.5 2.6 3.4 0 .3 0 .6-.2.9l-3.4 11.9c-1.9 6.4-3.7 6.4-14.4 6.4H83c-1.4 0-3.4 0-4.8.2l-2 6.4c-6 18.9-4 21.2-12.4 21.2H51.5c-2.5 0-3.6-2.2-3.6-3.6 0-5.4 3.7-16 6-22.3l.6-1.5h-15c-8.2 25.1-6 27.4-14.4 27.4H12.8c-2.5 0-3.6-2.2-3.6-3.6 0-5.8 4.8-17.7 6.7-24.2zm34.7-36.9l-4 14.4c5 0 9.9-.2 15-.2 1.4-4.6 2.6-9.5 4-14.3h-15z"/><path d="M157.2 57.3c1.9-4.5 3.9-4.9 7-4.9h4.7c5.2 0 5.2 3.5 5.2 6.9v47.8c0 3.5 0 6.9-5.2 6.9h-4.3c-5.2 0-5.2-3.5-5.2-6.9V83.2c0-.5-.2-.9-.4-.9s-.5.3-.8.9c-6.2 12.2-6.3 15.2-9.2 15.2-2.9 0-3.1-3-9.2-15.2-.3-.5-.6-.9-.8-.9-.3 0-.4.3-.4.9v23.9c0 3.5 0 6.9-5.2 6.9H129c-5.2 0-5.2-3.5-5.2-6.9V59.3c0-3.5 0-6.9 5.2-6.9h4.6c3.2 0 5.2.4 7.1 4.9l6.5 15.4c.7 1.6 1.1 2.4 1.7 2.4.6 0 1-.9 1.7-2.4l6.6-15.4zM220 109.7c0 4-2.7 4.3-7.6 4.3h-4.6c-5.4 0-2.7-13-6.2-13h-6.9c-3.5 0-1.5 13-6.7 13h-4.1c-4.5 0-7.2-.3-7.2-4.3 0-5.2 2.1-9.8 8.9-50.4.7-4.3 2.4-6.9 5.9-6.9h13.4c3.5 0 5.2 2.6 6.1 6.9 5.8 35.7 9 45.2 9 50.4zm-25.2-23.1c0 1.4.6 1.4 3.4 1.4 2.7 0 3.4 0 3.4-1.3 0-.3 0-.8-.1-1.4-1-8.5-1.4-19-3.3-19-1.8 0-2.4 10.4-3.3 19-.1.5-.1 1-.1 1.3zM240.6 52c7.2 0 12.1 1.3 12.1 3.7v6.7c0 1-.3 2.6-3.3 2.6h-.7c-1.4 0-4.5-1-7-1-2.1 0-3.7.7-3.7 3.5 0 2.7.8 4.1 4.2 6.9 10.3 8.5 12.4 14.6 12.4 21.6 0 4-.1 7.6-2.3 11-2.9 4.3-7.4 6-9.3 6.5-2.3.6-5.6 1-8.3 1-6.4 0-12.7-1.2-12.7-4.7v-6.7c0-1 .9-2.1 3.2-2.1 2.3 0 4.2 1.3 9.1 1.3 2.4 0 5.7-1.9 5.7-4.6 0-2-.1-3.5-5.4-8.7-8.1-7.9-11.9-11.6-11.9-18.7-.1-17 11-18.3 17.9-18.3zM275 52c7.2 0 12.1 1.3 12.1 3.7v6.7c0 1-.3 2.6-3.3 2.6h-.7c-1.4 0-4.5-1-7-1-2.1 0-3.7.7-3.7 3.5 0 2.7.8 4.1 4.2 6.9C286.9 82.9 289 89 289 96c0 4-.1 7.6-2.3 11-2.9 4.3-7.4 6-9.3 6.5-2.3.6-5.6 1-8.3 1-6.4 0-12.7-1.2-12.7-4.7v-6.7c0-1 .9-2.1 3.2-2.1 2.3 0 4.2 1.3 9.1 1.3 2.4 0 5.7-1.9 5.7-4.6 0-2-.1-3.5-5.4-8.7-8.1-7.9-11.9-11.6-11.9-18.7-.1-17 11-18.3 17.9-18.3zM334.1 109.7c0 4-2.7 4.3-7.6 4.3h-4.6c-5.4 0-2.7-13-6.2-13h-6.9c-3.5 0-1.5 13-6.7 13H298c-4.5 0-7.2-.3-7.2-4.3 0-5.2 2.1-9.8 8.9-50.4.7-4.3 2.4-6.9 5.9-6.9H319c3.5 0 5.2 2.6 6.1 6.9 5.8 35.7 9 45.2 9 50.4zm-25.3-23.1c0 1.4.6 1.4 3.4 1.4 2.7 0 3.4 0 3.4-1.3 0-.3 0-.8-.1-1.4-1-8.5-1.4-19-3.3-19-1.8 0-2.4 10.4-3.3 19-.1.5-.1 1-.1 1.3z"/><g><path class="st0" d="M111.5 137.2c3.9-.6 4.9.9 4 4.6 2.2-3.4 5.4-5.1 8.2-5.1 3.1 0 5.3 2.2 5.3 6.3 2.2-4.2 5.2-6.3 9.2-6.3 4.3 0 6.5 3.3 4.9 10.9l-1.9 9.2c-.7 3-.6 5 2.6 4.3l-.5 2c-4.5 1-5.7-1.3-4.6-6.4l1.9-9.2c1.3-6.4-.1-8.7-3.3-8.7-4.1 0-7.3 3.8-8.4 9.1l-3.2 15.2h-2.4l3.2-15.2c1-5 .5-9-3.7-9-4.1 0-7.4 3.6-8.5 9l-3.2 15.2h-2.4l3.9-18.2c1-4.7 1.3-6.4-1.7-6l.6-1.7zM166.2 157.3c-.9 4.2-.1 4.6 2.3 4l-.4 2.1c-3 .6-5 0-4.3-4.2-2.7 3.6-5.1 4.6-8.5 4.6-5.2 0-7.1-4.9-5.8-11.2l3.2-15.4h2.4l-3.3 15.8c-1.2 6 .7 8.3 4.6 8.3 3.8 0 7.3-3.3 8.5-8.7l3.2-15.4h2.4l-4.3 20.1zM176.9 153.9c-1 4.7-1.1 7.6 2 7.8.7 0 1.4-.1 2.1-.2l-.5 2.2c-.7.2-1.5.2-2.2.2-4.6 0-5.1-3.7-3.8-10.2l6.4-29.8h2.4l-6.4 30zM200.3 139.6h-7.7l-3 14c-1.2 5.8-.4 8 2.6 8 1.1 0 2.6-.4 4.6-1.2l-.2 2.3c-1.9.8-3.7 1.2-5.2 1.2-4.1 0-5.8-3.3-4.3-10.2l3-14.1-4.6-.2.5-2h4.7l1.9-8h2.1l-1.7 8h7.6l-.3 2.2zM206.2 137.3h2.4l-5.6 26h-2.4l5.6-26zm2.7-7.4c-2.2 0-1.7-3.3.8-3.3 2.1 0 1.5 3.3-.8 3.3zM229.3 159.2c-.5 2.2.3 2.6 2.5 2.3l-.4 2.1c-3.5.6-5-.9-4.2-4.8l.2-.8c-2.3 4.3-5.6 5.9-9.2 5.9-12.3 0-7.7-27.1 5.7-27.1 3.7 0 6.3 2.5 6.7 5.8l4-18.9h2.3l-7.6 35.5zm-.3-8.7c1.2-6.4-.2-11.4-5.1-11.4-10.2 0-14.6 22.4-5.4 22.4 4.7 0 9.3-4.3 10.5-11zM241.8 137.3h2.4l-5.6 26h-2.4l5.6-26zm2.7-7.4c-2.2 0-1.7-3.3.8-3.3 2.1 0 1.5 3.3-.8 3.3zM244.4 172.4c2 1.7 4.3 2.6 6.7 2.6 4.5 0 8.5-2.7 10.1-10.1l1.5-7c-2.4 4-5.2 5.8-9.1 5.8-4.4 0-7.5-3.4-6.9-10.3.9-10.6 7.1-16.7 14.7-16.7 2.9 0 5.3.9 7.5 2.4l-5.5 26c-1.9 8.6-6.6 12.1-12 12.1-2.7 0-5.4-1-8-2.9l1-1.9zm21.8-31.7c-1.7-1.2-3.7-1.6-5.6-1.6-5.9 0-10.7 5.3-11.5 13.9-.6 5.7 1.5 8.6 5.1 8.6 5 0 8.9-5.9 10-11.3l2-9.6zM276.4 137.3h2.4l-5.6 26h-2.4l5.6-26zm2.7-7.4c-2.2 0-1.7-3.3.8-3.3 2.1 0 1.5 3.3-.8 3.3zM296.8 139.6h-7.7l-3 14c-1.2 5.8-.4 8 2.6 8 1.1 0 2.6-.4 4.6-1.2l-.2 2.3c-1.9.8-3.7 1.2-5.2 1.2-4.1 0-5.8-3.3-4.3-10.2l3-14.1-4.6-.2.5-2h4.7l1.9-8h2.1l-1.7 8h7.6l-.3 2.2zM316.5 157.2c-.6 2.7-.6 4.7 2.4 4.2l-.5 2.2c-3.7.6-5.2-1.2-4.2-5.5-2.4 4.3-5.7 5.8-9.3 5.8-6.3 0-8-6.6-6.4-14.1 1.7-8.4 7.4-12.9 14.2-12.9 2.7 0 5.3.8 7.6 2.5l-3.8 17.8zm1.2-16.7c-1.7-1.2-3.7-1.6-5.6-1.6-5 0-9.8 4.1-11.2 11.1-1.3 6.3-.4 11.4 4.7 11.4 4.7 0 8.7-4.5 10.1-11.2l2-9.7zM326.9 153.9c-1 4.7-1.1 7.6 2 7.8.7 0 1.4-.1 2.1-.2l-.5 2.2c-.7.2-1.5.2-2.2.2-4.6 0-5.1-3.7-3.8-10.2l6.4-29.8h2.4l-6.4 30z"/></g></svg>