<svg id="Camada_1" xmlns="http://www.w3.org/2000/svg" viewBox="0 0 184.6 168.9"><style>.st0{fill:#5b5b5b}</style><title>massaplayvertical</title><path class="st0" d="M105.5 72.8l-26.2-8c-1.6-.5-3.2.9-3 2.5L79 89.4c.2 1.7 2.1 2.6 3.6 1.7l23.4-14c1.8-1.1 1.5-3.7-.5-4.3z"/><path class="st0" d="M54.3 85.2c.1.6.3 1.2.4 1.9.1.2.1.5.2.7l.6 2.4c1.7 6.5 5.4 10.7 10.9 12.5.5.2 1 .3 1.6.4.2 0 .3.1.5.1.4.1.8.1 1.2.2.3 0 .6.1.9.1.3 0 .7.1 1.1.1h1.5c1.3 0 2.6-.1 3.9-.3-.6-.1-1.3-.2-1.9-.3-3.8-1-6.5-3.4-7.8-7.2-.2-.5-.3-1-.5-1.6C63.6 81 66 66 72 62.3l.1-.1c5.8-3.7 24.2-2 39.2 3.6 4.4 1.6 7.1 3.9 8.1 6.8.2.6.4 1.3.4 1.9.1 1.3-.1 2.7-.6 4.1 1.5-1.9 2.7-3.7 3.6-5.5.1-.2.1-.3.2-.4.2-.4.4-.8.5-1.2.1-.2.2-.5.3-.7.1-.2.1-.4.2-.6l.3-1.2c0-.1.1-.3.1-.4.1-.4.2-.8.2-1.3V67c.1-.4.1-.9.1-1.3 0-.5 0-1.1-.1-1.6-.6-5-4.4-9.1-11.4-12.2-22.2-9.8-46.3-12.2-53-7.7l-.1.1c-4.4 2.9-7.3 12.7-7.3 25.1V72.2c0 .6 0 1.2.1 1.8v.6c0 .8.1 1.5.2 2.3v.4c.1.6.1 1.3.2 1.9 0 .2.1.5.1.7.1.6.2 1.3.3 1.9 0 .1 0 .3.1.4.1.8.3 1.6.4 2.4 0 .2.1.4.1.6z"/><path class="st0" d="M77.9 103.2c-.3 0-.6.1-.9.1.3 0 .6-.1.9-.1zM83.1 102.1c1-.3 1.9-.6 2.9-.9-.9.3-1.9.6-2.9.9zM77.9 103.2c.8-.1 1.5-.2 2.3-.4-.7.1-1.5.3-2.3.4zM82 102.4c.4-.1.7-.2 1.1-.3-.3.1-.7.2-1.1.3zM80.2 102.8c.6-.1 1.2-.3 1.8-.4-.6.1-1.2.2-1.8.4zM119.2 78.7c.1 0 .1 0 0 0-.2.2-.4.5-.7.8.3-.3.5-.6.7-.8zM103.6 92.4c-3.5 2.3-6.9 4.2-10.3 5.8 3.4-1.6 6.8-3.5 10.3-5.8l.2-.1c4-2.7 7.5-5.4 10.5-8.2-2.9 2.8-6.5 5.5-10.5 8.2l-.2.1z"/><path class="st0" d="M121.6 113.8c42.6-28 49.6-61.4 13.4-77.3-36.1-15.8-78.4-21.3-93.4-11.2-15.2 9.9-19.7 46.2-10.9 80.1 8.9 34 48.4 36.6 90.9 8.4zM59.1 43.1l.1-.1c7-4.6 31.1-2.6 54.5 7.7 6.1 2.7 9.9 6.1 11.4 10.3.3.9.5 1.8.6 2.7 1 8.8-7 19.8-21.6 29.4l-.2.1c-14.5 9.6-28.9 13.5-38.4 10.4-5.3-1.7-8.9-5.4-11-11-.3-.7-.5-1.5-.7-2.2-5.6-22.1-1.8-42.7 5.3-47.3zM23.3 145.5l-11.5 9.9-11.5-9.9c-.2-.2-.3-.2-.3 0v23.1h5.9v-9.8l5.8 5.5c0 .1.1.1.1.1s.1 0 .1-.1l5.8-5.5v9.8h5.9v-23.1c0-.2-.1-.3-.3 0zM36.3 145.1c-.1 0-.2.1-.2.2L25 168.5h6l.8-1.9h8.6l.9 1.9h6.3l-11.1-23.2-.2-.2zM33.7 162l2.3-5.3 2.4 5.3h-4.7zM64 157.6c-.5-.6-1.1-1.1-1.9-1.5-.8-.5-1.7-.9-2.9-1.3l-3-1c-.6-.2-1-.4-1.2-.6-.3-.2-.4-.6-.4-1s.2-.8.6-1.1c.4-.3.9-.5 1.7-.5.9 0 1.7.2 2.2.5.6.3 1.1.7 1.5 1.2l3.5-3.7c-.3-.4-.7-.8-1.2-1.1-.5-.4-1-.7-1.6-1-.6-.3-1.3-.5-2.1-.7-.8-.2-1.7-.3-2.7-.3-1 0-2 .1-2.9.4-.9.3-1.8.7-2.5 1.3-.7.6-1.3 1.3-1.7 2.1-.4.9-.6 1.8-.6 3 0 .9.1 1.8.4 2.5.3.7.7 1.4 1.2 1.9.5.6 1.1 1 1.8 1.4.7.4 1.5.7 2.3 1l2.7.9c.8.2 1.3.5 1.7.8.4.3.6.7.6 1.2 0 .6-.3 1.1-.8 1.4-.5.3-1.2.4-2.1.4-1.1 0-2.1-.2-2.8-.7-.7-.5-1.4-1.1-1.9-1.8l-4.4 3.3c.4.5.8 1 1.4 1.5.5.5 1.2 1 2 1.4.8.4 1.7.7 2.7 1 1 .3 2.2.4 3.4.4 1.5 0 2.8-.2 3.9-.5 1.1-.4 2-.9 2.7-1.5.7-.6 1.2-1.4 1.6-2.3.3-.9.5-1.9.5-2.9 0-.8-.1-1.5-.3-2.2-.6-.7-1-1.4-1.4-1.9zM84.1 159.4c-.2-.7-.6-1.3-1-1.9-.5-.6-1.1-1.1-1.9-1.5-.8-.5-1.7-.9-2.9-1.3l-3-1c-.6-.2-1-.4-1.2-.6-.3-.2-.4-.6-.4-1s.2-.8.6-1.1c.4-.3.9-.5 1.7-.5.9 0 1.7.2 2.2.5.6.3 1.1.7 1.5 1.2l3.5-3.7c-.3-.4-.7-.8-1.2-1.1-.5-.4-1-.7-1.6-1-.6-.3-1.3-.5-2.1-.7-.8-.2-1.7-.3-2.7-.3-1 0-2 .1-2.9.4-.9.3-1.8.7-2.5 1.3-.7.6-1.3 1.3-1.7 2.1-.4.9-.6 1.8-.6 3 0 .9.1 1.8.4 2.5.3.7.7 1.4 1.2 1.9.5.6 1.1 1 1.8 1.4.7.4 1.5.7 2.3 1l2.7.9c.8.2 1.3.5 1.7.8.4.3.6.7.6 1.2 0 .6-.3 1.1-.8 1.4-.5.3-1.2.4-2.1.4-1.1 0-2.1-.2-2.8-.7-.7-.5-1.4-1.1-1.9-1.8l-4.4 3.3c.4.5.8 1 1.4 1.5.5.5 1.2 1 2 1.4.8.4 1.7.7 2.7 1 1 .3 2.2.4 3.4.4 1.5 0 2.8-.2 3.9-.5 1.1-.4 2-.9 2.7-1.5.7-.6 1.2-1.4 1.6-2.3.3-.9.5-1.9.5-2.9-.4-.7-.5-1.5-.7-2.2zM95.7 145.1c-.1 0-.2.1-.2.2l-11.1 23.2h6l.8-1.9h8.6l.9 1.9h6.3l-11.1-23.2c-.1-.1-.1-.2-.2-.2zM93.1 162l2.3-5.3 2.4 5.3h-4.7zM122.5 147.7c-.8-.8-1.8-1.4-3-1.8-1.2-.4-2.6-.6-4.3-.6h-5.3v23.6h2.5V163h2.8c1.6 0 3-.2 4.3-.6 1.2-.4 2.2-1 3-1.8.8-.8 1.4-1.7 1.8-2.8.4-1.1.6-2.3.6-3.6 0-1.3-.2-2.5-.6-3.6-.4-1.2-1-2.1-1.8-2.9zm-.6 9.2c-.3.8-.7 1.5-1.3 2.1-.6.6-1.3 1.1-2.3 1.4-.9.3-2 .5-3.4.5h-2.7v-13.4h2.7c1.3 0 2.4.2 3.4.5.9.3 1.7.8 2.3 1.4.6.6 1 1.3 1.3 2.1.3.8.4 1.7.4 2.7 0 1-.1 1.9-.4 2.7zM131.2 145.3h-2.5v23.6h13.7v-2.2h-11.2zM154.9 145l-9.8 23.9h2.5l1.6-4H161l1.6 4h2.6l-10-23.9h-.3zm.7 6.4l.3.9 4.2 10.5H150l4.2-10.5.3-.9.3-.9c.1-.3.2-.7.3-1 .1.3.2.7.3 1 0 .3.1.6.2.9zM182 145.3l-6.4 11.7c-.1.3-.2.5-.4.8-.1.3-.2.5-.3.8-.1.3-.2.6-.3.8l-.3-.9c-.1-.3-.2-.5-.3-.8-.1-.3-.2-.5-.4-.7l-6.4-11.7h-2.8l8.9 16.2v7.4h2.6v-7.5l8.8-16.1H182z"/></svg>