<svg id="Camada_1" xmlns="http://www.w3.org/2000/svg" viewBox="0 0 376.6 419.8"><style>.st0{fill:#5b5b5b}</style><title>massafmvertical</title><path class="st0" d="M77 285.9h-6.2c-4.1 0-7.8 2.6-9.2 6.3l-16 38.1-15.9-38c-1.4-3.8-5.1-6.4-9.2-6.4h-6.1c-5.3 0-9.6 4.2-9.8 9.3l-4.6 62c-.1 2.7.9 5.2 2.7 7.2 1.9 1.9 4.4 3 7.2 3 5.3 0 9.6-4.2 9.8-9.5l1.3-38.8 13.9 35.6c1.5 3.8 5.1 6.2 9.1 6.2h3c4.1 0 7.7-2.5 9.1-6.2l14-35.7 1.5 39c.2 5.3 4.5 9.5 9.8 9.5 2.7 0 5.2-1.1 7.1-3 1.9-1.9 2.8-4.5 2.7-7.3l-4.5-61.7c0-5.4-4.3-9.6-9.7-9.6zM161.5 367.4h.9c3.3 0 6.3-1.6 8.2-4.3 1.8-2.7 2.2-6.2 1-9.2l-1-2.4c0-.1-.1-.2-.2-.4l-23.9-59c-1.5-3.7-5.1-6.2-9.1-6.2h-7.1c-4 0-7.6 2.4-9.1 6.2l-25 61.8c-1.2 3-.9 6.5 1 9.2 1.8 2.7 4.9 4.3 8.2 4.3 4 0 7.7-2.5 9.2-6.3l5.9-15.2h26.1l5.8 15.2c1.4 3.7 5.1 6.3 9.1 6.3zm-34.1-39.5l6-15.6 6.1 15.6h-12.1zM225.2 323.9c-5-3.5-11.2-5.5-16.6-7.2-8.3-2.6-13.4-4.5-13.4-8.6v-.5s-.1-1.4 1-2.6c3.1-3.6 12.9-4 26.5-.8.6.2 1.3.2 2 .2 4.8 0 8.6-3.9 8.6-8.6 0-3.9-2.6-7.3-6.3-8.3-4.1-1.1-12.2-3-20.8-3-19.3 0-31.3 9.6-31.3 25.1 0 8.9 3.7 15.4 11 19.9 5 3.5 11.2 5.5 16.6 7.2 8.3 2.6 13.4 4.5 13.4 8.6v.5s.1 1.4-1 2.6c-1.7 1.9-5.4 3-10.6 3-4.3 0-9.7-.7-15.9-2.2-.7-.2-1.3-.2-2-.2-4.8 0-8.6 3.9-8.6 8.6 0 3.9 2.6 7.3 6.3 8.3 4.1 1.1 12.2 3 20.8 3 19.3 0 31.3-9.6 31.3-25.1 0-8.9-3.7-15.5-11-19.9zM286.3 323.9c-5-3.5-11.2-5.5-16.6-7.2-8.3-2.6-13.4-4.5-13.4-8.6v-.4c0-.1-.1-1.5 1.1-2.8 1.7-1.9 5.4-2.9 10.5-2.9 4.3 0 9.7.7 15.9 2.2.6.2 1.3.2 2 .2 4.8 0 8.6-3.9 8.6-8.6 0-3.9-2.6-7.3-6.3-8.3-4.1-1.1-12.2-3-20.8-3-19.3 0-31.3 9.6-31.3 25.1 0 8.9 3.7 15.4 11 19.9 5 3.5 11.2 5.5 16.6 7.2 8.3 2.6 13.4 4.5 13.4 8.6v.4c0 .1.1 1.5-1.1 2.8-1.7 1.9-5.4 2.9-10.5 2.9-4.3 0-9.7-.7-15.9-2.2-.7-.2-1.3-.2-2-.2-4.8 0-8.6 3.9-8.6 8.6 0 3.9 2.6 7.3 6.3 8.3 4.1 1.1 12.2 3 20.8 3 19.3 0 31.3-9.6 31.3-25.1.1-8.9-3.6-15.5-11-19.9zM375.9 353.8l-1-2.4c0-.1-.1-.2-.2-.4l-23.9-59c-1.5-3.7-5.1-6.2-9.1-6.2h-7.1c-4 0-7.6 2.4-9.1 6.2l-25 61.8c-1.2 3-.9 6.5 1 9.2 1.8 2.7 4.9 4.3 8.2 4.3 4 0 7.7-2.5 9.2-6.3l5.8-15.2h26.1l5.8 15.2c1.5 3.8 5.2 6.3 9.2 6.3h.9c3.3 0 6.3-1.6 8.2-4.3 1.9-2.7 2.2-6.1 1-9.2zm-44.1-25.9l6-15.6 6.1 15.6h-12.1zM175.7 380.7h-20.2c-1.8 0-3.2 1.4-3.2 3.2v32.8c0 1.8 1.4 3.2 3.2 3.2h1.5c1.8 0 3.2-1.4 3.2-3.2v-12.2h10.4c.9 0 1.8-.4 2.4-1 .6-.6.9-1.4.9-2.3-.1-1.8-1.5-3.1-3.2-3.1h-10.5v-10.9h15.5c1.6 0 3-1.1 3.3-2.7.2-.9-.1-1.9-.7-2.6-.8-.8-1.7-1.2-2.6-1.2zm-.2 4.3H159c-.6 0-1 .5-1 1v13c0 .6.5 1 1 1h11.6c.6 0 1.1.5 1.1 1.1 0 .4-.2.6-.3.8-.2.3-.6.4-.9.4H159c-.6 0-1 .5-1 1v13.3c0 .6-.5 1.1-1.1 1.1h-1.5c-.6 0-1.1-.5-1.1-1.1v-32.8c0-.6.5-1.1 1.1-1.1h20.2c.3 0 .6.1.9.4.2.3.3.6.2.9 0 .6-.6 1-1.2 1zM218.9 380.7h-3.7c-1.5 0-2.9.9-3.4 2.3-.1.2-6.4 15.5-9.2 21.9-2.8-6.4-9.1-21.7-9.2-21.9-.5-1.4-1.9-2.4-3.4-2.4h-3.7c-1.9 0-3.5 1.5-3.6 3.4l-1.9 32c0 1 .3 1.9 1 2.6.7.7 1.6 1.1 2.6 1.1 2 0 3.6-1.5 3.7-3.5h-.1.1v-.2c.1-.7.1-1.9.2-3.8.2-3.4.4-9.5.9-20.7 6.5 16 8.7 20.9 9.6 22.5h-.1c.5 1.4 1.9 2.3 3.3 2.3h.8c1.5 0 2.8-.9 3.3-2.3h-.1c1-1.5 3.1-6.5 9.6-22.5.5 11.2.8 17.3.9 20.7.1 1.9.1 3 .2 3.8v.2h.1-.1c.1 2 1.6 3.5 3.7 3.5 1 0 1.9-.4 2.6-1.1.7-.7 1-1.6 1-2.6l-1.9-31.9c.4-1.9-1.2-3.4-3.2-3.4zm3 36.6c-.3.3-.7.5-1.1.5-.9 0-1.6-.6-1.6-1.5v-.1c0-.4-.2-3.6-1.4-29.3 0-.5-.4-.9-.9-1-.5-.1-1 .2-1.1.6-9.1 22.4-10.9 26-11.2 26.6-.1.1-.2.2-.2.3-.2.6-.8 1-1.4 1h-.8c-.6 0-1.2-.4-1.4-1 0-.1-.1-.2-.2-.3-.3-.6-2.1-4.2-11.2-26.6-.2-.5-.7-.7-1.1-.6-.5.1-.8.5-.9 1-1.2 25.8-1.3 29-1.4 29.3v.1c0 .8-.7 1.5-1.6 1.5-.4 0-.8-.2-1.1-.5-.3-.3-.4-.7-.4-1.1l1.9-32c0-.8.7-1.5 1.5-1.5h3.7c.6 0 1.2.4 1.4 1 .3.8 8.3 20.1 10.2 24.1.2.4.5.6.9.6s.8-.2.9-.6c1.9-4 9.8-23.3 10.2-24.1.2-.6.8-1 1.4-1h3.7c.8 0 1.5.6 1.5 1.5l1.9 31.9c.3.5.1.9-.2 1.2zM313.3 209.2c3.3-15.9 4.3-30.4 3.1-39.7l1.9-8.8c0-.2.1-.4.1-.6 2.5-9.5 3.8-19.3 3.8-29.2 0-18.9-4.5-37.1-13.1-53.6 2.8-3.2 3.4-7.8 1-11.6-12-19.6-29.4-36-50.3-47.6C238.2 6.3 213.5 0 188.3 0c-25.2 0-49.9 6.3-71.4 18.1-20.9 11.6-38.3 28-50.3 47.6-2.3 3.8-1.8 8.4 1 11.6C59 93.8 54.5 112 54.5 130.9c0 9.3 1.1 18.6 3.4 27.6 0 .6.1 1.2.2 1.8l1 4.7c-2.3 8.7-1.7 25.4 2.2 44.2 3.9 18.8 10.1 34.5 15.8 41.8l1.1 5.2c.9 4.4 4.8 7.4 9.1 7.4.4 0 .9 0 1.3-.1l1 4.9c.6 2.7 3.2 4.5 5.9 4l22.1-4c2.8-.5 4.7-3.3 4.1-6.1l-.4-2c3-1.1 4.9-4.2 4.2-7.4l-.3-1.2 5.1-.2 4.8-.2h1.1c.2 0 .4 0 .6-.1h1.6l.4-.1c.1 0 .2-.1.3-.1.4-.1.8-.2 1.2-.4h.1l.2-.1.6-.3.3-.1c.2-.1.3-.2.5-.2.4-.2.7-.3 1-.5.6-.3 1.4-.8 2.4-1.7l.1-.1c.2-.2.5-.4.7-.6l.2-.2.3-.3.1-.1.7-.7.9-1.1c0-.1.1-.1.1-.2.2-.2.4-.5.7-.9l.1-.1.1-.1c0-.1.1-.2.1-.2.1-.2.2-.4.4-.6 0 0 0-.1.1-.1l.1-.1v-.1c.1-.2.2-.4.4-.7 0-.1.1-.1.1-.2.1-.2.2-.4.3-.5v-.1l.1-.2c.1-.2.2-.5.3-.8l.1-.2.1-.2v-.1c0-.1.1-.1.1-.2v-.1c0-.1 0-.1.1-.2 0 0 0 .1-.1.1.1-.2.1-.4.2-.5v-.1c.1-.2.1-.3.2-.5.3-1 .5-1.7.7-2.5 0-.1.1-.3.1-.4v-.2-.2-.2.1l.1-.5v-.1c0-.3.1-.5.1-.8v-.4-.1-.3-.1-.3-.1-.4-.1-.3V229.9v-1c0-2.8-.1-5.7-.1-8.5v-2.8c0-2.4-.1-4.9-.1-7.3v-.8-1.6l-.1-3.3-.1-4.9v-2.4c0-1.6-.1-3.3-.1-4.9v-2.3l-.1-3.5v-1.3l13 34.8c.1.3.2.6.3.8l.7 1.6c.1.2.2.4.4.7l.9 1.5c.2.2.4.5.5.8 0 0 4.1 7 14.2 8.5h.1l.6.1c.1 0 .2 0 .4.1.3 0 .6.1.9.1H186.8c.5 0 1 0 1.5-.1l10.3-.4h.2l5.6-.3c.2 0 .5 0 .8-.1H206.5l.3-.1c.4-.1.9-.2 1.3-.3l1-.3c.4-.1.8-.3 1.2-.5l.2-.1c.2-.1.5-.2.7-.3 2.1-1.1 4.3-2.7 6.3-5.3l.1-.1v-.1c0-.1.1-.1.1-.2.1-.1.2-.2.2-.3l.3-.4.1-.1c.1-.1.1-.2.2-.2.2-.2.3-.5.4-.7.2-.3.4-.7.6-1v-.1c.1-.1.1-.3.2-.4.1-.1.1-.3.2-.4.1-.1.1-.2.2-.3l.1-.2c0-.1.1-.2.1-.3l.3-.6c0-.1.1-.3.2-.4 0-.1.1-.2.1-.3 0 .1-.1.2-.1.2.1-.3.2-.6.3-.8.1-.4.3-.9.4-1.3l1.3-4.6 1.3-4.6 1.3-4.6 1.3-4.6 1.3-4.6 1.3-4.5 1.2-4.5 1.2-4.5v-.1.1s.1.5.1 1.4l3 40.9c0 .4.1.8.1 1.2l.1.8c0 .1 0 .2.1.4l.2 1.1c0 .2.1.5.2.7v.4l.7 2.3c.1.3.3.7.4 1.1l.2.5c4.5 11.7 14.5 14.9 22.6 14.4 0 0 8.7-.3 12.3-.6 11.5-2 15.3-10.9 16.3-18.1.2-1.8.3-3.4.2-4.8-.1-1.4-4.2-39.2-4.2-39.2l-5.6-55.5-.6-6-.7-7-.7-7-.7-7-.7-7-.7-7-.7-7V80.7c0-.5-.1-1-.2-1.4v-.1-.1.1-.1-.3c-.1-.3-.1-.7-.2-1v-.1c0-.2-.1-.4-.1-.6V77v-.1l-.1-.3-.1-.2c0-.1-.1-.2-.1-.3l-.1-.4c-.1-.2-.1-.4-.2-.7l.1.5-.1-.3c0-.1 0-.1-.1-.2v-.1c0-.1 0-.1-.1-.2l-.1-.2c-.1-.2-.2-.5-.3-.7 0-.1-.1-.2-.1-.3-.1-.2-.1-.3-.2-.5l-.2-.4c-.1-.1-.1-.2-.2-.4l-.3-.7c-.1-.1-.1-.2-.2-.4V71c-.1-.1-.1-.2-.1-.3-.1-.1-.1-.2-.2-.3 0 .1.1.2.1.2 0-.1-.1-.2-.1-.2 0-.1-.1-.1-.1-.2s-.1-.2-.1-.3l-.3-.5c-.1-.1-.1-.2-.2-.3l-.2-.4c-.2-.3-.5-.6-.7-1l-.1-.1-.2-.2-.4-.5-.5-.6-.1-.1-.1-.1c0-.1-.1-.1-.2-.1l-.8-.8-.2-.2c-.1-.1-.2-.2-.4-.3l-.5-.4c-.2-.1-.4-.3-.6-.5-.1-.1-.2-.1-.3-.2-.1-.1-.3-.2-.4-.3l-.8-.5c-.1-.1-.2-.1-.3-.2h-.1c-.4-.2-1-.5-1.5-.8l-1.1-.5h-.1c-.1-.1-.3-.2-.4-.2-.1-.1-.3-.1-.4-.2-.1 0-.2-.1-.3-.1-.1 0-.2-.1-.3-.1-.3-.1-.6-.3-.9-.4-.1 0-.2 0-.2-.1-.1 0-.2-.1-.3-.1-.2-.1-.3-.1-.5-.2-.3-.1-.7-.2-1-.3h-.1c-.3-.1-.6-.1-.9-.2-.2 0-.4-.1-.6-.1h-.5c-.4 0-.8-.1-1.2-.1h-.3l-6.8.2c-1.2 0-14.5.4-15.5.5-10 .4-13.9 4.4-13.9 4.4-.2.1-.5.4-.8.8l-.2.2-.5.5-.2.3c-.2.2-.4.5-.6.7l-.9 1.3-.1.1-.6 1c-.2.4-.4.7-.6 1.1l-.1.3c-.1.2-.2.5-.4.8l-.1.3-.3.6-.2.4-.3.9-20.1 67.1v-.1l-1.7-4.2-1.7-4.3-1.7-4.3-1.7-4.3-1.7-4.4-1.7-4.4-1.8-4.4-1.8-4.4-1.8-4.4-1.8-4.5-1.8-4.5L169 88l-1.8-4.5-1.8-4.5c-.1-.4-.3-.8-.5-1.2l-.1-.1c-.1-.2-.2-.4-.2-.6V77c0-.1-.1-.2-.1-.3v-.1l-.1-.3-.1-.2c-.1-.1-.1-.2-.1-.3-.1-.1-.1-.3-.2-.4l-.1-.1c-.1-.1-.1-.2-.2-.3l-.4-.6c-.1-.1-.2-.3-.3-.5-.1-.1-.2-.3-.3-.4 0-.1-.1-.1-.1-.2l-.5-.7c-.2-.2-.3-.4-.5-.6-.2-.2-.4-.5-.5-.7l-.6-.6-.3-.3-.6-.6-.4-.4-.3-.3c-.7-.6-1.4-1.1-2.1-1.5l-.2-.1c-.1-.1-.2-.1-.3-.2-.3-.1-.5-.3-.7-.4l-.9-.4h-.1-.1-.1-.1-.1c-.3-.1-.5-.3-.7-.4l-.9-.4h-.1-.1-.1-.1c-.2-.1-.4-.2-.6-.2-.1 0-.2-.1-.3-.1h-.1c-.1 0-.3-.1-.4-.1-.1 0-.2-.1-.3-.1h-.1-.1c-.1 0-.2 0-.2-.1-.2-.1-.5-.1-.7-.2h-.1.2H149.2l-.3-.1h-.2c-.3 0-.6-.1-.8-.1h-.3c-.3 0-.7-.1-1-.1h-.9L133 64h-.4c-.8 0-1.6 0-2.5.1-8.8-.1-13.8.5-16.6 2-.8.4-2.1 1.2-3.5 2.5l-.2.2-.3.3-.8.8-.1.1-.9 1.1-.4.5c-.1.2-.3.4-.4.6l-.4.6c-.1.2-.2.4-.4.6l-.2.3c-.2.3-.4.7-.6 1.1l-.9 1.9s-.1.1-.1.2c0 0 0 .1-.1.1l-.3.9-.2.5c-.4 1.1-.6 2-.8 3l-.3 1.9c-.1.5-.1 1-.1 1.6l-1 58.2c-1.3-1.4-3.2-2.3-5.3-2.1l-.5-2.2c-.6-2.7-3.2-4.5-5.9-4l-22.1 4c-.6.1-1.1.3-1.6.6-.2-2.8-.4-5.6-.4-8.5C65.7 113 70.2 96 78.2 81c1.4-.3 2.8-.8 4.1-1.6.1-.1.2-.1.3-.2.2-.1.4-.3.6-.4.2-.1.3-.3.5-.4.2-.1.3-.3.5-.4l.6-.6c.1-.1.2-.2.3-.4.3-.3.5-.7.8-1.1 20.9-34.1 60.1-55.2 102.3-55.2 42.2 0 81.4 21.2 102.3 55.2.2.3.4.6.7.9.1.1.1.2.2.3.2.2.3.4.5.6l.3.3c.2.2.4.3.6.5.1.1.2.2.3.2.2.2.4.3.6.5.1.1.2.1.3.2.2.1.5.3.7.4.1 0 .2.1.3.1.3.1.5.3.8.4.1 0 .1.1.2.1l.9.3h.1c.4.1.7.2 1.1.3 8 15.1 12.5 32 12.5 49.9 0 3.4-.2 6.9-.5 10.3-.7-1.2-1.9-2.1-3.4-2.4l-22.1-4c-.7-.1-1.8-.2-2.6.2l3.4 33.3 6.4-30.4 2.7.5-8.2 38.9 4.8 45.3v2l-.1 3.4c0 .2 0 .3-.1.5v.4c0 .2-.1.4-.1.6l-.3 1.2v.2c0 .2-.1.4-.1.6l-.6 1.7-.6 1.4-.8 1.6c-1 2-1.6 3.5-3.1 5.1l-.6.7c-.1.2-.3.3-.4.4l-.4.4c-.2.1-.3.3-.5.4-.2.2-.4.3-.6.5l-.1.1c-.1.1-.3.3-.5.4l-.3.2c-.6.5-1.3.9-2 1.3l-.1.1-.6.3-.3.1c-.4.2-.9.5-1.4.6l-.1.1c-.1.1-.3.1-.4.2-.2.1-.4.1-.5.2l-2.8.7c-.2 0-.3.1-.4.1l-.6.1h-.4l-.7.1-4.1 19.5-2.7-.5 4-19-10.6.4H257.6l-1.7-.1c-.7 0-1.3-.1-1.8-.2l-1.7-.4c-.7-.2-1.4-.4-2.1-.7l-1.2 5.6c-.7 3.2 1.2 6.4 4.2 7.4l-.4 2c-.6 2.8 1.3 5.6 4.1 6.1l22.1 4c2.7.5 5.3-1.3 5.9-4l.7-3.1c.6.1 1.1.1 1.7.1 5.2 0 9.8-3.7 10.8-8.8l2-9.5c4.9-8.3 9.8-22 13.1-37.9zm-210.1-63.8l1.8-58.5v-1.7-.6c0-.4.1-.7.1-1.1v-.2c0-.2 0-.3.1-.5l.3-1.5v-.2c.1-.5.2-.9.4-1.4.1-.2.1-.4.2-.5.1-.4.3-.7.4-1.1V78c0-.1.1-.2.1-.4l.6-1.2c.1-.2.2-.3.3-.5.2-.3.4-.7.6-1 .1-.1.2-.3.3-.4.2-.3.5-.6.7-1 .1-.1.2-.3.3-.4.2-.3.5-.6.7-.9.1-.1.2-.2.3-.4l.8-.8c.1-.1.3-.2.4-.3.3-.2.6-.5.9-.7h.5l.9-.6c.1-.1.3-.2.4-.2.4-.2.7-.4 1.1-.5l.4-.1c.1 0 .2-.1.4-.1h.1c1.3-.4 2.5-.7 3.8-.7l6.7-.3c3.2-.1 11.3-.1 15.1 2.7.4.3.8.7 1.1 1.1l.2.2c2 2 3.6 4.6 4.6 7.5 11.9 30 23.9 60 35.8 90 .4-1.5.9-2.9 1.3-4.4.3 0 27.4-88.7 27.4-88.7.1-.4.2-.8.4-1.3l.1-.4c.1-.3.2-.6.3-.8.1-.1.1-.3.2-.4.1-.3.2-.5.4-.8l.2-.4c.2-.3.3-.6.5-.9l.1-.2c.2-.4.4-.7.7-1l.2-.3c.2-.2.3-.5.5-.7l.3-.3c.2-.2.3-.4.6-.7l.2-.2.6-.6.2-.2s2.7-3.4 11.4-4.6c.6-.1 1.7-.2 3-.2 2-.1 4.1-.2 6.1-.3h.6c8.8 0 16.2 8 16.9 18.7 2.3 21.7 15.6 138.2 15.6 138.2l.2 2.8c.7 5.6-2.8 25.7-21.2 21-.2-.1-1.3-.3-2.4-1.1-3.1-1.9-6.1-5-7.9-10.2 0-.1-.1-.2-.1-.3-.1-.4-.3-.8-.4-1.2 0-.1-.1-.3-.1-.5-.1-.4-.2-.7-.3-1.1 0-.2-.1-.4-.1-.5-.1-.4-.2-.8-.2-1.2 0-.2-.1-.3-.1-.5l-.3-1.8c-.7-14.3-1.8-27.5-2.5-35.2l-1.6-9-3.8-45.9c-.2-3.1-.5-6.2-.7-9.3-8.6 30.9-17.1 61.9-25.7 92.8-2.2 7.9-8.1 13.2-15 13.5h-.6c-13.9.2-17.9-7.3-17.9-7.3-1-1.4-1.9-3.1-2.5-4.8l-32.6-85.3c-.5-1.4-1.1-2.9-1.6-4.3l1.5 99.5c.1 9-4.5 16.6-11.2 19.2L103.2 147v-1.6zm-18.5-7.6l27.1 129.5-2.7.5L82 138.3l2.7-.5zM87.8 260c-.2 0-.4.1-.6.1-2.7 0-5.1-1.9-5.6-4.6l-.1-.6-19.9-95.3c-.3-1.5 0-3.1.9-4.4.7-1.1 1.8-1.9 3-2.2l22.3 107zm207.4-5.2l-.1.6c-.6 2.7-2.9 4.6-5.6 4.6-.2 0-.4 0-.6-.1l22.4-107c1.2.4 2.3 1.2 3 2.2.9 1.3 1.2 2.9.9 4.4l-20 95.3z"/></svg>