<svg xmlns="http://www.w3.org/2000/svg" viewBox="0 0 425.2 85.33"><defs><style>.cls-1{fill:#2e3192}</style></defs><title>redemassavertical</title><path d="M48.7 74.46c2-4.83-4.83-7.67-9.32-7.08-3.3.36-7.44 2.84-5.43 7s12.27 5.04 14.76.08zM16 35.15c6.38 2.48 12-3.55 12.86-7.67s-.7-7.08-3.18-8.27C16.83 14.97 7.16 31.85 16 35.16zm3.9 11.45c-.94-4.37-6.5-6.84-9-2.36-1.65 3 0 7.08 2 8.38 4.28 2.84 7.82-1.53 7-6.02zm-6.73 19c-2.7 4 9.33 15.12 12.86 10.75 3.2-4.96-9.9-14.57-12.86-10.74zM44.7 84.38c.8 2.36 11.1-.12 10.5-2.36s-11.22.47-10.5 2.36zM26.3 80c-1.2 3 10.5 6.27 11.2 3.9.8-2.95-10.52-5.66-11.2-3.9zm51.1-60.55c1.17-1.88-5.55-8.85-7.33-7.67-2.36 1.9 5.78 9.8 7.32 7.67zm-1.2 2.48c-5 1.65.84 19.6 6.15 18.06 4.6-1.9 0-20.32-6.14-18.07zm-13.8 59.5c1.2 1.54 13.34-6.73 11.7-8.73-1.3-1.54-12.8 7.3-11.7 8.73zM81.88 61c-2-.7-6.84 8.4-5.08 8.74 3.07-.23 6.62-8.14 5.08-8.73zm1.18-19.36c-3.9 0-5.67 13.7-2 14.76 4.48 0 5.78-14.76 2-14.76zm-19.6 28.81c-.47-1.65-1.65-2.36-4-2.12-2.7.23-8.5 3.66-7 7.32 2.15 4.13 12.07-.6 11-5.2zm-9.91-4.01a9.16 9.16 0 0 0 6.74-11.57c-3-7.9-15.84-7.1-18.2 1.18-2.13 6.84 4.6 12.04 11.45 10.4zM67.12 35.5a4.5 4.5 0 0 0-3.43 3.08c-2.5 7.32 6.37 13.57 9.43 5.55 1.43-5.2-1.84-9.2-6-8.62zm0-26.32c.7-3.3-11.83-8.4-12.98-6.6-2.24 3.3 11.68 9.9 12.98 6.6zM32.9 33.78a5.9 5.9 0 0 0-5 4.72 6.25 6.25 0 0 0 7.43 7.67c7.24-1.7 6.05-13.73-2.44-12.4zm-4.26-16.81c3.2-.35 10.63-4.25 8.5-8.85-.85-1.54-3.2-1.9-5.3-1.54-3.08.6-9.8 3.54-8.87 8.27.47 1.93 2.95 2.47 5.67 2.12zm3.89 47.23c6.6-3.8 3.07-13.7-3.78-14-2.6 0-5.43.82-6.5 4.48-1.87 6.1 4.85 12.58 10.28 9.5zM48 23.78a5.76 5.76 0 0 0-5.55-7 5.55 5.55 0 1 0 5.55 7zm-4.02 11.84c-1.9 5.8 3 11.57 8.27 10.62 3.65-.6 5.9-3.54 6.5-7.32.46-5.2-4-8.38-7.8-8.38a7.1 7.1 0 0 0-6.97 5.08zm25.74 18.42c-3.54 1.66-7.8 10.27-3.54 12.74 4 2.25 8.62-2.36 9.9-6.37s-1.3-8.62-6.36-6.36zM5.62 27.6c2.6.94 8.73-8.62 5.9-10.16-2.83-1.06-8.38 8.86-5.9 10.15zM3.73 51.9c-2.36 2.14 2 13.12 5.55 12.64 2.95-1.53-2-14.28-5.55-12.63zM3.6 31.14c-4 0-5.07 17.94-1.17 17.94 4.37 0 5.08-17.94 1.18-17.94zm64.94-4.01c5.55-5.35-2.25-14.4-10.63-14.17a4.66 4.66 0 0 0-4.12 3.66c-1.65 6.84 9.44 15.58 14.76 10.5zM43.4 1.03c-.48-2.48-13.47 0-13.23 2.25.23 2.5 13.8.7 13.22-2.25zm-3.2 7.09c0 2.48 2.5 4 5.8 4.37 2.25.1 8-.72 6.26-4.73-.83-1.65-3.9-3.06-7.56-2.7-2.96.2-4.5 1.87-4.5 3.05zM25.45 4.46c-1.77-1.9-14.3 7.43-12.87 9.2 1.18 1.66 14.28-7.43 12.87-9.2zM133.3 49.7a9.83 9.83 0 0 1-1.45-4.12 5.38 5.38 0 0 1 1.44-3.4 11.85 11.85 0 0 0 2.38-7.83 9.85 9.85 0 0 0-2-6.4q-2.7-3.33-8.37-3.34h-16.38q-4.12 0-4.12 3.95v34.1c0 1.84.86 2.76 2.57 2.76h7.3q2.56 0 2.56-2.74v-11.6a2.14 2.14 0 0 1 .65-1.55 2.2 2.2 0 0 1 1.62-.66h.3q1.3 0 2 2L125.98 63a3.52 3.52 0 0 0 3.7 2.44h7.1q2.64 0 2.64-2.92a5.4 5.4 0 0 0-.66-2.57zm-10.4-7.64q-.54 2.5-2.2 2.5h-1.4a2.28 2.28 0 0 1-1.65-.64 2.07 2.07 0 0 1-.7-1.56V31.48a2.08 2.08 0 0 1 .7-1.55 2.27 2.27 0 0 1 1.64-.66h1.48c1.2 0 1.9.7 2.15 2.1a31.76 31.76 0 0 1 .42 4.9 29.37 29.37 0 0 1-.45 5.8zm40.14 18.72h-5.37a2.3 2.3 0 0 1-1.64-.66 2.1 2.1 0 0 1-.68-1.56v-9.7a2 2 0 0 1 .68-1.52 2.38 2.38 0 0 1 1.64-.63H161c1.6 0 2.4-.7 2.4-2.1a1.92 1.92 0 0 0-.66-1.45 2.2 2.2 0 0 0-1.55-.62h-3.53a2.3 2.3 0 0 1-1.64-.65 2.1 2.1 0 0 1-.68-1.56v-8.84a2.1 2.1 0 0 1 .68-1.55 2.3 2.3 0 0 1 1.64-.66h4.18a2.3 2.3 0 0 0 1.7-.7 2.4 2.4 0 0 0 .7-1.75 2.08 2.08 0 0 0-.73-1.52 2.34 2.34 0 0 0-1.67-.7h-14.82q-4.12 0-4.12 3.95v32.92q0 3.94 4.13 3.94h16a2.14 2.14 0 0 0 2.45-2.38 2 2 0 0 0-.72-1.55 2.47 2.47 0 0 0-1.72-.7zm27.12-36.18H173.9c-2.74 0-4.1 1.32-4.1 3.95v32.92c0 2.63 1.36 3.94 4.1 3.94h15.84q8 0 11.1-5 3.35-5.36 3.36-16.6 0-11.88-3.9-16.06-2.9-3.12-10.14-3.13zm-.54 34.12a2.43 2.43 0 0 1-2.63 2h-2.46a2.3 2.3 0 0 1-1.64-.66 2.08 2.08 0 0 1-.68-1.55V31.5a2.1 2.1 0 0 1 .68-1.55 2.3 2.3 0 0 1 1.64-.66H187a2.38 2.38 0 0 1 2.62 2 68.63 68.63 0 0 1 1 13.38q0 9.65-1 14.07zm40.8 2.06h-5.37a2.3 2.3 0 0 1-1.64-.66 2.1 2.1 0 0 1-.68-1.56v-9.7a2 2 0 0 1 .7-1.52 2.36 2.36 0 0 1 1.63-.63h3.34c1.58 0 2.38-.7 2.38-2.1a1.92 1.92 0 0 0-.66-1.45 2.18 2.18 0 0 0-1.55-.62h-3.52a2.3 2.3 0 0 1-1.64-.65 2.1 2.1 0 0 1-.68-1.56v-8.84a2.1 2.1 0 0 1 .7-1.55 2.3 2.3 0 0 1 1.63-.66h4.18a2.32 2.32 0 0 0 1.7-.7 2.4 2.4 0 0 0 .7-1.75 2.07 2.07 0 0 0-.73-1.52 2.35 2.35 0 0 0-1.67-.7H214.4q-4.1 0-4.1 3.95v32.92q0 3.94 4.1 3.94h16a2.14 2.14 0 0 0 2.46-2.38 2 2 0 0 0-.72-1.55 2.45 2.45 0 0 0-1.72-.7zm59.25-32q-.6-4.12-4.42-4.13h-5.14q-3.27 0-4.23 4.13l-4.58 19.9a1 1 0 0 1-1 1 .92.92 0 0 1-.8-1l-3.66-19.9q-.78-4.12-4.18-4.13h-5.2q-3.82 0-4.48 4.42l-4.54 31.47a21 21 0 0 0-.24 3c0 1.7.9 2.57 2.7 2.57s2.82-.8 3-2.43l2.4-24.48a.87.87 0 0 1 .82-1 .9.9 0 0 1 .78 1l4.66 22.64q.6 3 6.15 3 4.8 0 5.45-3.16l4.78-22.52a.92.92 0 0 1 .78-1 .88.88 0 0 1 .85 1l2.4 23.77a2.56 2.56 0 0 0 1 1.76 3 3 0 0 0 1.93.67h6.87a2.3 2.3 0 0 0 2.54-2.6 21.25 21.25 0 0 0-.2-2.92zm31.18-.82a7.3 7.3 0 0 0-1.68-2.93 6.8 6.8 0 0 0-4.48-1.25q-5.63 0-7 4.18L296.7 60.5a9.74 9.74 0 0 0-.6 3c0 1.72 1 2.58 3 2.58a3.23 3.23 0 0 0 3.47-2.45l2.7-9.45a2.8 2.8 0 0 1 3-2.2h5.85a2.58 2.58 0 0 1 2.62 2.2l2.4 8.78a2.9 2.9 0 0 0 3 2.45h7.76q2.5 0 2.5-2.9a8 8 0 0 0-.4-2.64zm-7.4 20.07h-4c-1.33 0-2-.6-2-1.8a6.76 6.76 0 0 1 .28-1.55l2.27-8.12c.32-1.08.82-1.62 1.5-1.62a1.73 1.73 0 0 1 1.8 1.62l1.84 7.88a9.15 9.15 0 0 1 .3 1.8c-.03 1.2-.7 1.8-2 1.8zm36.37-10.99a10.22 10.22 0 0 1-1.53-4.26 3.62 3.62 0 0 1 .86-2.48 2.67 2.67 0 0 1 2.06-1h4.9c1.44 0 2.16-.6 2.16-1.8q0-2.37-3.83-3a40.93 40.93 0 0 0-5.55-.23q-13.85 0-13.86 9.38a16.2 16.2 0 0 0 2 7.35l6.93 13.38a8.33 8.33 0 0 1 1.07 3.7q0 2.74-3.4 2.75h-6.1a1.8 1.8 0 0 0-1.4.63 2.27 2.27 0 0 0-.58 1.58A2.06 2.06 0 0 0 335 65.3q2.15.6 10.75.6 6.1 0 9.08-1.73 3.52-2 3.52-6.93 0-3.88-2.8-9.2zm28.08 0a10.3 10.3 0 0 1-1.5-4.3 3.62 3.62 0 0 1 .87-2.48 2.66 2.66 0 0 1 2.06-1h4.9c1.44 0 2.15-.6 2.15-1.8q0-2.37-3.82-3a40.93 40.93 0 0 0-5.55-.23q-13.85 0-13.85 9.38a16.12 16.12 0 0 0 2 7.36l6.93 13.38a8.33 8.33 0 0 1 1.07 3.7q0 2.74-3.4 2.75h-6.1a1.82 1.82 0 0 0-1.4.62 2.27 2.27 0 0 0-.58 1.58 2.07 2.07 0 0 0 1.44 2.27q2.16.6 10.77.6 6.1 0 9.08-1.74 3.53-2 3.52-6.93 0-3.88-2.8-9.2zm46.87 22.81l-11.1-31.9a7.3 7.3 0 0 0-1.68-2.92 6.8 6.8 0 0 0-4.48-1.25q-5.62 0-7 4.18l-11 32.55a9.94 9.94 0 0 0-.6 3q0 2.58 3 2.58a3.24 3.24 0 0 0 3.48-2.45l2.74-9.44a2.8 2.8 0 0 1 2.93-2.22h5.86a2.58 2.58 0 0 1 2.62 2.2l2.4 8.8a2.9 2.9 0 0 0 3 2.44h7.75q2.5 0 2.5-2.92a7.87 7.87 0 0 0-.43-2.65zM406.3 48.03h-4c-1.33 0-2-.6-2-1.8a6.52 6.52 0 0 1 .3-1.55l2.26-8.12c.32-1.08.82-1.62 1.5-1.62a1.73 1.73 0 0 1 1.73 1.62l1.84 7.88a8.68 8.68 0 0 1 .3 1.8c0 1.2-.67 1.8-1.95 1.8z" class="cls-1"/></svg>