<svg id="Camada_1" xmlns="http://www.w3.org/2000/svg" viewBox="0 0 278.1 223.3"><style>.st0{fill:#5b5b5b}</style><title>redemassavertical</title><path class="st0" d="M15.7 202.5c-.3 1.5-.9 2.2-1.9 2.2h-1.2c-.5 0-1.1-.2-1.4-.6-.4-.3-.6-.8-.6-1.4v-9.4c0-.5.2-1 .6-1.4.4-.4.9-.6 1.4-.6h1.3c1 0 1.8.8 1.9 1.8.2 1.4.4 2.8.4 4.3-.1 1.7-.2 3.4-.5 5.1zm245.9 5.1h-3.5c-.8.1-1.5-.4-1.7-1.2v-.4c0-.5.1-.9.3-1.4l2-7.1c.3-.9.7-1.4 1.3-1.4.8 0 1.4.6 1.5 1.4l1.6 6.8c.1.5.2 1 .3 1.6.1.8-.5 1.5-1.3 1.6-.2.1-.3.1-.5.1zm16.1 10.3l-9.6-27.7c-.3-.9-.8-1.8-1.5-2.5-1.1-.8-2.5-1.2-3.9-1.1-3.2 0-5.3 1.2-6.1 3.6l-9.5 28.3c-.3.8-.5 1.7-.5 2.6 0 1.5.9 2.2 2.6 2.2 1.4.1 2.7-.8 3-2.1l2.4-8.2c.3-1.2 1.3-2 2.5-1.9h5c1.1 0 2.1.8 2.3 1.9l2.1 7.6c.2 1.3 1.3 2.2 2.6 2.1h6.7c1.5 0 2.2-.8 2.2-2.5 0-.8-.1-1.5-.3-2.3zM237 198.1c-.7-1.1-1.1-2.4-1.3-3.7 0-.8.2-1.6.8-2.1.4-.5 1.1-.9 1.8-.9h4.2c1.2 0 1.9-.5 1.9-1.6 0-1.4-1.1-2.3-3.3-2.6-1.6-.2-3.2-.2-4.8-.2-8 0-12 2.7-12 8.1.1 2.2.7 4.4 1.8 6.4l6 11.6c.6 1 .9 2.1.9 3.2 0 1.6-1 2.4-3 2.4h-5.3c-.5 0-.9.2-1.2.5-.3.4-.5.9-.5 1.4-.1.9.4 1.7 1.3 2 1.2.3 4.4.5 9.3.5 3.5 0 6.2-.5 7.9-1.5 2-1.2 3.1-3.2 3.1-6-.2-2.8-1-5.6-2.4-8l-5.2-9.5zm-24.3 0c-.7-1.1-1.1-2.4-1.3-3.7 0-.8.2-1.6.8-2.1.4-.5 1.1-.9 1.8-.9h4.3c1.2 0 1.9-.5 1.9-1.6 0-1.4-1.1-2.3-3.3-2.6-1.6-.2-3.2-.2-4.8-.2-8 0-12 2.7-12 8.1.1 2.2.7 4.4 1.8 6.4l6 11.6c.6 1 .9 2.1.9 3.2 0 1.6-1 2.4-3 2.4h-5.3c-.5 0-.9.2-1.2.5-.3.4-.5.9-.5 1.4-.1.9.4 1.7 1.3 2 1.2.3 4.4.5 9.3.5 3.5 0 6.2-.5 7.9-1.5 2-1.2 3.1-3.2 3.1-6-.2-2.8-1-5.6-2.4-8l-5.3-9.5zm-31.6 9.6h-3.5c-.8.2-1.5-.4-1.7-1.1v-.4c0-.5.1-.9.3-1.4l2-7.1c.3-.9.7-1.4 1.3-1.4.8 0 1.4.6 1.5 1.4l1.6 6.8c.1.5.2 1 .3 1.6.1.8-.5 1.5-1.3 1.6h-.5zm6.4-17.5c-.3-.9-.8-1.8-1.4-2.5-1.1-.8-2.5-1.2-3.9-1.1-3.2 0-5.3 1.2-6.1 3.6l-9.5 28.3c-.3.8-.5 1.7-.5 2.6 0 1.5.9 2.2 2.6 2.2 1.4.1 2.7-.8 3-2.1l2.4-8.2c.3-1.2 1.3-2 2.6-1.9h5.1c1.1 0 2.1.8 2.3 1.9l2.1 7.6c.2 1.3 1.3 2.2 2.6 2.1h6.7c1.5 0 2.2-.9 2.2-2.6 0-.8-.1-1.5-.4-2.3l-9.8-27.6zm-27 .7c-.3-2.4-1.6-3.6-3.8-3.6h-4.4c-1.9 0-3.1 1.2-3.7 3.6l-3.9 17.3c0 .5-.4.8-.8.8-.4-.1-.7-.4-.7-.8l-3.3-17.3c-.5-2.4-1.7-3.6-3.6-3.6h-4.5c-2.2 0-3.5 1.3-3.9 3.8l-3.9 27.3c-.1.9-.2 1.7-.2 2.6-.1 1.1.6 2.1 1.7 2.2h.6c1.6 0 2.5-.7 2.6-2.1l2.1-21.2c0-.4.3-.8.7-.8.4.1.7.4.7.8l4 19.7c.3 1.8 2.1 2.6 5.3 2.6 2.8 0 4.3-.9 4.7-2.8l4.1-19.5c0-.4.3-.8.7-.8.4 0 .7.4.7.8l2.1 20.6c.1.6.4 1.2.9 1.5.5.4 1.1.6 1.7.6h6c1.1.1 2.1-.6 2.2-1.7v-.6c0-.8 0-1.7-.1-2.5l-4-26.9zM109 218.8h-4.7c-.5 0-1-.2-1.4-.6-.4-.3-.6-.8-.6-1.4v-8.4c0-.5.2-1 .6-1.3.4-.4.9-.6 1.4-.6h2.9c1.4 0 2.1-.6 2.1-1.8 0-.5-.2-.9-.6-1.3-.4-.3-.8-.5-1.3-.5h-3.1c-.5 0-1-.2-1.4-.6-.4-.3-.6-.8-.6-1.4v-7.7c0-.5.2-1 .6-1.4.4-.4.9-.6 1.4-.6h3.6c.6 0 1.1-.2 1.5-.6.4-.4.6-1 .6-1.5s-.2-1-.6-1.3c-.4-.4-.9-.6-1.4-.6H95.2c-2.4 0-3.6 1.1-3.6 3.4v28.6c0 2.3 1.2 3.4 3.6 3.4h13.9c1 .2 2-.5 2.1-1.5v-.5c0-.5-.2-1-.6-1.4-.4-.3-1-.5-1.6-.4zm-35.4-1.9c-.2 1.1-1.2 1.9-2.3 1.8h-2.2c-.5 0-1-.2-1.4-.6-.4-.3-.6-.8-.6-1.3v-23.5c0-.5.2-1 .6-1.4.4-.4.9-.6 1.4-.6h2.1c1.1-.1 2.1.7 2.3 1.8.7 3.8 1 7.7.9 11.6.2 4.1-.1 8.2-.8 12.2zm.5-29.6H60c-2.4 0-3.6 1.1-3.6 3.4v28.6c0 2.3 1.2 3.4 3.6 3.4h13.7c4.6 0 7.9-1.4 9.7-4.4 1.9-3.1 2.9-7.9 2.9-14.4 0-6.9-1.1-11.5-3.4-14-1.7-1.7-4.6-2.6-8.8-2.6zm-23.5 31.4h-4.7c-.5 0-1-.2-1.4-.6-.4-.3-.6-.8-.6-1.4v-8.4c0-.5.2-1 .6-1.3.4-.4.9-.6 1.4-.6h2.9c1.4 0 2.1-.6 2.1-1.8 0-.5-.2-.9-.6-1.3-.4-.3-.8-.5-1.3-.5h-3c-.5 0-1-.2-1.4-.6-.4-.3-.6-.8-.6-1.4v-7.7c0-.5.2-1 .6-1.4.4-.4.9-.6 1.4-.6h3.6c.6 0 1.1-.2 1.5-.6.4-.4.6-1 .6-1.5s-.2-1-.6-1.3c-.4-.4-.9-.6-1.5-.6H36.7c-2.4 0-3.6 1.1-3.6 3.4v28.6c0 2.3 1.2 3.4 3.6 3.4h13.9c1 .2 2-.6 2.1-1.6v-.5c0-.5-.2-1-.6-1.4-.5-.1-1-.3-1.5-.3zm-25.8-9.6c-.7-1.1-1.1-2.3-1.3-3.6 0-1.1.5-2.2 1.2-3 1.5-1.9 2.2-4.4 2.1-6.8.1-2-.6-4-1.8-5.5-1.6-1.9-4-2.9-7.3-2.9H3.6c-2.4 0-3.6 1.1-3.6 3.4v29.6c0 1.6.7 2.4 2.2 2.4h6.3c1.5 0 2.2-.8 2.2-2.4v-10.1c0-.5.2-1 .6-1.4.4-.4.9-.6 1.4-.6h.3c.8 0 1.3.6 1.7 1.7l3.6 10.5c.4 1.4 1.8 2.3 3.2 2.1h6.2c1.5 0 2.3-.8 2.3-2.5 0-.8-.2-1.5-.6-2.2l-4.6-8.7zm124.8-61.4c4-9.6-9.6-15.2-18.5-14-6.6.7-14.8 5.6-10.8 13.8 3.8 8.2 24.4 10.1 29.3.2zM103.5 8.8C100 5.1 75.2 23.5 78 27.1c2.3 3.3 28.3-14.8 25.5-18.3zm29.2 7.3c0 4.9 4.9 8 11.5 8.7 4.4.2 15.9-1.4 12.4-9.4-1.6-3.3-7.7-6.1-15-5.4-5.8.5-8.9 3.8-8.9 6.1zm6.4-14c1.2 5.8-25.8 9.4-26.2 4.4-.5-4.5 25.3-9.4 26.2-4.4zm49.8 51.7c11-10.5-4.4-28.6-21.1-28.1-4 .4-7.3 3.3-8.2 7.3-3.2 13.5 18.8 30.9 29.3 20.8zM60.2 61.7c-8 0-10.1 35.6-2.3 35.6 8.6 0 10-35.6 2.3-35.6zm.2 41.3c-4.7 4.2 4 26 11 25.1 5.8-3.1-4-28.4-11-25.1zm3.8-48.3c5.1 1.9 17.3-17.1 11.7-20.2-5.7-2-16.7 17.6-11.7 20.2zm127.1 52.5c-7 3.3-15.4 20.4-7 25.3 8 4.4 17.1-4.7 19.7-12.7 2.5-8.2-2.7-17.1-12.7-12.6zM154 60.5c7.5 0 16.4 6.3 15.4 16.6-1.2 7.5-5.6 13.3-12.9 14.5-10.5 1.9-20.1-9.6-16.4-21.1 1.9-6 7.6-10.1 13.9-10zm-16.8-27.3c-5.3-.2-10 3.5-11.2 8.6-1.6 8.2 5.4 13.8 12.2 13.3 4.7-.2 9.1-3.8 10.1-8 1.8-9.5-6.2-13.9-11.1-13.9zm-19.7 94.1c-10.8 6.1-24.1-6.8-20.4-19 2.1-7.3 7.7-8.9 12.9-8.9 13.6.7 20.6 20.4 7.5 27.9zm-1.4-114.2c4.2-.7 8.9 0 10.5 3 4.2 9.1-10.5 16.9-16.9 17.6-5.4.7-10.3-.5-11.2-4.2-1.8-9.5 11.5-15.3 17.6-16.4zm2.1 53.8c-5.6.9-8.7 4.7-9.8 9.4-2.1 9.1 5.6 17.3 14.8 15.2 14.2-3.3 11.8-27.1-5-24.6zm67.9-48.7c-2.6 6.6-30.2-6.5-25.8-13.1 2.4-3.5 27.2 6.6 25.8 13.1zm12 69.4c-6.1 15.9-23.6 3.5-18.7-11 1-3.1 3.6-5.5 6.8-6.1 8.1-1.2 14.7 6.8 11.9 17.1zm-61.6 23.6c4.7-16.4 30.2-18 36.1-2.3 3.5 14.3-7 21.5-13.3 23-13.7 3.2-27-7.1-22.8-20.7zm42.4 28.6c2.1 9.1-17.6 18.5-21.8 10.3-3-7.3 8.4-14 13.8-14.5 4.7-.5 7 .9 8 4.2zm38.8-57.2c-7.7 0-11.2 27.2-4 29.3 8.9-.1 11.5-29.3 4-29.3zm-12.4 55.7c-3.5-.7 6.1-18.7 10.1-17.3 3 1.1-4 16.8-10.1 17.3zm-5.4 5.8c-2.6-3-25.3 14.5-23.2 17.3 2.4 3.1 26.5-13.3 23.2-17.3zm4.3-100.6c12.2-4.5 21.3 32.1 12.2 35.8-10.6 3-22-32.5-12.2-35.8zm2.3-5c-3 4.2-19.2-11.5-14.5-15.2 3.5-2.3 16.8 11.5 14.5 15.2zm-79.2 127.9c-1.4 4.7-24.6-1.9-22.2-7.7 1.4-3.5 23.9 1.9 22.2 7.7zm35.2-3.7c-1.2-4.4-22.2.9-20.8 4.7 1.6 4.6 21.9-.3 20.8-4.7zm-57.9-11.3c-7 8.7-30.9-13.3-25.5-21.3 5.9-7.5 31.8 11.5 25.5 21.3zM74.7 87.8c4.9-8.9 15.9-4 17.8 4.7 1.6 8.9-5.4 17.6-13.8 11.9-4-2.6-7.3-10.8-4-16.6zm10-18c-17.6-6.5 1.6-40 19.2-31.6 4.9 2.3 8 8.4 6.3 16.4-1.6 8.1-12.8 20-25.5 15.2z"/></svg>