<svg xmlns="http://www.w3.org/2000/svg" viewBox="0 0 278.07 223.3"><defs><style>.cls-1{fill:#2e3192;fill-rule:evenodd}</style></defs><title>redemassavertical</title><path d="M15.7 202.46q-.46 2.18-1.9 2.18h-1.2a2 2 0 0 1-1.44-.57 1.8 1.8 0 0 1-.6-1.35v-9.43a1.8 1.8 0 0 1 .6-1.36 2 2 0 0 1 1.43-.57h1.3a1.83 1.83 0 0 1 1.86 1.8 27.4 27.4 0 0 1 .36 4.26 25.55 25.55 0 0 1-.4 5zm245.94 5.18h-3.47a1.45 1.45 0 0 1-1.7-1.55 5.78 5.78 0 0 1 .25-1.36l2-7.05q.4-1.4 1.3-1.4a1.5 1.5 0 0 1 1.5 1.4l1.6 6.83a7.67 7.67 0 0 1 .27 1.56 1.45 1.45 0 0 1-1.72 1.54zm16.07 10.27l-9.63-27.67a6.43 6.43 0 0 0-1.45-2.54 5.92 5.92 0 0 0-3.9-1.1q-4.86 0-6.1 3.63l-9.5 28.25a8.48 8.48 0 0 0-.52 2.6q0 2.22 2.6 2.22a2.8 2.8 0 0 0 3-2.12l2.38-8.2a2.43 2.43 0 0 1 2.54-1.9h5.05a2.24 2.24 0 0 1 2.28 1.9l2.07 7.63a2.5 2.5 0 0 0 2.6 2.14h6.73q2.18 0 2.18-2.54a6.8 6.8 0 0 0-.37-2.28zm-40.68-19.8a9 9 0 0 1-1.3-3.72 3.14 3.14 0 0 1 .76-2.15 2.3 2.3 0 0 1 1.8-.86h4.24q1.87 0 1.87-1.56 0-2.06-3.33-2.63a36 36 0 0 0-4.82-.2q-12 0-12 8.13a14 14 0 0 0 1.76 6.38l6 11.6a7.2 7.2 0 0 1 .94 3.22q0 2.4-3 2.4h-5.27a1.57 1.57 0 0 0-1.22.53 2 2 0 0 0-.5 1.37 1.8 1.8 0 0 0 1.26 2q1.87.5 9.34.52 5.3 0 7.88-1.5 3.06-1.76 3.06-6a17.75 17.75 0 0 0-2.44-8l-5-9.5zm-24.36 0a9 9 0 0 1-1.3-3.72 3.14 3.14 0 0 1 .75-2.15 2.3 2.3 0 0 1 1.8-.86h4.27q1.87 0 1.87-1.56 0-2.06-3.32-2.63a36.08 36.08 0 0 0-4.82-.2q-12 0-12 8.13a14 14 0 0 0 1.76 6.38l6 11.6a7.2 7.2 0 0 1 .93 3.22q0 2.4-3 2.4h-5.3a1.58 1.58 0 0 0-1.22.53 2 2 0 0 0-.5 1.37 1.8 1.8 0 0 0 1.25 2q1.87.5 9.33.52 5.3 0 7.88-1.5 3.06-1.76 3.06-6a17.74 17.74 0 0 0-2.44-8l-5-9.5zm-31.6 9.55h-3.47a1.45 1.45 0 0 1-1.72-1.55 5.77 5.77 0 0 1 .26-1.35l2-7.05q.42-1.4 1.3-1.4a1.5 1.5 0 0 1 1.5 1.4l1.6 6.84a7.8 7.8 0 0 1 .27 1.56 1.45 1.45 0 0 1-1.7 1.55zm6.44-17.42a6.42 6.42 0 0 0-1.45-2.54 5.93 5.93 0 0 0-3.88-1.15q-4.87 0-6.12 3.63l-9.5 28.25a8.57 8.57 0 0 0-.5 2.6q0 2.22 2.58 2.22a2.8 2.8 0 0 0 3-2.12l2.38-8.2a2.43 2.43 0 0 1 2.55-1.9h5.08a2.24 2.24 0 0 1 2.28 1.9l2.08 7.63a2.5 2.5 0 0 0 2.6 2.13h6.73q2.18 0 2.2-2.55a6.88 6.88 0 0 0-.37-2.28l-9.64-27.68zm-27.06.67q-.52-3.58-3.83-3.58h-4.43q-2.85 0-3.68 3.58l-3.95 17.3a.88.88 0 0 1-.83.84.8.8 0 0 1-.67-.83l-3.26-17.3q-.7-3.58-3.64-3.58h-4.5q-3.33 0-3.9 3.84l-3.94 27.32a18.5 18.5 0 0 0-.2 2.6 2 2 0 0 0 2.32 2.22q2.38 0 2.6-2.12l2.12-21.2a.76.76 0 0 1 .72-.84.8.8 0 0 1 .68.83l4 19.66q.52 2.64 5.34 2.64 4.15 0 4.72-2.75l4.15-19.54a.8.8 0 0 1 .67-.83.76.76 0 0 1 .72.83l2.07 20.63a2.2 2.2 0 0 0 .86 1.54 2.64 2.64 0 0 0 1.67.6h6a2 2 0 0 0 2.23-2.3 18.14 18.14 0 0 0-.15-2.53l-3.9-27zm-51.42 27.84h-4.67a2 2 0 0 1-1.42-.57 1.82 1.82 0 0 1-.6-1.36v-8.42a1.73 1.73 0 0 1 .6-1.33 2 2 0 0 1 1.42-.55h2.9q2.07 0 2.07-1.84a1.67 1.67 0 0 0-.57-1.25 1.9 1.9 0 0 0-1.35-.53h-3.06a2 2 0 0 1-1.42-.57 1.8 1.8 0 0 1-.6-1.35v-7.67a1.8 1.8 0 0 1 .6-1.35 2 2 0 0 1 1.42-.57h3.63a2 2 0 0 0 1.48-.6 2.06 2.06 0 0 0 .6-1.53 1.8 1.8 0 0 0-.62-1.32 2 2 0 0 0-1.45-.6h-12.8q-3.6 0-3.6 3.43v28.56q0 3.42 3.6 3.4h13.88a1.85 1.85 0 0 0 2.12-2.06 1.77 1.77 0 0 0-.62-1.35 2.15 2.15 0 0 0-1.5-.58zm-35.4-1.82a2.1 2.1 0 0 1-2.3 1.76h-2.15a2 2 0 0 1-1.42-.57 1.8 1.8 0 0 1-.6-1.34V193.3a1.8 1.8 0 0 1 .6-1.36 2 2 0 0 1 1.42-.57h2.13a2.07 2.07 0 0 1 2.28 1.76 59.44 59.44 0 0 1 .88 11.6 60 60 0 0 1-.88 12.2zm.46-29.6h-14.1q-3.58 0-3.58 3.42v28.56q0 3.42 3.58 3.42H73.7q6.96 0 9.65-4.35 2.9-4.67 2.9-14.4 0-10.33-3.37-13.96-2.54-2.68-8.8-2.7zm-23.54 31.42h-4.66a2 2 0 0 1-1.42-.57 1.82 1.82 0 0 1-.6-1.36v-8.42a1.74 1.74 0 0 1 .6-1.33 2 2 0 0 1 1.42-.55h2.9c1.38 0 2.07-.6 2.07-1.84a1.66 1.66 0 0 0-.57-1.25 1.9 1.9 0 0 0-1.35-.53h-3.05a2 2 0 0 1-1.42-.57 1.8 1.8 0 0 1-.6-1.35v-7.67a1.8 1.8 0 0 1 .6-1.35 2 2 0 0 1 1.42-.57h3.63a2 2 0 0 0 1.5-.6 2.07 2.07 0 0 0 .6-1.53 1.8 1.8 0 0 0-.63-1.32 2 2 0 0 0-1.45-.6H36.65q-3.58 0-3.58 3.43v28.56q0 3.42 3.58 3.4h13.9a1.86 1.86 0 0 0 2.12-2.06 1.77 1.77 0 0 0-.62-1.35 2.15 2.15 0 0 0-1.5-.58zm-25.8-9.64a8.54 8.54 0 0 1-1.26-3.55 4.67 4.67 0 0 1 1.24-3 10.3 10.3 0 0 0 2.07-6.8 8.54 8.54 0 0 0-1.77-5.54q-2.33-2.9-7.26-2.9H3.57Q0 187.3 0 190.74v29.6q0 2.4 2.22 2.38h6.33q2.22 0 2.23-2.37V210.3a1.84 1.84 0 0 1 .57-1.36 1.9 1.9 0 0 1 1.4-.57H13q1.15 0 1.72 1.7l3.63 10.53a3 3 0 0 0 3.22 2.12h6.17q2.28 0 2.28-2.54a4.77 4.77 0 0 0-.57-2.23zM149.6 147.7c4-9.6-9.6-15.23-18.5-14-6.57.7-14.76 5.6-10.78 13.8 3.74 8.2 24.35 10.08 29.27.24zM103.46 8.83c-3.52-3.74-28.3 14.7-25.52 18.26 2.34 3.28 28.33-14.75 25.52-18.26zm29.27 7.26c0 4.92 4.92 8 11.47 8.67 4.45.23 15.92-1.4 12.42-9.37-1.64-3.28-7.73-6.1-15-5.38-5.85.47-8.9 3.74-8.9 6.08zm6.32-14c1.17 5.85-25.76 9.36-26.22 4.45-.47-4.5 25.33-9.42 26.22-4.5zm49.87 51.75c11-10.54-4.45-28.57-21.07-28.1a9.24 9.24 0 0 0-8.2 7.26c-3.28 13.55 18.73 30.86 29.27 20.8zm-128.76 7.9c-8 0-10.07 35.6-2.34 35.6 8.66 0 10.06-35.6 2.34-35.6zm.23 41.22c-4.68 4.22 4 26 11 25.05 5.85-3-4-28.33-11-25.05zm3.77-48.24c5.1 1.88 17.3-17.1 11.67-20.18-5.67-2.06-16.67 17.6-11.67 20.18zm127.1 52.45c-7 3.28-15.45 20.37-7 25.3 8 4.44 17.1-4.7 19.66-12.65 2.58-8.2-2.58-17.1-12.64-12.64zm-37.23-46.63c7.5 0 16.4 6.32 15.45 16.63-1.18 7.5-5.63 13.34-12.88 14.52-10.54 1.87-20.14-9.6-16.4-21.07a14.08 14.08 0 0 1 13.82-10.08zM137.17 33.2a11.2 11.2 0 0 0-11.24 8.65c-1.64 8.2 5.4 13.82 12.18 13.34 4.7-.24 9.14-3.75 10.08-8 1.87-9.6-6.1-14-11-14zm-19.67 94.1c-10.77 6.1-24.12-6.78-20.37-19 2.1-7.25 7.72-8.9 12.88-8.9 13.6.7 20.6 20.38 7.5 27.87zm-1.4-114.24c4.22-.7 8.9 0 10.53 3 4.22 9.13-10.53 16.86-16.86 17.56-5.38.7-10.3-.47-11.24-4.22C96.65 20.04 110 14.18 116.1 13zm2.07 53.85c-5.62.95-8.66 4.7-9.83 9.38-2.1 9.13 5.62 17.33 14.75 15.22 14.28-3.28 11.93-27.16-4.93-24.6zm67.9-48.7c-2.57 6.57-30.2-6.54-25.75-13.1 2.34-3.5 27.16 6.56 25.75 13.1zm11.98 69.35c-6.08 15.92-23.65 3.52-18.73-11a8.9 8.9 0 0 1 6.8-6.1c8.2-1.16 14.74 6.8 11.93 17.1zm-61.57 23.65c4.68-16.4 30.2-18 36.06-2.34 3.5 14.28-7 21.54-13.34 22.95-13.58 3.3-26.93-7-22.7-20.6zm42.38 28.57c2.1 9.13-17.56 18.5-21.77 10.3-3-7.25 8.42-14 13.8-14.5 4.7-.48 7 .93 8 4.2zm38.87-57.22c-7.73 0-11.24 27.16-4 29.27 8.9 0 11.47-29.27 4-29.27zm-12.4 55.72c-3.52-.7 6.08-18.73 10.06-17.32 3 1.17-4 16.86-10.08 17.32zm-5.4 5.86c-2.57-3-25.28 14.5-23.18 17.32 2.34 3 26.46-13.35 23.18-17.32zm4.24-100.64c12.18-4.46 21.3 32.07 12.18 35.8-10.54 3-22-32.54-12.18-35.8zm2.32-4.95c-3 4.2-19.2-11.47-14.53-15.22C195.5 21 208.83 34.8 206.5 38.55zM127.34 166.4c-1.4 4.7-24.6-1.86-22.24-7.72 1.4-3.5 23.9 1.88 22.25 7.73zm35.12-3.74c-1.17-4.45-22.24.94-20.84 4.68 1.63 4.68 22-.23 20.84-4.68zm-57.83-11.24c-7 8.67-30.9-13.34-25.52-21.3 5.85-7.5 31.84 11.47 25.52 21.3zM74.67 87.75c4.92-8.9 15.92-4 17.8 4.7 1.64 8.9-5.4 17.55-13.82 11.93-4-2.57-7.26-10.77-4-16.62zm10.07-18c-17.56-6.55 1.64-40 19.2-31.6 4.92 2.33 8 8.42 6.32 16.38-1.64 8.16-12.88 20.1-25.52 15.2z" class="cls-1"/></svg>