<svg id="Camada_1" xmlns="http://www.w3.org/2000/svg" viewBox="0 0 425.2 85.3"><style>.st0{fill:#5b5b5b}</style><title>redemassavertical</title><path class="st0" d="M48.7 74.5c2-4.8-4.8-7.7-9.3-7.1-3.3.4-7.4 2.8-5.4 7s12.2 5 14.7.1zM16 35.2c6.4 2.5 12-3.5 12.9-7.7s-.7-7.1-3.2-8.3C16.8 15 7.2 31.9 16 35.2zm3.9 11.4c-.9-4.4-6.5-6.8-9-2.4-1.6 3 0 7.1 2 8.4 4.3 2.9 7.8-1.5 7-6zm-6.7 19c-2.7 4 9.3 15.1 12.9 10.8 3.1-5-10-14.6-12.9-10.8zm31.5 18.8c.8 2.4 11.1-.1 10.5-2.4s-11.2.5-10.5 2.4zM26.3 80c-1.2 3 10.5 6.3 11.2 3.9.8-2.9-10.5-5.7-11.2-3.9zm51.1-60.5c1.2-1.9-5.6-8.9-7.3-7.7-2.4 1.9 5.7 9.8 7.3 7.7zm-1.2 2.4c-5 1.6.8 19.6 6.2 18.1 4.5-1.9-.1-20.3-6.2-18.1zM62.4 81.4c1.2 1.5 13.3-6.7 11.7-8.7-1.3-1.5-12.8 7.3-11.7 8.7zM81.9 61c-2-.7-6.8 8.4-5.1 8.7 3.1-.2 6.6-8.1 5.1-8.7zm1.2-19.4c-3.9 0-5.7 13.7-2 14.8 4.4 0 5.7-14.8 2-14.8zM63.5 70.4c-.5-1.7-1.7-2.4-4-2.1-2.7.2-8.5 3.7-7 7.3 2.1 4.2 12-.6 11-5.2zm-10-4c4.9-1.1 8-6 6.9-11 0-.2-.1-.4-.2-.6-3-7.9-15.8-7.1-18.2 1.2-2 6.9 4.7 12.1 11.5 10.4zm13.6-30.9c-1.6.3-2.9 1.5-3.4 3.1-2.5 7.3 6.4 13.6 9.4 5.5 1.5-5.2-1.8-9.2-6-8.6zm0-26.3c.7-3.3-11.8-8.4-13-6.6-2.2 3.3 11.7 9.9 13 6.6zM32.9 33.8c-2.5.3-4.5 2.2-5 4.7-.9 3.3 1.1 6.8 4.5 7.6 1 .3 2 .3 3 0 7.2-1.6 6-13.7-2.5-12.3zM28.6 17c3.2-.4 10.6-4.3 8.5-8.9-.8-1.5-3.2-1.9-5.3-1.5-3.1.6-9.8 3.5-8.9 8.3.5 1.9 3 2.4 5.7 2.1zm3.9 47.2c6.6-3.8 3.1-13.7-3.8-14-2.6 0-5.4.8-6.5 4.5-1.8 6.1 4.9 12.6 10.3 9.5zM48 23.8c.7-3.1-1.3-6.2-4.4-6.9-.4-.1-.8-.1-1.2-.1-3.1.1-5.5 2.7-5.4 5.7s2.7 5.5 5.7 5.4c2.6-.1 4.7-1.8 5.3-4.1zm-4 11.8c-1.9 5.8 3 11.6 8.3 10.6 3.7-.6 5.9-3.5 6.5-7.3.5-5.2-4-8.4-7.8-8.4-3.3 0-6.1 2-7 5.1zM69.7 54c-3.5 1.7-7.8 10.3-3.5 12.7 4 2.3 8.6-2.4 9.9-6.4s-1.3-8.5-6.4-6.3zM5.6 27.6c2.6.9 8.7-8.6 5.9-10.2-2.8-1-8.4 8.9-5.9 10.2zM3.7 51.9C1.4 54 5.7 65 9.3 64.5c2.9-1.5-2-14.2-5.6-12.6zm-.1-20.8c-4 0-5.1 17.9-1.2 17.9 4.4.1 5.1-17.9 1.2-17.9zm64.9-4c5.6-5.4-2.3-14.4-10.6-14.2-2 .2-3.7 1.7-4.1 3.7-1.7 6.9 9.4 15.6 14.7 10.5zM43.4 1c-.5-2.5-13.5 0-13.2 2.3C30.4 5.8 44 4 43.4 1zm-3.2 7.1c0 2.5 2.5 4 5.8 4.4 2.3.1 8-.7 6.3-4.7-.8-1.7-3.9-3.1-7.6-2.7-3 .2-4.5 1.8-4.5 3zM25.5 4.5c-1.8-1.9-14.3 7.4-12.9 9.2 1.2 1.6 14.3-7.5 12.9-9.2zm107.8 45.2c-.8-1.2-1.3-2.7-1.4-4.1.1-1.3.6-2.5 1.4-3.4 1.7-2.2 2.5-5 2.4-7.8.1-2.3-.6-4.6-2-6.4-1.8-2.2-4.6-3.3-8.4-3.3h-16.4c-2.7 0-4.1 1.3-4.1 4v34.1c0 1.8.9 2.8 2.6 2.8h7.3c1.7 0 2.6-.9 2.6-2.7V51.1c0-.6.2-1.1.7-1.5.4-.4 1-.7 1.6-.7h.3c.9 0 1.5.7 2 2L126 63c.5 1.6 2 2.6 3.7 2.4h7.1c1.8 0 2.6-1 2.6-2.9 0-.9-.2-1.8-.7-2.6l-5.4-10.2zm-10.4-7.6c-.4 1.7-1.1 2.5-2.2 2.5h-1.4c-.6 0-1.2-.2-1.7-.6-.4-.4-.7-1-.7-1.6V31.5c0-.6.3-1.2.7-1.5.4-.4 1-.7 1.6-.7h1.5c1.2 0 1.9.7 2.2 2.1.3 1.6.4 3.3.4 4.9.1 1.9-.1 3.9-.4 5.8zM163 60.8h-5.4c-.6 0-1.2-.2-1.6-.7-.4-.4-.7-1-.7-1.6v-9.7c0-.6.2-1.1.7-1.5.4-.4 1-.6 1.6-.6h3.3c1.6 0 2.4-.7 2.4-2.1 0-.6-.2-1.1-.7-1.5-.4-.4-1-.6-1.6-.6h-3.5c-.6 0-1.2-.2-1.6-.7-.4-.4-.7-1-.7-1.6v-8.8c0-.6.2-1.2.7-1.5.4-.4 1-.7 1.6-.7h4.2c.6 0 1.3-.2 1.7-.7.5-.5.7-1.1.7-1.8 0-.6-.3-1.1-.7-1.5-.4-.4-1-.7-1.7-.7H147c-2.7 0-4.1 1.3-4.1 4v32.9c0 2.6 1.4 3.9 4.1 3.9h16c1.2.2 2.3-.6 2.4-1.8v-.6c0-.6-.3-1.2-.7-1.5-.4-.4-1-.6-1.7-.6zm27.2-36.2h-16.3c-2.7 0-4.1 1.3-4.1 4v32.9c0 2.6 1.4 3.9 4.1 3.9h15.8c5.3 0 9-1.7 11.1-5 2.2-3.6 3.4-9.1 3.4-16.6 0-7.9-1.3-13.3-3.9-16.1-1.9-2-5.3-3.1-10.1-3.1zm-.6 34.1c-.2 1.3-1.4 2.1-2.6 2h-2.5c-.6 0-1.2-.2-1.6-.7-.4-.4-.7-1-.7-1.5v-27c0-.6.2-1.2.7-1.5.4-.4 1-.7 1.6-.7h2.5c1.3-.1 2.4.7 2.6 2 .8 4.4 1.1 8.9 1 13.4 0 6.4-.3 11.1-1 14zm40.8 2.1H225c-.6 0-1.2-.2-1.6-.7-.4-.4-.7-1-.7-1.6v-9.7c0-.6.3-1.1.7-1.5.4-.4 1-.6 1.6-.6h3.3c1.6 0 2.4-.7 2.4-2.1 0-.6-.2-1.1-.7-1.5-.4-.4-1-.6-1.6-.6h-3.5c-.6 0-1.2-.2-1.6-.7-.4-.4-.7-1-.7-1.6v-8.8c0-.6.3-1.2.7-1.5.4-.4 1-.7 1.6-.7h4.2c.6 0 1.3-.2 1.7-.7.5-.5.7-1.1.7-1.8 0-.6-.3-1.1-.7-1.5-.4-.4-1-.7-1.7-.7h-14.8c-2.7 0-4.1 1.3-4.1 4v32.9c0 2.6 1.4 3.9 4.1 3.9h16c1.2.2 2.3-.6 2.5-1.8v-.6c0-.6-.3-1.2-.7-1.5-.4-.4-1-.6-1.7-.6zm59.3-32c-.4-2.7-1.9-4.1-4.4-4.1h-5.1c-2.2 0-3.6 1.4-4.2 4.1l-4.6 19.9c0 .6-.4 1-1 1-.5-.1-.8-.5-.8-1l-3.7-19.9c-.5-2.7-1.9-4.1-4.2-4.1h-5.2c-2.5 0-4 1.5-4.5 4.4l-4.5 31.5c-.2 1-.2 2-.2 3 0 1.7.9 2.6 2.7 2.6s2.8-.8 3-2.4l2.4-24.5c-.1-.5.3-.9.7-1h.1c.5.1.8.5.8 1l4.7 22.6c.4 2 2.5 3 6.1 3 3.2 0 5-1.1 5.5-3.2l4.8-22.5c0-.5.3-.9.8-1 .5 0 .9.4.9.9v.1l2.4 23.8c.1.7.4 1.3 1 1.8.5.4 1.2.7 1.9.7h6.9c1.3.1 2.4-.8 2.5-2v-.6c0-1-.1-2-.2-2.9l-4.6-31.2zm31.2-.8c-.3-1.1-.9-2.1-1.7-2.9-1.3-.9-2.9-1.4-4.5-1.3-3.8 0-6.1 1.4-7 4.2l-11 32.5c-.4 1-.6 2-.6 3 0 1.7 1 2.6 3 2.6 1.6.2 3.1-.9 3.5-2.5l2.7-9.5c.3-1.4 1.6-2.3 3-2.2h5.9c1.3 0 2.4.9 2.6 2.2l2.4 8.8c.2 1.5 1.5 2.5 3 2.4h7.8c1.7 0 2.5-1 2.5-2.9 0-.9-.1-1.8-.4-2.6L320.9 28zm-7.4 20h-4c-1.3 0-2-.6-2-1.8 0-.5.1-1 .3-1.5l2.3-8.1c.3-1.1.8-1.6 1.5-1.6.9 0 1.7.7 1.8 1.6l1.8 7.9c.2.6.3 1.2.3 1.8-.1 1.1-.8 1.7-2 1.7zm36.3-11c-.8-1.3-1.3-2.7-1.5-4.3 0-.9.3-1.8.9-2.5.5-.6 1.3-1 2.1-1h4.9c1.4 0 2.2-.6 2.2-1.8 0-1.6-1.3-2.6-3.8-3-1.8-.2-3.7-.3-5.5-.2-9.2 0-13.9 3.1-13.9 9.4.1 2.6.8 5.1 2 7.3l6.9 13.4c.6 1.1 1 2.4 1.1 3.7 0 1.8-1.1 2.7-3.4 2.8h-6.1c-.5 0-1.1.2-1.4.6-.4.4-.6 1-.6 1.6-.1 1 .5 2 1.4 2.3 1.4.4 5 .6 10.8.6 4.1 0 7.1-.6 9.1-1.7 2.3-1.3 3.5-3.6 3.5-6.9 0-2.6-.9-5.7-2.8-9.2L349.8 37zm28.1 0c-.8-1.3-1.3-2.8-1.5-4.3 0-.9.3-1.8.9-2.5.5-.6 1.3-1 2.1-1h4.9c1.4 0 2.1-.6 2.1-1.8 0-1.6-1.3-2.6-3.8-3-1.8-.2-3.7-.3-5.5-.2-9.2 0-13.8 3.1-13.9 9.4.1 2.6.8 5.1 2 7.4l6.9 13.4c.6 1.1 1 2.4 1.1 3.7 0 1.8-1.1 2.7-3.4 2.8h-6.1c-.5 0-1 .2-1.4.6-.4.4-.6 1-.6 1.6-.1 1 .5 2 1.4 2.3 1.4.4 5 .6 10.8.6 4.1 0 7.1-.6 9.1-1.7 2.4-1.3 3.5-3.6 3.5-6.9 0-2.6-.9-5.7-2.8-9.2L377.9 37zm46.9 22.8l-11.1-31.9c-.3-1.1-.9-2.1-1.7-2.9-1.3-.9-2.9-1.4-4.5-1.3-3.7 0-6.1 1.4-7 4.2l-11 32.5c-.4 1-.6 2-.6 3 0 1.7 1 2.6 3 2.6 1.6.2 3.1-.9 3.5-2.5l2.7-9.4c.3-1.4 1.5-2.3 2.9-2.2h5.9c1.3 0 2.4.9 2.6 2.2l2.4 8.8c.2 1.5 1.5 2.5 3 2.4h7.8c1.7 0 2.5-1 2.5-2.9 0-.8-.1-1.7-.4-2.6zM406.3 48h-4c-1.3 0-2-.6-2-1.8 0-.5.1-1 .3-1.5l2.3-8.1c.3-1.1.8-1.6 1.5-1.6.9 0 1.7.7 1.7 1.6l1.8 7.9c.2.6.3 1.2.3 1.8 0 1.1-.6 1.7-1.9 1.7z"/></svg>