<svg id="Camada_1" xmlns="http://www.w3.org/2000/svg" viewBox="0 0 370.1 409.4"><style>.st0{fill:#fedebf}.st1{fill:#5b5b5b}.st2{fill:none}</style><path class="st0" d="M107.3 409.2v.2H88.8v-.2h18.5"/><path class="st1" d="M143.8 0h82.6c.4.1.9.3 1.4.4 3.1.9 4.8 3 5.2 6.2 1.8 15.4 3.7 30.9 5.5 46.3 2.7 22.8 5.5 45.6 8.1 68.3 1.5 12.5 2.8 25 4.1 37.5 2.1 19.8 4.2 39.7 6.3 59.5 1.2 11.2 2.3 22.3 3.4 33.5.5 4.8 1.1 9.6 1.6 14.4.1.6 0 1.3 1 .8.7-10.3 1.3-20.6 2-30.9 1-15.1 1.9-30.2 3.1-45.3 1.7-21.9 3.6-43.9 5.5-65.8 1-11.4 2.1-22.8 3.1-34.1 1.1-11.9 2.1-23.8 3.2-35.7.8-8.8 1.5-17.5 2.3-26.3.6-7.3 1.3-14.6 2-22 .3-3.5 2.3-5.7 5.7-6.5l.9-.3h74.6c2 .7 3.8 1.7 4.2 4 .3 1.2.4 2.5.3 3.7-.7 6-1.5 12.1-2.3 18.1-2.2 17.1-4.4 34.2-6.5 51.3-1.9 15.2-3.9 30.4-5.8 45.6-1.2 9.3-2.4 18.5-3.6 27.8-1.4 11.4-2.9 22.8-4.3 34.2-1.4 11.2-2.9 22.4-4.3 33.5-1.6 12.7-3.2 25.4-4.9 38.1-1.5 12-3.1 23.9-4.6 35.9-2.2 17.4-4.4 34.8-6.7 52.2-.4 3-1.9 5.2-4.8 6.2-1.5.5-3.2.9-4.8.9H217.9c-5.1-.3-7.9-2.6-8.4-7-.5-4.3-.8-8.6-1.2-12.9-.8-8.2-1.5-16.5-2.3-24.7-1.1-11.3-2.1-22.6-3.2-33.9-1.3-13.4-2.5-26.9-3.8-40.3-1.2-12.3-2.4-24.7-3.6-37-1.6-16.8-3-33.6-4.6-50.4-1-10.4-2.1-20.8-3.2-31.3-.8-7.9-1.6-15.8-2.4-23.6 0-.3-.3-.7-.5-1-.2.3-.5.6-.6 1-.7 7-1.4 14.1-2.1 21.1-.9 8.6-1.7 17.2-2.5 25.8-1 10-2.2 20-3.1 30.1-2 21.3-3.8 42.5-5.8 63.8-2.1 23.5-4.4 47-6.6 70.4-1.3 14.2-2.6 28.5-3.9 42.7-.3 3.9-2.1 6-5.9 6.9-1.2.3-2.4.4-3.6.4h-99c-5.2-.4-8.5-2.6-9-7.9-.3-2.9-.7-5.7-1.1-8.6-2.5-19.6-5-39.3-7.5-58.9-1.6-12.7-3.3-25.4-4.9-38.2-1.9-14.5-3.7-29-5.6-43.5-2.2-17.6-4.5-35.1-6.7-52.7-1.4-11.4-2.9-22.8-4.3-34.1C10.9 95 9.3 82.2 7.6 69.5 6.9 59.9 5.7 50.4 4.5 41 3.3 31.7 2.1 22.4 1 13.2l-.9-6V4.6C.7 2 2.4.4 5 0h74.2c.3.1.7.2 1 .3 3.4.8 5.4 3 5.7 6.4.5 5.5 1 10.9 1.5 16.4 1.9 21.8 3.8 43.6 5.8 65.4 1.6 18.4 3.3 36.7 4.9 55.1 1 10.9 1.9 21.9 2.8 32.9.9 11.2 1.8 22.5 2.6 33.7 1.2 16.9 2.2 33.8 3.4 50.7.1 2.1.3 4.3.4 6.4 1 .3 1-.4 1-.9 1.1-10.2 2.2-20.3 3.3-30.5 1.6-15.6 3.2-31.1 4.8-46.7 1.4-13.5 2.8-27.1 4.3-40.6 1.9-17.1 3.8-34.1 5.8-51.1 1.4-12.6 3-25.2 4.5-37.7 2.1-17.6 4.2-35.3 6.3-52.9.4-3.3 2.2-5.4 5.4-6.3.4-.3.7-.5 1.1-.6M46 318.2c.3 2.6.6 5.1.9 7.5.4 3.4.9 6.8 1.4 10.1l1.2 9.3c0 .4.6.9 1 .9 2.4.1 4.9.1 7.3 0 .3 0 1-.5 1-.9.3-2.5.5-4.9.8-7.4.3-2.9.5-5.9.7-8.8.1-1 .3-2 .4-3.1.4 2.2.6 4.5.8 6.7.4 4 .8 8.1 1.1 12.1.1.9.4 1.4 1.4 1.4 2.2 0 4.5-.1 6.7 0 1 0 1.4-.5 1.5-1.3.3-2.8.7-5.5 1-8.3.3-2.7.7-5.4 1-8.1.4-3.1.8-6.3 1.2-9.4 0-.2-.3-.7-.6-.7-1.8 0-3.6-.1-5.4 0-.3 0-.7.5-.8.8-.3 2.6-.5 5.2-.7 7.8-.3 3.5-.5 7.1-.8 10.6 0 .5-.2.9-.3 1.7-.2-1.9-.4-3.5-.6-5.1-.6-4.9-1.2-9.9-1.7-14.8-.1-1-.5-1.1-1.3-1.1h-3.8c-2.2 0-2.3 0-2.7 2.1-.5 3-.8 6-1.1 9.1-.4 3.1-.7 6.3-1 9.5-.6-5.1-1-10.1-1.4-15.2-.1-1.6-.3-3.2-.5-4.7 0-.3-.5-.7-.7-.7h-6m71.7 27.7c.1.1.2.1.3.1h4.6c2.6 0 2.3.3 2.3-2.3v-8.5c1.4 3.2 2.6 6.4 3.8 9.5.3.7.5 1.3 1.5 1.3h5.8c.9 0 1.1-.4.7-1.2-1-2-1.9-4.1-2.8-6.1-.6-1.4-1.2-2.7-1.8-4.1 2.7-.4 3.9-1.4 4-4 .1-2.8.1-5.7-.1-8.5-.2-3-2.1-3.9-4.3-3.9-4.4-.1-8.9 0-13.3 0-.2 0-.4.1-.6.1l-.1 27.6zm-40.2.2h6.1c.8 0 1.1-.3 1.1-1.1v-8.6-1.8c1.5-.1 2.9-.2 4.3-.3v10.6c0 .9.3 1.2 1.2 1.2 1.7-.1 3.4 0 5 0 .8 0 1-.2 1-1v-25.9c0-.8-.3-1-1-1H90c-.8 0-1.1.3-1.1 1.1.1 2.2 0 4.3 0 6.5v3.1h-4.3v-1.2-8.4c0-.4-.4-1.1-.6-1.1-2.2-.1-4.4 0-6.6 0l.1 27.9zm29.1-11.6c2.7-.1 5.4-.3 8.1-.4v-5.3h-8V324h7.3c.8 0 1.1-.2 1.1-1-.1-1.2-.1-2.3 0-3.5.1-1-.3-1.3-1.3-1.3h-13.3c-.3 0-.6 0-.9.1v27.8h12.9c3.1 0 3.1 0 3.1-3.1 0-2.7 0-2.7-2.7-2.7h-6.2l-.1-5.8zm32.4-16.3V346h13.1c2.8 0 2.8 0 2.8-2.9s0-2.9-2.9-2.9h-5.9v-5.8c2.7-.1 5.4-.3 8.1-.4v-5.3h-8V324h7.3c.8 0 1.1-.2 1.1-1-.1-1.3 0-2.6-.1-3.9 0-.3-.5-.9-.8-.9H139M53.8 409.4c-.5-.1-1-.2-1.4-.3-5.3-.7-8-3.5-8-9-.1-11.8-.1-23.7 0-35.5 0-5.8 3.2-9 9.1-9 6.4 0 12.9.3 19.3.4.9 0 1.5.5 1.5 1.5v8.8c0 1.1-.5 1.5-1.9 1.5H60.5c-1.5 0-1.6.1-1.6 1.6v25.8c0 1.5.1 1.6 1.7 1.6h11.6c1.7 0 2.1.4 2.1 2v7.8c0 1.6-.4 2-2 2-4.1.1-8.2.3-12.3.5-.2 0-.4.2-.6.2l-5.6.1zM285.7 380.5c4 1.5 5.8 4.3 5.7 8.4-.1 4.1.1 8.3-.2 12.5-.3 4.5-3.6 7.5-8.1 7.6-8.5.1-17 0-25.4 0-1.3 0-1.8-.5-1.8-1.9v-49.3c0-1.4.5-1.9 1.8-1.9 7.9 0 15.8-.1 23.8 0 5.9.1 8.9 3.2 9.1 9.4.1 2.8 0 5.6 0 8.4 0 3.3-1.9 5.3-4.9 6.8m-15.2 17.6h5.3c.3 0 .9-.6.9-1 .1-3 0-6.1 0-9.1 0-.8-.3-1.3-1.2-1.3-1.7 0-3.3.1-5 .2v11.2zm0-22.1h4.6c.8 0 1.2-.4 1.2-1.2 0-2.4.1-4.8 0-7.2 0-.3-.4-.9-.7-.9-1.7-.1-3.4 0-5.1 0v9.3zm-119 11.6c1.7 3.6 3.3 7.2 4.9 10.8 1.2 2.6 2.4 5.3 3.6 7.9.9 1.9.4 2.6-1.7 2.6H147c-1.4 0-2.1-.6-2.6-1.8-1.9-5.1-3.9-10.2-5.8-15.2-.2-.4-.3-.9-.7-1.3v16.1c0 1.7-.4 2.1-2.1 2.1h-10.4c-1.6 0-2-.4-2-2.1v-48.9c0-1.6.4-2.1 1.8-2.1 8.2 0 16.5-.1 24.7 0 5.4.1 8.6 2.9 8.8 8.4.3 5.3.2 10.5 0 15.8-.1 4-3.1 7.2-6.8 7.4-.1.2-.2.2-.4.3m-13.5-9h5.3c.3 0 .9-.6.9-1 .1-3.1.1-6.3 0-9.5 0-.3-.5-.9-.8-.9-1.8-.1-3.6-.1-5.4-.1v11.5zm-30.7 30.6H88.8c-5.9-.4-8.9-3.6-8.9-9.5v-41.5c0-2 .3-2.3 2.3-2.3h10.2c1.7 0 2.1.4 2.1 2.1v38.1c0 1.7 0 1.7 1.7 1.7h3.9c1 0 1.3-.3 1.3-1.3v-13V358c0-1.8.4-2.2 2.2-2.2h10.3c1.7 0 2.1.5 2.1 2.2v41.9c.1 5.8-3 9-8.7 9.3M318.9 399.2c-2.7.1-5.3.3-7.9.4-.3 2.1-.6 4.1-.9 6.2-.1.5-.1 1.1-.2 1.7-.2 1-.8 1.6-1.8 1.6h-11.2c-1.3 0-1.6-.6-1.4-2 .8-4.5 1.6-8.9 2.4-13.3 2.1-11.2 4.1-22.4 6.2-33.6.2-.9.3-1.7.5-2.6.2-1 .8-1.5 1.8-1.5h17.2c1.2 0 1.7.7 1.9 1.8 1.7 9.6 3.5 19.2 5.3 28.8 1.2 6.8 2.5 13.6 3.7 20.4.3 1.6-.1 2.1-1.7 2.1h-10.5c-1.5 0-2-.4-2.2-1.9-.5-2.9-.8-5.5-1.2-8.1m-1.4-10.7c-.8-6-1.6-11.9-2.5-17.8h-.1c-.8 5.9-1.6 11.8-2.5 17.8h5.1zM214.4 368V406.8c0 2-.3 2.3-2.3 2.3H202c-1.8 0-2.2-.4-2.2-2.2V368h-7.6c-2 0-2.3-.3-2.3-2.3v-7.8c0-1.6.4-2 1.9-2h30.5c1.5 0 1.9.4 1.9 1.9v8.2c0 1.6-.4 2-2 2h-7.8m-46.3 29.6v-30.4h-2.4c-1 0-1.5-.6-1.5-1.6v-8.1c0-1.2.6-1.6 2-1.6h19c.9 0 1.5.6 1.5 1.5v8.3c0 1-.6 1.5-1.6 1.5h-2.3v30.4h2.4c1 0 1.5.6 1.5 1.5v8.3c0 1-.6 1.5-1.6 1.5h-19.4c-1.1 0-1.6-.6-1.6-1.7v-7.8c0-1.4.4-1.8 1.9-1.9.7.1 1.4.1 2.1.1M246.2 397.7h2.4c1 0 1.5.6 1.5 1.5v8.3c0 1.2-.8 1.5-1.8 1.5H229.5c-1.5 0-1.9-.5-1.9-2v-7.4c0-1.5.4-1.9 1.9-2h2.1v-30.4h-2.2c-1.3 0-1.8-.5-1.8-1.7v-7.9c0-1.2.5-1.7 1.7-1.7h19.2c1.3 0 1.7.5 1.7 1.8v7.7c0 1.4-.4 1.9-1.8 1.9h-2.1l-.1 30.4z"/><path class="st1" d="M124.9 323.8h2c1.8 0 1.8 0 1.8 1.9v3.6c0 .9-.3 1.3-1.3 1.3h-2.6l.1-6.8z"/><path class="st2" d="M-13.6-16.9h397.2v443.3H-13.6V-16.9z"/></svg>