<svg id="svg2" xmlns="http://www.w3.org/2000/svg" xmlns:xlink="http://www.w3.org/1999/xlink" viewBox="0 0 266.7 80"><style>.st0{clip-path:url(#SVGID_2_)}.st1{fill:#5b5b5b}</style><g id="g10" transform="matrix(1.33333 0 0 -1.33333 0 80)"><g id="g12"><defs><path id="SVGID_1_" d="M-33.3-10h266.7v80H-33.3z"/></defs><clipPath id="SVGID_2_"><use xlink:href="#SVGID_1_" overflow="visible"/></clipPath><g id="g14" class="st0"><g id="g20" transform="translate(39.934 48.234)"><path id="path22" class="st1" d="M0 0l-4.4-34.7c0-.3-.1-.5-.3-.6-.2-.1-.4-.2-.7-.2h-10.1c-.3 0-.5.1-.7.2-.2.1-.3.3-.3.6l-1.1 11.5c-.2 1.5-.3 3.2-.5 4.9s-.3 3.3-.5 4.8c-.2 1.7-.3 3.4-.5 5.1h-.1c-.2-1.7-.3-3.4-.5-5.1-.2-1.5-.3-3.1-.5-4.8-.2-1.7-.3-3.3-.4-4.9l-1.1-11.5c0-.3-.1-.5-.3-.6-.2-.1-.4-.2-.7-.2h-10.1c-.3 0-.5.1-.7.2-.2.1-.3.3-.3.6L-38.3 0c-.1.5.2.8.7.8h7.3c.6 0 .9-.3.9-.8l1-11.5c.1-1.5.3-3.2.4-5s.3-3.4.4-5l.4-5.4h.1l.6 5.4c.2 1.5.3 3.2.5 5 .2 1.8.4 3.4.5 5L-24.1 0c0 .5.3.8.9.8h8.1c.6 0 .9-.3.9-.8l1.4-11.5c.2-1.5.3-3.2.5-5 .2-1.8.4-3.4.5-5l.6-5.4h.1l.4 5.4c.1 1.5.2 3.2.4 5 .1 1.8.3 3.4.5 5l1 11.5c0 .5.3.8.9.8h7.3C-.2.8 0 .5 0 0"/></g><g id="g24" transform="translate(116.987 21.502)"><path id="path26" class="st1" d="M0 0c0-.2-.1-.3-.3-.3l-4.1-.1H-6c-1 0-1.7.2-2.2.6-.5.4-.8 1-.8 1.8v9.3c0 .8.3 1.5.8 1.9.5.4 1.2.6 2.2.6h1.6l4.1-.1c.2 0 .3-.1.3-.3V11c0-.2-.1-.3-.3-.3h-4.1c-.1 0-.2 0-.2-.1-.1-.1-.1-.1-.1-.2V2.9c0-.1 0-.1.1-.2s.1-.1.2-.1h4.1c.2 0 .3-.1.3-.3V0z"/></g><g id="g28" transform="translate(130.168 23.441)"><path id="path30" class="st1" d="M0 0c0-.8-.2-1.3-.7-1.8-.5-.4-1.1-.6-2-.6h-5.5c-.9 0-1.5.2-2 .6-.5.4-.7 1-.7 1.8v11.5c0 .2.1.3.3.3H-7c.2 0 .3-.1.3-.3V.8c0-.1 0-.1.1-.2s.1-.1.2-.1h1.8c.1 0 .2 0 .2.1.1.1.1.1.1.2v10.7c0 .2.1.3.3.3h3.5c.2 0 .3-.1.3-.3V0z"/></g><g id="g32" transform="translate(139.372 32.127)"><path id="path34" class="st1" d="M0 0c0 .1 0 .1-.1.2s-.1.1-.2.1h-1.9v-3.4h1.9c.1 0 .2 0 .2.1.1.1.1.2.1.2V0zm4.7-10.6c.1-.1.1-.2 0-.3s-.1-.1-.3-.1H.6c-.1 0-.2 0-.3.1l-.2.2-2.3 5.3v-5.3c0-.2-.1-.3-.3-.3H-6c-.2 0-.3.1-.3.3V2.8c0 .2.1.3.3.3h7.6c.9 0 1.5-.2 2-.6.4-.5.6-1.1.6-1.8V-3c0-.6-.2-1.1-.6-1.5-.4-.5-.9-.7-1.6-.7h-.2l2.9-5.4z"/></g><g id="g36" transform="translate(152.44 21.443)"><path id="path38" class="st1" d="M0 0c0-.2-.1-.3-.3-.3h-6c-.2 0-.3.1-.3.3v2.2c0 .2.1.3.3.3h.9V11h-.9c-.2 0-.3.1-.3.3v2.2c0 .2.1.3.3.3h6c.2 0 .3-.1.3-.3v-2.2c0-.2-.1-.3-.3-.3h-.9V2.5h.9c.2 0 .3-.1.3-.3V0z"/></g><g id="g40" transform="translate(164.258 32.523)"><path id="path42" class="st1" d="M0 0c0-.2-.1-.3-.3-.3H-3v-10.8c0-.2-.1-.3-.3-.3h-3.5c-.2 0-.3.1-.3.3V-.3H-10c-.2 0-.3.1-.3.3v2.4c0 .2.1.3.3.3h9.7c.2 0 .3-.1.3-.3V0z"/></g><g id="g44" transform="translate(172.439 21.443)"><path id="path46" class="st1" d="M0 0c0-.2-.1-.3-.3-.3h-6c-.2 0-.3.1-.3.3v2.2c0 .2.1.3.3.3h.9V11h-.9c-.2 0-.3.1-.3.3v2.2c0 .2.1.3.3.3h6c.2 0 .3-.1.3-.3v-2.2c0-.2-.1-.3-.3-.3h-.9V2.5h.9c.2 0 .3-.1.3-.3V0z"/></g><g id="g48" transform="translate(181.188 26.647)"><path id="path50" class="st1" d="M0 0c0 .2 0 .3-.1.4-.1.1-.2.1-.4.1L-2.2.4v-3.3h1.9c.1 0 .2 0 .2.1.1.1.1.2.1.3V0zm-.1 5.6c0 .1 0 .1-.1.2s-.1.1-.2.1h-1.8V3.1h1.6c.4 0 .6.2.6.5l-.1 2zm4.3-8.7c0-.8-.2-1.3-.7-1.8-.5-.4-1.2-.6-2-.6h-7.6c-.2 0-.3.1-.3.3V8.3c0 .2.1.3.3.3h7.4c.9 0 1.5-.2 2-.6.4-.5.7-1.1.7-1.8V3.8c0-.3-.1-.5-.2-.7-.1-.2-.3-.4-.5-.5-.2-.2-.5-.3-.8-.4-.2-.1-.5-.2-.8-.2.7 0 1.3-.2 1.8-.5s.7-.9.7-1.5v-3.1z"/></g><g id="g52" transform="translate(194.097 26.39)"><path id="path54" class="st1" d="M0 0l-.2 1.1c-.1.5-.2 1-.3 1.6-.1.6-.2 1.1-.2 1.7L-1 6.2c-.1-.6-.2-1.2-.2-1.8-.1-.5-.2-1.1-.3-1.7-.1-.6-.2-1.1-.3-1.6L-2 0h2zm4.9-4.9c0-.2-.1-.3-.3-.3H1.2c-.2 0-.4.1-.4.3L.4-2.6l-2.7-.1-.4-2.3c0-.2-.2-.3-.4-.3h-3.5c-.2 0-.3.1-.3.3L-4 8.5c0 .1 0 .2.1.2s.2.1.3.1h5.2c.3 0 .4-.1.5-.3L4.9-4.9z"/></g><g id="g56" transform="translate(44.386 34.809)"><path id="path58" class="st1" d="M0 0h1.9l2.7-10.4h.1L7.3 0h1.9l2.7-10.5h.1L14.6 0h1.9l-3.6-13.6H11L8.3-3.1h-.1L5.6-13.6H3.7L0 0z"/></g><g id="g60" transform="translate(64.408 40.083)"><path id="path62" class="st1" d="M0 0v-7.1h.1c.5.6 1.1 1.1 1.8 1.5.6.4 1.4.6 2.1.6.5 0 1-.1 1.5-.2.5-.2.9-.4 1.2-.7.4-.3.7-.7.9-1.2s.3-1.2.3-1.9v-9.9H6.1V-9c0 .9-.2 1.5-.6 1.9-.4.3-1 .5-1.6.5-.3 0-.7-.1-1.1-.2-.4-.2-.7-.3-1.1-.5-.3-.2-.6-.4-.9-.7-.3-.2-.6-.5-.8-.7v-10.2h-1.9V0H0z"/></g><g id="g64" transform="translate(83.42 29.273)"><path id="path66" class="st1" d="M0 0c0 1.3-.3 2.3-.8 3s-1.4 1.1-2.4 1.1c-1.1 0-2-.4-2.6-1.1-.6-.8-.9-1.8-1-3H0zm2.3-5.1c-.2-.4-.5-.8-.8-1.2-.3-.4-.6-.7-1-1-.4-.3-.9-.5-1.4-.7-.6-.2-1.2-.3-2-.3s-1.5.1-2.2.4c-.7.3-1.3.7-1.9 1.3-.5.6-1 1.3-1.3 2.2-.3.9-.5 1.9-.5 3.2 0 1.1.1 2.1.4 3 .3.9.6 1.6 1.1 2.2.5.5 1.1 1 1.8 1.3.7.3 1.4.5 2.3.5.7 0 1.3-.1 2-.4.6-.2 1.2-.6 1.6-1.1s.8-1.1 1.1-1.9c.3-.8.4-1.7.4-2.8v-1.3h-8.8c0-.7.1-1.4.3-2.1.2-.6.5-1.1.9-1.6.4-.4.8-.8 1.3-1 .5-.3 1-.4 1.6-.4.8 0 1.6.2 2.2.6.6.4 1.1 1 1.5 1.7l1.4-.6z"/></g><g id="g68" transform="translate(87.362 34.809)"><path id="path70" class="st1" d="M0 0h1.9v-2.7H2c.3.5.5.9.8 1.2.2.4.5.7.9 1 .3.2.7.4 1.1.5s.9.2 1.5.2v-1.9c-1.2 0-2.1-.4-2.8-1.2-.6-.7-1.2-1.7-1.6-3.2v-7.5H0V0z"/></g><g id="g72" transform="translate(102.949 29.273)"><path id="path74" class="st1" d="M0 0c0 1.3-.3 2.3-.8 3s-1.4 1.1-2.4 1.1c-1.1 0-2-.4-2.6-1.1-.6-.8-.9-1.8-1-3H0zm2.3-5.1c-.2-.4-.5-.8-.8-1.2-.3-.4-.6-.7-1-1-.4-.3-.9-.5-1.4-.7-.6-.2-1.2-.3-2-.3s-1.5.1-2.2.4c-.7.3-1.3.7-1.9 1.3-.5.6-1 1.3-1.3 2.2-.3.9-.5 1.9-.5 3.2 0 1.1.1 2.1.4 3 .3.9.6 1.6 1.1 2.2.5.5 1.1 1 1.8 1.3s1.4.5 2.3.5c.7 0 1.3-.1 2-.4.6-.2 1.2-.6 1.6-1.1s.8-1.1 1.1-1.9c.3-.8.4-1.7.4-2.8v-1.3h-8.8c0-.7.1-1.4.3-2.1.2-.6.5-1.1.9-1.6.4-.4.8-.8 1.3-1 .5-.3 1-.4 1.6-.4.8 0 1.6.2 2.2.6.6.4 1.1 1 1.5 1.7l1.4-.6z"/></g></g></g></g></svg>