<svg xmlns="http://www.w3.org/2000/svg" viewBox="0 0 266.66666 80" height="80" width="266.667"><defs><clipPath id="a"><path d="M0 60h200V0H0z"/></clipPath></defs><g clip-path="url(#a)" transform="matrix(1.33333 0 0 -1.33333 0 80)"><path d="M39.934 48.234l-4.442-34.718c-.034-.273-.145-.469-.332-.587a1.25 1.25 0 0 0-.689-.179H24.362c-.273 0-.503.051-.689.153-.188.102-.299.306-.332.613l-1.072 11.487a152.453 152.453 0 0 0-.46 4.876c-.136 1.72-.29 3.327-.459 4.825l-.511 5.106h-.102l-.511-5.106c-.17-1.498-.331-3.106-.485-4.825l-.434-4.876-1.072-11.487c-.034-.307-.145-.51-.332-.613a1.424 1.424 0 0 0-.689-.153H7.105c-.273 0-.503.06-.689.18-.188.117-.299.313-.332.586L1.642 48.234c-.069.511.153.766.664.766h7.301c.578 0 .884-.255.919-.766l1.021-11.488c.135-1.53.281-3.19.434-4.978.153-1.787.281-3.446.383-4.978l.357-5.36h.102c.204 1.77.391 3.556.562 5.36.17 1.532.348 3.191.536 4.978.187 1.787.365 3.447.536 4.978l1.378 11.488c.034.511.34.766.919.766h8.067c.579 0 .885-.255.919-.766l1.379-11.488c.17-1.53.348-3.19.536-4.978.187-1.787.365-3.446.536-4.978.17-1.804.358-3.59.562-5.36h.102l.357 5.36c.102 1.532.221 3.191.358 4.978.135 1.787.288 3.447.459 4.978l1.021 11.488c.034.511.34.766.919.766h7.301c.477 0 .698-.255.664-.766M116.987 21.502c0-.198-.114-.297-.34-.297l-4.092-.118h-1.59c-.97 0-1.705.194-2.205.583-.5.39-.75 1.006-.75 1.85v9.3c0 .843.25 1.46.75 1.85.5.388 1.234.583 2.204.583h1.591l4.091-.119c.227 0 .341-.099.341-.297v-2.315c0-.197-.114-.296-.34-.296h-4.092a.352.352 0 0 1-.238-.089.268.268 0 0 1-.103-.208v-7.518c0-.08.034-.149.103-.208a.347.347 0 0 1 .238-.089h4.091c.227 0 .341-.099.341-.297zM130.168 23.441c0-.75-.238-1.335-.716-1.75-.477-.417-1.147-.624-2.01-.624h-5.456c-.863 0-1.533.207-2.01.623-.478.416-.717 1-.717 1.751v11.456c0 .197.114.296.341.296h3.523c.227 0 .341-.099.341-.296V24.213c0-.08.034-.149.102-.208a.352.352 0 0 1 .24-.089h1.816c.092 0 .171.03.24.09a.27.27 0 0 1 .102.207v10.684c0 .197.113.296.341.296h3.522c.228 0 .341-.099.341-.296zM139.372 32.127a.27.27 0 0 1-.102.208.354.354 0 0 1-.239.09h-1.93V29.06h1.93c.091 0 .171.03.24.09a.27.27 0 0 1 .101.207zm4.66-10.585c.06-.105.071-.198.033-.277-.038-.079-.125-.119-.26-.119h-3.865a.48.48 0 0 0-.284.09.457.457 0 0 0-.17.207l-2.34 5.342h-.046v-5.342c0-.198-.114-.297-.342-.297h-3.522c-.227 0-.34.1-.34.297v13.454c0 .198.113.297.34.297h7.613c.864 0 1.534-.208 2.012-.624.477-.415.716-.999.716-1.75V29.1c0-.62-.202-1.135-.603-1.543-.4-.409-.943-.614-1.625-.614h-.159zM152.44 21.443c0-.198-.113-.297-.341-.297h-6.022c-.228 0-.341.1-.341.297v2.177c0 .197.113.296.341.296h.909v8.508h-.909c-.228 0-.341.1-.341.297v2.176c0 .198.113.297.341.297h6.022c.228 0 .341-.099.341-.297v-2.176c0-.198-.113-.297-.341-.297h-.909v-8.508h.909c.228 0 .341-.099.341-.296zM164.258 32.523c0-.198-.113-.297-.341-.297h-2.727V21.443c0-.197-.114-.297-.341-.297h-3.522c-.228 0-.341.1-.341.297v10.783h-2.727c-.228 0-.342.099-.342.297v2.374c0 .198.114.297.342.297h9.658c.228 0 .34-.1.34-.297zM172.439 21.443c0-.198-.113-.297-.341-.297h-6.022c-.228 0-.341.1-.341.297v2.177c0 .197.113.296.341.296h.909v8.508h-.909c-.228 0-.341.1-.341.297v2.176c0 .198.113.297.341.297h6.022c.228 0 .341-.099.341-.297v-2.176c0-.198-.113-.297-.341-.297h-.909v-8.508h.909c.228 0 .341-.099.341-.296zM181.188 26.647a.489.489 0 0 1-.148.376c-.098.092-.238.132-.42.119l-1.704-.06v-3.264h1.931a.35.35 0 0 1 .24.089.269.269 0 0 1 .101.208zm-.113 5.579c0 .08-.035.149-.103.208a.349.349 0 0 1-.238.089h-1.818v-2.77h1.59c.38 0 .57.165.57.495zm4.318-8.705c0-.752-.239-1.335-.716-1.751-.478-.416-1.148-.623-2.012-.623h-7.613c-.227 0-.34.099-.34.297v13.453c0 .198.113.297.34.297h7.386c.864 0 1.534-.208 2.011-.623.478-.415.716-1 .716-1.751v-2.374c0-.251-.064-.482-.193-.693a1.984 1.984 0 0 0-.51-.554 2.612 2.612 0 0 0-.729-.376 2.609 2.609 0 0 0-.84-.138v-.04c.696 0 1.287-.178 1.772-.534.485-.356.728-.831.728-1.424zM194.097 26.39l-.182 1.088a64.23 64.23 0 0 0-.273 1.632c-.09.587-.174 1.144-.25 1.672a69.17 69.17 0 0 0-.25 1.84h-.045a69.184 69.184 0 0 0-.25-1.84 75.483 75.483 0 0 0-.261-1.672 89.848 89.848 0 0 1-.261-1.632l-.182-1.088zm4.932-4.946c.045-.198-.054-.297-.296-.297h-3.454c-.227 0-.364.099-.41.297l-.386 2.374-2.75-.12-.363-2.255c-.046-.198-.182-.297-.41-.297h-3.454c-.242 0-.341.1-.295.297l2.84 13.454c.03.119.084.198.16.238.076.04.174.059.295.059h5.227c.258 0 .409-.1.455-.297z" fill="#ff8000"/><path d="M44.386 34.809h1.893l2.724-10.445h.051L51.7 34.809h1.893l2.697-10.497h.052l2.62 10.497h1.893l-3.605-13.58h-1.893L52.66 31.729h-.05L49.935 21.23h-1.893zM64.408 40.083V32.98h.052a7.276 7.276 0 0 0 1.815 1.502 4.264 4.264 0 0 0 2.18.587c.5 0 .985-.069 1.451-.209a3.333 3.333 0 0 0 1.245-.679c.363-.313.653-.722.87-1.227.215-.505.323-1.123.323-1.854v-9.87h-1.867v9.818c0 .905-.199 1.532-.596 1.88-.399.348-.934.522-1.609.522-.346 0-.704-.065-1.076-.195a5.95 5.95 0 0 1-1.063-.497 8.234 8.234 0 0 1-.96-.665 7.142 7.142 0 0 1-.765-.706V21.23h-1.867v18.853zM83.42 29.273c0 1.253-.282 2.263-.844 3.029s-1.353 1.149-2.373 1.149c-1.14 0-2.01-.383-2.607-1.15-.596-.765-.938-1.775-1.024-3.028zm2.281-5.144a12.809 12.809 0 0 0-.752-1.136 4.943 4.943 0 0 0-1.024-1.018 5 5 0 0 0-1.44-.732c-.553-.183-1.21-.274-1.97-.274-.762 0-1.492.135-2.192.405a5.046 5.046 0 0 0-1.868 1.267c-.544.574-.98 1.305-1.31 2.193-.328.888-.492 1.949-.492 3.186 0 1.096.13 2.08.39 2.95.258.87.63 1.61 1.114 2.22a4.891 4.891 0 0 0 1.738 1.397c.674.322 1.426.483 2.256.483.691 0 1.35-.117 1.971-.352a4.32 4.32 0 0 0 1.634-1.097c.467-.496.84-1.136 1.115-1.92.277-.783.415-1.714.415-2.794v-1.253H76.52c0-.75.104-1.432.311-2.05a5.016 5.016 0 0 1 .856-1.593 4.047 4.047 0 0 1 1.271-1.044 3.31 3.31 0 0 1 1.556-.38c.83 0 1.56.206 2.192.615.631.409 1.145.97 1.543 1.684zM87.362 34.809h1.868v-2.69h.05c.26.47.529.884.805 1.24.277.357.588.658.934.902.345.243.734.43 1.166.56.433.132.926.197 1.479.197v-1.88c-1.176-.035-2.097-.423-2.763-1.162-.664-.74-1.222-1.815-1.671-3.225V21.23H87.36zM102.949 29.273c0 1.253-.281 2.263-.843 3.029-.562.766-1.353 1.149-2.373 1.149-1.141 0-2.01-.383-2.606-1.15-.597-.765-.938-1.775-1.025-3.028zm2.282-5.144a12.795 12.795 0 0 0-.751-1.136 4.948 4.948 0 0 0-1.025-1.018 4.974 4.974 0 0 0-1.44-.732c-.553-.183-1.21-.274-1.971-.274-.761 0-1.491.135-2.191.405a5.034 5.034 0 0 0-1.867 1.267c-.545.574-.982 1.305-1.31 2.193-.33.888-.493 1.949-.493 3.186 0 1.096.13 2.08.389 2.95.259.87.63 1.61 1.115 2.22a4.9 4.9 0 0 0 1.738 1.397c.674.322 1.426.483 2.256.483a5.53 5.53 0 0 0 1.97-.352 4.32 4.32 0 0 0 1.635-1.097c.467-.496.839-1.136 1.116-1.92.276-.783.414-1.714.414-2.794v-1.253H96.05c0-.75.104-1.432.31-2.05a5.016 5.016 0 0 1 .857-1.593 4.047 4.047 0 0 1 1.27-1.044 3.31 3.31 0 0 1 1.557-.38c.83 0 1.56.206 2.192.615.63.409 1.145.97 1.543 1.684z" fill="#6c6e7c"/></g></svg>