<svg id="Layer_1" xmlns="http://www.w3.org/2000/svg" width="94.204" height="94.204" viewBox="0 0 94.204 94.204"><style>.st0{fill:#a4a4a5}</style><path class="st0" d="M47.102 0C21.088 0 0 21.088 0 47.102s21.088 47.103 47.102 47.103 47.103-21.09 47.103-47.103S73.115 0 47.102 0zm.553 64.065a38.49 38.49 0 0 1-8.406-.917c-5.14 3.197-12.077 5.402-18.097 5.154 4.112-1.66 7.056-5.174 9.064-8.59-6.176-3.538-10.12-8.913-10.12-14.933 0-10.654 12.338-19.29 27.557-19.29 15.22 0 27.56 8.636 27.56 19.288 0 10.65-12.34 19.285-27.56 19.285z"/></svg>