<svg id="Layer_1" xmlns="http://www.w3.org/2000/svg" width="94.229" height="94.229" viewBox="0 0 94.229 94.229"><style>.st0{fill:#a4a4a5}</style><path class="st0" d="M92.216 33.534c-7.5-24.91-33.772-39.02-58.68-31.52s-39.023 33.77-31.523 58.68 33.773 39.02 58.682 31.52c24.908-7.498 39.02-33.77 31.52-58.68zm-35.758 13.58h-6.04v21.928h-9.075V47.114H36.82v-7.558h4.523v-4.55c0-3.23.763-5.674 2.29-7.333 1.524-1.658 4.035-2.488 7.53-2.488h6.04v7.56h-3.778c-.69 0-1.246.056-1.663.172-.417.115-.72.323-.905.625-.186.302-.307.607-.36.918s-.078.75-.078 1.317v3.78h6.838l-.8 7.557z"/></svg>