<svg id="Layer_1" xmlns="http://www.w3.org/2000/svg" width="132.285" height="132.285" viewBox="0 0 132.285 132.285"><style>.st0{fill:#a4a4a5}</style><path class="st0" d="M85.69 52.673H29.067v42.273H85.69V52.673zm-46.44 6.785a4.456 4.456 0 1 1 0 8.912 4.456 4.456 0 0 1 0-8.912zM31.576 91.04l14.42-16.822.163.43 8.703 9.06 12.68-14.418 14.49 21.75H31.578z"/><path class="st0" d="M66.143 0C29.613 0 0 29.613 0 66.143s29.613 66.143 66.143 66.143 66.142-29.613 66.142-66.143S102.672 0 66.143 0zM90.27 98.817H24.486V48.802H90.27v50.015zm8.85-7.777h-6.65v-3.87h2.07V44.894H37.917v1.774h-4.582V41.02H99.12v50.02zm8.68-7.557h-6.65v-3.87h2.068V37.338H46.595v1.773h-4.58v-5.645H107.8V83.48z"/></svg>