<svg id="Layer_1" xmlns="http://www.w3.org/2000/svg" width="94.229" height="94.229" viewBox="0 0 94.229 94.229"><style>.st0{fill:#a4a4a5}</style><path class="st0" d="M92.216 33.535c-7.5-24.91-33.772-39.022-58.68-31.522S-5.488 35.786 2.012 60.693c7.5 24.91 33.773 39.023 58.682 31.523 24.908-7.5 39.02-33.772 31.52-58.68zM49.943 57.523C46.03 62.56 38.8 64.037 32.92 62.063c-6.243-2.052-10.78-8.34-10.646-14.928-.31-8.143 6.823-15.666 14.972-15.765 4.154-.354 8.195 1.26 11.338 3.89-1.29 1.418-2.6 2.82-4.003 4.132-2.765-1.68-6.097-2.963-9.33-1.824-5.218 1.485-8.377 7.645-6.447 12.748 1.6 5.33 8.082 8.255 13.163 6.017 2.63-.942 4.365-3.37 5.127-5.98-3.016-.06-6.03-.02-9.047-.104a642.56 642.56 0 0 1-.008-5.378c5.028-.007 10.064-.022 15.1.023.312 4.395-.338 9.1-3.194 12.627zm22.02-8.14c-1.5.007-3.008.015-4.508.02-.015 1.51-.022 3.01-.03 4.517-1.5-.007-3 0-4.493 0-.015-1.508-.015-3.008-.03-4.508-1.5-.015-3.008-.022-4.508-.03V44.89c1.5-.01 3-.017 4.508-.03.008-1.5.022-3.01.038-4.51h4.485c.008 1.5.022 3.01.03 4.51 1.5.014 3.008.02 4.51.03v4.492z"/></svg>