<svg id="Layer_1" xmlns="http://www.w3.org/2000/svg" width="94.204" height="94.204" viewBox="0 0 94.204 94.204"><style>.st0{fill:#a4a4a5}</style><path class="st0" d="M47.102 0C21.088 0 0 21.088 0 47.102s21.088 47.103 47.102 47.103 47.103-21.09 47.103-47.103S73.115 0 47.102 0zm8.993 32.242c2.747 0 4.98 2.234 4.98 4.98s-2.233 4.98-4.98 4.98a4.984 4.984 0 0 1-4.98-4.98 4.985 4.985 0 0 1 4.98-4.98zm20.597 28.19a2.217 2.217 0 0 1-2.218 2.217H19.73a2.218 2.218 0 0 1-2.22-2.22V45.037c0-.68.314-1.324.85-1.744 5.304-4.16 11.565-9.072 14.358-11.265a2.217 2.217 0 0 1 2.86.102l19.834 18 11.486-10.31a2.217 2.217 0 0 1 3.07.103l6.092 6.246c.405.414.63.97.63 1.55v12.71z"/></svg>