<svg id="Layer_1" xmlns="http://www.w3.org/2000/svg" width="94.204" height="94.203" viewBox="0 0 94.204 94.203"><style>.st0{fill:#a4a4a5}</style><path class="st0" d="M58.976 47.102c0 6.53-5.344 11.874-11.874 11.874s-11.874-5.344-11.874-11.874c0-.594 0-1.386.198-1.98H31.27v16.823c0 .594.396.99.99.99h29.684c.594 0 .99-.397.99-.99V45.122h-4.156c.198.594.198 1.386.198 1.98zm2.968-15.832h-3.958c-.594 0-.99.396-.99.99v3.957c0 .594.397.99.99.99h3.958c.594 0 .99-.397.99-.99V32.26c0-.595-.396-.99-.99-.99z"/><path class="st0" d="M47.102 55.018c4.354 0 7.916-3.562 7.916-7.916s-3.562-7.916-7.916-7.916c-4.354 0-7.916 3.562-7.916 7.916s3.562 7.916 7.916 7.916z"/><path class="st0" d="M47.102 0C21.088 0 0 21.088 0 47.102s21.088 47.102 47.102 47.102 47.103-21.088 47.103-47.102S73.115 0 47.102 0zm19.79 62.934a3.97 3.97 0 0 1-3.958 3.958H31.27a3.97 3.97 0 0 1-3.958-3.958V31.27a3.97 3.97 0 0 1 3.958-3.958h31.664a3.97 3.97 0 0 1 3.958 3.958v31.664z"/></svg>