<svg id="Layer_1" xmlns="http://www.w3.org/2000/svg" width="94.204" height="94.203" viewBox="0 0 94.204 94.203"><style>.st0{fill:#a4a4a5}</style><path class="st0" d="M47.102 0C21.088 0 0 21.088 0 47.102s21.088 47.102 47.102 47.102c26.013 0 47.102-21.088 47.102-47.102S73.114 0 47.102 0zM25.508 29.107h43.188c.13 0 .233.06.36.072L46.792 51.444 24.63 29.282c.287-.072.57-.175.878-.175zm46.787 32.39a3.6 3.6 0 0 1-3.6 3.6H25.508c-1.99 0-3.6-1.61-3.6-3.6V32.704c0-.312.106-.59.177-.878L45.52 55.264a1.804 1.804 0 0 0 2.544 0l23.948-23.95c.182.425.283.897.283 1.39v28.793z"/></svg>