<svg id="Layer_1" xmlns="http://www.w3.org/2000/svg" width="94.204" height="94.204" viewBox="0 0 94.204 94.204"><style>.st0{fill:#a4a4a5}</style><circle class="st0" cx="50.87" cy="41.914" r="12.646"/><path class="st0" d="M47.102 0C21.088 0 0 21.088 0 47.102s21.088 47.103 47.102 47.103c26.014 0 47.102-21.09 47.102-47.103S73.116 0 47.102 0zm3.768 61.787c-3.633 0-7.038-.976-9.968-2.678L27.385 72.624a7.227 7.227 0 0 1-7.227-7.226l13.518-13.52a19.777 19.777 0 0 1-2.678-9.97c0-10.973 8.897-19.87 19.872-19.87 10.976 0 19.873 8.897 19.873 19.87 0 10.98-8.897 19.876-19.873 19.876z"/></svg>