<svg id="Layer_1" xmlns="http://www.w3.org/2000/svg" width="94.204" height="94.203" viewBox="0 0 94.204 94.203"><style>.st0{fill:#a4a4a5}</style><path class="st0" d="M47.102 0C21.088 0 0 21.088 0 47.102s21.088 47.102 47.102 47.102 47.102-21.088 47.102-47.102S73.116 0 47.102 0zm17.066 38.35c.02.255.027.636.027 1.146 0 2.363-.345 4.72-1.036 7.075-.69 2.356-1.74 4.613-3.15 6.776-1.41 2.163-3.085 4.076-5.03 5.74s-4.29 2.99-7.034 3.98c-2.744.99-5.68 1.484-8.806 1.484-4.925 0-9.433-1.318-13.522-3.954.636.073 1.345.11 2.126.11 4.09 0 7.734-1.255 10.933-3.763-1.908-.037-3.617-.623-5.126-1.76-1.506-1.136-2.542-2.585-3.105-4.348.6.09 1.154.136 1.663.136.78 0 1.554-.1 2.317-.3-2.036-.416-3.722-1.43-5.058-3.04-1.336-1.606-2.004-3.474-2.004-5.6v-.11a8.736 8.736 0 0 0 3.98 1.12 8.81 8.81 0 0 1-2.863-3.14 8.58 8.58 0 0 1-1.064-4.2c0-1.6.4-3.08 1.2-4.443 2.2 2.708 4.876 4.875 8.03 6.502s6.53 2.53 10.128 2.712a9.735 9.735 0 0 1-.218-2.018c0-2.436.86-4.512 2.577-6.23s3.794-2.575 6.23-2.575c2.544 0 4.688.926 6.434 2.78a17.3 17.3 0 0 0 5.59-2.127c-.673 2.09-1.964 3.708-3.872 4.854 1.69-.183 3.38-.637 5.07-1.364a18.406 18.406 0 0 1-4.417 4.554z"/></svg>