<svg id="Layer_1" xmlns="http://www.w3.org/2000/svg" width="94.203" height="94.204" viewBox="0 0 94.203 94.204"><style>.st0{fill:#a4a4a5}</style><path class="st0" d="M47.55 26.258c-11.23 0-20.366 9.065-20.366 20.21 0 4.42 1.44 8.516 3.88 11.847L28.52 65.82l7.826-2.488a20.355 20.355 0 0 0 11.205 3.343c11.23 0 20.367-9.064 20.367-20.207 0-11.144-9.136-20.21-20.366-20.21zm11.887 28.547c-.497 1.375-2.92 2.702-4.01 2.8-1.088.1-1.088.886-7.125-1.473-6.036-2.36-9.847-8.502-10.143-8.895-.3-.393-2.426-3.193-2.426-6.093 0-2.898 1.533-4.324 2.077-4.914.546-.59 1.19-.737 1.585-.737.396 0 .792.05 1.14.05.346 0 .84-.196 1.334.982.494 1.18 1.682 4.08 1.83 4.373.15.296.25.64.05 1.033-.198.396-.296.64-.594.984-.296.344-.624.768-.89 1.032-.297.293-.607.61-.26 1.2.346.592 1.538 2.52 3.302 4.08 2.268 2.007 4.18 2.63 4.773 2.924.596.295.94.245 1.288-.15.347-.392 1.485-1.718 1.88-2.308.396-.59.793-.49 1.337-.295.543.196 3.463 1.622 4.058 1.916.593.295.988.442 1.138.688.148.25.148 1.43-.345 2.806z"/><path class="st0" d="M47.102 0C21.088 0 0 21.088 0 47.102s21.088 47.103 47.102 47.103 47.102-21.09 47.102-47.103S73.114 0 47.102 0zm.448 70.503a24.267 24.267 0 0 1-11.71-2.99l-13.41 4.26 4.372-12.895a23.78 23.78 0 0 1-3.476-12.41c0-13.276 10.845-24.038 24.224-24.038 13.38 0 24.224 10.762 24.224 24.037S60.93 70.503 47.55 70.503z"/></svg>